%TF.GenerationSoftware,KiCad,Pcbnew,9.0.8*%
%TF.CreationDate,2026-04-16T23:26:07+02:00*%
%TF.ProjectId,project,70726f6a-6563-4742-9e6b-696361645f70,rev?*%
%TF.SameCoordinates,Original*%
%TF.FileFunction,Copper,L1,Top*%
%TF.FilePolarity,Positive*%
%FSLAX46Y46*%
G04 Gerber Fmt 4.6, Leading zero omitted, Abs format (unit mm)*
G04 Created by KiCad (PCBNEW 9.0.8) date 2026-04-16 23:26:07*
%MOMM*%
%LPD*%
G01*
G04 APERTURE LIST*
G04 Aperture macros list*
%AMRoundRect*
0 Rectangle with rounded corners*
0 $1 Rounding radius*
0 $2 $3 $4 $5 $6 $7 $8 $9 X,Y pos of 4 corners*
0 Add a 4 corners polygon primitive as box body*
4,1,4,$2,$3,$4,$5,$6,$7,$8,$9,$2,$3,0*
0 Add four circle primitives for the rounded corners*
1,1,$1+$1,$2,$3*
1,1,$1+$1,$4,$5*
1,1,$1+$1,$6,$7*
1,1,$1+$1,$8,$9*
0 Add four rect primitives between the rounded corners*
20,1,$1+$1,$2,$3,$4,$5,0*
20,1,$1+$1,$4,$5,$6,$7,0*
20,1,$1+$1,$6,$7,$8,$9,0*
20,1,$1+$1,$8,$9,$2,$3,0*%
G04 Aperture macros list end*
%TA.AperFunction,SMDPad,CuDef*%
%ADD10RoundRect,0.218750X-0.381250X0.218750X-0.381250X-0.218750X0.381250X-0.218750X0.381250X0.218750X0*%
%TD*%
%TA.AperFunction,ComponentPad*%
%ADD11R,2.030000X1.730000*%
%TD*%
%TA.AperFunction,ComponentPad*%
%ADD12O,2.030000X1.730000*%
%TD*%
%TA.AperFunction,SMDPad,CuDef*%
%ADD13RoundRect,0.250000X-0.262500X-0.450000X0.262500X-0.450000X0.262500X0.450000X-0.262500X0.450000X0*%
%TD*%
%TA.AperFunction,SMDPad,CuDef*%
%ADD14RoundRect,0.150000X0.150000X0.425000X-0.150000X0.425000X-0.150000X-0.425000X0.150000X-0.425000X0*%
%TD*%
%TA.AperFunction,SMDPad,CuDef*%
%ADD15RoundRect,0.075000X0.075000X0.500000X-0.075000X0.500000X-0.075000X-0.500000X0.075000X-0.500000X0*%
%TD*%
%TA.AperFunction,HeatsinkPad*%
%ADD16O,1.000000X2.100000*%
%TD*%
%TA.AperFunction,HeatsinkPad*%
%ADD17O,1.000000X1.800000*%
%TD*%
%TA.AperFunction,SMDPad,CuDef*%
%ADD18RoundRect,0.250000X-0.450000X0.262500X-0.450000X-0.262500X0.450000X-0.262500X0.450000X0.262500X0*%
%TD*%
%TA.AperFunction,SMDPad,CuDef*%
%ADD19RoundRect,0.250000X0.250000X0.475000X-0.250000X0.475000X-0.250000X-0.475000X0.250000X-0.475000X0*%
%TD*%
%TA.AperFunction,SMDPad,CuDef*%
%ADD20RoundRect,0.250000X0.262500X0.450000X-0.262500X0.450000X-0.262500X-0.450000X0.262500X-0.450000X0*%
%TD*%
%TA.AperFunction,SMDPad,CuDef*%
%ADD21RoundRect,0.225000X-0.250000X0.225000X-0.250000X-0.225000X0.250000X-0.225000X0.250000X0.225000X0*%
%TD*%
%TA.AperFunction,ComponentPad*%
%ADD22RoundRect,0.760000X-1.140000X1.140000X-1.140000X-1.140000X1.140000X-1.140000X1.140000X1.140000X0*%
%TD*%
%TA.AperFunction,ComponentPad*%
%ADD23C,4.000000*%
%TD*%
%TA.AperFunction,ComponentPad*%
%ADD24R,1.730000X2.030000*%
%TD*%
%TA.AperFunction,ComponentPad*%
%ADD25O,1.730000X2.030000*%
%TD*%
%TA.AperFunction,SMDPad,CuDef*%
%ADD26R,0.850000X0.850000*%
%TD*%
%TA.AperFunction,ComponentPad*%
%ADD27R,2.159000X2.159000*%
%TD*%
%TA.AperFunction,ComponentPad*%
%ADD28C,2.159000*%
%TD*%
%TA.AperFunction,SMDPad,CuDef*%
%ADD29RoundRect,0.250000X0.450000X-0.262500X0.450000X0.262500X-0.450000X0.262500X-0.450000X-0.262500X0*%
%TD*%
%TA.AperFunction,SMDPad,CuDef*%
%ADD30RoundRect,0.250000X-0.475000X0.250000X-0.475000X-0.250000X0.475000X-0.250000X0.475000X0.250000X0*%
%TD*%
%TA.AperFunction,SMDPad,CuDef*%
%ADD31RoundRect,0.225000X0.225000X0.250000X-0.225000X0.250000X-0.225000X-0.250000X0.225000X-0.250000X0*%
%TD*%
%TA.AperFunction,SMDPad,CuDef*%
%ADD32RoundRect,0.250000X-0.250000X-0.475000X0.250000X-0.475000X0.250000X0.475000X-0.250000X0.475000X0*%
%TD*%
%TA.AperFunction,SMDPad,CuDef*%
%ADD33R,1.500000X0.900000*%
%TD*%
%TA.AperFunction,HeatsinkPad*%
%ADD34C,0.600000*%
%TD*%
%TA.AperFunction,HeatsinkPad*%
%ADD35R,2.900000X2.900000*%
%TD*%
%TA.AperFunction,SMDPad,CuDef*%
%ADD36RoundRect,0.250000X0.475000X-0.250000X0.475000X0.250000X-0.475000X0.250000X-0.475000X-0.250000X0*%
%TD*%
%TA.AperFunction,ComponentPad*%
%ADD37RoundRect,0.760000X-1.140000X-1.140000X1.140000X-1.140000X1.140000X1.140000X-1.140000X1.140000X0*%
%TD*%
%TA.AperFunction,SMDPad,CuDef*%
%ADD38R,1.651000X0.431800*%
%TD*%
%TA.AperFunction,ComponentPad*%
%ADD39RoundRect,0.250000X0.980000X1.150000X-0.980000X1.150000X-0.980000X-1.150000X0.980000X-1.150000X0*%
%TD*%
%TA.AperFunction,SMDPad,CuDef*%
%ADD40RoundRect,0.225000X0.250000X-0.225000X0.250000X0.225000X-0.250000X0.225000X-0.250000X-0.225000X0*%
%TD*%
%TA.AperFunction,SMDPad,CuDef*%
%ADD41R,0.800000X0.900000*%
%TD*%
%TA.AperFunction,SMDPad,CuDef*%
%ADD42R,2.209800X2.794000*%
%TD*%
%TA.AperFunction,SMDPad,CuDef*%
%ADD43R,2.794000X2.794000*%
%TD*%
%TA.AperFunction,ComponentPad*%
%ADD44C,2.209800*%
%TD*%
%TA.AperFunction,SMDPad,CuDef*%
%ADD45RoundRect,0.250000X0.625000X-0.375000X0.625000X0.375000X-0.625000X0.375000X-0.625000X-0.375000X0*%
%TD*%
%TA.AperFunction,SMDPad,CuDef*%
%ADD46R,0.529806X1.205235*%
%TD*%
%TA.AperFunction,SMDPad,CuDef*%
%ADD47RoundRect,0.225000X-0.225000X-0.250000X0.225000X-0.250000X0.225000X0.250000X-0.225000X0.250000X0*%
%TD*%
%TA.AperFunction,SMDPad,CuDef*%
%ADD48R,2.800000X2.400000*%
%TD*%
%TA.AperFunction,SMDPad,CuDef*%
%ADD49RoundRect,0.250000X0.375000X0.625000X-0.375000X0.625000X-0.375000X-0.625000X0.375000X-0.625000X0*%
%TD*%
%TA.AperFunction,ComponentPad*%
%ADD50RoundRect,0.250000X-1.150000X0.980000X-1.150000X-0.980000X1.150000X-0.980000X1.150000X0.980000X0*%
%TD*%
%TA.AperFunction,ComponentPad*%
%ADD51RoundRect,0.760000X1.140000X-1.140000X1.140000X1.140000X-1.140000X1.140000X-1.140000X-1.140000X0*%
%TD*%
%TA.AperFunction,SMDPad,CuDef*%
%ADD52R,0.900000X0.800000*%
%TD*%
%TA.AperFunction,ViaPad*%
%ADD53C,0.700000*%
%TD*%
%TA.AperFunction,ViaPad*%
%ADD54C,0.800000*%
%TD*%
%TA.AperFunction,Conductor*%
%ADD55C,0.300000*%
%TD*%
%TA.AperFunction,Conductor*%
%ADD56C,0.500000*%
%TD*%
%TA.AperFunction,Conductor*%
%ADD57C,0.200000*%
%TD*%
G04 APERTURE END LIST*
D10*
%TO.P,L2,1,1*%
%TO.N,Net-(U4-SW)*%
X117500000Y-117937500D03*
%TO.P,L2,2,2*%
%TO.N,+5V*%
X117500000Y-120062500D03*
%TD*%
D11*
%TO.P,J9,1,Pin_1*%
%TO.N,GND*%
X63625000Y-147060000D03*
D12*
%TO.P,J9,2,Pin_2*%
%TO.N,Net-(J9-Pin_2)*%
X63625000Y-144520000D03*
%TO.P,J9,3,Pin_3*%
%TO.N,+3V3*%
X63625000Y-141980000D03*
%TD*%
D13*
%TO.P,R28,1*%
%TO.N,Net-(D2-A)*%
X68687500Y-132300000D03*
%TO.P,R28,2*%
%TO.N,GND*%
X70512500Y-132300000D03*
%TD*%
D14*
%TO.P,J8,A1,GND*%
%TO.N,GND*%
X97480000Y-107155000D03*
%TO.P,J8,A4,VBUS*%
%TO.N,VBUS*%
X96680000Y-107155000D03*
D15*
%TO.P,J8,A5,CC1*%
%TO.N,Net-(J8-CC1)*%
X95530000Y-107155000D03*
%TO.P,J8,A6,D+*%
%TO.N,D+*%
X94530000Y-107155000D03*
%TO.P,J8,A7,D-*%
%TO.N,D-*%
X94030000Y-107155000D03*
%TO.P,J8,A8,SBU1*%
%TO.N,unconnected-(J8-SBU1-PadA8)*%
X93030000Y-107155000D03*
D14*
%TO.P,J8,A9,VBUS*%
%TO.N,VBUS*%
X91880000Y-107155000D03*
%TO.P,J8,A12,GND*%
%TO.N,GND*%
X91080000Y-107155000D03*
%TO.P,J8,B1,GND*%
X91080000Y-107155000D03*
%TO.P,J8,B4,VBUS*%
%TO.N,VBUS*%
X91880000Y-107155000D03*
D15*
%TO.P,J8,B5,CC2*%
%TO.N,Net-(J8-CC2)*%
X92530000Y-107155000D03*
%TO.P,J8,B6,D+*%
%TO.N,D+*%
X93530000Y-107155000D03*
%TO.P,J8,B7,D-*%
%TO.N,D-*%
X95030000Y-107155000D03*
%TO.P,J8,B8,SBU2*%
%TO.N,unconnected-(J8-SBU2-PadB8)*%
X96030000Y-107155000D03*
D14*
%TO.P,J8,B9,VBUS*%
%TO.N,VBUS*%
X96680000Y-107155000D03*
%TO.P,J8,B12,GND*%
%TO.N,GND*%
X97480000Y-107155000D03*
D16*
%TO.P,J8,S1,SHIELD*%
X98600000Y-106580000D03*
D17*
X98600000Y-102400000D03*
D16*
X89960000Y-106580000D03*
D17*
X89960000Y-102400000D03*
%TD*%
D11*
%TO.P,J20,1,Pin_1*%
%TO.N,GND*%
X83500000Y-112400000D03*
D12*
%TO.P,J20,2,Pin_2*%
X83500000Y-114940000D03*
%TO.P,J20,3,Pin_3*%
X83500000Y-117480000D03*
%TO.P,J20,4,Pin_4*%
X83500000Y-120020000D03*
%TD*%
D18*
%TO.P,R1,1*%
%TO.N,Net-(J8-CC1)*%
X84600000Y-105887500D03*
%TO.P,R1,2*%
%TO.N,GND*%
X84600000Y-107712500D03*
%TD*%
D19*
%TO.P,C18,1*%
%TO.N,GND*%
X86979800Y-133700000D03*
%TO.P,C18,2*%
%TO.N,Net-(U3-VREF)*%
X85079800Y-133700000D03*
%TD*%
D18*
%TO.P,R21,1,1*%
%TO.N,/ID_N*%
X120800000Y-134087500D03*
%TO.P,R21,2,2*%
%TO.N,/ID_P*%
X120800000Y-135912500D03*
%TD*%
D20*
%TO.P,R12,1,1*%
%TO.N,Net-(R12-Pad1)*%
X121012500Y-104600000D03*
%TO.P,R12,2,2*%
%TO.N,/VP*%
X119187500Y-104600000D03*
%TD*%
D21*
%TO.P,C1,1*%
%TO.N,+3V3*%
X55600000Y-100950000D03*
%TO.P,C1,2*%
%TO.N,GND*%
X55600000Y-102500000D03*
%TD*%
D20*
%TO.P,R7,1,1*%
%TO.N,Net-(J18-Pin_1)*%
X71112500Y-146500000D03*
%TO.P,R7,2,2*%
%TO.N,+3V3*%
X69287500Y-146500000D03*
%TD*%
D22*
%TO.P,J2,1,Pin_1*%
%TO.N,/I2N*%
X110200000Y-144100000D03*
D23*
%TO.P,J2,2,Pin_2*%
%TO.N,/I2P*%
X110200000Y-149100000D03*
%TD*%
D24*
%TO.P,J13,1,Pin_1*%
%TO.N,VBUS*%
X98320000Y-119000000D03*
D25*
%TO.P,J13,2,Pin_2*%
%TO.N,Net-(J13-Pin_2)*%
X100860000Y-119000000D03*
%TO.P,J13,3,Pin_3*%
%TO.N,+5V*%
X103400000Y-119000000D03*
%TD*%
D18*
%TO.P,R10,1*%
%TO.N,Net-(J8-CC2)*%
X86600000Y-105887500D03*
%TO.P,R10,2*%
%TO.N,GND*%
X86600000Y-107712500D03*
%TD*%
D26*
%TO.P,VR1,1,GND*%
%TO.N,GND*%
X100110000Y-128775000D03*
%TO.P,VR1,2,VOUT*%
%TO.N,+3V3*%
X102010000Y-128775000D03*
%TO.P,VR1,3,VIN*%
%TO.N,Net-(J13-Pin_2)*%
X101060000Y-126425000D03*
%TD*%
D20*
%TO.P,R20,1,1*%
%TO.N,GND*%
X120925000Y-113000000D03*
%TO.P,R20,2,2*%
%TO.N,/VN*%
X119100000Y-113000000D03*
%TD*%
D21*
%TO.P,C26,1*%
%TO.N,EN*%
X56400000Y-105200000D03*
%TO.P,C26,2*%
%TO.N,GND*%
X56400000Y-106750000D03*
%TD*%
%TO.P,C17,1*%
%TO.N,/I1N*%
X115400000Y-132825000D03*
%TO.P,C17,2*%
%TO.N,GND*%
X115400000Y-134375000D03*
%TD*%
D27*
%TO.P,U2,1,A1*%
%TO.N,VDD_P*%
X140322899Y-122387300D03*
D28*
%TO.P,U2,2,K*%
%TO.N,Net-(J17-Pin_1)*%
X134872900Y-122387300D03*
%TO.P,U2,3,A2*%
%TO.N,VDD_P*%
X129422901Y-122387300D03*
%TD*%
D29*
%TO.P,R11,1,1*%
%TO.N,/I2N*%
X118600000Y-146225000D03*
%TO.P,R11,2,2*%
%TO.N,/ID_N*%
X118600000Y-144400000D03*
%TD*%
D19*
%TO.P,C3,1*%
%TO.N,GND*%
X86979800Y-131500000D03*
%TO.P,C3,2*%
%TO.N,Net-(U3-VREF)*%
X85079800Y-131500000D03*
%TD*%
D30*
%TO.P,C22,1*%
%TO.N,+3V3*%
X85339800Y-144600000D03*
%TO.P,C22,2*%
%TO.N,GND*%
X85339800Y-146500000D03*
%TD*%
D18*
%TO.P,R16,1*%
%TO.N,IRQ*%
X51800000Y-110087500D03*
%TO.P,R16,2*%
%TO.N,+3V3*%
X51800000Y-111912500D03*
%TD*%
D31*
%TO.P,C9,1*%
%TO.N,GND*%
X80000000Y-104500000D03*
%TO.P,C9,2*%
%TO.N,/RCC_OUT*%
X78450000Y-104500000D03*
%TD*%
D20*
%TO.P,R9,1*%
%TO.N,Net-(D3-A)*%
X107172500Y-123800000D03*
%TO.P,R9,2*%
%TO.N,GND*%
X105347500Y-123800000D03*
%TD*%
D30*
%TO.P,C4,1*%
%TO.N,GND*%
X87619800Y-141100000D03*
%TO.P,C4,2*%
%TO.N,+3.3VA*%
X87619800Y-143000000D03*
%TD*%
D24*
%TO.P,J5,1,Pin_1*%
%TO.N,SPICS*%
X65600000Y-135400000D03*
D25*
%TO.P,J5,2,Pin_2*%
%TO.N,SPICLK*%
X63060000Y-135400000D03*
%TO.P,J5,3,Pin_3*%
%TO.N,SPIQ*%
X60520000Y-135400000D03*
%TO.P,J5,4,Pin_4*%
%TO.N,SPID*%
X57980000Y-135400000D03*
%TD*%
D30*
%TO.P,C16-2,1*%
%TO.N,/I2N*%
X116000000Y-144300000D03*
%TO.P,C16-2,2*%
%TO.N,GND*%
X116000000Y-146200000D03*
%TD*%
D32*
%TO.P,C11,1*%
%TO.N,Net-(J13-Pin_2)*%
X100910000Y-124200000D03*
%TO.P,C11,2*%
%TO.N,GND*%
X102810000Y-124200000D03*
%TD*%
D13*
%TO.P,R17,1*%
%TO.N,UART_TX*%
X71887500Y-121400000D03*
%TO.P,R17,2*%
%TO.N,+3V3*%
X73712500Y-121400000D03*
%TD*%
D29*
%TO.P,R22,1,1*%
%TO.N,GND*%
X122000000Y-149912500D03*
%TO.P,R22,2,2*%
%TO.N,/ID_P*%
X122000000Y-148087500D03*
%TD*%
D11*
%TO.P,J10,1,Pin_1*%
%TO.N,+3V3*%
X56400000Y-141960000D03*
D12*
%TO.P,J10,2,Pin_2*%
%TO.N,Net-(J10-Pin_2)*%
X56400000Y-144500000D03*
%TO.P,J10,3,Pin_3*%
%TO.N,GND*%
X56400000Y-147040000D03*
%TD*%
D33*
%TO.P,U1,1,3V3*%
%TO.N,+3V3*%
X58230000Y-99400000D03*
%TO.P,U1,2,EN*%
%TO.N,EN*%
X58230000Y-100900000D03*
%TO.P,U1,3,IO4*%
%TO.N,unconnected-(U1-IO4-Pad3)*%
X58230000Y-102400000D03*
%TO.P,U1,4,IO5*%
%TO.N,unconnected-(U1-IO5-Pad4)*%
X58230000Y-103900000D03*
%TO.P,U1,5,IO6*%
%TO.N,SPICLK*%
X58230000Y-105400000D03*
%TO.P,U1,6,IO7*%
%TO.N,SPID*%
X58230000Y-106900000D03*
%TO.P,U1,7,IO8*%
%TO.N,IRQ*%
X58230000Y-108400000D03*
%TO.P,U1,8,IO9*%
%TO.N,BOOT*%
X58230000Y-109900000D03*
%TO.P,U1,9,GND*%
%TO.N,GND*%
X58230000Y-111400000D03*
%TO.P,U1,10,IO10*%
%TO.N,SPICS*%
X75730000Y-111400000D03*
%TO.P,U1,11,IO20/RXD*%
%TO.N,UART_RX*%
X75730000Y-109900000D03*
%TO.P,U1,12,IO21/TXD*%
%TO.N,UART_TX*%
X75730000Y-108400000D03*
%TO.P,U1,13,IO18*%
%TO.N,D-*%
X75730000Y-106900000D03*
%TO.P,U1,14,IO19*%
%TO.N,D+*%
X75730000Y-105400000D03*
%TO.P,U1,15,IO3*%
%TO.N,unconnected-(U1-IO3-Pad15)*%
X75730000Y-103900000D03*
%TO.P,U1,16,IO2*%
%TO.N,SPIQ*%
X75730000Y-102400000D03*
%TO.P,U1,17,IO1*%
%TO.N,/RCC_OUT*%
X75730000Y-100900000D03*
%TO.P,U1,18,IO0*%
%TO.N,/RCC_IN*%
X75730000Y-99400000D03*
D34*
%TO.P,U1,19,GND*%
%TO.N,GND*%
X66840000Y-105050000D03*
X66840000Y-106150000D03*
X67390000Y-104500000D03*
X67390000Y-105600000D03*
X67390000Y-106700000D03*
X67940000Y-105050000D03*
D35*
X67940000Y-105600000D03*
D34*
X67940000Y-106150000D03*
X68490000Y-104500000D03*
X68490000Y-105600000D03*
X68490000Y-106700000D03*
X69040000Y-105050000D03*
X69040000Y-106150000D03*
%TD*%
D18*
%TO.P,R3,1*%
%TO.N,BOOT*%
X55840000Y-110287500D03*
%TO.P,R3,2*%
%TO.N,Net-(J12-Pin_1)*%
X55840000Y-112112500D03*
%TD*%
D36*
%TO.P,C6,1*%
%TO.N,Net-(J17-Pin_1)*%
X125000000Y-119450000D03*
%TO.P,C6,2*%
%TO.N,GND*%
X125000000Y-117550000D03*
%TD*%
D20*
%TO.P,R24,1*%
%TO.N,Net-(U4-FB)*%
X122912500Y-125000000D03*
%TO.P,R24,2*%
%TO.N,GND*%
X121087500Y-125000000D03*
%TD*%
D30*
%TO.P,C15,1*%
%TO.N,GND*%
X116000000Y-148100000D03*
%TO.P,C15,2*%
%TO.N,/I2P*%
X116000000Y-150000000D03*
%TD*%
D37*
%TO.P,J18,1,Pin_1*%
%TO.N,Net-(J18-Pin_1)*%
X75500000Y-146500000D03*
D23*
%TO.P,J18,2,Pin_2*%
%TO.N,/RST*%
X80500000Y-146500000D03*
%TD*%
D38*
%TO.P,U3,1,MMD1*%
%TO.N,Net-(J9-Pin_2)*%
X82959600Y-141792600D03*
%TO.P,U3,2,DGND*%
%TO.N,GND*%
X82959600Y-141132200D03*
%TO.P,U3,3,DVDD*%
%TO.N,+3V3*%
X82959600Y-140471800D03*
%TO.P,U3,4,RESETB*%
%TO.N,/RST*%
X82959600Y-139811400D03*
%TO.P,U3,5,AVDD*%
%TO.N,+3.3VA*%
X82959600Y-139151000D03*
%TO.P,U3,6,AGND*%
%TO.N,GND*%
X82959600Y-138490600D03*
%TO.P,U3,7,I2P*%
%TO.N,/I2P*%
X82959600Y-137830200D03*
%TO.P,U3,8,I2N*%
%TO.N,/I2N*%
X82959600Y-137169800D03*
%TO.P,U3,9,ICTEST*%
%TO.N,GND*%
X82959600Y-136509400D03*
%TO.P,U3,10,I1P*%
%TO.N,/I1P*%
X82959600Y-135849000D03*
%TO.P,U3,11,I1N*%
%TO.N,/I1N*%
X82959600Y-135188600D03*
%TO.P,U3,12,USEL*%
%TO.N,GND*%
X82959600Y-134528200D03*
%TO.P,U3,13,VREF*%
%TO.N,Net-(U3-VREF)*%
X82959600Y-133867800D03*
%TO.P,U3,14,AGND*%
%TO.N,GND*%
X82959600Y-133207400D03*
%TO.P,U3,15,VN*%
%TO.N,/VN*%
X76000000Y-133207400D03*
%TO.P,U3,16,VP*%
%TO.N,/VP*%
X76000000Y-133867800D03*
%TO.P,U3,17,WARNOUT*%
%TO.N,/WarnOut*%
X76000000Y-134528200D03*
%TO.P,U3,18,CF1*%
%TO.N,/CF1*%
X76000000Y-135188600D03*
%TO.P,U3,19,GPIO*%
%TO.N,/CF2*%
X76000000Y-135849000D03*
%TO.P,U3,20,IRQ*%
%TO.N,IRQ*%
X76000000Y-136509400D03*
%TO.P,U3,21,ZX*%
%TO.N,/ZX*%
X76000000Y-137169800D03*
%TO.P,U3,22,OSCI*%
%TO.N,Net-(U3-OSCI)*%
X76000000Y-137830200D03*
%TO.P,U3,23,OSCO*%
%TO.N,Net-(U3-OSCO)*%
X76000000Y-138490600D03*
%TO.P,U3,24,CSB*%
%TO.N,SPICS*%
X76000000Y-139151000D03*
%TO.P,U3,25,SCLK*%
%TO.N,SPICLK*%
X76000000Y-139811400D03*
%TO.P,U3,26,SDO/UTX*%
%TO.N,SPIQ*%
X76000000Y-140471800D03*
%TO.P,U3,27,SDI/URX*%
%TO.N,SPID*%
X76000000Y-141132200D03*
%TO.P,U3,28,MMD0*%
%TO.N,Net-(J10-Pin_2)*%
X76000000Y-141792600D03*
%TD*%
D11*
%TO.P,J19,1,Pin_1*%
%TO.N,GND*%
X92200000Y-112460000D03*
D12*
%TO.P,J19,2,Pin_2*%
X92200000Y-115000000D03*
%TO.P,J19,3,Pin_3*%
X92200000Y-117540000D03*
%TO.P,J19,4,Pin_4*%
X92200000Y-120080000D03*
%TD*%
D39*
%TO.P,J14,1,Pin_1*%
%TO.N,+3V3*%
X93570000Y-127700000D03*
%TD*%
D40*
%TO.P,C23,1*%
%TO.N,GND*%
X87139800Y-146150000D03*
%TO.P,C23,2*%
%TO.N,+3V3*%
X87139800Y-144600000D03*
%TD*%
D41*
%TO.P,X1,1*%
%TO.N,Net-(U3-OSCO)*%
X72525000Y-138825000D03*
%TO.P,X1,2*%
%TO.N,Net-(U3-OSCI)*%
X72525000Y-136975000D03*
%TO.P,X1,3,3*%
%TO.N,unconnected-(X1-Pad3)*%
X71075000Y-136975000D03*
%TO.P,X1,4,4*%
%TO.N,unconnected-(X1-Pad4)*%
X71075000Y-138825000D03*
%TD*%
D42*
%TO.P,J7,1,1*%
%TO.N,GND*%
X137851700Y-136900000D03*
D43*
%TO.P,J7,2,2*%
%TO.N,/ID_P*%
X128451701Y-136900000D03*
D42*
%TO.P,J7,3,3*%
%TO.N,/ID_N*%
X135851658Y-144300018D03*
D44*
%TO.P,J7,4,4*%
%TO.N,unconnected-(J7-Pad4)*%
X136751699Y-140600000D03*
%TO.P,J7,5,5*%
%TO.N,unconnected-(J7-Pad5)*%
X129751701Y-140600000D03*
%TD*%
D18*
%TO.P,R8,1,1*%
%TO.N,/I2P*%
X118600000Y-148087500D03*
%TO.P,R8,2,2*%
%TO.N,/ID_P*%
X118600000Y-149912500D03*
%TD*%
D20*
%TO.P,R14,1,1*%
%TO.N,Net-(R12-Pad1)*%
X121012500Y-106600000D03*
%TO.P,R14,2,2*%
%TO.N,Net-(R13-Pad2)*%
X119187500Y-106600000D03*
%TD*%
D21*
%TO.P,C24,1*%
%TO.N,GND*%
X89479800Y-141450000D03*
%TO.P,C24,2*%
%TO.N,+3.3VA*%
X89479800Y-143000000D03*
%TD*%
D22*
%TO.P,J1,1,Pin_1*%
%TO.N,/I1N*%
X110000000Y-132600000D03*
D23*
%TO.P,J1,2,Pin_2*%
%TO.N,/I1P*%
X110000000Y-137600000D03*
%TD*%
D30*
%TO.P,C16,1*%
%TO.N,EN*%
X53400000Y-105300000D03*
%TO.P,C16,2*%
%TO.N,GND*%
X53400000Y-107200000D03*
%TD*%
D29*
%TO.P,R6,1,1*%
%TO.N,/I1N*%
X117600000Y-134112500D03*
%TO.P,R6,2,2*%
%TO.N,/ID_N*%
X117600000Y-132287500D03*
%TD*%
D45*
%TO.P,D3,1,K*%
%TO.N,+3V3*%
X106660000Y-128800000D03*
%TO.P,D3,2,A*%
%TO.N,Net-(D3-A)*%
X106660000Y-126000000D03*
%TD*%
D46*
%TO.P,U4,1,CB*%
%TO.N,Net-(U4-CB)*%
X119549999Y-119550483D03*
%TO.P,U4,2,GND*%
%TO.N,GND*%
X120500000Y-119550483D03*
%TO.P,U4,3,FB*%
%TO.N,Net-(U4-FB)*%
X121450001Y-119550483D03*
%TO.P,U4,4,EN*%
%TO.N,Net-(J17-Pin_1)*%
X121450001Y-117449517D03*
%TO.P,U4,5,VIN*%
X120500000Y-117449517D03*
%TO.P,U4,6,SW*%
%TO.N,Net-(U4-SW)*%
X119549999Y-117449517D03*
%TD*%
D47*
%TO.P,C7,1*%
%TO.N,Net-(U4-SW)*%
X119725000Y-115500000D03*
%TO.P,C7,2*%
%TO.N,Net-(U4-CB)*%
X121275000Y-115500000D03*
%TD*%
D18*
%TO.P,RC2,1,1*%
%TO.N,/ID_N*%
X124000000Y-132287500D03*
%TO.P,RC2,2,2*%
%TO.N,GND*%
X124000000Y-134112500D03*
%TD*%
D21*
%TO.P,C2,1*%
%TO.N,+3V3*%
X53800000Y-100950000D03*
%TO.P,C2,2*%
%TO.N,GND*%
X53800000Y-102500000D03*
%TD*%
D48*
%TO.P,J3,1A*%
%TO.N,VDD_P*%
X138800000Y-105900000D03*
%TO.P,J3,1B*%
X132700000Y-105900000D03*
%TO.P,J3,2*%
%TO.N,unconnected-(J3-Pad2)*%
X132700000Y-117300000D03*
%TO.P,J3,3*%
%TO.N,GND*%
X138800000Y-117300000D03*
%TD*%
D49*
%TO.P,D2,1,K*%
%TO.N,/WarnOut*%
X71400000Y-134700000D03*
%TO.P,D2,2,A*%
%TO.N,Net-(D2-A)*%
X68600000Y-134700000D03*
%TD*%
D13*
%TO.P,R18,1*%
%TO.N,+5V*%
X121087500Y-122550000D03*
%TO.P,R18,2*%
%TO.N,Net-(U4-FB)*%
X122912500Y-122550000D03*
%TD*%
D18*
%TO.P,R23,1,1*%
%TO.N,/ID_N*%
X122000000Y-144287500D03*
%TO.P,R23,2,2*%
%TO.N,GND*%
X122000000Y-146112500D03*
%TD*%
D20*
%TO.P,R15,1*%
%TO.N,Net-(D1-A)*%
X110187300Y-119627101D03*
%TO.P,R15,2*%
%TO.N,GND*%
X108362300Y-119627101D03*
%TD*%
D50*
%TO.P,J17,1,Pin_1*%
%TO.N,Net-(J17-Pin_1)*%
X137200000Y-129200000D03*
%TD*%
D19*
%TO.P,C20,1*%
%TO.N,GND*%
X121050000Y-100600000D03*
%TO.P,C20,2*%
%TO.N,/VP*%
X119150000Y-100600000D03*
%TD*%
D51*
%TO.P,J4,1,Pin_1*%
%TO.N,/VN*%
X112100000Y-108400000D03*
D23*
%TO.P,J4,2,Pin_2*%
%TO.N,/VP*%
X112100000Y-103400000D03*
%TD*%
D37*
%TO.P,J12,1,Pin_1*%
%TO.N,Net-(J12-Pin_1)*%
X56840000Y-116700000D03*
D23*
%TO.P,J12,2,Pin_2*%
%TO.N,GND*%
X61840000Y-116700000D03*
%TD*%
D18*
%TO.P,R5,1,1*%
%TO.N,/I1P*%
X117600000Y-135687500D03*
%TO.P,R5,2,2*%
%TO.N,/ID_P*%
X117600000Y-137512500D03*
%TD*%
%TO.P,R3-1,1*%
%TO.N,+3V3*%
X51600000Y-100912500D03*
%TO.P,R3-1,2*%
%TO.N,EN*%
X51600000Y-102737500D03*
%TD*%
D19*
%TO.P,C21,1*%
%TO.N,GND*%
X120962500Y-111000000D03*
%TO.P,C21,2*%
%TO.N,/VN*%
X119062500Y-111000000D03*
%TD*%
D10*
%TO.P,FB2,1*%
%TO.N,+3.3VA*%
X91279800Y-142937500D03*
%TO.P,FB2,2*%
%TO.N,+3V3*%
X91279800Y-145062500D03*
%TD*%
D24*
%TO.P,J6,1,Pin_1*%
%TO.N,UART_RX*%
X68320000Y-116560000D03*
D25*
%TO.P,J6,2,Pin_2*%
%TO.N,UART_TX*%
X70860000Y-116560000D03*
%TO.P,J6,3,Pin_3*%
%TO.N,+3V3*%
X73400000Y-116560000D03*
%TO.P,J6,4,Pin_4*%
%TO.N,GND*%
X75940000Y-116560000D03*
%TD*%
D52*
%TO.P,Y1,1,1*%
%TO.N,/RCC_IN*%
X80025000Y-101475000D03*
%TO.P,Y1,2,G*%
%TO.N,GND*%
X78175000Y-101475000D03*
%TO.P,Y1,3,3*%
%TO.N,/RCC_OUT*%
X78175000Y-102925000D03*
%TO.P,Y1,4,G*%
%TO.N,GND*%
X80025000Y-102925000D03*
%TD*%
D13*
%TO.P,R4,1*%
%TO.N,UART_RX*%
X68487500Y-121400000D03*
%TO.P,R4,2*%
%TO.N,+3V3*%
X70312500Y-121400000D03*
%TD*%
D50*
%TO.P,J16,1,Pin_1*%
%TO.N,+5V*%
X114400000Y-125600000D03*
%TD*%
D20*
%TO.P,R13,1,1*%
%TO.N,VDD_P*%
X121012500Y-108600000D03*
%TO.P,R13,2,2*%
%TO.N,Net-(R13-Pad2)*%
X119187500Y-108600000D03*
%TD*%
D21*
%TO.P,C16-1,1*%
%TO.N,GND*%
X115400000Y-136025000D03*
%TO.P,C16-1,2*%
%TO.N,/I1P*%
X115400000Y-137575000D03*
%TD*%
D36*
%TO.P,C5,1*%
%TO.N,+3V3*%
X104060000Y-128750000D03*
%TO.P,C5,2*%
%TO.N,GND*%
X104060000Y-126850000D03*
%TD*%
D40*
%TO.P,C10,1*%
%TO.N,GND*%
X82460000Y-103075000D03*
%TO.P,C10,2*%
%TO.N,/RCC_IN*%
X82460000Y-101525000D03*
%TD*%
D31*
%TO.P,C19,1*%
%TO.N,GND*%
X70975000Y-144300000D03*
%TO.P,C19,2*%
%TO.N,Net-(J18-Pin_1)*%
X69425000Y-144300000D03*
%TD*%
D40*
%TO.P,C8,1*%
%TO.N,+5V*%
X115000000Y-117275000D03*
%TO.P,C8,2*%
%TO.N,GND*%
X115000000Y-115725000D03*
%TD*%
D18*
%TO.P,RC1,1,1*%
%TO.N,GND*%
X124000000Y-135887500D03*
%TO.P,RC1,2,2*%
%TO.N,/ID_P*%
X124000000Y-137712500D03*
%TD*%
D39*
%TO.P,J15,1,Pin_1*%
%TO.N,VBUS*%
X103580000Y-103725000D03*
%TD*%
D30*
%TO.P,C25,1*%
%TO.N,+3V3*%
X89079800Y-144600000D03*
%TO.P,C25,2*%
%TO.N,GND*%
X89079800Y-146500000D03*
%TD*%
D49*
%TO.P,D1,1,K*%
%TO.N,+5V*%
X114987300Y-119427101D03*
%TO.P,D1,2,A*%
%TO.N,Net-(D1-A)*%
X112187300Y-119427101D03*
%TD*%
D51*
%TO.P,J11,1,Pin_1*%
%TO.N,GND*%
X51500000Y-134000000D03*
D23*
%TO.P,J11,2,Pin_2*%
%TO.N,EN*%
X51500000Y-129000000D03*
%TD*%
D20*
%TO.P,R19,1,1*%
%TO.N,GND*%
X121012500Y-102600000D03*
%TO.P,R19,2,2*%
%TO.N,/VP*%
X119187500Y-102600000D03*
%TD*%
D53*
%TO.N,GND*%
X84600000Y-101400000D03*
X84600000Y-100400000D03*
X83600000Y-100400000D03*
X83600000Y-99400000D03*
X84600000Y-99400000D03*
X83600000Y-101400000D03*
X86500000Y-101600000D03*
X86500000Y-100600000D03*
X85500000Y-100600000D03*
X85500000Y-99600000D03*
X86500000Y-99600000D03*
X85500000Y-101600000D03*
%TO.N,IRQ*%
X67100000Y-125000000D03*
%TO.N,GND*%
X54600000Y-103925000D03*
X45500000Y-113000000D03*
X136000000Y-104500000D03*
X81500000Y-115500000D03*
X55500000Y-134500000D03*
X60000000Y-152000000D03*
X50500000Y-124000000D03*
X47500000Y-115000000D03*
X60000000Y-143000000D03*
X103000000Y-114000000D03*
X63000000Y-103500000D03*
X90000000Y-117500000D03*
X108000000Y-115500000D03*
X139500000Y-137500000D03*
X76000000Y-123000000D03*
X56500000Y-123000000D03*
X129500000Y-118500000D03*
X128500000Y-148500000D03*
X58000000Y-151000000D03*
X76000000Y-152000000D03*
X113000000Y-113500000D03*
X52500000Y-124000000D03*
X119500000Y-129000000D03*
X54000000Y-114000000D03*
X47500000Y-108000000D03*
X72400000Y-131400000D03*
X101000000Y-113000000D03*
X48500000Y-125000000D03*
X130500000Y-150500000D03*
X108000000Y-113500000D03*
X112000000Y-117500000D03*
X124500000Y-112500000D03*
X49500000Y-137500000D03*
X48500000Y-140500000D03*
X125500000Y-113500000D03*
X47500000Y-134000000D03*
X135500000Y-147500000D03*
X121500000Y-129000000D03*
X57500000Y-125000000D03*
X50500000Y-114000000D03*
X102000000Y-135500000D03*
X129500000Y-150500000D03*
X47500000Y-114000000D03*
X56000000Y-150000000D03*
X71900000Y-143400000D03*
X93000000Y-135500000D03*
X129500000Y-134500000D03*
X55500000Y-138500000D03*
X45500000Y-106000000D03*
X49500000Y-143500000D03*
X63000000Y-151000000D03*
X52000000Y-151000000D03*
X93000000Y-132500000D03*
X95000000Y-145000000D03*
X112000000Y-116500000D03*
X101000000Y-145000000D03*
X56000000Y-108000000D03*
X73000000Y-151000000D03*
X88000000Y-118500000D03*
X64000000Y-106500000D03*
X45500000Y-128000000D03*
X102000000Y-146000000D03*
X100000000Y-134500000D03*
X132500000Y-151500000D03*
X69500000Y-129500000D03*
X100000000Y-132500000D03*
X105000000Y-151000000D03*
X134500000Y-147500000D03*
X109000000Y-117500000D03*
X123500000Y-143000000D03*
X88000000Y-151000000D03*
X90000000Y-112500000D03*
X45500000Y-144500000D03*
X87000000Y-123500000D03*
X57500000Y-128500000D03*
X74000000Y-132500000D03*
X98000000Y-150000000D03*
X78000000Y-152000000D03*
X45500000Y-131000000D03*
X118500000Y-152000000D03*
X78500000Y-110000000D03*
X76500000Y-125500000D03*
X92000000Y-132500000D03*
X90000000Y-114500000D03*
X45500000Y-137500000D03*
X120500000Y-141000000D03*
X124000000Y-101000000D03*
X45500000Y-124000000D03*
X124000000Y-103000000D03*
X67000000Y-152000000D03*
X81500000Y-110000000D03*
X78000000Y-139500000D03*
X117500000Y-143000000D03*
X125500000Y-110500000D03*
X78000000Y-117500000D03*
X118500000Y-131000000D03*
X103000000Y-132500000D03*
X47500000Y-144500000D03*
X129500000Y-131000000D03*
X124500000Y-131000000D03*
X51500000Y-120000000D03*
X99000000Y-135500000D03*
X45500000Y-127000000D03*
X135500000Y-148500000D03*
X51500000Y-119000000D03*
X140500000Y-134500000D03*
X108000000Y-114500000D03*
X90000000Y-118500000D03*
X109000000Y-116500000D03*
X96000000Y-150000000D03*
X47500000Y-116000000D03*
X59500000Y-129500000D03*
X46500000Y-108000000D03*
X47500000Y-142500000D03*
X100000000Y-151000000D03*
X139500000Y-133500000D03*
X130500000Y-151500000D03*
X104000000Y-114000000D03*
X125000000Y-102000000D03*
X96000000Y-152000000D03*
X45500000Y-143500000D03*
X94000000Y-145000000D03*
X50500000Y-146500000D03*
X50500000Y-137500000D03*
X45500000Y-107000000D03*
X100000000Y-135500000D03*
X94000000Y-134500000D03*
X47500000Y-109000000D03*
X63000000Y-123000000D03*
X79000000Y-151000000D03*
X47500000Y-120000000D03*
X88000000Y-119500000D03*
X119500000Y-141000000D03*
X126000000Y-104000000D03*
X78000000Y-140500000D03*
X47500000Y-127000000D03*
X117500000Y-152000000D03*
X97000000Y-115500000D03*
X81500000Y-125500000D03*
X128500000Y-127000000D03*
X73500000Y-129500000D03*
X98000000Y-152000000D03*
X50500000Y-121000000D03*
X140000000Y-114500000D03*
X81500000Y-127500000D03*
X135000000Y-100500000D03*
X50500000Y-123000000D03*
X110000000Y-117500000D03*
X125500000Y-130000000D03*
X45500000Y-139500000D03*
X122400000Y-100600000D03*
X133500000Y-151500000D03*
X69000000Y-102500000D03*
X86500000Y-102500000D03*
X91500000Y-102500000D03*
X55500000Y-124000000D03*
X65000000Y-152000000D03*
X123500000Y-128000000D03*
X115500000Y-140000000D03*
X86000000Y-123500000D03*
X59500000Y-126500000D03*
X48500000Y-113000000D03*
X135500000Y-150500000D03*
X96000000Y-134500000D03*
X97000000Y-114500000D03*
X90000000Y-148000000D03*
X136500000Y-148500000D03*
X105000000Y-133500000D03*
X109000000Y-110500000D03*
X120500000Y-140000000D03*
X46500000Y-130000000D03*
X74500000Y-128500000D03*
X104000000Y-113000000D03*
X90000000Y-150000000D03*
X100000000Y-150000000D03*
X104000000Y-134500000D03*
X136000000Y-137500000D03*
X134500000Y-150500000D03*
X123500000Y-129000000D03*
X127500000Y-127000000D03*
X136000000Y-118000000D03*
X140000000Y-113500000D03*
X86900000Y-139400000D03*
X103000000Y-135500000D03*
X111000000Y-115500000D03*
X101000000Y-114000000D03*
X74500000Y-126500000D03*
X112000000Y-114500000D03*
X130500000Y-146500000D03*
X125500000Y-109500000D03*
X58500000Y-128500000D03*
X48500000Y-138500000D03*
X51500000Y-121000000D03*
X103000000Y-111000000D03*
X140500000Y-133500000D03*
X53500000Y-138500000D03*
X97000000Y-149000000D03*
X108000000Y-109500000D03*
X103000000Y-134500000D03*
X54500000Y-122000000D03*
X61000000Y-110000000D03*
X127500000Y-131000000D03*
X96000000Y-148000000D03*
X97000000Y-134500000D03*
X59500000Y-127500000D03*
X71500000Y-129500000D03*
X46500000Y-118000000D03*
X128500000Y-134500000D03*
X55000000Y-151000000D03*
X55500000Y-137500000D03*
X93000000Y-151000000D03*
X47500000Y-110000000D03*
X93000000Y-134500000D03*
X104000000Y-112000000D03*
X130500000Y-126000000D03*
X71000000Y-151000000D03*
X86000000Y-151000000D03*
X121500000Y-142000000D03*
X64952190Y-107480950D03*
X48500000Y-137500000D03*
X107000000Y-117500000D03*
X141000000Y-114500000D03*
X98000000Y-149000000D03*
X122500000Y-128000000D03*
X74000000Y-152000000D03*
X108000000Y-116500000D03*
X123500000Y-142000000D03*
X101000000Y-149000000D03*
X100000000Y-136500000D03*
X81000000Y-152000000D03*
X47500000Y-118000000D03*
X71000000Y-104500000D03*
X60500000Y-127500000D03*
X50500000Y-141500000D03*
X49500000Y-146500000D03*
X59000000Y-152000000D03*
X135000000Y-102500000D03*
X133000000Y-103500000D03*
X45500000Y-110000000D03*
X118500000Y-130000000D03*
X81500000Y-120500000D03*
X52500000Y-121000000D03*
X80000000Y-152000000D03*
X123000000Y-105000000D03*
X49500000Y-144500000D03*
X126500000Y-118500000D03*
X102000000Y-114000000D03*
X60000000Y-122000000D03*
X96000000Y-121500000D03*
X106000000Y-110500000D03*
X134500000Y-148500000D03*
X89500000Y-110000000D03*
X127500000Y-151500000D03*
X97000000Y-102500000D03*
X50000000Y-149000000D03*
X106000000Y-109500000D03*
X47500000Y-121000000D03*
X135000000Y-104500000D03*
X133000000Y-100500000D03*
X46500000Y-143500000D03*
X51500000Y-122000000D03*
X56500000Y-125000000D03*
X104000000Y-151000000D03*
X98000000Y-136500000D03*
X76500000Y-126500000D03*
X130500000Y-128000000D03*
X94000000Y-136500000D03*
X91000000Y-149000000D03*
X46500000Y-120000000D03*
X106000000Y-116500000D03*
X119500000Y-130000000D03*
X97000000Y-132500000D03*
X107000000Y-111500000D03*
X74000000Y-130500000D03*
X48500000Y-110000000D03*
X124500000Y-124000000D03*
X108000000Y-112500000D03*
X45500000Y-122000000D03*
X123500000Y-131000000D03*
X45500000Y-123000000D03*
X128500000Y-128000000D03*
X126500000Y-111500000D03*
X125000000Y-135000000D03*
X134000000Y-99500000D03*
X132500000Y-147500000D03*
X63000000Y-152000000D03*
X134000000Y-102500000D03*
X131500000Y-149500000D03*
X70000000Y-103500000D03*
X99000000Y-148000000D03*
X88000000Y-152000000D03*
X47500000Y-135000000D03*
X120500000Y-129000000D03*
X70000000Y-152000000D03*
X126500000Y-128000000D03*
X106000000Y-152000000D03*
X70500000Y-127500000D03*
X128000000Y-105000000D03*
X95000000Y-133500000D03*
X103000000Y-150000000D03*
X81500000Y-114500000D03*
X48500000Y-118000000D03*
X126500000Y-126000000D03*
X82000000Y-152000000D03*
X98000000Y-146000000D03*
X46500000Y-138500000D03*
X70500000Y-129500000D03*
X46500000Y-111000000D03*
X124500000Y-111500000D03*
X94000000Y-151000000D03*
X111000000Y-114500000D03*
X56500000Y-130500000D03*
X72000000Y-151000000D03*
X72500000Y-126500000D03*
X102000000Y-113000000D03*
X68500000Y-128500000D03*
X125500000Y-128000000D03*
X131500000Y-146500000D03*
X72500000Y-128500000D03*
X76000000Y-122000000D03*
X87500000Y-100500000D03*
X114000000Y-112500000D03*
X48500000Y-120000000D03*
X46500000Y-117000000D03*
X126500000Y-112500000D03*
X73000000Y-152000000D03*
X85000000Y-122500000D03*
X90000000Y-149000000D03*
X127500000Y-128000000D03*
X79000000Y-138500000D03*
X55500000Y-125000000D03*
X138500000Y-133500000D03*
X87500000Y-110000000D03*
X45500000Y-132000000D03*
X85000000Y-123500000D03*
X121500000Y-130000000D03*
X45500000Y-114000000D03*
X57500000Y-129500000D03*
X129500000Y-148500000D03*
X66000000Y-103500000D03*
X119500000Y-140000000D03*
X110000000Y-114500000D03*
X105000000Y-113000000D03*
X135000000Y-101500000D03*
X92000000Y-133500000D03*
X47500000Y-141500000D03*
X127500000Y-147500000D03*
X73500000Y-126500000D03*
X95000000Y-134500000D03*
X129500000Y-128000000D03*
X50500000Y-118000000D03*
X50000000Y-150000000D03*
X123500000Y-141000000D03*
X48500000Y-109000000D03*
X51000000Y-149000000D03*
X123500000Y-112500000D03*
X124500000Y-140000000D03*
X101000000Y-133500000D03*
X126500000Y-130000000D03*
X109000000Y-113500000D03*
X92000000Y-135500000D03*
X124500000Y-139000000D03*
X118500000Y-139000000D03*
X128500000Y-129000000D03*
X67000000Y-102500000D03*
X108000000Y-117500000D03*
X79000000Y-118500000D03*
X77500000Y-127500000D03*
X53500000Y-139500000D03*
X46500000Y-125000000D03*
X95000000Y-151000000D03*
X56500000Y-124000000D03*
X137500000Y-133500000D03*
X102000000Y-133500000D03*
X60000000Y-144000000D03*
X97000000Y-133500000D03*
X102000000Y-152000000D03*
X127000000Y-105000000D03*
X88500000Y-110000000D03*
X79000000Y-117500000D03*
X45500000Y-119000000D03*
X50500000Y-116000000D03*
X87500000Y-101500000D03*
X105000000Y-115000000D03*
X50500000Y-145500000D03*
X90000000Y-116500000D03*
X123500000Y-139000000D03*
X81500000Y-126500000D03*
X51500000Y-123000000D03*
X104000000Y-115000000D03*
X48500000Y-114000000D03*
X95000000Y-150000000D03*
X72000000Y-103500000D03*
X71000000Y-152000000D03*
X46500000Y-133000000D03*
X105000000Y-112000000D03*
X122200000Y-111000000D03*
X47500000Y-122000000D03*
X79000000Y-152000000D03*
X63000000Y-106500000D03*
X63000000Y-105500000D03*
X129500000Y-117500000D03*
X126000000Y-101000000D03*
X46500000Y-107000000D03*
X88000000Y-111500000D03*
X46500000Y-121000000D03*
X132500000Y-150500000D03*
X77500000Y-126500000D03*
X90000000Y-120500000D03*
X53500000Y-124000000D03*
X94000000Y-132500000D03*
X83500000Y-126500000D03*
X126500000Y-148500000D03*
X109000000Y-109500000D03*
X94000000Y-135500000D03*
X46500000Y-142500000D03*
X142000000Y-115500000D03*
X48500000Y-111000000D03*
X128500000Y-150500000D03*
X48500000Y-107000000D03*
X128000000Y-101000000D03*
X125500000Y-149500000D03*
X122500000Y-143000000D03*
X124500000Y-109500000D03*
X84000000Y-151000000D03*
X50500000Y-119000000D03*
X102000000Y-150000000D03*
X62000000Y-123000000D03*
X55500000Y-136500000D03*
X50000000Y-148000000D03*
X78000000Y-123000000D03*
X123000000Y-102000000D03*
X127500000Y-133500000D03*
X114500000Y-147000000D03*
X88500000Y-102500000D03*
X122500000Y-139000000D03*
X104000000Y-150000000D03*
X72500000Y-125500000D03*
X88400000Y-132400000D03*
X104000000Y-152000000D03*
X102000000Y-151000000D03*
X127500000Y-117500000D03*
X88500000Y-101500000D03*
X53500000Y-125000000D03*
X137000000Y-103500000D03*
X116500000Y-141000000D03*
X72940077Y-133483725D03*
X71000000Y-103500000D03*
X75500000Y-127500000D03*
X47500000Y-111000000D03*
X105000000Y-135500000D03*
X106000000Y-117500000D03*
X81500000Y-113500000D03*
X79000000Y-113500000D03*
X68000000Y-103500000D03*
X92000000Y-152000000D03*
X136500000Y-151500000D03*
X131500000Y-151500000D03*
X79000000Y-115500000D03*
X46500000Y-114000000D03*
X131500000Y-147500000D03*
X109000000Y-112500000D03*
X131500000Y-127000000D03*
X125500000Y-129000000D03*
X132000000Y-99500000D03*
X62000000Y-122000000D03*
X63000000Y-104500000D03*
X66000000Y-104500000D03*
X47500000Y-106000000D03*
X67000000Y-109500000D03*
X71500000Y-126500000D03*
X47500000Y-123000000D03*
X50500000Y-117000000D03*
X46500000Y-144500000D03*
X81500000Y-116500000D03*
X128500000Y-146500000D03*
X82500000Y-110000000D03*
X45500000Y-115000000D03*
X125500000Y-133500000D03*
X124500000Y-110500000D03*
X87000000Y-152000000D03*
X47500000Y-112000000D03*
X124500000Y-129000000D03*
X106000000Y-111500000D03*
X58500000Y-129500000D03*
X45500000Y-134000000D03*
X132000000Y-102500000D03*
X102000000Y-145000000D03*
X124000000Y-105000000D03*
X104000000Y-146000000D03*
X45500000Y-118000000D03*
X83000000Y-123500000D03*
X100000000Y-148000000D03*
X94000000Y-133500000D03*
X129000000Y-103000000D03*
X133500000Y-134500000D03*
X46500000Y-135000000D03*
X112000000Y-115500000D03*
X127500000Y-126000000D03*
X82000000Y-122500000D03*
X96000000Y-149000000D03*
X129000000Y-104000000D03*
X121500000Y-141000000D03*
X60000000Y-145000000D03*
X50500000Y-138500000D03*
X52500000Y-123000000D03*
X126500000Y-107500000D03*
X125500000Y-111500000D03*
X46500000Y-116000000D03*
X59000000Y-151000000D03*
X91000000Y-135500000D03*
X51000000Y-148000000D03*
X45500000Y-116000000D03*
X79000000Y-139500000D03*
X107000000Y-113500000D03*
X97000000Y-145000000D03*
X80500000Y-125500000D03*
X60000000Y-146000000D03*
X134500000Y-134500000D03*
X125500000Y-124000000D03*
X100000000Y-145000000D03*
X73500000Y-125500000D03*
X45500000Y-120000000D03*
X48500000Y-108000000D03*
X59500000Y-128500000D03*
X128500000Y-117500000D03*
X68500000Y-127500000D03*
X128500000Y-118500000D03*
X81500000Y-112500000D03*
X75000000Y-151000000D03*
X122500000Y-142000000D03*
X72940077Y-132483725D03*
X56500000Y-128500000D03*
X113000000Y-112500000D03*
X46500000Y-126000000D03*
X56500000Y-129500000D03*
X100000000Y-131500000D03*
X136500000Y-149500000D03*
X130423803Y-117476788D03*
X123000000Y-103000000D03*
X45500000Y-112000000D03*
X78000000Y-115500000D03*
X55500000Y-128500000D03*
X129000000Y-102000000D03*
X116500000Y-139000000D03*
X106000000Y-151000000D03*
X54000000Y-113000000D03*
X48500000Y-146500000D03*
X91500000Y-110000000D03*
X131500000Y-126000000D03*
X123500000Y-111500000D03*
X45500000Y-108000000D03*
X93000000Y-148000000D03*
X92500000Y-110000000D03*
X75500000Y-125500000D03*
X56500000Y-127500000D03*
X55500000Y-135500000D03*
X98000000Y-145000000D03*
X117500000Y-140000000D03*
X72500000Y-129500000D03*
X60000000Y-148000000D03*
X81500000Y-119500000D03*
X92000000Y-136500000D03*
X55000000Y-152000000D03*
X135500000Y-134500000D03*
X128000000Y-104000000D03*
X53500000Y-137500000D03*
X99000000Y-134500000D03*
X98000000Y-135500000D03*
X80000000Y-151000000D03*
X45500000Y-140500000D03*
X63000000Y-124000000D03*
X104000000Y-145000000D03*
X91000000Y-150000000D03*
X47500000Y-138500000D03*
X90000000Y-151000000D03*
X83500000Y-127500000D03*
X128000000Y-103000000D03*
X49500000Y-141500000D03*
X126500000Y-109500000D03*
X84000000Y-122500000D03*
X126500000Y-127000000D03*
X95000000Y-135500000D03*
X70000000Y-106500000D03*
X83500000Y-110000000D03*
X83500000Y-125500000D03*
X45500000Y-109000000D03*
X96000000Y-151000000D03*
X130500000Y-147500000D03*
X60500000Y-128500000D03*
X107000000Y-115500000D03*
X47500000Y-124000000D03*
X130423803Y-118476788D03*
X78500000Y-127500000D03*
X127500000Y-129000000D03*
X127500000Y-149500000D03*
X53500000Y-123000000D03*
X87500000Y-102500000D03*
X129000000Y-105000000D03*
X126500000Y-114500000D03*
X47500000Y-139500000D03*
X130500000Y-127000000D03*
X125500000Y-107500000D03*
X121500000Y-140000000D03*
X48500000Y-123000000D03*
X47500000Y-145500000D03*
X61000000Y-123000000D03*
X74500000Y-129500000D03*
X129500000Y-146500000D03*
X136500000Y-150500000D03*
X96500000Y-110000000D03*
X57500000Y-126500000D03*
X48500000Y-136500000D03*
X51000000Y-151000000D03*
X122500000Y-131000000D03*
X55500000Y-131500000D03*
X135500000Y-149500000D03*
X76500000Y-129500000D03*
X65000000Y-102500000D03*
X46500000Y-132000000D03*
X136000000Y-117000000D03*
X77000000Y-123000000D03*
X65400000Y-147900000D03*
X75500000Y-126500000D03*
X93500000Y-110000000D03*
X95000000Y-149000000D03*
X114500000Y-151000000D03*
X65994450Y-108504161D03*
X134500000Y-149500000D03*
X128500000Y-147500000D03*
X127000000Y-101000000D03*
X79000000Y-141500000D03*
X105000000Y-150000000D03*
X128500000Y-130000000D03*
X80500000Y-126500000D03*
X115500000Y-115000000D03*
X121500000Y-139000000D03*
X126500000Y-117500000D03*
X93000000Y-146000000D03*
X133000000Y-102500000D03*
X52000000Y-150000000D03*
X99000000Y-136500000D03*
X132500000Y-149500000D03*
X88000000Y-120500000D03*
X104000000Y-111000000D03*
X116500000Y-152000000D03*
X123500000Y-140000000D03*
X106000000Y-115500000D03*
X66000000Y-151000000D03*
X65000000Y-104500000D03*
X102000000Y-134500000D03*
X121500000Y-143000000D03*
X120500000Y-130000000D03*
X66000000Y-107500000D03*
X83000000Y-122500000D03*
X131500000Y-131000000D03*
X95000000Y-146000000D03*
X108000000Y-121000000D03*
X55000000Y-150000000D03*
X132000000Y-101500000D03*
X46500000Y-140500000D03*
X126500000Y-129000000D03*
X75000000Y-122000000D03*
X66000000Y-152000000D03*
X54000000Y-109500000D03*
X141500000Y-134500000D03*
X55500000Y-126500000D03*
X90000000Y-113500000D03*
X45500000Y-126000000D03*
X49500000Y-145500000D03*
X95000000Y-136500000D03*
X46500000Y-141500000D03*
X104000000Y-136500000D03*
X103000000Y-151000000D03*
X118500000Y-143000000D03*
X90400000Y-146900000D03*
X95000000Y-132500000D03*
X110000000Y-116500000D03*
X49500000Y-140500000D03*
X96000000Y-145000000D03*
X137000000Y-135000000D03*
X75000000Y-123000000D03*
X122500000Y-129000000D03*
X84500000Y-125500000D03*
X94000000Y-152000000D03*
X123500000Y-109500000D03*
X46500000Y-136500000D03*
X79000000Y-140500000D03*
X127000000Y-102000000D03*
X67000000Y-108500000D03*
X89000000Y-152000000D03*
X64000000Y-104500000D03*
X74000000Y-151000000D03*
X123500000Y-107500000D03*
X96000000Y-120500000D03*
X124500000Y-123000000D03*
X123000000Y-104000000D03*
X80000000Y-140500000D03*
X47500000Y-137500000D03*
X96000000Y-133500000D03*
X94500000Y-110000000D03*
X127500000Y-150500000D03*
X126500000Y-151500000D03*
X55500000Y-133500000D03*
X110000000Y-115500000D03*
X70000000Y-101500000D03*
X125500000Y-123000000D03*
X62000000Y-124000000D03*
X64000000Y-103500000D03*
X47500000Y-107000000D03*
X105000000Y-152000000D03*
X136000000Y-103500000D03*
X57800000Y-113200000D03*
X97000000Y-148000000D03*
X67000000Y-151000000D03*
X45500000Y-121000000D03*
X131500000Y-130000000D03*
X57000000Y-151000000D03*
X91500000Y-101500000D03*
X125500000Y-126000000D03*
X52500000Y-119000000D03*
X92000000Y-150000000D03*
X54500000Y-139500000D03*
X108000000Y-110500000D03*
X68500000Y-129500000D03*
X76500000Y-127500000D03*
X96000000Y-136500000D03*
X127500000Y-118500000D03*
X79000000Y-116500000D03*
X52500000Y-138500000D03*
X72000000Y-152000000D03*
X64000000Y-121000000D03*
X104000000Y-132500000D03*
X48500000Y-144500000D03*
X49500000Y-142500000D03*
X91000000Y-152000000D03*
X82500000Y-126500000D03*
X120500000Y-142000000D03*
X103000000Y-113000000D03*
X49500000Y-138500000D03*
X124500000Y-142000000D03*
X47500000Y-119000000D03*
X124500000Y-127000000D03*
X71000000Y-102500000D03*
X128500000Y-133500000D03*
X129500000Y-127000000D03*
X125500000Y-122000000D03*
X61000000Y-111000000D03*
X141000000Y-115500000D03*
X78500000Y-126500000D03*
X125500000Y-131000000D03*
X62000000Y-104500000D03*
X124500000Y-107500000D03*
X77500000Y-125500000D03*
X134000000Y-100500000D03*
X128500000Y-131000000D03*
X85000000Y-151000000D03*
X46500000Y-113000000D03*
X45500000Y-142500000D03*
X129500000Y-149500000D03*
X97000000Y-135500000D03*
X65994450Y-109504161D03*
X69500000Y-127500000D03*
X126500000Y-150500000D03*
X124500000Y-141000000D03*
X56500000Y-126500000D03*
X79500000Y-126500000D03*
X128000000Y-102000000D03*
X123500000Y-110500000D03*
X50500000Y-143500000D03*
X78000000Y-116500000D03*
X123500000Y-108500000D03*
X124000000Y-104000000D03*
X119500000Y-142000000D03*
X114500000Y-135000000D03*
X45500000Y-117000000D03*
X125500000Y-125000000D03*
X46500000Y-134000000D03*
X84000000Y-150000000D03*
X48500000Y-142500000D03*
X134000000Y-103500000D03*
X79500000Y-127500000D03*
X79000000Y-119500000D03*
X78000000Y-114500000D03*
X46500000Y-119000000D03*
X64000000Y-105500000D03*
X98000000Y-148000000D03*
X128500000Y-151500000D03*
X103000000Y-112000000D03*
X124500000Y-126000000D03*
X74500000Y-125500000D03*
X57000000Y-150000000D03*
X70000000Y-105500000D03*
X69000000Y-103500000D03*
X103000000Y-152000000D03*
X67000000Y-103500000D03*
X127500000Y-148500000D03*
X97000000Y-136500000D03*
X48500000Y-116000000D03*
X61000000Y-122000000D03*
X82000000Y-151000000D03*
X92000000Y-151000000D03*
X91500000Y-100500000D03*
X86000000Y-122500000D03*
X48500000Y-119000000D03*
X101000000Y-136500000D03*
X126500000Y-108500000D03*
X66000000Y-106500000D03*
X60500000Y-129500000D03*
X136500000Y-147500000D03*
X128500000Y-149500000D03*
X98000000Y-132500000D03*
X91000000Y-134500000D03*
X75000000Y-121000000D03*
X126500000Y-147500000D03*
X75000000Y-152000000D03*
X93000000Y-136500000D03*
X125000000Y-116000000D03*
X109000000Y-114500000D03*
X130500000Y-148500000D03*
X83000000Y-151000000D03*
X120500000Y-143000000D03*
X54500000Y-121000000D03*
X99000000Y-146000000D03*
X97000000Y-152000000D03*
X73500000Y-128500000D03*
X101000000Y-146000000D03*
X68000000Y-151000000D03*
X103000000Y-146000000D03*
X94000000Y-149000000D03*
X88000000Y-112500000D03*
X45500000Y-130000000D03*
X124500000Y-143000000D03*
X133500000Y-149500000D03*
X47500000Y-136500000D03*
X74000000Y-133500000D03*
X133000000Y-101500000D03*
X126500000Y-133500000D03*
X79500000Y-125500000D03*
X46500000Y-129000000D03*
X46500000Y-139500000D03*
X133000000Y-99500000D03*
X55500000Y-127500000D03*
X54500000Y-125000000D03*
X100000000Y-149000000D03*
X108000000Y-111500000D03*
X129500000Y-130000000D03*
X125000000Y-105000000D03*
X104000000Y-135500000D03*
X136000000Y-136500000D03*
X85500000Y-125500000D03*
X125000000Y-104000000D03*
X55500000Y-132500000D03*
X48500000Y-122000000D03*
X129500000Y-151500000D03*
X64952190Y-106480950D03*
X76500000Y-128500000D03*
X72500000Y-127500000D03*
X68000000Y-102500000D03*
X107000000Y-110500000D03*
X122500000Y-141000000D03*
X60500000Y-130500000D03*
X141500000Y-133500000D03*
X48500000Y-124000000D03*
X79500000Y-110000000D03*
X117500000Y-141000000D03*
X99000000Y-152000000D03*
X118500000Y-141000000D03*
X100000000Y-152000000D03*
X129000000Y-101000000D03*
X85500000Y-102500000D03*
X48500000Y-121000000D03*
X82500000Y-127500000D03*
X54000000Y-152000000D03*
X61000000Y-152000000D03*
X100000000Y-133500000D03*
X51000000Y-150000000D03*
X51900000Y-145900000D03*
X109000000Y-111500000D03*
X99000000Y-145000000D03*
X90000000Y-152000000D03*
X52500000Y-125000000D03*
X126500000Y-113500000D03*
X58500000Y-130500000D03*
X126000000Y-102000000D03*
X124500000Y-130000000D03*
X83000000Y-150000000D03*
X118500000Y-140000000D03*
X97000000Y-100500000D03*
X98000000Y-151000000D03*
X82000000Y-123500000D03*
X52500000Y-139500000D03*
X96000000Y-135500000D03*
X99000000Y-149000000D03*
X57500000Y-124000000D03*
X69500000Y-128500000D03*
X55500000Y-123000000D03*
X127500000Y-134500000D03*
X96500000Y-111000000D03*
X120500000Y-127500000D03*
X93000000Y-149000000D03*
X92000000Y-149000000D03*
X62000000Y-111000000D03*
X129500000Y-129000000D03*
X124000000Y-102000000D03*
X76000000Y-121000000D03*
X47500000Y-128000000D03*
X88000000Y-113500000D03*
X126000000Y-105000000D03*
X55500000Y-130500000D03*
X101000000Y-152000000D03*
X62000000Y-152000000D03*
X90000000Y-119500000D03*
X48500000Y-147500000D03*
X93000000Y-152000000D03*
X45500000Y-133000000D03*
X47500000Y-140500000D03*
X95000000Y-152000000D03*
X89000000Y-151000000D03*
X125500000Y-108500000D03*
X130500000Y-149500000D03*
X133500000Y-147500000D03*
X62000000Y-105500000D03*
X47500000Y-130000000D03*
X57500000Y-130500000D03*
X59500000Y-130500000D03*
X48500000Y-145500000D03*
X77500000Y-128500000D03*
X134500000Y-133500000D03*
X78000000Y-138500000D03*
X60000000Y-150000000D03*
X116500000Y-140000000D03*
X132000000Y-103500000D03*
X97000000Y-151000000D03*
X120500000Y-121000000D03*
X46500000Y-106000000D03*
X124500000Y-113500000D03*
X81500000Y-117500000D03*
X101000000Y-132500000D03*
X116500000Y-143000000D03*
X125500000Y-151500000D03*
X78500000Y-125500000D03*
X93000000Y-133500000D03*
X58500000Y-126500000D03*
X115500000Y-152000000D03*
X125000000Y-103000000D03*
X140000000Y-112500000D03*
X133500000Y-146500000D03*
X124500000Y-125000000D03*
X80900000Y-141400000D03*
X54500000Y-138500000D03*
X122500000Y-130000000D03*
X45500000Y-141500000D03*
X82500000Y-125500000D03*
X85000000Y-152000000D03*
X99000000Y-133500000D03*
X76000000Y-151000000D03*
X135500000Y-151500000D03*
X58000000Y-150000000D03*
X105000000Y-132500000D03*
X88000000Y-117500000D03*
X48500000Y-117000000D03*
X80000000Y-141500000D03*
X56000000Y-151000000D03*
X81000000Y-151000000D03*
X47500000Y-129000000D03*
X109000000Y-115500000D03*
X50500000Y-125000000D03*
X74500000Y-127500000D03*
X46500000Y-115000000D03*
X46500000Y-124000000D03*
X131500000Y-148500000D03*
X94000000Y-150000000D03*
X121500000Y-128000000D03*
X68000000Y-152000000D03*
X102000000Y-112000000D03*
X119500000Y-139000000D03*
X107000000Y-114500000D03*
X121500000Y-131000000D03*
X52500000Y-122000000D03*
X47500000Y-125000000D03*
X101000000Y-150000000D03*
X50500000Y-144500000D03*
X97000000Y-150000000D03*
X45500000Y-125000000D03*
X102000000Y-136500000D03*
X45500000Y-145500000D03*
X125500000Y-150500000D03*
X45500000Y-129000000D03*
X88500000Y-100500000D03*
X117500000Y-139000000D03*
X122000000Y-151000000D03*
X50500000Y-139500000D03*
X48500000Y-141500000D03*
X48500000Y-143500000D03*
X53500000Y-122000000D03*
X118500000Y-142000000D03*
X126000000Y-103000000D03*
X70000000Y-151000000D03*
X47500000Y-113000000D03*
X101000000Y-135500000D03*
X140000000Y-115500000D03*
X123500000Y-130000000D03*
X130500000Y-130000000D03*
X57000000Y-152000000D03*
X63000000Y-150000000D03*
X69000000Y-152000000D03*
X54500000Y-123000000D03*
X107000000Y-109500000D03*
X115500000Y-142000000D03*
X83000000Y-152000000D03*
X99000000Y-132500000D03*
X70000000Y-102500000D03*
X125500000Y-127000000D03*
X101000000Y-134500000D03*
X111000000Y-116500000D03*
X50500000Y-113000000D03*
X61000000Y-151000000D03*
X84000000Y-123500000D03*
X100000000Y-114000000D03*
X105000000Y-111000000D03*
X46500000Y-128000000D03*
X48500000Y-106000000D03*
X59000000Y-150000000D03*
X46500000Y-109000000D03*
X53500000Y-121000000D03*
X85500000Y-110000000D03*
X45500000Y-138500000D03*
X75500000Y-128500000D03*
X120500000Y-131000000D03*
X97000000Y-146000000D03*
X119500000Y-131000000D03*
X103000000Y-133500000D03*
X52500000Y-120000000D03*
X77000000Y-152000000D03*
X78000000Y-151000000D03*
X104000000Y-133500000D03*
X125500000Y-114500000D03*
X47500000Y-117000000D03*
X125500000Y-148500000D03*
X77000000Y-122000000D03*
X47500000Y-126000000D03*
X126500000Y-131000000D03*
X99000000Y-151000000D03*
X50000000Y-151000000D03*
X127000000Y-103000000D03*
X81595593Y-134860844D03*
X126500000Y-149500000D03*
X122500000Y-140000000D03*
X130500000Y-131000000D03*
X73500000Y-127500000D03*
X135500000Y-133500000D03*
X60000000Y-147000000D03*
X46500000Y-127000000D03*
X70000000Y-104500000D03*
X93000000Y-150000000D03*
X131500000Y-128000000D03*
X98000000Y-134500000D03*
X117500000Y-142000000D03*
X133500000Y-148500000D03*
X96000000Y-146000000D03*
X106000000Y-112500000D03*
X55500000Y-129500000D03*
X86000000Y-152000000D03*
X87000000Y-122500000D03*
X77000000Y-151000000D03*
X124500000Y-122000000D03*
X69000000Y-151000000D03*
X88000000Y-115500000D03*
X103000000Y-136500000D03*
X46500000Y-137500000D03*
X114000000Y-113500000D03*
X105000000Y-134500000D03*
X81500000Y-118500000D03*
X58000000Y-152000000D03*
X66000000Y-102500000D03*
X115500000Y-141000000D03*
X65000000Y-103500000D03*
X110000000Y-113500000D03*
X71000000Y-105500000D03*
X47500000Y-143500000D03*
X84500000Y-126500000D03*
X129500000Y-126000000D03*
X50500000Y-122000000D03*
X114000000Y-114500000D03*
X48500000Y-115000000D03*
X80500000Y-110000000D03*
X97000000Y-101500000D03*
X95000000Y-148000000D03*
X106000000Y-150000000D03*
X134000000Y-101500000D03*
X141487193Y-136538098D03*
X91000000Y-151000000D03*
X96500000Y-112000000D03*
X127000000Y-104000000D03*
X71500000Y-127500000D03*
X125000000Y-101000000D03*
X124500000Y-108500000D03*
X46500000Y-112000000D03*
X56000000Y-152000000D03*
X90000000Y-115500000D03*
X130500000Y-129000000D03*
X84000000Y-152000000D03*
X133500000Y-133500000D03*
X65000000Y-151000000D03*
X88000000Y-114500000D03*
X50500000Y-115000000D03*
X125500000Y-112500000D03*
X126500000Y-110500000D03*
X141487193Y-135538098D03*
X116500000Y-142000000D03*
X101000000Y-151000000D03*
X65000000Y-105500000D03*
X54500000Y-137500000D03*
X48500000Y-139500000D03*
X126500000Y-134500000D03*
X78000000Y-141500000D03*
X96000000Y-132500000D03*
X90500000Y-110000000D03*
X105000000Y-114000000D03*
X79000000Y-114500000D03*
X57500000Y-127500000D03*
X127500000Y-130000000D03*
X45500000Y-135000000D03*
X106000000Y-114500000D03*
X107000000Y-116500000D03*
X131500000Y-150500000D03*
X75500000Y-129500000D03*
X98000000Y-133500000D03*
X70500000Y-128500000D03*
X139000000Y-115500000D03*
X115500000Y-139000000D03*
X71500000Y-128500000D03*
X58500000Y-127500000D03*
X88000000Y-116500000D03*
X136500000Y-133500000D03*
X107000000Y-112500000D03*
X114500000Y-152000000D03*
X48500000Y-112000000D03*
X111000000Y-117500000D03*
X46500000Y-122000000D03*
X50500000Y-142500000D03*
X129500000Y-147500000D03*
X103000000Y-145000000D03*
X92000000Y-134500000D03*
X95500000Y-110000000D03*
X80500000Y-127500000D03*
X87000000Y-150000000D03*
X94000000Y-148000000D03*
X64000000Y-152000000D03*
X132500000Y-148500000D03*
X51500000Y-124000000D03*
X54500000Y-124000000D03*
X128500000Y-126000000D03*
X132000000Y-100500000D03*
X45500000Y-111000000D03*
X84500000Y-110000000D03*
X51500000Y-125000000D03*
X46500000Y-145500000D03*
X102000000Y-132500000D03*
X72000000Y-104500000D03*
X99000000Y-150000000D03*
X106000000Y-113500000D03*
X100000000Y-146000000D03*
X140500000Y-117500000D03*
X132500000Y-146500000D03*
X105000000Y-136500000D03*
X134500000Y-151500000D03*
X113000000Y-114500000D03*
X55500000Y-122000000D03*
X104000000Y-123500000D03*
X133500000Y-150500000D03*
X74000000Y-131500000D03*
X46500000Y-131000000D03*
X49500000Y-139500000D03*
X50500000Y-140500000D03*
X79000000Y-120500000D03*
X87000000Y-151000000D03*
X135000000Y-103500000D03*
X50500000Y-120000000D03*
X119500000Y-143000000D03*
X131500000Y-129000000D03*
X81600000Y-107600000D03*
X101000000Y-148000000D03*
X88000000Y-150000000D03*
X115500000Y-143000000D03*
X52500000Y-137500000D03*
X46500000Y-123000000D03*
X64000000Y-151000000D03*
X45500000Y-136500000D03*
X46500000Y-110000000D03*
X55500000Y-139500000D03*
X139500000Y-136500000D03*
X66000000Y-105500000D03*
X60000000Y-151000000D03*
X124500000Y-128000000D03*
%TO.N,+3V3*%
X86500000Y-124600000D03*
X62600000Y-126000000D03*
X71200000Y-124800000D03*
X88800000Y-125800000D03*
%TO.N,EN*%
X51250000Y-106000000D03*
X49500000Y-108200000D03*
%TO.N,SPICLK*%
X64965025Y-129965025D03*
X65954975Y-130954975D03*
%TO.N,/ID_N*%
X126400000Y-144200000D03*
X129000000Y-144200000D03*
D54*
%TO.N,VBUS*%
X98400000Y-108800000D03*
D53*
X98400000Y-115400000D03*
%TO.N,/RST*%
X85200000Y-143100000D03*
%TO.N,IRQ*%
X63765025Y-125000000D03*
%TD*%
D55*
%TO.N,EN*%
X51600000Y-104050000D02*
X51600000Y-102737500D01*
X49500000Y-127000000D02*
X51500000Y-129000000D01*
X49500000Y-108200000D02*
X49500000Y-127000000D01*
%TO.N,BOOT*%
X56227500Y-109900000D02*
X55840000Y-110287500D01*
X58230000Y-109900000D02*
X56227500Y-109900000D01*
%TO.N,IRQ*%
X74874500Y-136509400D02*
X76000000Y-136509400D01*
X67600000Y-135555456D02*
X67969544Y-135925000D01*
X74290100Y-135925000D02*
X74874500Y-136509400D01*
X67400000Y-125000000D02*
X67600000Y-125200000D01*
X67100000Y-125000000D02*
X67400000Y-125000000D01*
X67969544Y-135925000D02*
X74290100Y-135925000D01*
X67600000Y-125200000D02*
X67600000Y-135555456D01*
%TO.N,SPICS*%
X68400000Y-111400000D02*
X75730000Y-111400000D01*
X67000000Y-112800000D02*
X68400000Y-111400000D01*
X66400000Y-121707106D02*
X67000000Y-121107106D01*
X66400000Y-130410050D02*
X66400000Y-121707106D01*
X67000000Y-121107106D02*
X67000000Y-112800000D01*
X66654975Y-130665025D02*
X66400000Y-130410050D01*
X66654975Y-131244925D02*
X66654975Y-130665025D01*
X66400000Y-134600000D02*
X66400000Y-131499900D01*
X65600000Y-135400000D02*
X66400000Y-134600000D01*
X66400000Y-131499900D02*
X66654975Y-131244925D01*
%TO.N,SPIQ*%
X75330000Y-102400000D02*
X75730000Y-102400000D01*
X66500000Y-120900000D02*
X66500000Y-111230000D01*
X66500000Y-111230000D02*
X75330000Y-102400000D01*
X65700000Y-121700000D02*
X66500000Y-120900000D01*
X65700000Y-130220000D02*
X65700000Y-121700000D01*
X60520000Y-135400000D02*
X65700000Y-130220000D01*
%TO.N,EN*%
X57930000Y-101200000D02*
X58230000Y-100900000D01*
X57180000Y-101200000D02*
X57930000Y-101200000D01*
D56*
%TO.N,+3V3*%
X57930000Y-99700000D02*
X58230000Y-99400000D01*
X56850000Y-99700000D02*
X57930000Y-99700000D01*
D55*
%TO.N,IRQ*%
X57930000Y-108700000D02*
X53187500Y-108700000D01*
X58230000Y-108400000D02*
X57930000Y-108700000D01*
D56*
%TO.N,GND*%
X58230000Y-112770000D02*
X58230000Y-111400000D01*
D55*
%TO.N,SPID*%
X58530000Y-106900000D02*
X58230000Y-106900000D01*
X59400000Y-117900000D02*
X59400000Y-107770000D01*
X59400000Y-107770000D02*
X58530000Y-106900000D01*
X64465025Y-122965025D02*
X59400000Y-117900000D01*
X64465025Y-128914975D02*
X64465025Y-122965025D01*
X57980000Y-135400000D02*
X64465025Y-128914975D01*
%TO.N,SPICLK*%
X58500000Y-105400000D02*
X58230000Y-105400000D01*
X64200000Y-111100000D02*
X58500000Y-105400000D01*
X64965025Y-120965025D02*
X64200000Y-120200000D01*
X64200000Y-120200000D02*
X64200000Y-111100000D01*
X64965025Y-129965025D02*
X64965025Y-120965025D01*
%TO.N,UART_RX*%
X72080000Y-112800000D02*
X68320000Y-116560000D01*
X76600000Y-112800000D02*
X72080000Y-112800000D01*
X77000000Y-112400000D02*
X76600000Y-112800000D01*
X77000000Y-110870000D02*
X77000000Y-112400000D01*
X76030000Y-109900000D02*
X77000000Y-110870000D01*
X75730000Y-109900000D02*
X76030000Y-109900000D01*
%TO.N,UART_TX*%
X70860000Y-115525786D02*
X70860000Y-116560000D01*
X76900000Y-113300000D02*
X73085786Y-113300000D01*
X76030000Y-108400000D02*
X77600000Y-109970000D01*
X77600000Y-109970000D02*
X77600000Y-112600000D01*
X77600000Y-112600000D02*
X76900000Y-113300000D01*
X75730000Y-108400000D02*
X76030000Y-108400000D01*
X73085786Y-113300000D02*
X70860000Y-115525786D01*
D57*
%TO.N,D-*%
X76593603Y-106900000D02*
X78673583Y-108979980D01*
X78673583Y-108979980D02*
X92948798Y-108979980D01*
%TO.N,D+*%
X78860000Y-108530000D02*
X92762410Y-108530000D01*
X76780000Y-106150000D02*
X76780000Y-106450000D01*
X76480000Y-106150000D02*
X76780000Y-106150000D01*
%TO.N,D-*%
X75730000Y-106900000D02*
X76593603Y-106900000D01*
%TO.N,D+*%
X75730000Y-105400000D02*
X76480000Y-106150000D01*
X76780000Y-106450000D02*
X78860000Y-108530000D01*
D55*
%TO.N,/RCC_OUT*%
X75730000Y-100900000D02*
X76150000Y-100900000D01*
X76150000Y-100900000D02*
X78175000Y-102925000D01*
%TO.N,/RCC_IN*%
X77950000Y-99400000D02*
X80025000Y-101475000D01*
X75730000Y-99400000D02*
X77950000Y-99400000D01*
D56*
%TO.N,GND*%
X81600000Y-106100000D02*
X80000000Y-104500000D01*
X81600000Y-107600000D02*
X81600000Y-106100000D01*
%TO.N,+3V3*%
X55600000Y-100950000D02*
X56850000Y-99700000D01*
X50450000Y-102062500D02*
X51600000Y-100912500D01*
X50450000Y-110562500D02*
X50450000Y-102062500D01*
X50450000Y-110562500D02*
X51800000Y-111912500D01*
D55*
%TO.N,EN*%
X57000000Y-101380000D02*
X57180000Y-101200000D01*
X56200000Y-104800000D02*
X57000000Y-104000000D01*
X56150000Y-105250000D02*
X56200000Y-105200000D01*
X56200000Y-105200000D02*
X56200000Y-104800000D01*
X52800000Y-105250000D02*
X56150000Y-105250000D01*
X57000000Y-104000000D02*
X57000000Y-101380000D01*
X51600000Y-104050000D02*
X52800000Y-105250000D01*
D56*
%TO.N,GND*%
X80025000Y-102925000D02*
X80025000Y-104475000D01*
X97480000Y-107155000D02*
X98025000Y-107155000D01*
X55600000Y-102500000D02*
X55600000Y-102925000D01*
D55*
X108362300Y-119627101D02*
X108362300Y-120637700D01*
D56*
X90535000Y-107155000D02*
X89960000Y-106580000D01*
X86979800Y-132400000D02*
X86979800Y-133700000D01*
D55*
X104947500Y-124200000D02*
X105347500Y-123800000D01*
D56*
X70975000Y-144300000D02*
X71000000Y-144300000D01*
X122000000Y-146112500D02*
X120850000Y-147262500D01*
D55*
X82959600Y-141132200D02*
X81167800Y-141132200D01*
D56*
X64560000Y-147060000D02*
X65400000Y-147900000D01*
X63625000Y-147060000D02*
X64560000Y-147060000D01*
X82310000Y-102925000D02*
X82460000Y-103075000D01*
X120850000Y-148762500D02*
X122000000Y-149912500D01*
X121087500Y-126912500D02*
X120500000Y-127500000D01*
X124000000Y-135000000D02*
X125000000Y-135000000D01*
X116000000Y-147000000D02*
X116000000Y-146200000D01*
D55*
X81595593Y-134860844D02*
X81834100Y-134622337D01*
X89079800Y-146500000D02*
X87489800Y-146500000D01*
D56*
X124000000Y-135000000D02*
X124000000Y-135887500D01*
X55600000Y-102925000D02*
X54600000Y-103925000D01*
X121087500Y-125000000D02*
X121087500Y-126912500D01*
X100110000Y-128775000D02*
X100110000Y-131390000D01*
X51900000Y-145100000D02*
X51500000Y-144700000D01*
X120962500Y-111000000D02*
X122200000Y-111000000D01*
D55*
X84040600Y-133207400D02*
X84135100Y-133301900D01*
X81167800Y-141132200D02*
X80900000Y-141400000D01*
X87619800Y-140119800D02*
X86900000Y-139400000D01*
D56*
X86979800Y-132400000D02*
X88400000Y-132400000D01*
X91080000Y-107155000D02*
X90535000Y-107155000D01*
D55*
X87619800Y-141100000D02*
X89129800Y-141100000D01*
D56*
X51500000Y-144700000D02*
X51500000Y-134000000D01*
X53400000Y-107200000D02*
X55200000Y-107200000D01*
X116000000Y-148100000D02*
X116000000Y-147000000D01*
D55*
X84085100Y-134528200D02*
X82959600Y-134528200D01*
X81834100Y-136509400D02*
X81784100Y-136559400D01*
D56*
X56400000Y-147040000D02*
X51900000Y-147040000D01*
X56400000Y-107600000D02*
X56000000Y-108000000D01*
X120925000Y-113000000D02*
X120925000Y-111037500D01*
X121050000Y-102562500D02*
X121012500Y-102600000D01*
X53800000Y-102500000D02*
X53800000Y-103125000D01*
X80025000Y-102925000D02*
X82310000Y-102925000D01*
D55*
X89079800Y-146500000D02*
X90000000Y-146500000D01*
D56*
X115400000Y-135000000D02*
X114500000Y-135000000D01*
X71500000Y-132300000D02*
X72400000Y-131400000D01*
D55*
X89129800Y-141100000D02*
X89479800Y-141450000D01*
X90000000Y-146500000D02*
X90400000Y-146900000D01*
D56*
X121050000Y-100600000D02*
X122400000Y-100600000D01*
D55*
X81784100Y-134578200D02*
X81834100Y-134528200D01*
D56*
X98025000Y-107155000D02*
X98600000Y-106580000D01*
X120925000Y-111037500D02*
X120962500Y-111000000D01*
D55*
X104060000Y-126850000D02*
X104060000Y-124260000D01*
X81784100Y-136459400D02*
X81784100Y-134578200D01*
D56*
X124000000Y-134112500D02*
X124000000Y-135000000D01*
X70512500Y-132300000D02*
X71500000Y-132300000D01*
X71000000Y-144300000D02*
X71900000Y-143400000D01*
X79925000Y-102925000D02*
X80025000Y-102925000D01*
X115400000Y-136025000D02*
X115400000Y-135000000D01*
X86600000Y-107712500D02*
X84600000Y-107712500D01*
X115000000Y-115500000D02*
X115500000Y-115000000D01*
X137851700Y-136900000D02*
X137851700Y-135851700D01*
D55*
X104000000Y-124200000D02*
X104000000Y-123500000D01*
D56*
X53800000Y-103125000D02*
X54600000Y-103925000D01*
D55*
X85339800Y-146500000D02*
X86789800Y-146500000D01*
X81834100Y-138490600D02*
X82959600Y-138490600D01*
X82959600Y-133207400D02*
X84040600Y-133207400D01*
D56*
X58230000Y-112770000D02*
X57800000Y-113200000D01*
D55*
X102810000Y-124200000D02*
X104000000Y-124200000D01*
X81834100Y-134622337D02*
X81834100Y-134528200D01*
D56*
X55200000Y-107200000D02*
X56000000Y-108000000D01*
X116000000Y-147000000D02*
X114500000Y-147000000D01*
D55*
X81834100Y-136509400D02*
X81784100Y-136459400D01*
D56*
X121050000Y-100600000D02*
X121050000Y-102562500D01*
X100110000Y-131390000D02*
X100000000Y-131500000D01*
D55*
X81784100Y-138440600D02*
X81834100Y-138490600D01*
X81834100Y-134528200D02*
X82959600Y-134528200D01*
X87489800Y-146500000D02*
X87139800Y-146150000D01*
D56*
X120850000Y-147262500D02*
X120850000Y-148762500D01*
X115400000Y-135000000D02*
X115400000Y-134375000D01*
D55*
X84135100Y-134478200D02*
X84085100Y-134528200D01*
X84135100Y-133301900D02*
X84135100Y-134478200D01*
D56*
X51900000Y-145900000D02*
X51900000Y-145100000D01*
D55*
X81784100Y-136559400D02*
X81784100Y-138440600D01*
X104000000Y-124200000D02*
X104947500Y-124200000D01*
X86789800Y-146500000D02*
X87139800Y-146150000D01*
D56*
X56400000Y-106750000D02*
X56400000Y-107600000D01*
X81712500Y-107712500D02*
X81600000Y-107600000D01*
X78175000Y-101475000D02*
X78475000Y-101475000D01*
X86979800Y-131500000D02*
X86979800Y-132400000D01*
D55*
X87619800Y-141100000D02*
X87619800Y-140119800D01*
X82959600Y-136509400D02*
X81834100Y-136509400D01*
X108362300Y-120637700D02*
X108000000Y-121000000D01*
D56*
X137851700Y-135851700D02*
X137000000Y-135000000D01*
X125000000Y-117550000D02*
X125000000Y-116000000D01*
X120500000Y-119550483D02*
X120500000Y-121000000D01*
X138800000Y-117300000D02*
X140300000Y-117300000D01*
X80025000Y-102950000D02*
X80000000Y-102975000D01*
X51900000Y-147040000D02*
X51900000Y-145900000D01*
X84600000Y-107712500D02*
X81712500Y-107712500D01*
X140300000Y-117300000D02*
X140500000Y-117500000D01*
X115000000Y-115725000D02*
X115000000Y-115500000D01*
X122000000Y-149912500D02*
X122000000Y-151000000D01*
X78475000Y-101475000D02*
X79925000Y-102925000D01*
D55*
X104060000Y-124260000D02*
X104000000Y-124200000D01*
D56*
%TO.N,+3V3*%
X86500000Y-124600000D02*
X81440000Y-124600000D01*
X102010000Y-128775000D02*
X104035000Y-128775000D01*
D55*
X81680509Y-149350000D02*
X84264800Y-146765709D01*
D56*
X55600000Y-100950000D02*
X53800000Y-100950000D01*
X80720000Y-123880000D02*
X73400000Y-116560000D01*
X81440000Y-124600000D02*
X80600000Y-124600000D01*
X80600000Y-124600000D02*
X80600000Y-124000000D01*
D55*
X91300000Y-129970000D02*
X93570000Y-127700000D01*
X72312500Y-122800000D02*
X71712500Y-122800000D01*
X80600000Y-139193200D02*
X80600000Y-129970000D01*
X56400000Y-141960000D02*
X63605000Y-141960000D01*
X85339800Y-144600000D02*
X84400000Y-143660200D01*
D56*
X80600000Y-124000000D02*
X80720000Y-123880000D01*
D55*
X66092500Y-143305000D02*
X62971731Y-143305000D01*
X62971731Y-143305000D02*
X62260000Y-144016731D01*
X82959600Y-140471800D02*
X81878600Y-140471800D01*
D56*
X93570000Y-127700000D02*
X103010000Y-127700000D01*
D55*
X85339800Y-144600000D02*
X87139800Y-144600000D01*
D56*
X51800000Y-112800000D02*
X51800000Y-111912500D01*
D55*
X89079800Y-144600000D02*
X87139800Y-144600000D01*
D56*
X80600000Y-124600000D02*
X71400000Y-124600000D01*
D55*
X62260000Y-148275000D02*
X63335000Y-149350000D01*
X84400000Y-140831200D02*
X84040600Y-140471800D01*
D56*
X51800000Y-117000000D02*
X51800000Y-112800000D01*
D55*
X63335000Y-149350000D02*
X81680509Y-149350000D01*
D56*
X81440000Y-124600000D02*
X80720000Y-123880000D01*
D55*
X89542300Y-145062500D02*
X89079800Y-144600000D01*
X106610000Y-128750000D02*
X106660000Y-128800000D01*
X104060000Y-128750000D02*
X106610000Y-128750000D01*
X68145000Y-146500000D02*
X63625000Y-141980000D01*
X73712500Y-121400000D02*
X72312500Y-122800000D01*
X81878600Y-140471800D02*
X80600000Y-139193200D01*
D56*
X53800000Y-100950000D02*
X51637500Y-100950000D01*
X71400000Y-124600000D02*
X71200000Y-124800000D01*
X103010000Y-127700000D02*
X104060000Y-128750000D01*
D55*
X73400000Y-116560000D02*
X73400000Y-121087500D01*
D56*
X90700000Y-127700000D02*
X93570000Y-127700000D01*
D55*
X84040600Y-140471800D02*
X82959600Y-140471800D01*
X91279800Y-145062500D02*
X89542300Y-145062500D01*
X73400000Y-121087500D02*
X73712500Y-121400000D01*
X84400000Y-143660200D02*
X84400000Y-140831200D01*
D56*
X104035000Y-128775000D02*
X104060000Y-128750000D01*
D55*
X84264800Y-145675000D02*
X85339800Y-144600000D01*
X62260000Y-144016731D02*
X62260000Y-148275000D01*
D56*
X55675000Y-101025000D02*
X55600000Y-100950000D01*
D55*
X80600000Y-129970000D02*
X91300000Y-129970000D01*
D56*
X62600000Y-126000000D02*
X60800000Y-126000000D01*
X60800000Y-126000000D02*
X51800000Y-117000000D01*
D55*
X69287500Y-146500000D02*
X68145000Y-146500000D01*
X63605000Y-141960000D02*
X63625000Y-141980000D01*
X71712500Y-122800000D02*
X70312500Y-121400000D01*
D56*
X88800000Y-125800000D02*
X90700000Y-127700000D01*
D55*
X84264800Y-146765709D02*
X84264800Y-145675000D01*
X69287500Y-146500000D02*
X66092500Y-143305000D01*
%TO.N,Net-(U3-VREF)*%
X81878600Y-133867800D02*
X81784100Y-133773300D01*
X81784100Y-132641500D02*
X82925600Y-131500000D01*
X85079800Y-131500000D02*
X85079800Y-133700000D01*
X82959600Y-133867800D02*
X81878600Y-133867800D01*
X82925600Y-131500000D02*
X85079800Y-131500000D01*
X81784100Y-133773300D02*
X81784100Y-132641500D01*
%TO.N,+3.3VA*%
X89479800Y-143000000D02*
X91217300Y-143000000D01*
X85451000Y-139151000D02*
X86400000Y-140100000D01*
X87619800Y-143000000D02*
X89479800Y-143000000D01*
X91217300Y-143000000D02*
X91279800Y-142937500D01*
X86400000Y-140100000D02*
X86400000Y-141780200D01*
X89542300Y-142937500D02*
X89479800Y-143000000D01*
X86400000Y-141780200D02*
X87619800Y-143000000D01*
X87619800Y-143000000D02*
X87619800Y-142919800D01*
X82959600Y-139151000D02*
X85451000Y-139151000D01*
%TO.N,/RCC_OUT*%
X78175000Y-102700000D02*
X78450000Y-102975000D01*
X78175000Y-102925000D02*
X78175000Y-104225000D01*
%TO.N,/RCC_IN*%
X80235000Y-101475000D02*
X80860000Y-102100000D01*
X80860000Y-102100000D02*
X81885000Y-102100000D01*
X80025000Y-101475000D02*
X80235000Y-101475000D01*
X81885000Y-102100000D02*
X82460000Y-101525000D01*
%TO.N,Net-(J13-Pin_2)*%
X100860000Y-124150000D02*
X100910000Y-124200000D01*
X100860000Y-119000000D02*
X100860000Y-124150000D01*
X100910000Y-124200000D02*
X100910000Y-126275000D01*
X100910000Y-126275000D02*
X101060000Y-126425000D01*
D56*
%TO.N,Net-(J17-Pin_1)*%
X133343400Y-123916800D02*
X128789361Y-123916800D01*
X134872900Y-122387300D02*
X133343400Y-123916800D01*
X125000000Y-119450000D02*
X123450484Y-119450000D01*
X123450484Y-119450000D02*
X121450001Y-117449517D01*
X137200000Y-124714400D02*
X134872900Y-122387300D01*
D55*
X120500000Y-117449517D02*
X121450001Y-117449517D01*
D56*
X128789361Y-123916800D02*
X125000000Y-120127439D01*
X125000000Y-120127439D02*
X125000000Y-119450000D01*
X137200000Y-129200000D02*
X137200000Y-124714400D01*
D55*
%TO.N,+5V*%
X114987300Y-125012700D02*
X114400000Y-125600000D01*
X113762300Y-118202101D02*
X114987300Y-119427101D01*
X103400000Y-119000000D02*
X104197899Y-118202101D01*
X115000000Y-117275000D02*
X115000000Y-119414401D01*
X117500000Y-120062500D02*
X115622699Y-120062500D01*
X115000000Y-119414401D02*
X114987300Y-119427101D01*
X115622699Y-120062500D02*
X114987300Y-119427101D01*
X114987300Y-119427101D02*
X114987300Y-125012700D01*
X121087500Y-122550000D02*
X119987500Y-122550000D01*
X104197899Y-118202101D02*
X113762300Y-118202101D01*
X119987500Y-122550000D02*
X117500000Y-120062500D01*
X114987300Y-126012700D02*
X114200000Y-126800000D01*
%TO.N,/I2P*%
X88730200Y-137830200D02*
X92800000Y-141900000D01*
D56*
X116000000Y-150000000D02*
X111100000Y-150000000D01*
D55*
X95000000Y-147000000D02*
X92800000Y-144800000D01*
X101400000Y-147000000D02*
X103500000Y-149100000D01*
X101400000Y-147000000D02*
X95000000Y-147000000D01*
D56*
X111100000Y-150000000D02*
X110200000Y-149100000D01*
D55*
X82959600Y-137830200D02*
X88730200Y-137830200D01*
X92800000Y-141900000D02*
X92800000Y-144800000D01*
D56*
X118600000Y-148087500D02*
X117912500Y-148087500D01*
D55*
X103500000Y-149100000D02*
X110200000Y-149100000D01*
D56*
X117912500Y-148087500D02*
X116000000Y-150000000D01*
D55*
%TO.N,EN*%
X52700000Y-106000000D02*
X53400000Y-105300000D01*
X51250000Y-106000000D02*
X52700000Y-106000000D01*
D56*
%TO.N,/I1P*%
X117287500Y-135687500D02*
X115400000Y-137575000D01*
D55*
X110000000Y-137600000D02*
X109651000Y-137949000D01*
D56*
X110025000Y-137575000D02*
X110000000Y-137600000D01*
D55*
X90356106Y-137949000D02*
X88256106Y-135849000D01*
X88256106Y-135849000D02*
X82959600Y-135849000D01*
D56*
X115400000Y-137575000D02*
X110025000Y-137575000D01*
X117600000Y-135687500D02*
X117287500Y-135687500D01*
D55*
X109651000Y-137949000D02*
X90356106Y-137949000D01*
D56*
%TO.N,/I2N*%
X110400000Y-144300000D02*
X110200000Y-144100000D01*
D55*
X95800000Y-144100000D02*
X88869800Y-137169800D01*
D56*
X118600000Y-146225000D02*
X117925000Y-146225000D01*
X117925000Y-146225000D02*
X116000000Y-144300000D01*
D55*
X110200000Y-144100000D02*
X95800000Y-144100000D01*
D56*
X116000000Y-144300000D02*
X110400000Y-144300000D01*
D55*
X88869800Y-137169800D02*
X82959600Y-137169800D01*
D56*
%TO.N,/I1N*%
X115400000Y-132825000D02*
X115175000Y-132825000D01*
X115175000Y-132825000D02*
X114950000Y-132600000D01*
D55*
X91559600Y-137288600D02*
X89459600Y-135188600D01*
D56*
X114950000Y-132600000D02*
X110000000Y-132600000D01*
D55*
X89459600Y-135188600D02*
X82959600Y-135188600D01*
D56*
X117600000Y-134112500D02*
X116687500Y-134112500D01*
D55*
X105311400Y-137288600D02*
X110000000Y-132600000D01*
X91559600Y-137288600D02*
X105311400Y-137288600D01*
D56*
X116687500Y-134112500D02*
X115400000Y-132825000D01*
D55*
%TO.N,Net-(J18-Pin_1)*%
X75500000Y-146500000D02*
X71112500Y-146500000D01*
X71112500Y-145987500D02*
X69425000Y-144300000D01*
X71112500Y-146500000D02*
X71112500Y-145987500D01*
D56*
%TO.N,/VP*%
X112900000Y-102600000D02*
X112100000Y-103400000D01*
D55*
X74919000Y-133867800D02*
X74824500Y-133773300D01*
X74874500Y-133867800D02*
X76000000Y-133867800D01*
D56*
X119150000Y-102562500D02*
X119187500Y-102600000D01*
D55*
X90835000Y-121338655D02*
X90835000Y-117036731D01*
D56*
X119187500Y-102600000D02*
X112900000Y-102600000D01*
D55*
X90835000Y-117036731D02*
X91546731Y-116325000D01*
X93965456Y-116325000D02*
X106890456Y-103400000D01*
X83424500Y-128749155D02*
X90835000Y-121338655D01*
D56*
X119150000Y-100600000D02*
X119150000Y-102562500D01*
D55*
X91546731Y-116325000D02*
X93965456Y-116325000D01*
X76000000Y-133867800D02*
X74919000Y-133867800D01*
X78716845Y-128749155D02*
X74824500Y-132641500D01*
X106890456Y-103400000D02*
X112100000Y-103400000D01*
D56*
X119187500Y-104600000D02*
X119187500Y-102600000D01*
D55*
X83424500Y-128749155D02*
X78716845Y-128749155D01*
X74824500Y-132641500D02*
X74824500Y-133817800D01*
X74824500Y-133817800D02*
X74874500Y-133867800D01*
%TO.N,/VN*%
X97750000Y-116398269D02*
X92853269Y-121295000D01*
X112100000Y-108400000D02*
X104480761Y-108400000D01*
X104480761Y-108400000D02*
X98180761Y-114700000D01*
X92853269Y-121295000D02*
X91895381Y-121295000D01*
X91895381Y-121295000D02*
X83941226Y-129249155D01*
D56*
X116462500Y-108400000D02*
X119062500Y-111000000D01*
X112100000Y-108400000D02*
X116462500Y-108400000D01*
X119062500Y-111000000D02*
X119062500Y-112962500D01*
D55*
X97750000Y-115739950D02*
X97750000Y-116398269D01*
D56*
X119062500Y-112962500D02*
X119100000Y-113000000D01*
D55*
X98110050Y-114700000D02*
X97700000Y-115110050D01*
X97700000Y-115110050D02*
X97700000Y-115689950D01*
X79958245Y-129249155D02*
X76000000Y-133207400D01*
X98180761Y-114700000D02*
X98110050Y-114700000D01*
X97700000Y-115689950D02*
X97750000Y-115739950D01*
X83941226Y-129249155D02*
X79958245Y-129249155D01*
%TO.N,Net-(D1-A)*%
X112187300Y-119427101D02*
X110387300Y-119427101D01*
X110387300Y-119427101D02*
X110187300Y-119627101D01*
%TO.N,Net-(D2-A)*%
X68600000Y-132387500D02*
X68687500Y-132300000D01*
X68600000Y-134700000D02*
X68600000Y-132387500D01*
%TO.N,/WarnOut*%
X76000000Y-134528200D02*
X75905500Y-134433700D01*
X71666300Y-134433700D02*
X71400000Y-134700000D01*
X75905500Y-134433700D02*
X71666300Y-134433700D01*
%TO.N,Net-(D3-A)*%
X106660000Y-124312500D02*
X107172500Y-123800000D01*
X106660000Y-126000000D02*
X106660000Y-124312500D01*
D56*
%TO.N,VDD_P*%
X134800000Y-119200000D02*
X132610201Y-119200000D01*
X136950000Y-115650000D02*
X136950000Y-119014401D01*
X136950000Y-119014401D02*
X140322899Y-122387300D01*
X138800000Y-105900000D02*
X138800000Y-113800000D01*
X138800000Y-113800000D02*
X136950000Y-115650000D01*
X134800000Y-108000000D02*
X134800000Y-119200000D01*
X123712500Y-105900000D02*
X121012500Y-108600000D01*
X132700000Y-105900000D02*
X138800000Y-105900000D01*
X132700000Y-105900000D02*
X123712500Y-105900000D01*
X132610201Y-119200000D02*
X129422901Y-122387300D01*
X132700000Y-105900000D02*
X134800000Y-108000000D01*
D55*
%TO.N,SPIQ*%
X69030788Y-139745000D02*
X69910788Y-140625000D01*
X75330000Y-102700000D02*
X75730000Y-102700000D01*
X60520000Y-135400000D02*
X64865000Y-139745000D01*
X74814712Y-140625000D02*
X69910788Y-140625000D01*
X76000000Y-140471800D02*
X74967913Y-140471800D01*
X64865000Y-139745000D02*
X69030788Y-139745000D01*
X74967913Y-140471800D02*
X74814712Y-140625000D01*
%TO.N,SPICLK*%
X58630000Y-105700000D02*
X58230000Y-105700000D01*
X74607606Y-140125000D02*
X70117894Y-140125000D01*
X63060000Y-135400000D02*
X66905000Y-139245000D01*
X74921206Y-139811400D02*
X74607606Y-140125000D01*
X63060000Y-133849950D02*
X65954975Y-130954975D01*
X63060000Y-135400000D02*
X63060000Y-133849950D01*
X76000000Y-139811400D02*
X74921206Y-139811400D01*
X66905000Y-139245000D02*
X69237894Y-139245000D01*
X69237894Y-139245000D02*
X70117894Y-140125000D01*
%TO.N,SPID*%
X61510000Y-140245000D02*
X68823681Y-140245000D01*
X58630000Y-107200000D02*
X58230000Y-107200000D01*
X57980000Y-135400000D02*
X57980000Y-136715000D01*
X57980000Y-136715000D02*
X61510000Y-140245000D01*
X68823681Y-140245000D02*
X69710881Y-141132200D01*
X69710881Y-141132200D02*
X76000000Y-141132200D01*
%TO.N,SPICS*%
X74874500Y-139151000D02*
X74400500Y-139625000D01*
X74400500Y-139625000D02*
X70325000Y-139625000D01*
X65600000Y-135400000D02*
X66100000Y-135400000D01*
X76000000Y-139151000D02*
X74874500Y-139151000D01*
X66100000Y-135400000D02*
X70325000Y-139625000D01*
%TO.N,UART_RX*%
X68320000Y-116560000D02*
X68320000Y-121232500D01*
X75730000Y-110200000D02*
X76030000Y-110200000D01*
X68320000Y-121232500D02*
X68487500Y-121400000D01*
%TO.N,UART_TX*%
X71887500Y-117767500D02*
X71887500Y-121400000D01*
X70860000Y-116560000D02*
X70860000Y-116740000D01*
X70860000Y-116740000D02*
X71887500Y-117767500D01*
X75730000Y-108700000D02*
X76100000Y-108700000D01*
D56*
%TO.N,/ID_P*%
X126800000Y-146000000D02*
X124712500Y-148087500D01*
X127400000Y-137951701D02*
X127400000Y-146000000D01*
X128451701Y-136900000D02*
X127400000Y-137951701D01*
X122331371Y-151800000D02*
X120487500Y-151800000D01*
X124812500Y-136900000D02*
X124000000Y-137712500D01*
X122600000Y-137712500D02*
X120800000Y-135912500D01*
X124000000Y-137712500D02*
X122600000Y-137712500D01*
X120487500Y-151800000D02*
X118600000Y-149912500D01*
X123150000Y-149237500D02*
X123150000Y-150981371D01*
X119200000Y-135912500D02*
X117600000Y-137512500D01*
X120800000Y-135912500D02*
X119200000Y-135912500D01*
X124812500Y-136900000D02*
X128451701Y-136900000D01*
X124712500Y-148087500D02*
X122000000Y-148087500D01*
X127400000Y-146000000D02*
X126800000Y-146000000D01*
X122000000Y-148087500D02*
X123150000Y-149237500D01*
X123150000Y-150981371D02*
X122331371Y-151800000D01*
%TO.N,/ID_N*%
X129287500Y-132287500D02*
X124000000Y-132287500D01*
X122600000Y-132287500D02*
X120800000Y-134087500D01*
X135851658Y-144300018D02*
X135751640Y-144200000D01*
X124000000Y-132287500D02*
X122600000Y-132287500D01*
X126400000Y-144200000D02*
X122087500Y-144200000D01*
X120800000Y-134087500D02*
X119400000Y-134087500D01*
X118712500Y-144287500D02*
X118600000Y-144400000D01*
X122000000Y-144287500D02*
X118712500Y-144287500D01*
X119400000Y-134087500D02*
X117600000Y-132287500D01*
X135196799Y-138196799D02*
X135196799Y-143645159D01*
X135196799Y-143645159D02*
X135851658Y-144300018D01*
X122087500Y-144200000D02*
X122000000Y-144287500D01*
X129287500Y-132287500D02*
X135196799Y-138196799D01*
X135751640Y-144200000D02*
X129000000Y-144200000D01*
D55*
%TO.N,VBUS*%
X83550000Y-106405456D02*
X83550000Y-105369544D01*
X91529999Y-108080000D02*
X89707918Y-108080000D01*
X99225000Y-108080000D02*
X99652500Y-107652500D01*
X97118738Y-108080000D02*
X98600000Y-108080000D01*
X91880000Y-107155000D02*
X91880000Y-107729999D01*
X89707918Y-108080000D02*
X88377918Y-106750000D01*
X83894544Y-106750000D02*
X83550000Y-106405456D01*
X99652500Y-105880418D02*
X99652500Y-107000000D01*
X98852500Y-108332500D02*
X98600000Y-108080000D01*
X98400000Y-115400000D02*
X98400000Y-116000000D01*
X99902500Y-107402500D02*
X103580000Y-103725000D01*
X98852500Y-108452500D02*
X98952500Y-108352500D01*
X96680000Y-107641262D02*
X97118738Y-108080000D01*
X98505000Y-108800000D02*
X98400000Y-108800000D01*
X88377918Y-106750000D02*
X83894544Y-106750000D01*
X98400000Y-116000000D02*
X98320000Y-116080000D01*
X98600000Y-108080000D02*
X99225000Y-108080000D01*
X91880000Y-107729999D02*
X91529999Y-108080000D01*
X99652500Y-107000000D02*
X99652500Y-107152500D01*
X84739544Y-104180000D02*
X97952082Y-104180000D01*
X96680000Y-107155000D02*
X96680000Y-107641262D01*
X97952082Y-104180000D02*
X99652500Y-105880418D01*
X99652500Y-107000000D02*
X99652500Y-107652500D01*
X98320000Y-116080000D02*
X98320000Y-119000000D01*
X83550000Y-105369544D02*
X84739544Y-104180000D01*
X99652500Y-107152500D02*
X99902500Y-107402500D01*
X98952500Y-108352500D02*
X103580000Y-103725000D01*
X98852500Y-108452500D02*
X98852500Y-108332500D01*
X99652500Y-107652500D02*
X99902500Y-107402500D01*
X98952500Y-108352500D02*
X98505000Y-108800000D01*
D57*
%TO.N,D+*%
X94262410Y-106280000D02*
X94530000Y-106547590D01*
X93530000Y-106547590D02*
X93797590Y-106280000D01*
X92762410Y-108530000D02*
X93480000Y-107812410D01*
X93797590Y-106280000D02*
X94262410Y-106280000D01*
X94530000Y-106547590D02*
X94530000Y-107155000D01*
X93530000Y-107155000D02*
X93530000Y-106547590D01*
X93480000Y-107155000D02*
X93530000Y-107155000D01*
X93480000Y-107812410D02*
X93480000Y-107155000D01*
%TO.N,D-*%
X94030000Y-107155000D02*
X94030000Y-107762410D01*
X93980000Y-107948778D02*
X93980000Y-107205000D01*
X94762410Y-108030000D02*
X95030000Y-107762410D01*
X93980000Y-107205000D02*
X94030000Y-107155000D01*
X92948798Y-108979980D02*
X93980000Y-107948778D01*
X94297590Y-108030000D02*
X94762410Y-108030000D01*
X95030000Y-107762410D02*
X95030000Y-107155000D01*
X94030000Y-107762410D02*
X94297590Y-108030000D01*
D55*
%TO.N,Net-(J8-CC2)*%
X87307500Y-105180000D02*
X86600000Y-105887500D01*
X91586016Y-105180000D02*
X87307500Y-105180000D01*
X92530000Y-107155000D02*
X92530000Y-106123984D01*
X92530000Y-106123984D02*
X91586016Y-105180000D01*
%TO.N,Net-(J8-CC1)*%
X95530000Y-106269773D02*
X93940227Y-104680000D01*
X95530000Y-107155000D02*
X95530000Y-106269773D01*
X85807500Y-104680000D02*
X84600000Y-105887500D01*
X93940227Y-104680000D02*
X85807500Y-104680000D01*
%TO.N,Net-(J9-Pin_2)*%
X82959600Y-147363802D02*
X81473402Y-148850000D01*
X82959600Y-141792600D02*
X82959600Y-147363802D01*
X81473402Y-148850000D02*
X67955000Y-148850000D01*
X67955000Y-148850000D02*
X63625000Y-144520000D01*
%TO.N,Net-(J10-Pin_2)*%
X64258269Y-140745000D02*
X55035000Y-140745000D01*
X55035000Y-140745000D02*
X55035000Y-143135000D01*
X65305869Y-141792600D02*
X64258269Y-140745000D01*
X76000000Y-141792600D02*
X65305869Y-141792600D01*
X55035000Y-143135000D02*
X56400000Y-144500000D01*
%TO.N,Net-(J12-Pin_1)*%
X55840000Y-115700000D02*
X56840000Y-116700000D01*
X55840000Y-112112500D02*
X55840000Y-115700000D01*
%TO.N,/RST*%
X85200000Y-140924093D02*
X85200000Y-143100000D01*
X84087307Y-139811400D02*
X85200000Y-140924093D01*
X82959600Y-139811400D02*
X84087307Y-139811400D01*
D56*
%TO.N,Net-(R12-Pad1)*%
X121012500Y-106600000D02*
X121012500Y-104600000D01*
%TO.N,Net-(R13-Pad2)*%
X119187500Y-108600000D02*
X119187500Y-106600000D01*
D55*
%TO.N,IRQ*%
X61590222Y-125300000D02*
X62889950Y-125300000D01*
X63765025Y-125000000D02*
X63189950Y-125000000D01*
X53000000Y-116709778D02*
X61590222Y-125300000D01*
X63189950Y-125000000D02*
X62889950Y-125300000D01*
X53000000Y-111287500D02*
X53000000Y-116709778D01*
X53187500Y-108700000D02*
X51800000Y-110087500D01*
X51800000Y-110087500D02*
X53000000Y-111287500D01*
%TO.N,Net-(U3-OSCI)*%
X74019300Y-136975000D02*
X72525000Y-136975000D01*
X76000000Y-137830200D02*
X74874500Y-137830200D01*
X74874500Y-137830200D02*
X74019300Y-136975000D01*
%TO.N,Net-(U3-OSCO)*%
X76000000Y-138490600D02*
X72859400Y-138490600D01*
X72859400Y-138490600D02*
X72525000Y-138825000D01*
%TO.N,Net-(U4-SW)*%
X119549999Y-117449517D02*
X119549999Y-115675001D01*
X119599999Y-116496900D02*
X119549999Y-116546900D01*
X119549999Y-116546900D02*
X119549999Y-117449517D01*
X121244408Y-114175000D02*
X122075000Y-115005592D01*
X119549999Y-115675001D02*
X119725000Y-115500000D01*
X122075000Y-115994408D02*
X121572508Y-116496900D01*
X117500000Y-115723485D02*
X119048485Y-114175000D01*
X122075000Y-115005592D02*
X122075000Y-115994408D01*
X121572508Y-116496900D02*
X119599999Y-116496900D01*
X117500000Y-117937500D02*
X117500000Y-115723485D01*
X119048485Y-114175000D02*
X121244408Y-114175000D01*
%TO.N,Net-(U4-CB)*%
X118925000Y-118925484D02*
X119549999Y-119550483D01*
X119255592Y-114675000D02*
X118925000Y-115005592D01*
X120450000Y-114675000D02*
X119255592Y-114675000D01*
X121275000Y-115500000D02*
X120450000Y-114675000D01*
X118925000Y-115005592D02*
X118925000Y-118925484D01*
%TO.N,Net-(U4-FB)*%
X121450001Y-119550483D02*
X121450001Y-121087501D01*
X122912500Y-122550000D02*
X122912500Y-125000000D01*
X121450001Y-121087501D02*
X122912500Y-122550000D01*
%TD*%
M02*
