%TF.GenerationSoftware,KiCad,Pcbnew,9.0.8*%
%TF.CreationDate,2026-04-16T23:26:07+02:00*%
%TF.ProjectId,project,70726f6a-6563-4742-9e6b-696361645f70,rev?*%
%TF.SameCoordinates,Original*%
%TF.FileFunction,Soldermask,Top*%
%TF.FilePolarity,Negative*%
%FSLAX46Y46*%
G04 Gerber Fmt 4.6, Leading zero omitted, Abs format (unit mm)*
G04 Created by KiCad (PCBNEW 9.0.8) date 2026-04-16 23:26:07*
%MOMM*%
%LPD*%
G01*
G04 APERTURE LIST*
G04 Aperture macros list*
%AMRoundRect*
0 Rectangle with rounded corners*
0 $1 Rounding radius*
0 $2 $3 $4 $5 $6 $7 $8 $9 X,Y pos of 4 corners*
0 Add a 4 corners polygon primitive as box body*
4,1,4,$2,$3,$4,$5,$6,$7,$8,$9,$2,$3,0*
0 Add four circle primitives for the rounded corners*
1,1,$1+$1,$2,$3*
1,1,$1+$1,$4,$5*
1,1,$1+$1,$6,$7*
1,1,$1+$1,$8,$9*
0 Add four rect primitives between the rounded corners*
20,1,$1+$1,$2,$3,$4,$5,0*
20,1,$1+$1,$4,$5,$6,$7,0*
20,1,$1+$1,$6,$7,$8,$9,0*
20,1,$1+$1,$8,$9,$2,$3,0*%
G04 Aperture macros list end*
%ADD10RoundRect,0.218750X-0.381250X0.218750X-0.381250X-0.218750X0.381250X-0.218750X0.381250X0.218750X0*%
%ADD11R,2.030000X1.730000*%
%ADD12O,2.030000X1.730000*%
%ADD13C,2.000000*%
%ADD14RoundRect,0.250000X-0.262500X-0.450000X0.262500X-0.450000X0.262500X0.450000X-0.262500X0.450000X0*%
%ADD15C,0.650000*%
%ADD16RoundRect,0.150000X0.150000X0.425000X-0.150000X0.425000X-0.150000X-0.425000X0.150000X-0.425000X0*%
%ADD17RoundRect,0.075000X0.075000X0.500000X-0.075000X0.500000X-0.075000X-0.500000X0.075000X-0.500000X0*%
%ADD18O,1.000000X2.100000*%
%ADD19O,1.000000X1.800000*%
%ADD20C,1.100000*%
%ADD21RoundRect,0.250000X-0.450000X0.262500X-0.450000X-0.262500X0.450000X-0.262500X0.450000X0.262500X0*%
%ADD22RoundRect,0.250000X0.250000X0.475000X-0.250000X0.475000X-0.250000X-0.475000X0.250000X-0.475000X0*%
%ADD23RoundRect,0.250000X0.262500X0.450000X-0.262500X0.450000X-0.262500X-0.450000X0.262500X-0.450000X0*%
%ADD24RoundRect,0.225000X-0.250000X0.225000X-0.250000X-0.225000X0.250000X-0.225000X0.250000X0.225000X0*%
%ADD25RoundRect,0.760000X-1.140000X1.140000X-1.140000X-1.140000X1.140000X-1.140000X1.140000X1.140000X0*%
%ADD26C,4.000000*%
%ADD27R,1.730000X2.030000*%
%ADD28O,1.730000X2.030000*%
%ADD29RoundRect,0.102000X0.425000X-0.425000X0.425000X0.425000X-0.425000X0.425000X-0.425000X-0.425000X0*%
%ADD30R,2.159000X2.159000*%
%ADD31C,2.159000*%
%ADD32RoundRect,0.250000X0.450000X-0.262500X0.450000X0.262500X-0.450000X0.262500X-0.450000X-0.262500X0*%
%ADD33RoundRect,0.250000X-0.475000X0.250000X-0.475000X-0.250000X0.475000X-0.250000X0.475000X0.250000X0*%
%ADD34RoundRect,0.225000X0.225000X0.250000X-0.225000X0.250000X-0.225000X-0.250000X0.225000X-0.250000X0*%
%ADD35RoundRect,0.250000X-0.250000X-0.475000X0.250000X-0.475000X0.250000X0.475000X-0.250000X0.475000X0*%
%ADD36R,1.500000X0.900000*%
%ADD37C,0.600000*%
%ADD38R,2.900000X2.900000*%
%ADD39RoundRect,0.250000X0.475000X-0.250000X0.475000X0.250000X-0.475000X0.250000X-0.475000X-0.250000X0*%
%ADD40RoundRect,0.760000X-1.140000X-1.140000X1.140000X-1.140000X1.140000X1.140000X-1.140000X1.140000X0*%
%ADD41R,1.651000X0.431800*%
%ADD42C,1.600000*%
%ADD43RoundRect,0.250000X0.980000X1.150000X-0.980000X1.150000X-0.980000X-1.150000X0.980000X-1.150000X0*%
%ADD44RoundRect,0.225000X0.250000X-0.225000X0.250000X0.225000X-0.250000X0.225000X-0.250000X-0.225000X0*%
%ADD45RoundRect,0.102000X0.400000X-0.450000X0.400000X0.450000X-0.400000X0.450000X-0.400000X-0.450000X0*%
%ADD46R,2.209800X2.794000*%
%ADD47R,2.794000X2.794000*%
%ADD48C,2.209800*%
%ADD49RoundRect,0.250000X0.625000X-0.375000X0.625000X0.375000X-0.625000X0.375000X-0.625000X-0.375000X0*%
%ADD50R,0.529806X1.205235*%
%ADD51RoundRect,0.225000X-0.225000X-0.250000X0.225000X-0.250000X0.225000X0.250000X-0.225000X0.250000X0*%
%ADD52C,1.700000*%
%ADD53C,1.800000*%
%ADD54RoundRect,0.102000X-1.400000X-1.200000X1.400000X-1.200000X1.400000X1.200000X-1.400000X1.200000X0*%
%ADD55RoundRect,0.250000X0.375000X0.625000X-0.375000X0.625000X-0.375000X-0.625000X0.375000X-0.625000X0*%
%ADD56RoundRect,0.250000X-1.150000X0.980000X-1.150000X-0.980000X1.150000X-0.980000X1.150000X0.980000X0*%
%ADD57RoundRect,0.760000X1.140000X-1.140000X1.140000X1.140000X-1.140000X1.140000X-1.140000X-1.140000X0*%
%ADD58RoundRect,0.102000X0.450000X0.400000X-0.450000X0.400000X-0.450000X-0.400000X0.450000X-0.400000X0*%
G04 APERTURE END LIST*
D10*
%TO.C,L2*%
X117500000Y-117937500D03*
X117500000Y-120062500D03*
%TD*%
D11*
%TO.C,J9*%
X63625000Y-147060000D03*
D12*
X63625000Y-144520000D03*
X63625000Y-141980000D03*
%TD*%
D13*
%TO.C,H1*%
X140200000Y-149800000D03*
%TD*%
D14*
%TO.C,R28*%
X68687500Y-132300000D03*
X70512500Y-132300000D03*
%TD*%
D15*
%TO.C,J8*%
X97170000Y-106080000D03*
X91390000Y-106080000D03*
D16*
X97480000Y-107155000D03*
X96680000Y-107155000D03*
D17*
X95530000Y-107155000D03*
X94530000Y-107155000D03*
X94030000Y-107155000D03*
X93030000Y-107155000D03*
D16*
X91880000Y-107155000D03*
X91080000Y-107155000D03*
X91080000Y-107155000D03*
X91880000Y-107155000D03*
D17*
X92530000Y-107155000D03*
X93530000Y-107155000D03*
X95030000Y-107155000D03*
X96030000Y-107155000D03*
D16*
X96680000Y-107155000D03*
X97480000Y-107155000D03*
D18*
X98600000Y-106580000D03*
D19*
X98600000Y-102400000D03*
D18*
X89960000Y-106580000D03*
D19*
X89960000Y-102400000D03*
%TD*%
D20*
%TO.C,J20*%
X85660000Y-117480000D03*
D11*
X83500000Y-112400000D03*
D12*
X83500000Y-114940000D03*
X83500000Y-117480000D03*
X83500000Y-120020000D03*
%TD*%
D21*
%TO.C,R1*%
X84600000Y-105887500D03*
X84600000Y-107712500D03*
%TD*%
D22*
%TO.C,C18*%
X86979800Y-133700000D03*
X85079800Y-133700000D03*
%TD*%
D21*
%TO.C,R21*%
X120800000Y-134087500D03*
X120800000Y-135912500D03*
%TD*%
D23*
%TO.C,R12*%
X121012500Y-104600000D03*
X119187500Y-104600000D03*
%TD*%
D24*
%TO.C,C1*%
X55600000Y-100950000D03*
X55600000Y-102500000D03*
%TD*%
D23*
%TO.C,R7*%
X71112500Y-146500000D03*
X69287500Y-146500000D03*
%TD*%
D25*
%TO.C,J2*%
X110200000Y-144100000D03*
D26*
X110200000Y-149100000D03*
%TD*%
D27*
%TO.C,J13*%
X98320000Y-119000000D03*
D28*
X100860000Y-119000000D03*
X103400000Y-119000000D03*
%TD*%
D21*
%TO.C,R10*%
X86600000Y-105887500D03*
X86600000Y-107712500D03*
%TD*%
D29*
%TO.C,VR1*%
X100110000Y-128775000D03*
X102010000Y-128775000D03*
X101060000Y-126425000D03*
%TD*%
D23*
%TO.C,R20*%
X120925000Y-113000000D03*
X119100000Y-113000000D03*
%TD*%
D24*
%TO.C,C26*%
X56400000Y-105200000D03*
X56400000Y-106750000D03*
%TD*%
%TO.C,C17*%
X115400000Y-132825000D03*
X115400000Y-134375000D03*
%TD*%
D30*
%TO.C,U2*%
X140322899Y-122387300D03*
D31*
X134872900Y-122387300D03*
X129422901Y-122387300D03*
%TD*%
D32*
%TO.C,R11*%
X118600000Y-146225000D03*
X118600000Y-144400000D03*
%TD*%
D22*
%TO.C,C3*%
X86979800Y-131500000D03*
X85079800Y-131500000D03*
%TD*%
D33*
%TO.C,C22*%
X85339800Y-144600000D03*
X85339800Y-146500000D03*
%TD*%
D21*
%TO.C,R16*%
X51800000Y-110087500D03*
X51800000Y-111912500D03*
%TD*%
D34*
%TO.C,C9*%
X80000000Y-104500000D03*
X78450000Y-104500000D03*
%TD*%
D23*
%TO.C,R9*%
X107172500Y-123800000D03*
X105347500Y-123800000D03*
%TD*%
D33*
%TO.C,C4*%
X87619800Y-141100000D03*
X87619800Y-143000000D03*
%TD*%
D20*
%TO.C,J5*%
X60520000Y-137560000D03*
D27*
X65600000Y-135400000D03*
D28*
X63060000Y-135400000D03*
X60520000Y-135400000D03*
X57980000Y-135400000D03*
%TD*%
D33*
%TO.C,C16-2*%
X116000000Y-144300000D03*
X116000000Y-146200000D03*
%TD*%
D35*
%TO.C,C11*%
X100910000Y-124200000D03*
X102810000Y-124200000D03*
%TD*%
D14*
%TO.C,R17*%
X71887500Y-121400000D03*
X73712500Y-121400000D03*
%TD*%
D32*
%TO.C,R22*%
X122000000Y-149912500D03*
X122000000Y-148087500D03*
%TD*%
D11*
%TO.C,J10*%
X56400000Y-141960000D03*
D12*
X56400000Y-144500000D03*
X56400000Y-147040000D03*
%TD*%
D36*
%TO.C,U1*%
X58230000Y-99400000D03*
X58230000Y-100900000D03*
X58230000Y-102400000D03*
X58230000Y-103900000D03*
X58230000Y-105400000D03*
X58230000Y-106900000D03*
X58230000Y-108400000D03*
X58230000Y-109900000D03*
X58230000Y-111400000D03*
X75730000Y-111400000D03*
X75730000Y-109900000D03*
X75730000Y-108400000D03*
X75730000Y-106900000D03*
X75730000Y-105400000D03*
X75730000Y-103900000D03*
X75730000Y-102400000D03*
X75730000Y-100900000D03*
X75730000Y-99400000D03*
D37*
X66840000Y-105050000D03*
X66840000Y-106150000D03*
X67390000Y-104500000D03*
X67390000Y-105600000D03*
X67390000Y-106700000D03*
X67940000Y-105050000D03*
D38*
X67940000Y-105600000D03*
D37*
X67940000Y-106150000D03*
X68490000Y-104500000D03*
X68490000Y-105600000D03*
X68490000Y-106700000D03*
X69040000Y-105050000D03*
X69040000Y-106150000D03*
%TD*%
D21*
%TO.C,R3*%
X55840000Y-110287500D03*
X55840000Y-112112500D03*
%TD*%
D39*
%TO.C,C6*%
X125000000Y-119450000D03*
X125000000Y-117550000D03*
%TD*%
D23*
%TO.C,R24*%
X122912500Y-125000000D03*
X121087500Y-125000000D03*
%TD*%
D33*
%TO.C,C15*%
X116000000Y-148100000D03*
X116000000Y-150000000D03*
%TD*%
D40*
%TO.C,J18*%
X75500000Y-146500000D03*
D26*
X80500000Y-146500000D03*
%TD*%
D41*
%TO.C,U3*%
X82959600Y-141792600D03*
X82959600Y-141132200D03*
X82959600Y-140471800D03*
X82959600Y-139811400D03*
X82959600Y-139151000D03*
X82959600Y-138490600D03*
X82959600Y-137830200D03*
X82959600Y-137169800D03*
X82959600Y-136509400D03*
X82959600Y-135849000D03*
X82959600Y-135188600D03*
X82959600Y-134528200D03*
X82959600Y-133867800D03*
X82959600Y-133207400D03*
X76000000Y-133207400D03*
X76000000Y-133867800D03*
X76000000Y-134528200D03*
X76000000Y-135188600D03*
X76000000Y-135849000D03*
X76000000Y-136509400D03*
X76000000Y-137169800D03*
X76000000Y-137830200D03*
X76000000Y-138490600D03*
X76000000Y-139151000D03*
X76000000Y-139811400D03*
X76000000Y-140471800D03*
X76000000Y-141132200D03*
X76000000Y-141792600D03*
%TD*%
D20*
%TO.C,J19*%
X94360000Y-117540000D03*
D11*
X92200000Y-112460000D03*
D12*
X92200000Y-115000000D03*
X92200000Y-117540000D03*
X92200000Y-120080000D03*
%TD*%
D42*
%TO.C,J14*%
X95070000Y-124450000D03*
D43*
X93570000Y-127700000D03*
%TD*%
D44*
%TO.C,C23*%
X87139800Y-146150000D03*
X87139800Y-144600000D03*
%TD*%
D45*
%TO.C,X1*%
X72525000Y-138825000D03*
X72525000Y-136975000D03*
X71075000Y-136975000D03*
X71075000Y-138825000D03*
%TD*%
D46*
%TO.C,J7*%
X137851700Y-136900000D03*
D47*
X128451701Y-136900000D03*
D46*
X135851658Y-144300018D03*
D48*
X136751699Y-140600000D03*
X129751701Y-140600000D03*
%TD*%
D21*
%TO.C,R8*%
X118600000Y-148087500D03*
X118600000Y-149912500D03*
%TD*%
D23*
%TO.C,R14*%
X121012500Y-106600000D03*
X119187500Y-106600000D03*
%TD*%
D24*
%TO.C,C24*%
X89479800Y-141450000D03*
X89479800Y-143000000D03*
%TD*%
D13*
%TO.C,H3*%
X46800000Y-101600000D03*
%TD*%
D25*
%TO.C,J1*%
X110000000Y-132600000D03*
D26*
X110000000Y-137600000D03*
%TD*%
D33*
%TO.C,C16*%
X53400000Y-105300000D03*
X53400000Y-107200000D03*
%TD*%
D32*
%TO.C,R6*%
X117600000Y-134112500D03*
X117600000Y-132287500D03*
%TD*%
D49*
%TO.C,D3*%
X106660000Y-128800000D03*
X106660000Y-126000000D03*
%TD*%
D50*
%TO.C,U4*%
X119549999Y-119550483D03*
X120500000Y-119550483D03*
X121450001Y-119550483D03*
X121450001Y-117449517D03*
X120500000Y-117449517D03*
X119549999Y-117449517D03*
%TD*%
D51*
%TO.C,C7*%
X119725000Y-115500000D03*
X121275000Y-115500000D03*
%TD*%
D21*
%TO.C,RC2*%
X124000000Y-132287500D03*
X124000000Y-134112500D03*
%TD*%
D24*
%TO.C,C2*%
X53800000Y-100950000D03*
X53800000Y-102500000D03*
%TD*%
D52*
%TO.C,J3*%
X132700000Y-111600000D03*
D53*
X137200000Y-111600000D03*
D54*
X138800000Y-105900000D03*
X132700000Y-105900000D03*
X132700000Y-117300000D03*
X138800000Y-117300000D03*
%TD*%
D55*
%TO.C,D2*%
X71400000Y-134700000D03*
X68600000Y-134700000D03*
%TD*%
D14*
%TO.C,R18*%
X121087500Y-122550000D03*
X122912500Y-122550000D03*
%TD*%
D21*
%TO.C,R23*%
X122000000Y-144287500D03*
X122000000Y-146112500D03*
%TD*%
D13*
%TO.C,H2*%
X46800000Y-149800000D03*
%TD*%
D23*
%TO.C,R15*%
X110187300Y-119627101D03*
X108362300Y-119627101D03*
%TD*%
D42*
%TO.C,J17*%
X133950000Y-127700000D03*
D56*
X137200000Y-129200000D03*
%TD*%
D22*
%TO.C,C20*%
X121050000Y-100600000D03*
X119150000Y-100600000D03*
%TD*%
D57*
%TO.C,J4*%
X112100000Y-108400000D03*
D26*
X112100000Y-103400000D03*
%TD*%
D40*
%TO.C,J12*%
X56840000Y-116700000D03*
D26*
X61840000Y-116700000D03*
%TD*%
D21*
%TO.C,R5*%
X117600000Y-135687500D03*
X117600000Y-137512500D03*
%TD*%
%TO.C,R3-1*%
X51600000Y-100912500D03*
X51600000Y-102737500D03*
%TD*%
D22*
%TO.C,C21*%
X120962500Y-111000000D03*
X119062500Y-111000000D03*
%TD*%
D10*
%TO.C,FB2*%
X91279800Y-142937500D03*
X91279800Y-145062500D03*
%TD*%
D20*
%TO.C,J6*%
X73400000Y-114400000D03*
D27*
X68320000Y-116560000D03*
D28*
X70860000Y-116560000D03*
X73400000Y-116560000D03*
X75940000Y-116560000D03*
%TD*%
D58*
%TO.C,Y1*%
X80025000Y-101475000D03*
X78175000Y-101475000D03*
X78175000Y-102925000D03*
X80025000Y-102925000D03*
%TD*%
D14*
%TO.C,R4*%
X68487500Y-121400000D03*
X70312500Y-121400000D03*
%TD*%
D42*
%TO.C,J16*%
X111150000Y-124100000D03*
D56*
X114400000Y-125600000D03*
%TD*%
D23*
%TO.C,R13*%
X121012500Y-108600000D03*
X119187500Y-108600000D03*
%TD*%
D13*
%TO.C,H4*%
X140200000Y-101600000D03*
%TD*%
D24*
%TO.C,C16-1*%
X115400000Y-136025000D03*
X115400000Y-137575000D03*
%TD*%
D39*
%TO.C,C5*%
X104060000Y-128750000D03*
X104060000Y-126850000D03*
%TD*%
D44*
%TO.C,C10*%
X82460000Y-103075000D03*
X82460000Y-101525000D03*
%TD*%
D34*
%TO.C,C19*%
X70975000Y-144300000D03*
X69425000Y-144300000D03*
%TD*%
D44*
%TO.C,C8*%
X115000000Y-117275000D03*
X115000000Y-115725000D03*
%TD*%
D21*
%TO.C,RC1*%
X124000000Y-135887500D03*
X124000000Y-137712500D03*
%TD*%
D42*
%TO.C,J15*%
X105080000Y-100475000D03*
D43*
X103580000Y-103725000D03*
%TD*%
D33*
%TO.C,C25*%
X89079800Y-144600000D03*
X89079800Y-146500000D03*
%TD*%
D55*
%TO.C,D1*%
X114987300Y-119427101D03*
X112187300Y-119427101D03*
%TD*%
D57*
%TO.C,J11*%
X51500000Y-134000000D03*
D26*
X51500000Y-129000000D03*
%TD*%
D23*
%TO.C,R19*%
X121012500Y-102600000D03*
X119187500Y-102600000D03*
%TD*%
M02*
