%TF.GenerationSoftware,KiCad,Pcbnew,9.0.8*%
%TF.CreationDate,2026-04-16T23:26:07+02:00*%
%TF.ProjectId,project,70726f6a-6563-4742-9e6b-696361645f70,rev?*%
%TF.SameCoordinates,Original*%
%TF.FileFunction,Copper,L2,Bot*%
%TF.FilePolarity,Positive*%
%FSLAX46Y46*%
G04 Gerber Fmt 4.6, Leading zero omitted, Abs format (unit mm)*
G04 Created by KiCad (PCBNEW 9.0.8) date 2026-04-16 23:26:07*
%MOMM*%
%LPD*%
G01*
G04 APERTURE LIST*
G04 Aperture macros list*
%AMRoundRect*
0 Rectangle with rounded corners*
0 $1 Rounding radius*
0 $2 $3 $4 $5 $6 $7 $8 $9 X,Y pos of 4 corners*
0 Add a 4 corners polygon primitive as box body*
4,1,4,$2,$3,$4,$5,$6,$7,$8,$9,$2,$3,0*
0 Add four circle primitives for the rounded corners*
1,1,$1+$1,$2,$3*
1,1,$1+$1,$4,$5*
1,1,$1+$1,$6,$7*
1,1,$1+$1,$8,$9*
0 Add four rect primitives between the rounded corners*
20,1,$1+$1,$2,$3,$4,$5,0*
20,1,$1+$1,$4,$5,$6,$7,0*
20,1,$1+$1,$6,$7,$8,$9,0*
20,1,$1+$1,$8,$9,$2,$3,0*%
G04 Aperture macros list end*
%TA.AperFunction,ComponentPad*%
%ADD10R,2.030000X1.730000*%
%TD*%
%TA.AperFunction,ComponentPad*%
%ADD11O,2.030000X1.730000*%
%TD*%
%TA.AperFunction,HeatsinkPad*%
%ADD12O,1.000000X2.100000*%
%TD*%
%TA.AperFunction,HeatsinkPad*%
%ADD13O,1.000000X1.800000*%
%TD*%
%TA.AperFunction,ComponentPad*%
%ADD14RoundRect,0.760000X-1.140000X1.140000X-1.140000X-1.140000X1.140000X-1.140000X1.140000X1.140000X0*%
%TD*%
%TA.AperFunction,ComponentPad*%
%ADD15C,4.000000*%
%TD*%
%TA.AperFunction,ComponentPad*%
%ADD16R,1.730000X2.030000*%
%TD*%
%TA.AperFunction,ComponentPad*%
%ADD17O,1.730000X2.030000*%
%TD*%
%TA.AperFunction,ComponentPad*%
%ADD18R,2.159000X2.159000*%
%TD*%
%TA.AperFunction,ComponentPad*%
%ADD19C,2.159000*%
%TD*%
%TA.AperFunction,HeatsinkPad*%
%ADD20C,0.600000*%
%TD*%
%TA.AperFunction,ComponentPad*%
%ADD21RoundRect,0.760000X-1.140000X-1.140000X1.140000X-1.140000X1.140000X1.140000X-1.140000X1.140000X0*%
%TD*%
%TA.AperFunction,ComponentPad*%
%ADD22RoundRect,0.250000X0.980000X1.150000X-0.980000X1.150000X-0.980000X-1.150000X0.980000X-1.150000X0*%
%TD*%
%TA.AperFunction,ComponentPad*%
%ADD23C,2.209800*%
%TD*%
%TA.AperFunction,ComponentPad*%
%ADD24RoundRect,0.250000X-1.150000X0.980000X-1.150000X-0.980000X1.150000X-0.980000X1.150000X0.980000X0*%
%TD*%
%TA.AperFunction,ComponentPad*%
%ADD25RoundRect,0.760000X1.140000X-1.140000X1.140000X1.140000X-1.140000X1.140000X-1.140000X-1.140000X0*%
%TD*%
%TA.AperFunction,ViaPad*%
%ADD26C,0.700000*%
%TD*%
%TA.AperFunction,ViaPad*%
%ADD27C,0.800000*%
%TD*%
%TA.AperFunction,Conductor*%
%ADD28C,0.300000*%
%TD*%
%TA.AperFunction,Conductor*%
%ADD29C,0.500000*%
%TD*%
G04 APERTURE END LIST*
D10*
%TO.P,J9,1,Pin_1*%
%TO.N,GND*%
X63625000Y-147060000D03*
D11*
%TO.P,J9,2,Pin_2*%
%TO.N,Net-(J9-Pin_2)*%
X63625000Y-144520000D03*
%TO.P,J9,3,Pin_3*%
%TO.N,+3V3*%
X63625000Y-141980000D03*
%TD*%
D12*
%TO.P,J8,S1,SHIELD*%
%TO.N,GND*%
X98600000Y-106580000D03*
D13*
X98600000Y-102400000D03*
D12*
X89960000Y-106580000D03*
D13*
X89960000Y-102400000D03*
%TD*%
D10*
%TO.P,J20,1,Pin_1*%
%TO.N,GND*%
X83500000Y-112400000D03*
D11*
%TO.P,J20,2,Pin_2*%
X83500000Y-114940000D03*
%TO.P,J20,3,Pin_3*%
X83500000Y-117480000D03*
%TO.P,J20,4,Pin_4*%
X83500000Y-120020000D03*
%TD*%
D14*
%TO.P,J2,1,Pin_1*%
%TO.N,/I2N*%
X110200000Y-144100000D03*
D15*
%TO.P,J2,2,Pin_2*%
%TO.N,/I2P*%
X110200000Y-149100000D03*
%TD*%
D16*
%TO.P,J13,1,Pin_1*%
%TO.N,VBUS*%
X98320000Y-119000000D03*
D17*
%TO.P,J13,2,Pin_2*%
%TO.N,Net-(J13-Pin_2)*%
X100860000Y-119000000D03*
%TO.P,J13,3,Pin_3*%
%TO.N,+5V*%
X103400000Y-119000000D03*
%TD*%
D18*
%TO.P,U2,1,A1*%
%TO.N,VDD_P*%
X140322899Y-122387300D03*
D19*
%TO.P,U2,2,K*%
%TO.N,Net-(J17-Pin_1)*%
X134872900Y-122387300D03*
%TO.P,U2,3,A2*%
%TO.N,VDD_P*%
X129422901Y-122387300D03*
%TD*%
D16*
%TO.P,J5,1,Pin_1*%
%TO.N,SPICS*%
X65600000Y-135400000D03*
D17*
%TO.P,J5,2,Pin_2*%
%TO.N,SPICLK*%
X63060000Y-135400000D03*
%TO.P,J5,3,Pin_3*%
%TO.N,SPIQ*%
X60520000Y-135400000D03*
%TO.P,J5,4,Pin_4*%
%TO.N,SPID*%
X57980000Y-135400000D03*
%TD*%
D10*
%TO.P,J10,1,Pin_1*%
%TO.N,+3V3*%
X56400000Y-141960000D03*
D11*
%TO.P,J10,2,Pin_2*%
%TO.N,Net-(J10-Pin_2)*%
X56400000Y-144500000D03*
%TO.P,J10,3,Pin_3*%
%TO.N,GND*%
X56400000Y-147040000D03*
%TD*%
D20*
%TO.P,U1,19,GND*%
%TO.N,GND*%
X66840000Y-105050000D03*
X66840000Y-106150000D03*
X67390000Y-104500000D03*
X67390000Y-105600000D03*
X67390000Y-106700000D03*
X67940000Y-105050000D03*
X67940000Y-106150000D03*
X68490000Y-104500000D03*
X68490000Y-105600000D03*
X68490000Y-106700000D03*
X69040000Y-105050000D03*
X69040000Y-106150000D03*
%TD*%
D21*
%TO.P,J18,1,Pin_1*%
%TO.N,Net-(J18-Pin_1)*%
X75500000Y-146500000D03*
D15*
%TO.P,J18,2,Pin_2*%
%TO.N,/RST*%
X80500000Y-146500000D03*
%TD*%
D10*
%TO.P,J19,1,Pin_1*%
%TO.N,GND*%
X92200000Y-112460000D03*
D11*
%TO.P,J19,2,Pin_2*%
X92200000Y-115000000D03*
%TO.P,J19,3,Pin_3*%
X92200000Y-117540000D03*
%TO.P,J19,4,Pin_4*%
X92200000Y-120080000D03*
%TD*%
D22*
%TO.P,J14,1,Pin_1*%
%TO.N,+3V3*%
X93570000Y-127700000D03*
%TD*%
D23*
%TO.P,J7,4,4*%
%TO.N,unconnected-(J7-Pad4)*%
X136751699Y-140600000D03*
%TO.P,J7,5,5*%
%TO.N,unconnected-(J7-Pad5)*%
X129751701Y-140600000D03*
%TD*%
D14*
%TO.P,J1,1,Pin_1*%
%TO.N,/I1N*%
X110000000Y-132600000D03*
D15*
%TO.P,J1,2,Pin_2*%
%TO.N,/I1P*%
X110000000Y-137600000D03*
%TD*%
D24*
%TO.P,J17,1,Pin_1*%
%TO.N,Net-(J17-Pin_1)*%
X137200000Y-129200000D03*
%TD*%
D25*
%TO.P,J4,1,Pin_1*%
%TO.N,/VN*%
X112100000Y-108400000D03*
D15*
%TO.P,J4,2,Pin_2*%
%TO.N,/VP*%
X112100000Y-103400000D03*
%TD*%
D21*
%TO.P,J12,1,Pin_1*%
%TO.N,Net-(J12-Pin_1)*%
X56840000Y-116700000D03*
D15*
%TO.P,J12,2,Pin_2*%
%TO.N,GND*%
X61840000Y-116700000D03*
%TD*%
D16*
%TO.P,J6,1,Pin_1*%
%TO.N,UART_RX*%
X68320000Y-116560000D03*
D17*
%TO.P,J6,2,Pin_2*%
%TO.N,UART_TX*%
X70860000Y-116560000D03*
%TO.P,J6,3,Pin_3*%
%TO.N,+3V3*%
X73400000Y-116560000D03*
%TO.P,J6,4,Pin_4*%
%TO.N,GND*%
X75940000Y-116560000D03*
%TD*%
D24*
%TO.P,J16,1,Pin_1*%
%TO.N,+5V*%
X114400000Y-125600000D03*
%TD*%
D22*
%TO.P,J15,1,Pin_1*%
%TO.N,VBUS*%
X103580000Y-103725000D03*
%TD*%
D25*
%TO.P,J11,1,Pin_1*%
%TO.N,GND*%
X51500000Y-134000000D03*
D15*
%TO.P,J11,2,Pin_2*%
%TO.N,EN*%
X51500000Y-129000000D03*
%TD*%
D26*
%TO.N,GND*%
X84600000Y-101400000D03*
X84600000Y-100400000D03*
X83600000Y-100400000D03*
X83600000Y-99400000D03*
X84600000Y-99400000D03*
X83600000Y-101400000D03*
X86500000Y-101600000D03*
X86500000Y-100600000D03*
X85500000Y-100600000D03*
X85500000Y-99600000D03*
X86500000Y-99600000D03*
X85500000Y-101600000D03*
%TO.N,IRQ*%
X67100000Y-125000000D03*
%TO.N,GND*%
X54600000Y-103925000D03*
X45500000Y-113000000D03*
X136000000Y-104500000D03*
X81500000Y-115500000D03*
X55500000Y-134500000D03*
X60000000Y-152000000D03*
X50500000Y-124000000D03*
X47500000Y-115000000D03*
X60000000Y-143000000D03*
X103000000Y-114000000D03*
X63000000Y-103500000D03*
X90000000Y-117500000D03*
X108000000Y-115500000D03*
X139500000Y-137500000D03*
X76000000Y-123000000D03*
X56500000Y-123000000D03*
X129500000Y-118500000D03*
X128500000Y-148500000D03*
X58000000Y-151000000D03*
X76000000Y-152000000D03*
X113000000Y-113500000D03*
X52500000Y-124000000D03*
X119500000Y-129000000D03*
X54000000Y-114000000D03*
X47500000Y-108000000D03*
X72400000Y-131400000D03*
X101000000Y-113000000D03*
X48500000Y-125000000D03*
X130500000Y-150500000D03*
X108000000Y-113500000D03*
X112000000Y-117500000D03*
X124500000Y-112500000D03*
X49500000Y-137500000D03*
X48500000Y-140500000D03*
X125500000Y-113500000D03*
X47500000Y-134000000D03*
X135500000Y-147500000D03*
X121500000Y-129000000D03*
X57500000Y-125000000D03*
X50500000Y-114000000D03*
X102000000Y-135500000D03*
X129500000Y-150500000D03*
X47500000Y-114000000D03*
X56000000Y-150000000D03*
X71900000Y-143400000D03*
X93000000Y-135500000D03*
X129500000Y-134500000D03*
X55500000Y-138500000D03*
X45500000Y-106000000D03*
X49500000Y-143500000D03*
X63000000Y-151000000D03*
X52000000Y-151000000D03*
X93000000Y-132500000D03*
X95000000Y-145000000D03*
X112000000Y-116500000D03*
X101000000Y-145000000D03*
X56000000Y-108000000D03*
X73000000Y-151000000D03*
X88000000Y-118500000D03*
X64000000Y-106500000D03*
X45500000Y-128000000D03*
X102000000Y-146000000D03*
X100000000Y-134500000D03*
X132500000Y-151500000D03*
X69500000Y-129500000D03*
X100000000Y-132500000D03*
X105000000Y-151000000D03*
X134500000Y-147500000D03*
X109000000Y-117500000D03*
X123500000Y-143000000D03*
X88000000Y-151000000D03*
X90000000Y-112500000D03*
X45500000Y-144500000D03*
X87000000Y-123500000D03*
X57500000Y-128500000D03*
X74000000Y-132500000D03*
X98000000Y-150000000D03*
X78000000Y-152000000D03*
X45500000Y-131000000D03*
X118500000Y-152000000D03*
X78500000Y-110000000D03*
X76500000Y-125500000D03*
X92000000Y-132500000D03*
X90000000Y-114500000D03*
X45500000Y-137500000D03*
X120500000Y-141000000D03*
X124000000Y-101000000D03*
X45500000Y-124000000D03*
X124000000Y-103000000D03*
X67000000Y-152000000D03*
X81500000Y-110000000D03*
X78000000Y-139500000D03*
X117500000Y-143000000D03*
X125500000Y-110500000D03*
X78000000Y-117500000D03*
X118500000Y-131000000D03*
X103000000Y-132500000D03*
X47500000Y-144500000D03*
X129500000Y-131000000D03*
X124500000Y-131000000D03*
X51500000Y-120000000D03*
X99000000Y-135500000D03*
X45500000Y-127000000D03*
X135500000Y-148500000D03*
X51500000Y-119000000D03*
X140500000Y-134500000D03*
X108000000Y-114500000D03*
X90000000Y-118500000D03*
X109000000Y-116500000D03*
X96000000Y-150000000D03*
X47500000Y-116000000D03*
X59500000Y-129500000D03*
X46500000Y-108000000D03*
X47500000Y-142500000D03*
X100000000Y-151000000D03*
X139500000Y-133500000D03*
X130500000Y-151500000D03*
X104000000Y-114000000D03*
X125000000Y-102000000D03*
X96000000Y-152000000D03*
X45500000Y-143500000D03*
X94000000Y-145000000D03*
X50500000Y-146500000D03*
X50500000Y-137500000D03*
X45500000Y-107000000D03*
X100000000Y-135500000D03*
X94000000Y-134500000D03*
X47500000Y-109000000D03*
X63000000Y-123000000D03*
X79000000Y-151000000D03*
X47500000Y-120000000D03*
X88000000Y-119500000D03*
X119500000Y-141000000D03*
X126000000Y-104000000D03*
X78000000Y-140500000D03*
X47500000Y-127000000D03*
X117500000Y-152000000D03*
X97000000Y-115500000D03*
X81500000Y-125500000D03*
X128500000Y-127000000D03*
X73500000Y-129500000D03*
X98000000Y-152000000D03*
X50500000Y-121000000D03*
X140000000Y-114500000D03*
X81500000Y-127500000D03*
X135000000Y-100500000D03*
X50500000Y-123000000D03*
X110000000Y-117500000D03*
X125500000Y-130000000D03*
X45500000Y-139500000D03*
X122400000Y-100600000D03*
X133500000Y-151500000D03*
X69000000Y-102500000D03*
X86500000Y-102500000D03*
X91500000Y-102500000D03*
X55500000Y-124000000D03*
X65000000Y-152000000D03*
X123500000Y-128000000D03*
X115500000Y-140000000D03*
X86000000Y-123500000D03*
X59500000Y-126500000D03*
X48500000Y-113000000D03*
X135500000Y-150500000D03*
X96000000Y-134500000D03*
X97000000Y-114500000D03*
X90000000Y-148000000D03*
X136500000Y-148500000D03*
X105000000Y-133500000D03*
X109000000Y-110500000D03*
X120500000Y-140000000D03*
X46500000Y-130000000D03*
X74500000Y-128500000D03*
X104000000Y-113000000D03*
X90000000Y-150000000D03*
X100000000Y-150000000D03*
X104000000Y-134500000D03*
X136000000Y-137500000D03*
X134500000Y-150500000D03*
X123500000Y-129000000D03*
X127500000Y-127000000D03*
X136000000Y-118000000D03*
X140000000Y-113500000D03*
X86900000Y-139400000D03*
X103000000Y-135500000D03*
X111000000Y-115500000D03*
X101000000Y-114000000D03*
X74500000Y-126500000D03*
X112000000Y-114500000D03*
X130500000Y-146500000D03*
X125500000Y-109500000D03*
X58500000Y-128500000D03*
X48500000Y-138500000D03*
X51500000Y-121000000D03*
X103000000Y-111000000D03*
X140500000Y-133500000D03*
X53500000Y-138500000D03*
X97000000Y-149000000D03*
X108000000Y-109500000D03*
X103000000Y-134500000D03*
X54500000Y-122000000D03*
X61000000Y-110000000D03*
X127500000Y-131000000D03*
X96000000Y-148000000D03*
X97000000Y-134500000D03*
X59500000Y-127500000D03*
X71500000Y-129500000D03*
X46500000Y-118000000D03*
X128500000Y-134500000D03*
X55000000Y-151000000D03*
X55500000Y-137500000D03*
X93000000Y-151000000D03*
X47500000Y-110000000D03*
X93000000Y-134500000D03*
X104000000Y-112000000D03*
X130500000Y-126000000D03*
X71000000Y-151000000D03*
X86000000Y-151000000D03*
X121500000Y-142000000D03*
X64952190Y-107480950D03*
X48500000Y-137500000D03*
X107000000Y-117500000D03*
X141000000Y-114500000D03*
X98000000Y-149000000D03*
X122500000Y-128000000D03*
X74000000Y-152000000D03*
X108000000Y-116500000D03*
X123500000Y-142000000D03*
X101000000Y-149000000D03*
X100000000Y-136500000D03*
X81000000Y-152000000D03*
X47500000Y-118000000D03*
X71000000Y-104500000D03*
X60500000Y-127500000D03*
X50500000Y-141500000D03*
X49500000Y-146500000D03*
X59000000Y-152000000D03*
X135000000Y-102500000D03*
X133000000Y-103500000D03*
X45500000Y-110000000D03*
X118500000Y-130000000D03*
X81500000Y-120500000D03*
X52500000Y-121000000D03*
X80000000Y-152000000D03*
X123000000Y-105000000D03*
X49500000Y-144500000D03*
X126500000Y-118500000D03*
X102000000Y-114000000D03*
X60000000Y-122000000D03*
X96000000Y-121500000D03*
X106000000Y-110500000D03*
X134500000Y-148500000D03*
X89500000Y-110000000D03*
X127500000Y-151500000D03*
X97000000Y-102500000D03*
X50000000Y-149000000D03*
X106000000Y-109500000D03*
X47500000Y-121000000D03*
X135000000Y-104500000D03*
X133000000Y-100500000D03*
X46500000Y-143500000D03*
X51500000Y-122000000D03*
X56500000Y-125000000D03*
X104000000Y-151000000D03*
X98000000Y-136500000D03*
X76500000Y-126500000D03*
X130500000Y-128000000D03*
X94000000Y-136500000D03*
X91000000Y-149000000D03*
X46500000Y-120000000D03*
X106000000Y-116500000D03*
X119500000Y-130000000D03*
X97000000Y-132500000D03*
X107000000Y-111500000D03*
X74000000Y-130500000D03*
X48500000Y-110000000D03*
X124500000Y-124000000D03*
X108000000Y-112500000D03*
X45500000Y-122000000D03*
X123500000Y-131000000D03*
X45500000Y-123000000D03*
X128500000Y-128000000D03*
X126500000Y-111500000D03*
X125000000Y-135000000D03*
X134000000Y-99500000D03*
X132500000Y-147500000D03*
X63000000Y-152000000D03*
X134000000Y-102500000D03*
X131500000Y-149500000D03*
X70000000Y-103500000D03*
X99000000Y-148000000D03*
X88000000Y-152000000D03*
X47500000Y-135000000D03*
X120500000Y-129000000D03*
X70000000Y-152000000D03*
X126500000Y-128000000D03*
X106000000Y-152000000D03*
X70500000Y-127500000D03*
X128000000Y-105000000D03*
X95000000Y-133500000D03*
X103000000Y-150000000D03*
X81500000Y-114500000D03*
X48500000Y-118000000D03*
X126500000Y-126000000D03*
X82000000Y-152000000D03*
X98000000Y-146000000D03*
X46500000Y-138500000D03*
X70500000Y-129500000D03*
X46500000Y-111000000D03*
X124500000Y-111500000D03*
X94000000Y-151000000D03*
X111000000Y-114500000D03*
X56500000Y-130500000D03*
X72000000Y-151000000D03*
X72500000Y-126500000D03*
X102000000Y-113000000D03*
X68500000Y-128500000D03*
X125500000Y-128000000D03*
X131500000Y-146500000D03*
X72500000Y-128500000D03*
X76000000Y-122000000D03*
X87500000Y-100500000D03*
X114000000Y-112500000D03*
X48500000Y-120000000D03*
X46500000Y-117000000D03*
X126500000Y-112500000D03*
X73000000Y-152000000D03*
X85000000Y-122500000D03*
X90000000Y-149000000D03*
X127500000Y-128000000D03*
X79000000Y-138500000D03*
X55500000Y-125000000D03*
X138500000Y-133500000D03*
X87500000Y-110000000D03*
X45500000Y-132000000D03*
X85000000Y-123500000D03*
X121500000Y-130000000D03*
X45500000Y-114000000D03*
X57500000Y-129500000D03*
X129500000Y-148500000D03*
X66000000Y-103500000D03*
X119500000Y-140000000D03*
X110000000Y-114500000D03*
X105000000Y-113000000D03*
X135000000Y-101500000D03*
X92000000Y-133500000D03*
X47500000Y-141500000D03*
X127500000Y-147500000D03*
X73500000Y-126500000D03*
X95000000Y-134500000D03*
X129500000Y-128000000D03*
X50500000Y-118000000D03*
X50000000Y-150000000D03*
X123500000Y-141000000D03*
X48500000Y-109000000D03*
X51000000Y-149000000D03*
X123500000Y-112500000D03*
X124500000Y-140000000D03*
X101000000Y-133500000D03*
X126500000Y-130000000D03*
X109000000Y-113500000D03*
X92000000Y-135500000D03*
X124500000Y-139000000D03*
X118500000Y-139000000D03*
X128500000Y-129000000D03*
X67000000Y-102500000D03*
X108000000Y-117500000D03*
X79000000Y-118500000D03*
X77500000Y-127500000D03*
X53500000Y-139500000D03*
X46500000Y-125000000D03*
X95000000Y-151000000D03*
X56500000Y-124000000D03*
X137500000Y-133500000D03*
X102000000Y-133500000D03*
X60000000Y-144000000D03*
X97000000Y-133500000D03*
X102000000Y-152000000D03*
X127000000Y-105000000D03*
X88500000Y-110000000D03*
X79000000Y-117500000D03*
X45500000Y-119000000D03*
X50500000Y-116000000D03*
X87500000Y-101500000D03*
X105000000Y-115000000D03*
X50500000Y-145500000D03*
X90000000Y-116500000D03*
X123500000Y-139000000D03*
X81500000Y-126500000D03*
X51500000Y-123000000D03*
X104000000Y-115000000D03*
X48500000Y-114000000D03*
X95000000Y-150000000D03*
X72000000Y-103500000D03*
X71000000Y-152000000D03*
X46500000Y-133000000D03*
X105000000Y-112000000D03*
X122200000Y-111000000D03*
X47500000Y-122000000D03*
X79000000Y-152000000D03*
X63000000Y-106500000D03*
X63000000Y-105500000D03*
X129500000Y-117500000D03*
X126000000Y-101000000D03*
X46500000Y-107000000D03*
X88000000Y-111500000D03*
X46500000Y-121000000D03*
X132500000Y-150500000D03*
X77500000Y-126500000D03*
X90000000Y-120500000D03*
X53500000Y-124000000D03*
X94000000Y-132500000D03*
X83500000Y-126500000D03*
X126500000Y-148500000D03*
X109000000Y-109500000D03*
X94000000Y-135500000D03*
X46500000Y-142500000D03*
X142000000Y-115500000D03*
X48500000Y-111000000D03*
X128500000Y-150500000D03*
X48500000Y-107000000D03*
X128000000Y-101000000D03*
X125500000Y-149500000D03*
X122500000Y-143000000D03*
X124500000Y-109500000D03*
X84000000Y-151000000D03*
X50500000Y-119000000D03*
X102000000Y-150000000D03*
X62000000Y-123000000D03*
X55500000Y-136500000D03*
X50000000Y-148000000D03*
X78000000Y-123000000D03*
X123000000Y-102000000D03*
X127500000Y-133500000D03*
X114500000Y-147000000D03*
X88500000Y-102500000D03*
X122500000Y-139000000D03*
X104000000Y-150000000D03*
X72500000Y-125500000D03*
X88400000Y-132400000D03*
X104000000Y-152000000D03*
X102000000Y-151000000D03*
X127500000Y-117500000D03*
X88500000Y-101500000D03*
X53500000Y-125000000D03*
X137000000Y-103500000D03*
X116500000Y-141000000D03*
X72940077Y-133483725D03*
X71000000Y-103500000D03*
X75500000Y-127500000D03*
X47500000Y-111000000D03*
X105000000Y-135500000D03*
X106000000Y-117500000D03*
X81500000Y-113500000D03*
X79000000Y-113500000D03*
X68000000Y-103500000D03*
X92000000Y-152000000D03*
X136500000Y-151500000D03*
X131500000Y-151500000D03*
X79000000Y-115500000D03*
X46500000Y-114000000D03*
X131500000Y-147500000D03*
X109000000Y-112500000D03*
X131500000Y-127000000D03*
X125500000Y-129000000D03*
X132000000Y-99500000D03*
X62000000Y-122000000D03*
X63000000Y-104500000D03*
X66000000Y-104500000D03*
X47500000Y-106000000D03*
X67000000Y-109500000D03*
X71500000Y-126500000D03*
X47500000Y-123000000D03*
X50500000Y-117000000D03*
X46500000Y-144500000D03*
X81500000Y-116500000D03*
X128500000Y-146500000D03*
X82500000Y-110000000D03*
X45500000Y-115000000D03*
X125500000Y-133500000D03*
X124500000Y-110500000D03*
X87000000Y-152000000D03*
X47500000Y-112000000D03*
X124500000Y-129000000D03*
X106000000Y-111500000D03*
X58500000Y-129500000D03*
X45500000Y-134000000D03*
X132000000Y-102500000D03*
X102000000Y-145000000D03*
X124000000Y-105000000D03*
X104000000Y-146000000D03*
X45500000Y-118000000D03*
X83000000Y-123500000D03*
X100000000Y-148000000D03*
X94000000Y-133500000D03*
X129000000Y-103000000D03*
X133500000Y-134500000D03*
X46500000Y-135000000D03*
X112000000Y-115500000D03*
X127500000Y-126000000D03*
X82000000Y-122500000D03*
X96000000Y-149000000D03*
X129000000Y-104000000D03*
X121500000Y-141000000D03*
X60000000Y-145000000D03*
X50500000Y-138500000D03*
X52500000Y-123000000D03*
X126500000Y-107500000D03*
X125500000Y-111500000D03*
X46500000Y-116000000D03*
X59000000Y-151000000D03*
X91000000Y-135500000D03*
X51000000Y-148000000D03*
X45500000Y-116000000D03*
X79000000Y-139500000D03*
X107000000Y-113500000D03*
X97000000Y-145000000D03*
X80500000Y-125500000D03*
X60000000Y-146000000D03*
X134500000Y-134500000D03*
X125500000Y-124000000D03*
X100000000Y-145000000D03*
X73500000Y-125500000D03*
X45500000Y-120000000D03*
X48500000Y-108000000D03*
X59500000Y-128500000D03*
X128500000Y-117500000D03*
X68500000Y-127500000D03*
X128500000Y-118500000D03*
X81500000Y-112500000D03*
X75000000Y-151000000D03*
X122500000Y-142000000D03*
X72940077Y-132483725D03*
X56500000Y-128500000D03*
X113000000Y-112500000D03*
X46500000Y-126000000D03*
X56500000Y-129500000D03*
X100000000Y-131500000D03*
X136500000Y-149500000D03*
X130423803Y-117476788D03*
X123000000Y-103000000D03*
X45500000Y-112000000D03*
X78000000Y-115500000D03*
X55500000Y-128500000D03*
X129000000Y-102000000D03*
X116500000Y-139000000D03*
X106000000Y-151000000D03*
X54000000Y-113000000D03*
X48500000Y-146500000D03*
X91500000Y-110000000D03*
X131500000Y-126000000D03*
X123500000Y-111500000D03*
X45500000Y-108000000D03*
X93000000Y-148000000D03*
X92500000Y-110000000D03*
X75500000Y-125500000D03*
X56500000Y-127500000D03*
X55500000Y-135500000D03*
X98000000Y-145000000D03*
X117500000Y-140000000D03*
X72500000Y-129500000D03*
X60000000Y-148000000D03*
X81500000Y-119500000D03*
X92000000Y-136500000D03*
X55000000Y-152000000D03*
X135500000Y-134500000D03*
X128000000Y-104000000D03*
X53500000Y-137500000D03*
X99000000Y-134500000D03*
X98000000Y-135500000D03*
X80000000Y-151000000D03*
X45500000Y-140500000D03*
X63000000Y-124000000D03*
X104000000Y-145000000D03*
X91000000Y-150000000D03*
X47500000Y-138500000D03*
X90000000Y-151000000D03*
X83500000Y-127500000D03*
X128000000Y-103000000D03*
X49500000Y-141500000D03*
X126500000Y-109500000D03*
X84000000Y-122500000D03*
X126500000Y-127000000D03*
X95000000Y-135500000D03*
X70000000Y-106500000D03*
X83500000Y-110000000D03*
X83500000Y-125500000D03*
X45500000Y-109000000D03*
X96000000Y-151000000D03*
X130500000Y-147500000D03*
X60500000Y-128500000D03*
X107000000Y-115500000D03*
X47500000Y-124000000D03*
X130423803Y-118476788D03*
X78500000Y-127500000D03*
X127500000Y-129000000D03*
X127500000Y-149500000D03*
X53500000Y-123000000D03*
X87500000Y-102500000D03*
X129000000Y-105000000D03*
X126500000Y-114500000D03*
X47500000Y-139500000D03*
X130500000Y-127000000D03*
X125500000Y-107500000D03*
X121500000Y-140000000D03*
X48500000Y-123000000D03*
X47500000Y-145500000D03*
X61000000Y-123000000D03*
X74500000Y-129500000D03*
X129500000Y-146500000D03*
X136500000Y-150500000D03*
X96500000Y-110000000D03*
X57500000Y-126500000D03*
X48500000Y-136500000D03*
X51000000Y-151000000D03*
X122500000Y-131000000D03*
X55500000Y-131500000D03*
X135500000Y-149500000D03*
X76500000Y-129500000D03*
X65000000Y-102500000D03*
X46500000Y-132000000D03*
X136000000Y-117000000D03*
X77000000Y-123000000D03*
X65400000Y-147900000D03*
X75500000Y-126500000D03*
X93500000Y-110000000D03*
X95000000Y-149000000D03*
X114500000Y-151000000D03*
X65994450Y-108504161D03*
X134500000Y-149500000D03*
X128500000Y-147500000D03*
X127000000Y-101000000D03*
X79000000Y-141500000D03*
X105000000Y-150000000D03*
X128500000Y-130000000D03*
X80500000Y-126500000D03*
X115500000Y-115000000D03*
X121500000Y-139000000D03*
X126500000Y-117500000D03*
X93000000Y-146000000D03*
X133000000Y-102500000D03*
X52000000Y-150000000D03*
X99000000Y-136500000D03*
X132500000Y-149500000D03*
X88000000Y-120500000D03*
X104000000Y-111000000D03*
X116500000Y-152000000D03*
X123500000Y-140000000D03*
X106000000Y-115500000D03*
X66000000Y-151000000D03*
X65000000Y-104500000D03*
X102000000Y-134500000D03*
X121500000Y-143000000D03*
X120500000Y-130000000D03*
X66000000Y-107500000D03*
X83000000Y-122500000D03*
X131500000Y-131000000D03*
X95000000Y-146000000D03*
X108000000Y-121000000D03*
X55000000Y-150000000D03*
X132000000Y-101500000D03*
X46500000Y-140500000D03*
X126500000Y-129000000D03*
X75000000Y-122000000D03*
X66000000Y-152000000D03*
X54000000Y-109500000D03*
X141500000Y-134500000D03*
X55500000Y-126500000D03*
X90000000Y-113500000D03*
X45500000Y-126000000D03*
X49500000Y-145500000D03*
X95000000Y-136500000D03*
X46500000Y-141500000D03*
X104000000Y-136500000D03*
X103000000Y-151000000D03*
X118500000Y-143000000D03*
X90400000Y-146900000D03*
X95000000Y-132500000D03*
X110000000Y-116500000D03*
X49500000Y-140500000D03*
X96000000Y-145000000D03*
X137000000Y-135000000D03*
X75000000Y-123000000D03*
X122500000Y-129000000D03*
X84500000Y-125500000D03*
X94000000Y-152000000D03*
X123500000Y-109500000D03*
X46500000Y-136500000D03*
X79000000Y-140500000D03*
X127000000Y-102000000D03*
X67000000Y-108500000D03*
X89000000Y-152000000D03*
X64000000Y-104500000D03*
X74000000Y-151000000D03*
X123500000Y-107500000D03*
X96000000Y-120500000D03*
X124500000Y-123000000D03*
X123000000Y-104000000D03*
X80000000Y-140500000D03*
X47500000Y-137500000D03*
X96000000Y-133500000D03*
X94500000Y-110000000D03*
X127500000Y-150500000D03*
X126500000Y-151500000D03*
X55500000Y-133500000D03*
X110000000Y-115500000D03*
X70000000Y-101500000D03*
X125500000Y-123000000D03*
X62000000Y-124000000D03*
X64000000Y-103500000D03*
X47500000Y-107000000D03*
X105000000Y-152000000D03*
X136000000Y-103500000D03*
X57800000Y-113200000D03*
X97000000Y-148000000D03*
X67000000Y-151000000D03*
X45500000Y-121000000D03*
X131500000Y-130000000D03*
X57000000Y-151000000D03*
X91500000Y-101500000D03*
X125500000Y-126000000D03*
X52500000Y-119000000D03*
X92000000Y-150000000D03*
X54500000Y-139500000D03*
X108000000Y-110500000D03*
X68500000Y-129500000D03*
X76500000Y-127500000D03*
X96000000Y-136500000D03*
X127500000Y-118500000D03*
X79000000Y-116500000D03*
X52500000Y-138500000D03*
X72000000Y-152000000D03*
X64000000Y-121000000D03*
X104000000Y-132500000D03*
X48500000Y-144500000D03*
X49500000Y-142500000D03*
X91000000Y-152000000D03*
X82500000Y-126500000D03*
X120500000Y-142000000D03*
X103000000Y-113000000D03*
X49500000Y-138500000D03*
X124500000Y-142000000D03*
X47500000Y-119000000D03*
X124500000Y-127000000D03*
X71000000Y-102500000D03*
X128500000Y-133500000D03*
X129500000Y-127000000D03*
X125500000Y-122000000D03*
X61000000Y-111000000D03*
X141000000Y-115500000D03*
X78500000Y-126500000D03*
X125500000Y-131000000D03*
X62000000Y-104500000D03*
X124500000Y-107500000D03*
X77500000Y-125500000D03*
X134000000Y-100500000D03*
X128500000Y-131000000D03*
X85000000Y-151000000D03*
X46500000Y-113000000D03*
X45500000Y-142500000D03*
X129500000Y-149500000D03*
X97000000Y-135500000D03*
X65994450Y-109504161D03*
X69500000Y-127500000D03*
X126500000Y-150500000D03*
X124500000Y-141000000D03*
X56500000Y-126500000D03*
X79500000Y-126500000D03*
X128000000Y-102000000D03*
X123500000Y-110500000D03*
X50500000Y-143500000D03*
X78000000Y-116500000D03*
X123500000Y-108500000D03*
X124000000Y-104000000D03*
X119500000Y-142000000D03*
X114500000Y-135000000D03*
X45500000Y-117000000D03*
X125500000Y-125000000D03*
X46500000Y-134000000D03*
X84000000Y-150000000D03*
X48500000Y-142500000D03*
X134000000Y-103500000D03*
X79500000Y-127500000D03*
X79000000Y-119500000D03*
X78000000Y-114500000D03*
X46500000Y-119000000D03*
X64000000Y-105500000D03*
X98000000Y-148000000D03*
X128500000Y-151500000D03*
X103000000Y-112000000D03*
X124500000Y-126000000D03*
X74500000Y-125500000D03*
X57000000Y-150000000D03*
X70000000Y-105500000D03*
X69000000Y-103500000D03*
X103000000Y-152000000D03*
X67000000Y-103500000D03*
X127500000Y-148500000D03*
X97000000Y-136500000D03*
X48500000Y-116000000D03*
X61000000Y-122000000D03*
X82000000Y-151000000D03*
X92000000Y-151000000D03*
X91500000Y-100500000D03*
X86000000Y-122500000D03*
X48500000Y-119000000D03*
X101000000Y-136500000D03*
X126500000Y-108500000D03*
X66000000Y-106500000D03*
X60500000Y-129500000D03*
X136500000Y-147500000D03*
X128500000Y-149500000D03*
X98000000Y-132500000D03*
X91000000Y-134500000D03*
X75000000Y-121000000D03*
X126500000Y-147500000D03*
X75000000Y-152000000D03*
X93000000Y-136500000D03*
X125000000Y-116000000D03*
X109000000Y-114500000D03*
X130500000Y-148500000D03*
X83000000Y-151000000D03*
X120500000Y-143000000D03*
X54500000Y-121000000D03*
X99000000Y-146000000D03*
X97000000Y-152000000D03*
X73500000Y-128500000D03*
X101000000Y-146000000D03*
X68000000Y-151000000D03*
X103000000Y-146000000D03*
X94000000Y-149000000D03*
X88000000Y-112500000D03*
X45500000Y-130000000D03*
X124500000Y-143000000D03*
X133500000Y-149500000D03*
X47500000Y-136500000D03*
X74000000Y-133500000D03*
X133000000Y-101500000D03*
X126500000Y-133500000D03*
X79500000Y-125500000D03*
X46500000Y-129000000D03*
X46500000Y-139500000D03*
X133000000Y-99500000D03*
X55500000Y-127500000D03*
X54500000Y-125000000D03*
X100000000Y-149000000D03*
X108000000Y-111500000D03*
X129500000Y-130000000D03*
X125000000Y-105000000D03*
X104000000Y-135500000D03*
X136000000Y-136500000D03*
X85500000Y-125500000D03*
X125000000Y-104000000D03*
X55500000Y-132500000D03*
X48500000Y-122000000D03*
X129500000Y-151500000D03*
X64952190Y-106480950D03*
X76500000Y-128500000D03*
X72500000Y-127500000D03*
X68000000Y-102500000D03*
X107000000Y-110500000D03*
X122500000Y-141000000D03*
X60500000Y-130500000D03*
X141500000Y-133500000D03*
X48500000Y-124000000D03*
X79500000Y-110000000D03*
X117500000Y-141000000D03*
X99000000Y-152000000D03*
X118500000Y-141000000D03*
X100000000Y-152000000D03*
X129000000Y-101000000D03*
X85500000Y-102500000D03*
X48500000Y-121000000D03*
X82500000Y-127500000D03*
X54000000Y-152000000D03*
X61000000Y-152000000D03*
X100000000Y-133500000D03*
X51000000Y-150000000D03*
X51900000Y-145900000D03*
X109000000Y-111500000D03*
X99000000Y-145000000D03*
X90000000Y-152000000D03*
X52500000Y-125000000D03*
X126500000Y-113500000D03*
X58500000Y-130500000D03*
X126000000Y-102000000D03*
X124500000Y-130000000D03*
X83000000Y-150000000D03*
X118500000Y-140000000D03*
X97000000Y-100500000D03*
X98000000Y-151000000D03*
X82000000Y-123500000D03*
X52500000Y-139500000D03*
X96000000Y-135500000D03*
X99000000Y-149000000D03*
X57500000Y-124000000D03*
X69500000Y-128500000D03*
X55500000Y-123000000D03*
X127500000Y-134500000D03*
X96500000Y-111000000D03*
X120500000Y-127500000D03*
X93000000Y-149000000D03*
X92000000Y-149000000D03*
X62000000Y-111000000D03*
X129500000Y-129000000D03*
X124000000Y-102000000D03*
X76000000Y-121000000D03*
X47500000Y-128000000D03*
X88000000Y-113500000D03*
X126000000Y-105000000D03*
X55500000Y-130500000D03*
X101000000Y-152000000D03*
X62000000Y-152000000D03*
X90000000Y-119500000D03*
X48500000Y-147500000D03*
X93000000Y-152000000D03*
X45500000Y-133000000D03*
X47500000Y-140500000D03*
X95000000Y-152000000D03*
X89000000Y-151000000D03*
X125500000Y-108500000D03*
X130500000Y-149500000D03*
X133500000Y-147500000D03*
X62000000Y-105500000D03*
X47500000Y-130000000D03*
X57500000Y-130500000D03*
X59500000Y-130500000D03*
X48500000Y-145500000D03*
X77500000Y-128500000D03*
X134500000Y-133500000D03*
X78000000Y-138500000D03*
X60000000Y-150000000D03*
X116500000Y-140000000D03*
X132000000Y-103500000D03*
X97000000Y-151000000D03*
X120500000Y-121000000D03*
X46500000Y-106000000D03*
X124500000Y-113500000D03*
X81500000Y-117500000D03*
X101000000Y-132500000D03*
X116500000Y-143000000D03*
X125500000Y-151500000D03*
X78500000Y-125500000D03*
X93000000Y-133500000D03*
X58500000Y-126500000D03*
X115500000Y-152000000D03*
X125000000Y-103000000D03*
X140000000Y-112500000D03*
X133500000Y-146500000D03*
X124500000Y-125000000D03*
X80900000Y-141400000D03*
X54500000Y-138500000D03*
X122500000Y-130000000D03*
X45500000Y-141500000D03*
X82500000Y-125500000D03*
X85000000Y-152000000D03*
X99000000Y-133500000D03*
X76000000Y-151000000D03*
X135500000Y-151500000D03*
X58000000Y-150000000D03*
X105000000Y-132500000D03*
X88000000Y-117500000D03*
X48500000Y-117000000D03*
X80000000Y-141500000D03*
X56000000Y-151000000D03*
X81000000Y-151000000D03*
X47500000Y-129000000D03*
X109000000Y-115500000D03*
X50500000Y-125000000D03*
X74500000Y-127500000D03*
X46500000Y-115000000D03*
X46500000Y-124000000D03*
X131500000Y-148500000D03*
X94000000Y-150000000D03*
X121500000Y-128000000D03*
X68000000Y-152000000D03*
X102000000Y-112000000D03*
X119500000Y-139000000D03*
X107000000Y-114500000D03*
X121500000Y-131000000D03*
X52500000Y-122000000D03*
X47500000Y-125000000D03*
X101000000Y-150000000D03*
X50500000Y-144500000D03*
X97000000Y-150000000D03*
X45500000Y-125000000D03*
X102000000Y-136500000D03*
X45500000Y-145500000D03*
X125500000Y-150500000D03*
X45500000Y-129000000D03*
X88500000Y-100500000D03*
X117500000Y-139000000D03*
X122000000Y-151000000D03*
X50500000Y-139500000D03*
X48500000Y-141500000D03*
X48500000Y-143500000D03*
X53500000Y-122000000D03*
X118500000Y-142000000D03*
X126000000Y-103000000D03*
X70000000Y-151000000D03*
X47500000Y-113000000D03*
X101000000Y-135500000D03*
X140000000Y-115500000D03*
X123500000Y-130000000D03*
X130500000Y-130000000D03*
X57000000Y-152000000D03*
X63000000Y-150000000D03*
X69000000Y-152000000D03*
X54500000Y-123000000D03*
X107000000Y-109500000D03*
X115500000Y-142000000D03*
X83000000Y-152000000D03*
X99000000Y-132500000D03*
X70000000Y-102500000D03*
X125500000Y-127000000D03*
X101000000Y-134500000D03*
X111000000Y-116500000D03*
X50500000Y-113000000D03*
X61000000Y-151000000D03*
X84000000Y-123500000D03*
X100000000Y-114000000D03*
X105000000Y-111000000D03*
X46500000Y-128000000D03*
X48500000Y-106000000D03*
X59000000Y-150000000D03*
X46500000Y-109000000D03*
X53500000Y-121000000D03*
X85500000Y-110000000D03*
X45500000Y-138500000D03*
X75500000Y-128500000D03*
X120500000Y-131000000D03*
X97000000Y-146000000D03*
X119500000Y-131000000D03*
X103000000Y-133500000D03*
X52500000Y-120000000D03*
X77000000Y-152000000D03*
X78000000Y-151000000D03*
X104000000Y-133500000D03*
X125500000Y-114500000D03*
X47500000Y-117000000D03*
X125500000Y-148500000D03*
X77000000Y-122000000D03*
X47500000Y-126000000D03*
X126500000Y-131000000D03*
X99000000Y-151000000D03*
X50000000Y-151000000D03*
X127000000Y-103000000D03*
X81595593Y-134860844D03*
X126500000Y-149500000D03*
X122500000Y-140000000D03*
X130500000Y-131000000D03*
X73500000Y-127500000D03*
X135500000Y-133500000D03*
X60000000Y-147000000D03*
X46500000Y-127000000D03*
X70000000Y-104500000D03*
X93000000Y-150000000D03*
X131500000Y-128000000D03*
X98000000Y-134500000D03*
X117500000Y-142000000D03*
X133500000Y-148500000D03*
X96000000Y-146000000D03*
X106000000Y-112500000D03*
X55500000Y-129500000D03*
X86000000Y-152000000D03*
X87000000Y-122500000D03*
X77000000Y-151000000D03*
X124500000Y-122000000D03*
X69000000Y-151000000D03*
X88000000Y-115500000D03*
X103000000Y-136500000D03*
X46500000Y-137500000D03*
X114000000Y-113500000D03*
X105000000Y-134500000D03*
X81500000Y-118500000D03*
X58000000Y-152000000D03*
X66000000Y-102500000D03*
X115500000Y-141000000D03*
X65000000Y-103500000D03*
X110000000Y-113500000D03*
X71000000Y-105500000D03*
X47500000Y-143500000D03*
X84500000Y-126500000D03*
X129500000Y-126000000D03*
X50500000Y-122000000D03*
X114000000Y-114500000D03*
X48500000Y-115000000D03*
X80500000Y-110000000D03*
X97000000Y-101500000D03*
X95000000Y-148000000D03*
X106000000Y-150000000D03*
X134000000Y-101500000D03*
X141487193Y-136538098D03*
X91000000Y-151000000D03*
X96500000Y-112000000D03*
X127000000Y-104000000D03*
X71500000Y-127500000D03*
X125000000Y-101000000D03*
X124500000Y-108500000D03*
X46500000Y-112000000D03*
X56000000Y-152000000D03*
X90000000Y-115500000D03*
X130500000Y-129000000D03*
X84000000Y-152000000D03*
X133500000Y-133500000D03*
X65000000Y-151000000D03*
X88000000Y-114500000D03*
X50500000Y-115000000D03*
X125500000Y-112500000D03*
X126500000Y-110500000D03*
X141487193Y-135538098D03*
X116500000Y-142000000D03*
X101000000Y-151000000D03*
X65000000Y-105500000D03*
X54500000Y-137500000D03*
X48500000Y-139500000D03*
X126500000Y-134500000D03*
X78000000Y-141500000D03*
X96000000Y-132500000D03*
X90500000Y-110000000D03*
X105000000Y-114000000D03*
X79000000Y-114500000D03*
X57500000Y-127500000D03*
X127500000Y-130000000D03*
X45500000Y-135000000D03*
X106000000Y-114500000D03*
X107000000Y-116500000D03*
X131500000Y-150500000D03*
X75500000Y-129500000D03*
X98000000Y-133500000D03*
X70500000Y-128500000D03*
X139000000Y-115500000D03*
X115500000Y-139000000D03*
X71500000Y-128500000D03*
X58500000Y-127500000D03*
X88000000Y-116500000D03*
X136500000Y-133500000D03*
X107000000Y-112500000D03*
X114500000Y-152000000D03*
X48500000Y-112000000D03*
X111000000Y-117500000D03*
X46500000Y-122000000D03*
X50500000Y-142500000D03*
X129500000Y-147500000D03*
X103000000Y-145000000D03*
X92000000Y-134500000D03*
X95500000Y-110000000D03*
X80500000Y-127500000D03*
X87000000Y-150000000D03*
X94000000Y-148000000D03*
X64000000Y-152000000D03*
X132500000Y-148500000D03*
X51500000Y-124000000D03*
X54500000Y-124000000D03*
X128500000Y-126000000D03*
X132000000Y-100500000D03*
X45500000Y-111000000D03*
X84500000Y-110000000D03*
X51500000Y-125000000D03*
X46500000Y-145500000D03*
X102000000Y-132500000D03*
X72000000Y-104500000D03*
X99000000Y-150000000D03*
X106000000Y-113500000D03*
X100000000Y-146000000D03*
X140500000Y-117500000D03*
X132500000Y-146500000D03*
X105000000Y-136500000D03*
X134500000Y-151500000D03*
X113000000Y-114500000D03*
X55500000Y-122000000D03*
X104000000Y-123500000D03*
X133500000Y-150500000D03*
X74000000Y-131500000D03*
X46500000Y-131000000D03*
X49500000Y-139500000D03*
X50500000Y-140500000D03*
X79000000Y-120500000D03*
X87000000Y-151000000D03*
X135000000Y-103500000D03*
X50500000Y-120000000D03*
X119500000Y-143000000D03*
X131500000Y-129000000D03*
X81600000Y-107600000D03*
X101000000Y-148000000D03*
X88000000Y-150000000D03*
X115500000Y-143000000D03*
X52500000Y-137500000D03*
X46500000Y-123000000D03*
X64000000Y-151000000D03*
X45500000Y-136500000D03*
X46500000Y-110000000D03*
X55500000Y-139500000D03*
X139500000Y-136500000D03*
X66000000Y-105500000D03*
X60000000Y-151000000D03*
X124500000Y-128000000D03*
%TO.N,+3V3*%
X86500000Y-124600000D03*
X62600000Y-126000000D03*
X71200000Y-124800000D03*
X88800000Y-125800000D03*
%TO.N,EN*%
X51250000Y-106000000D03*
X49500000Y-108200000D03*
%TO.N,SPICLK*%
X64965025Y-129965025D03*
X65954975Y-130954975D03*
%TO.N,/ID_N*%
X126400000Y-144200000D03*
X129000000Y-144200000D03*
D27*
%TO.N,VBUS*%
X98400000Y-108800000D03*
D26*
X98400000Y-115400000D03*
%TO.N,/RST*%
X85200000Y-143100000D03*
%TO.N,IRQ*%
X63765025Y-125000000D03*
%TD*%
D28*
%TO.N,EN*%
X50250000Y-107000000D02*
X51250000Y-106000000D01*
X50250000Y-107450000D02*
X50250000Y-107000000D01*
X49500000Y-108200000D02*
X50250000Y-107450000D01*
%TO.N,IRQ*%
X67100000Y-125000000D02*
X63765025Y-125000000D01*
D29*
%TO.N,+3V3*%
X62600000Y-126000000D02*
X70000000Y-126000000D01*
X88600000Y-125600000D02*
X87600000Y-125600000D01*
X70000000Y-126000000D02*
X71200000Y-124800000D01*
X87600000Y-125600000D02*
X86600000Y-124600000D01*
X88800000Y-125800000D02*
X88600000Y-125600000D01*
X86600000Y-124600000D02*
X86500000Y-124600000D01*
D28*
%TO.N,SPICLK*%
X65954975Y-130954975D02*
X64965025Y-129965025D01*
D29*
%TO.N,/ID_N*%
X129000000Y-144200000D02*
X126400000Y-144200000D01*
D28*
%TO.N,VBUS*%
X98400000Y-108800000D02*
X98400000Y-115400000D01*
%TO.N,/RST*%
X85200000Y-143100000D02*
X83900000Y-143100000D01*
X83900000Y-143100000D02*
X80500000Y-146500000D01*
%TD*%
%TA.AperFunction,Conductor*%
%TO.N,GND*%
G36*
X92450000Y-119635439D02*
G01*
X92396853Y-119604755D01*
X92267143Y-119570000D01*
X92132857Y-119570000D01*
X92003147Y-119604755D01*
X91950000Y-119635439D01*
X91950000Y-117984560D01*
X92003147Y-118015245D01*
X92132857Y-118050000D01*
X92267143Y-118050000D01*
X92396853Y-118015245D01*
X92450000Y-117984560D01*
X92450000Y-119635439D01*
G37*
%TD.AperFunction*%
%TA.AperFunction,Conductor*%
G36*
X92450000Y-117095439D02*
G01*
X92396853Y-117064755D01*
X92267143Y-117030000D01*
X92132857Y-117030000D01*
X92003147Y-117064755D01*
X91950000Y-117095439D01*
X91950000Y-115444560D01*
X92003147Y-115475245D01*
X92132857Y-115510000D01*
X92267143Y-115510000D01*
X92396853Y-115475245D01*
X92450000Y-115444560D01*
X92450000Y-117095439D01*
G37*
%TD.AperFunction*%
%TA.AperFunction,Conductor*%
G36*
X92450000Y-114555439D02*
G01*
X92396853Y-114524755D01*
X92267143Y-114490000D01*
X92132857Y-114490000D01*
X92003147Y-114524755D01*
X91950000Y-114555439D01*
X91950000Y-112904560D01*
X92003147Y-112935245D01*
X92132857Y-112970000D01*
X92267143Y-112970000D01*
X92396853Y-112935245D01*
X92450000Y-112904560D01*
X92450000Y-114555439D01*
G37*
%TD.AperFunction*%
%TA.AperFunction,Conductor*%
G36*
X83750000Y-119575439D02*
G01*
X83696853Y-119544755D01*
X83567143Y-119510000D01*
X83432857Y-119510000D01*
X83303147Y-119544755D01*
X83250000Y-119575439D01*
X83250000Y-117924560D01*
X83303147Y-117955245D01*
X83432857Y-117990000D01*
X83567143Y-117990000D01*
X83696853Y-117955245D01*
X83750000Y-117924560D01*
X83750000Y-119575439D01*
G37*
%TD.AperFunction*%
%TA.AperFunction,Conductor*%
G36*
X83750000Y-117035439D02*
G01*
X83696853Y-117004755D01*
X83567143Y-116970000D01*
X83432857Y-116970000D01*
X83303147Y-117004755D01*
X83250000Y-117035439D01*
X83250000Y-115384560D01*
X83303147Y-115415245D01*
X83432857Y-115450000D01*
X83567143Y-115450000D01*
X83696853Y-115415245D01*
X83750000Y-115384560D01*
X83750000Y-117035439D01*
G37*
%TD.AperFunction*%
%TA.AperFunction,Conductor*%
G36*
X83750000Y-114495439D02*
G01*
X83696853Y-114464755D01*
X83567143Y-114430000D01*
X83432857Y-114430000D01*
X83303147Y-114464755D01*
X83250000Y-114495439D01*
X83250000Y-112844560D01*
X83303147Y-112875245D01*
X83432857Y-112910000D01*
X83567143Y-112910000D01*
X83696853Y-112875245D01*
X83750000Y-112844560D01*
X83750000Y-114495439D01*
G37*
%TD.AperFunction*%
%TA.AperFunction,Conductor*%
G36*
X140203472Y-98900695D02*
G01*
X140495306Y-98917084D01*
X140509103Y-98918638D01*
X140793827Y-98967015D01*
X140807384Y-98970109D01*
X141084899Y-99050060D01*
X141098025Y-99054653D01*
X141364841Y-99165172D01*
X141377355Y-99171198D01*
X141543443Y-99262992D01*
X141630124Y-99310899D01*
X141641898Y-99318297D01*
X141877439Y-99485422D01*
X141888307Y-99494090D01*
X142103641Y-99686526D01*
X142113473Y-99696358D01*
X142168622Y-99758069D01*
X142293861Y-99898211D01*
X142305909Y-99911692D01*
X142314580Y-99922564D01*
X142481702Y-100158101D01*
X142489100Y-100169875D01*
X142628797Y-100422637D01*
X142634830Y-100435165D01*
X142745346Y-100701975D01*
X142749939Y-100715100D01*
X142829890Y-100992615D01*
X142832984Y-101006172D01*
X142881359Y-101290885D01*
X142882916Y-101304703D01*
X142899305Y-101596527D01*
X142899500Y-101603480D01*
X142899500Y-149796519D01*
X142899305Y-149803472D01*
X142882916Y-150095296D01*
X142881359Y-150109114D01*
X142832984Y-150393827D01*
X142829890Y-150407384D01*
X142749939Y-150684899D01*
X142745346Y-150698024D01*
X142634830Y-150964834D01*
X142628797Y-150977362D01*
X142489100Y-151230124D01*
X142481702Y-151241898D01*
X142314580Y-151477435D01*
X142305909Y-151488307D01*
X142113473Y-151703641D01*
X142103641Y-151713473D01*
X141888307Y-151905909D01*
X141877435Y-151914580D01*
X141641898Y-152081702D01*
X141630124Y-152089100D01*
X141377362Y-152228797D01*
X141364834Y-152234830D01*
X141098024Y-152345346D01*
X141084899Y-152349939D01*
X140807384Y-152429890D01*
X140793827Y-152432984D01*
X140509114Y-152481359D01*
X140495296Y-152482916D01*
X140203472Y-152499305D01*
X140196519Y-152499500D01*
X46803481Y-152499500D01*
X46796528Y-152499305D01*
X46504703Y-152482916D01*
X46490885Y-152481359D01*
X46206172Y-152432984D01*
X46192615Y-152429890D01*
X45915100Y-152349939D01*
X45901975Y-152345346D01*
X45635165Y-152234830D01*
X45622637Y-152228797D01*
X45369875Y-152089100D01*
X45358101Y-152081702D01*
X45122564Y-151914580D01*
X45111692Y-151905909D01*
X44896358Y-151713473D01*
X44886526Y-151703641D01*
X44710402Y-151506560D01*
X44694087Y-151488303D01*
X44685419Y-151477435D01*
X44640268Y-151413801D01*
X44518297Y-151241898D01*
X44510899Y-151230124D01*
X44371202Y-150977362D01*
X44365172Y-150964841D01*
X44254653Y-150698024D01*
X44250060Y-150684899D01*
X44170109Y-150407384D01*
X44167015Y-150393827D01*
X44150941Y-150299223D01*
X44118638Y-150109103D01*
X44117084Y-150095306D01*
X44100695Y-149803472D01*
X44100500Y-149796519D01*
X44100500Y-149697648D01*
X45499500Y-149697648D01*
X45499500Y-149902351D01*
X45531522Y-150104534D01*
X45594781Y-150299223D01*
X45687715Y-150481613D01*
X45808028Y-150647213D01*
X45952786Y-150791971D01*
X46107749Y-150904556D01*
X46118390Y-150912287D01*
X46221519Y-150964834D01*
X46300776Y-151005218D01*
X46300778Y-151005218D01*
X46300781Y-151005220D01*
X46405137Y-151039127D01*
X46495465Y-151068477D01*
X46596557Y-151084488D01*
X46697648Y-151100500D01*
X46697649Y-151100500D01*
X46902351Y-151100500D01*
X46902352Y-151100500D01*
X47104534Y-151068477D01*
X47299219Y-151005220D01*
X47481610Y-150912287D01*
X47574590Y-150844732D01*
X47647213Y-150791971D01*
X47647215Y-150791968D01*
X47647219Y-150791966D01*
X47791966Y-150647219D01*
X47791968Y-150647215D01*
X47791971Y-150647213D01*
X47844732Y-150574590D01*
X47912287Y-150481610D01*
X48005220Y-150299219D01*
X48068477Y-150104534D01*
X48100500Y-149902352D01*
X48100500Y-149697648D01*
X48068477Y-149495466D01*
X48005220Y-149300781D01*
X48005218Y-149300778D01*
X48005218Y-149300776D01*
X47971503Y-149234607D01*
X47912287Y-149118390D01*
X47904556Y-149107749D01*
X47791971Y-148952786D01*
X47647213Y-148808028D01*
X47481613Y-148687715D01*
X47481612Y-148687714D01*
X47481610Y-148687713D01*
X47424653Y-148658691D01*
X47299223Y-148594781D01*
X47104534Y-148531522D01*
X46929995Y-148503878D01*
X46902352Y-148499500D01*
X46697648Y-148499500D01*
X46673329Y-148503351D01*
X46495465Y-148531522D01*
X46300776Y-148594781D01*
X46118386Y-148687715D01*
X45952786Y-148808028D01*
X45808028Y-148952786D01*
X45687715Y-149118386D01*
X45594781Y-149300776D01*
X45531522Y-149495465D01*
X45499500Y-149697648D01*
X44100500Y-149697648D01*
X44100500Y-141047135D01*
X54884500Y-141047135D01*
X54884500Y-142872870D01*
X54884501Y-142872876D01*
X54890908Y-142932483D01*
X54941202Y-143067328D01*
X54941206Y-143067335D01*
X55027452Y-143182544D01*
X55027455Y-143182547D01*
X55142664Y-143268793D01*
X55142673Y-143268798D01*
X55210723Y-143294178D01*
X55258632Y-143312047D01*
X55314566Y-143353917D01*
X55338984Y-143419381D01*
X55324133Y-143487654D01*
X55302982Y-143515910D01*
X55208454Y-143610438D01*
X55082120Y-143784321D01*
X54984541Y-143975829D01*
X54984540Y-143975832D01*
X54918124Y-144180240D01*
X54918124Y-144180243D01*
X54914956Y-144200245D01*
X54884500Y-144392533D01*
X54884500Y-144607467D01*
X54904765Y-144735410D01*
X54918124Y-144819756D01*
X54918124Y-144819759D01*
X54984540Y-145024167D01*
X54984541Y-145024170D01*
X55054778Y-145162017D01*
X55082120Y-145215678D01*
X55208455Y-145389563D01*
X55360437Y-145541545D01*
X55360440Y-145541547D01*
X55537226Y-145669990D01*
X55579892Y-145725320D01*
X55585871Y-145794933D01*
X55553265Y-145856728D01*
X55537227Y-145870626D01*
X55360760Y-145998838D01*
X55360759Y-145998838D01*
X55208838Y-146150759D01*
X55082547Y-146324583D01*
X54985003Y-146516024D01*
X54918610Y-146720364D01*
X54907581Y-146790000D01*
X55955440Y-146790000D01*
X55924755Y-146843147D01*
X55890000Y-146972857D01*
X55890000Y-147107143D01*
X55924755Y-147236853D01*
X55955440Y-147290000D01*
X54907581Y-147290000D01*
X54918610Y-147359635D01*
X54985003Y-147563975D01*
X55082547Y-147755416D01*
X55208838Y-147929240D01*
X55360759Y-148081161D01*
X55534583Y-148207452D01*
X55726024Y-148304996D01*
X55930358Y-148371388D01*
X56142573Y-148405000D01*
X56150000Y-148405000D01*
X56150000Y-147484560D01*
X56203147Y-147515245D01*
X56332857Y-147550000D01*
X56467143Y-147550000D01*
X56596853Y-147515245D01*
X56650000Y-147484560D01*
X56650000Y-148405000D01*
X56657427Y-148405000D01*
X56869639Y-148371388D01*
X56869642Y-148371388D01*
X57073975Y-148304996D01*
X57265416Y-148207452D01*
X57439240Y-148081161D01*
X57591161Y-147929240D01*
X57717452Y-147755416D01*
X57814996Y-147563975D01*
X57881389Y-147359635D01*
X57892419Y-147290000D01*
X56844560Y-147290000D01*
X56875245Y-147236853D01*
X56910000Y-147107143D01*
X56910000Y-146972857D01*
X56875245Y-146843147D01*
X56844560Y-146790000D01*
X57892419Y-146790000D01*
X57881389Y-146720364D01*
X57814996Y-146516024D01*
X57717452Y-146324583D01*
X57591161Y-146150759D01*
X57439240Y-145998838D01*
X57262772Y-145870626D01*
X57220107Y-145815296D01*
X57214128Y-145745682D01*
X57246734Y-145683888D01*
X57262773Y-145669990D01*
X57265675Y-145667881D01*
X57265678Y-145667880D01*
X57439563Y-145541545D01*
X57591545Y-145389563D01*
X57717880Y-145215678D01*
X57815458Y-145024170D01*
X57839395Y-144950500D01*
X57881875Y-144819759D01*
X57881875Y-144819758D01*
X57881876Y-144819755D01*
X57915500Y-144607467D01*
X57915500Y-144392533D01*
X57881876Y-144180245D01*
X57881875Y-144180241D01*
X57881875Y-144180240D01*
X57815459Y-143975832D01*
X57815458Y-143975829D01*
X57728070Y-143804321D01*
X57717880Y-143784322D01*
X57591545Y-143610437D01*
X57497018Y-143515910D01*
X57463533Y-143454587D01*
X57468517Y-143384895D01*
X57510389Y-143328962D01*
X57541362Y-143312049D01*
X57657331Y-143268796D01*
X57772546Y-143182546D01*
X57858796Y-143067331D01*
X57909091Y-142932483D01*
X57915500Y-142872873D01*
X57915499Y-141872534D01*
X62109500Y-141872534D01*
X62109500Y-142087465D01*
X62143124Y-142299756D01*
X62143124Y-142299759D01*
X62209540Y-142504167D01*
X62209541Y-142504170D01*
X62255682Y-142594726D01*
X62307120Y-142695678D01*
X62433455Y-142869563D01*
X62585437Y-143021545D01*
X62731181Y-143127434D01*
X62761802Y-143149682D01*
X62804467Y-143205012D01*
X62810446Y-143274626D01*
X62777840Y-143336421D01*
X62761802Y-143350318D01*
X62719539Y-143381023D01*
X62585437Y-143478455D01*
X62585435Y-143478457D01*
X62585434Y-143478457D01*
X62433457Y-143630434D01*
X62433457Y-143630435D01*
X62433455Y-143630437D01*
X62413548Y-143657837D01*
X62307120Y-143804321D01*
X62209541Y-143995829D01*
X62209540Y-143995832D01*
X62143124Y-144200240D01*
X62143124Y-144200243D01*
X62143124Y-144200245D01*
X62109500Y-144412533D01*
X62109500Y-144627467D01*
X62126597Y-144735410D01*
X62143124Y-144839756D01*
X62143124Y-144839759D01*
X62209540Y-145044167D01*
X62209541Y-145044170D01*
X62307119Y-145235677D01*
X62307120Y-145235678D01*
X62433455Y-145409563D01*
X62433457Y-145409565D01*
X62528369Y-145504477D01*
X62561854Y-145565800D01*
X62556870Y-145635492D01*
X62514998Y-145691425D01*
X62484021Y-145708340D01*
X62367913Y-145751645D01*
X62367906Y-145751649D01*
X62252812Y-145837809D01*
X62252809Y-145837812D01*
X62166649Y-145952906D01*
X62166645Y-145952913D01*
X62116403Y-146087620D01*
X62116401Y-146087627D01*
X62110000Y-146147155D01*
X62110000Y-146810000D01*
X63180440Y-146810000D01*
X63149755Y-146863147D01*
X63115000Y-146992857D01*
X63115000Y-147127143D01*
X63149755Y-147256853D01*
X63180440Y-147310000D01*
X62110000Y-147310000D01*
X62110000Y-147972844D01*
X62116401Y-148032372D01*
X62116403Y-148032379D01*
X62166645Y-148167086D01*
X62166649Y-148167093D01*
X62252809Y-148282187D01*
X62252812Y-148282190D01*
X62367906Y-148368350D01*
X62367913Y-148368354D01*
X62502620Y-148418596D01*
X62502627Y-148418598D01*
X62562155Y-148424999D01*
X62562172Y-148425000D01*
X63375000Y-148425000D01*
X63375000Y-147504560D01*
X63428147Y-147535245D01*
X63557857Y-147570000D01*
X63692143Y-147570000D01*
X63821853Y-147535245D01*
X63875000Y-147504560D01*
X63875000Y-148425000D01*
X64687828Y-148425000D01*
X64687844Y-148424999D01*
X64747372Y-148418598D01*
X64747379Y-148418596D01*
X64882086Y-148368354D01*
X64882093Y-148368350D01*
X64997187Y-148282190D01*
X64997190Y-148282187D01*
X65083350Y-148167093D01*
X65083354Y-148167086D01*
X65133596Y-148032379D01*
X65133598Y-148032372D01*
X65139999Y-147972844D01*
X65140000Y-147972827D01*
X65140000Y-147310000D01*
X64069560Y-147310000D01*
X64100245Y-147256853D01*
X64135000Y-147127143D01*
X64135000Y-146992857D01*
X64100245Y-146863147D01*
X64069560Y-146810000D01*
X65140000Y-146810000D01*
X65140000Y-146147172D01*
X65139999Y-146147155D01*
X65133598Y-146087627D01*
X65133596Y-146087620D01*
X65083354Y-145952913D01*
X65083350Y-145952906D01*
X64997190Y-145837812D01*
X64997187Y-145837809D01*
X64882093Y-145751649D01*
X64882086Y-145751645D01*
X64765978Y-145708340D01*
X64710044Y-145666469D01*
X64685627Y-145601005D01*
X64700479Y-145532732D01*
X64721624Y-145504483D01*
X64816545Y-145409563D01*
X64899588Y-145295264D01*
X73099500Y-145295264D01*
X73099500Y-147704736D01*
X73109987Y-147837983D01*
X73128466Y-147911322D01*
X73165426Y-148058002D01*
X73259258Y-148264579D01*
X73259263Y-148264589D01*
X73388473Y-148451090D01*
X73548909Y-148611526D01*
X73735410Y-148740736D01*
X73735420Y-148740741D01*
X73941997Y-148834573D01*
X73941998Y-148834573D01*
X73942000Y-148834574D01*
X74162017Y-148890013D01*
X74295264Y-148900500D01*
X74295270Y-148900500D01*
X76704730Y-148900500D01*
X76704736Y-148900500D01*
X76837983Y-148890013D01*
X77058000Y-148834574D01*
X77264582Y-148740740D01*
X77264584Y-148740738D01*
X77264589Y-148740736D01*
X77451090Y-148611526D01*
X77611526Y-148451090D01*
X77629602Y-148425000D01*
X77669496Y-148367416D01*
X77740736Y-148264589D01*
X77740741Y-148264579D01*
X77766690Y-148207452D01*
X77834574Y-148058000D01*
X77890013Y-147837983D01*
X77900500Y-147704736D01*
X77900500Y-147371738D01*
X77920185Y-147304699D01*
X77972989Y-147258944D01*
X78042147Y-147249000D01*
X78105703Y-147278025D01*
X78141541Y-147330783D01*
X78186200Y-147458411D01*
X78308053Y-147711442D01*
X78308055Y-147711445D01*
X78457477Y-147949248D01*
X78632584Y-148168825D01*
X78831175Y-148367416D01*
X79050752Y-148542523D01*
X79288555Y-148691945D01*
X79541592Y-148813801D01*
X79740680Y-148883465D01*
X79806670Y-148906556D01*
X79806682Y-148906560D01*
X80080491Y-148969055D01*
X80080497Y-148969055D01*
X80080505Y-148969057D01*
X80266547Y-148990018D01*
X80359569Y-149000499D01*
X80359572Y-149000500D01*
X80359575Y-149000500D01*
X80640428Y-149000500D01*
X80640429Y-149000499D01*
X80783055Y-148984429D01*
X80919494Y-148969057D01*
X80919499Y-148969056D01*
X80919509Y-148969055D01*
X80961074Y-148959568D01*
X107699500Y-148959568D01*
X107699500Y-149240431D01*
X107730942Y-149519494D01*
X107730945Y-149519512D01*
X107793439Y-149793317D01*
X107793443Y-149793329D01*
X107886200Y-150058411D01*
X108008053Y-150311442D01*
X108008055Y-150311445D01*
X108157477Y-150549248D01*
X108332584Y-150768825D01*
X108531175Y-150967416D01*
X108750752Y-151142523D01*
X108988555Y-151291945D01*
X109241592Y-151413801D01*
X109423448Y-151477435D01*
X109506670Y-151506556D01*
X109506682Y-151506560D01*
X109780491Y-151569055D01*
X109780497Y-151569055D01*
X109780505Y-151569057D01*
X109966547Y-151590018D01*
X110059569Y-151600499D01*
X110059572Y-151600500D01*
X110059575Y-151600500D01*
X110340428Y-151600500D01*
X110340429Y-151600499D01*
X110483055Y-151584429D01*
X110619494Y-151569057D01*
X110619499Y-151569056D01*
X110619509Y-151569055D01*
X110893318Y-151506560D01*
X111158408Y-151413801D01*
X111411445Y-151291945D01*
X111649248Y-151142523D01*
X111868825Y-150967416D01*
X112067416Y-150768825D01*
X112242523Y-150549248D01*
X112391945Y-150311445D01*
X112513801Y-150058408D01*
X112606560Y-149793318D01*
X112628396Y-149697648D01*
X138899500Y-149697648D01*
X138899500Y-149902351D01*
X138931522Y-150104534D01*
X138994781Y-150299223D01*
X139087715Y-150481613D01*
X139208028Y-150647213D01*
X139352786Y-150791971D01*
X139507749Y-150904556D01*
X139518390Y-150912287D01*
X139621519Y-150964834D01*
X139700776Y-151005218D01*
X139700778Y-151005218D01*
X139700781Y-151005220D01*
X139805137Y-151039127D01*
X139895465Y-151068477D01*
X139996557Y-151084488D01*
X140097648Y-151100500D01*
X140097649Y-151100500D01*
X140302351Y-151100500D01*
X140302352Y-151100500D01*
X140504534Y-151068477D01*
X140699219Y-151005220D01*
X140881610Y-150912287D01*
X140974590Y-150844732D01*
X141047213Y-150791971D01*
X141047215Y-150791968D01*
X141047219Y-150791966D01*
X141191966Y-150647219D01*
X141191968Y-150647215D01*
X141191971Y-150647213D01*
X141244732Y-150574590D01*
X141312287Y-150481610D01*
X141405220Y-150299219D01*
X141468477Y-150104534D01*
X141500500Y-149902352D01*
X141500500Y-149697648D01*
X141468477Y-149495466D01*
X141405220Y-149300781D01*
X141405218Y-149300778D01*
X141405218Y-149300776D01*
X141371503Y-149234607D01*
X141312287Y-149118390D01*
X141304556Y-149107749D01*
X141191971Y-148952786D01*
X141047213Y-148808028D01*
X140881613Y-148687715D01*
X140881612Y-148687714D01*
X140881610Y-148687713D01*
X140824653Y-148658691D01*
X140699223Y-148594781D01*
X140504534Y-148531522D01*
X140329995Y-148503878D01*
X140302352Y-148499500D01*
X140097648Y-148499500D01*
X140073329Y-148503351D01*
X139895465Y-148531522D01*
X139700776Y-148594781D01*
X139518386Y-148687715D01*
X139352786Y-148808028D01*
X139208028Y-148952786D01*
X139087715Y-149118386D01*
X138994781Y-149300776D01*
X138931522Y-149495465D01*
X138899500Y-149697648D01*
X112628396Y-149697648D01*
X112669055Y-149519509D01*
X112700500Y-149240425D01*
X112700500Y-148959575D01*
X112683425Y-148808028D01*
X112669057Y-148680505D01*
X112669054Y-148680487D01*
X112606560Y-148406682D01*
X112606556Y-148406670D01*
X112583465Y-148340680D01*
X112513801Y-148141592D01*
X112391945Y-147888555D01*
X112242523Y-147650752D01*
X112067416Y-147431175D01*
X111868825Y-147232584D01*
X111649248Y-147057477D01*
X111411445Y-146908055D01*
X111411442Y-146908053D01*
X111158411Y-146786200D01*
X111030784Y-146741541D01*
X110974008Y-146700819D01*
X110948261Y-146635867D01*
X110961717Y-146567305D01*
X111010105Y-146516902D01*
X111071739Y-146500500D01*
X111404730Y-146500500D01*
X111404736Y-146500500D01*
X111537983Y-146490013D01*
X111758000Y-146434574D01*
X111964582Y-146340740D01*
X111964584Y-146340738D01*
X111964589Y-146340736D01*
X112151090Y-146211526D01*
X112311526Y-146051090D01*
X112440736Y-145864589D01*
X112440741Y-145864579D01*
X112452900Y-145837812D01*
X112534574Y-145658000D01*
X112590013Y-145437983D01*
X112600500Y-145304736D01*
X112600500Y-144116228D01*
X125549500Y-144116228D01*
X125549500Y-144283771D01*
X125582182Y-144448074D01*
X125582184Y-144448082D01*
X125646295Y-144602860D01*
X125739373Y-144742162D01*
X125857837Y-144860626D01*
X125950494Y-144922537D01*
X125997137Y-144953703D01*
X126151918Y-145017816D01*
X126284395Y-145044167D01*
X126316228Y-145050499D01*
X126316232Y-145050500D01*
X126316233Y-145050500D01*
X126483768Y-145050500D01*
X126483769Y-145050499D01*
X126648082Y-145017816D01*
X126787808Y-144959938D01*
X126835261Y-144950500D01*
X128564739Y-144950500D01*
X128612191Y-144959938D01*
X128751918Y-145017816D01*
X128884395Y-145044167D01*
X128916228Y-145050499D01*
X128916232Y-145050500D01*
X128916233Y-145050500D01*
X129083768Y-145050500D01*
X129083769Y-145050499D01*
X129248082Y-145017816D01*
X129402863Y-144953703D01*
X129542162Y-144860626D01*
X129660626Y-144742162D01*
X129753703Y-144602863D01*
X129817816Y-144448082D01*
X129850500Y-144283767D01*
X129850500Y-144116233D01*
X129817816Y-143951918D01*
X129753703Y-143797137D01*
X129722537Y-143750494D01*
X129660626Y-143657837D01*
X129542162Y-143539373D01*
X129402860Y-143446295D01*
X129248082Y-143382184D01*
X129248074Y-143382182D01*
X129083771Y-143349500D01*
X129083767Y-143349500D01*
X128916233Y-143349500D01*
X128916228Y-143349500D01*
X128751925Y-143382182D01*
X128751917Y-143382184D01*
X128612192Y-143440061D01*
X128564739Y-143449500D01*
X126835261Y-143449500D01*
X126787808Y-143440061D01*
X126648082Y-143382184D01*
X126648074Y-143382182D01*
X126483771Y-143349500D01*
X126483767Y-143349500D01*
X126316233Y-143349500D01*
X126316228Y-143349500D01*
X126151925Y-143382182D01*
X126151917Y-143382184D01*
X125997139Y-143446295D01*
X125857837Y-143539373D01*
X125739373Y-143657837D01*
X125646295Y-143797139D01*
X125582184Y-143951917D01*
X125582182Y-143951925D01*
X125549500Y-144116228D01*
X112600500Y-144116228D01*
X112600500Y-142895264D01*
X112590013Y-142762017D01*
X112534574Y-142542000D01*
X112526186Y-142523534D01*
X112440741Y-142335420D01*
X112440736Y-142335410D01*
X112311526Y-142148909D01*
X112151090Y-141988473D01*
X111964589Y-141859263D01*
X111964579Y-141859258D01*
X111758002Y-141765426D01*
X111611322Y-141728466D01*
X111537983Y-141709987D01*
X111504671Y-141707365D01*
X111404739Y-141699500D01*
X111404736Y-141699500D01*
X108995264Y-141699500D01*
X108995260Y-141699500D01*
X108862017Y-141709987D01*
X108641997Y-141765426D01*
X108435420Y-141859258D01*
X108435410Y-141859263D01*
X108248909Y-141988473D01*
X108088473Y-142148909D01*
X107959263Y-142335410D01*
X107959258Y-142335420D01*
X107865426Y-142541997D01*
X107809987Y-142762017D01*
X107799500Y-142895260D01*
X107799500Y-145304739D01*
X107809987Y-145437982D01*
X107865426Y-145658002D01*
X107959258Y-145864579D01*
X107959263Y-145864589D01*
X108088473Y-146051090D01*
X108248909Y-146211526D01*
X108435410Y-146340736D01*
X108435420Y-146340741D01*
X108641997Y-146434573D01*
X108641998Y-146434573D01*
X108642000Y-146434574D01*
X108862017Y-146490013D01*
X108995264Y-146500500D01*
X108995270Y-146500500D01*
X109328261Y-146500500D01*
X109395300Y-146520185D01*
X109441055Y-146572989D01*
X109450999Y-146642147D01*
X109421974Y-146705703D01*
X109369216Y-146741541D01*
X109241588Y-146786200D01*
X108988557Y-146908053D01*
X108750753Y-147057476D01*
X108531175Y-147232583D01*
X108332583Y-147431175D01*
X108157476Y-147650753D01*
X108008053Y-147888557D01*
X107886200Y-148141588D01*
X107793443Y-148406670D01*
X107793439Y-148406682D01*
X107730945Y-148680487D01*
X107730942Y-148680505D01*
X107699500Y-148959568D01*
X80961074Y-148959568D01*
X81193318Y-148906560D01*
X81458408Y-148813801D01*
X81711445Y-148691945D01*
X81949248Y-148542523D01*
X82168825Y-148367416D01*
X82367416Y-148168825D01*
X82542523Y-147949248D01*
X82691945Y-147711445D01*
X82813801Y-147458408D01*
X82906560Y-147193318D01*
X82969055Y-146919509D01*
X82975406Y-146863147D01*
X82984429Y-146783055D01*
X83000500Y-146640425D01*
X83000500Y-146359575D01*
X82983819Y-146211526D01*
X82969057Y-146080505D01*
X82969054Y-146080487D01*
X82906560Y-145806682D01*
X82906556Y-145806670D01*
X82864989Y-145687880D01*
X82813801Y-145541592D01*
X82710436Y-145326952D01*
X82699084Y-145258010D01*
X82726806Y-145193876D01*
X82734464Y-145185480D01*
X84133127Y-143786819D01*
X84194450Y-143753334D01*
X84220808Y-143750500D01*
X84605068Y-143750500D01*
X84672107Y-143770185D01*
X84673959Y-143771398D01*
X84797137Y-143853703D01*
X84951918Y-143917816D01*
X85116228Y-143950499D01*
X85116232Y-143950500D01*
X85116233Y-143950500D01*
X85283768Y-143950500D01*
X85283769Y-143950499D01*
X85448082Y-143917816D01*
X85602863Y-143853703D01*
X85742162Y-143760626D01*
X85860626Y-143642162D01*
X85953703Y-143502863D01*
X86017816Y-143348082D01*
X86050500Y-143183767D01*
X86050500Y-143016233D01*
X86017816Y-142851918D01*
X85953703Y-142697137D01*
X85885272Y-142594723D01*
X85860626Y-142557837D01*
X85742162Y-142439373D01*
X85602860Y-142346295D01*
X85448082Y-142282184D01*
X85448074Y-142282182D01*
X85283771Y-142249500D01*
X85283767Y-142249500D01*
X85116233Y-142249500D01*
X85116228Y-142249500D01*
X84951925Y-142282182D01*
X84951917Y-142282184D01*
X84797139Y-142346295D01*
X84673959Y-142428602D01*
X84607281Y-142449480D01*
X84605068Y-142449500D01*
X83835929Y-142449500D01*
X83710261Y-142474497D01*
X83710255Y-142474499D01*
X83591874Y-142523534D01*
X83485326Y-142594726D01*
X81814529Y-144265523D01*
X81753206Y-144299008D01*
X81683514Y-144294024D01*
X81673047Y-144289562D01*
X81458419Y-144186203D01*
X81458411Y-144186200D01*
X81193329Y-144093443D01*
X81193317Y-144093439D01*
X80919512Y-144030945D01*
X80919494Y-144030942D01*
X80640431Y-143999500D01*
X80640425Y-143999500D01*
X80359575Y-143999500D01*
X80359568Y-143999500D01*
X80080505Y-144030942D01*
X80080487Y-144030945D01*
X79806682Y-144093439D01*
X79806670Y-144093443D01*
X79541588Y-144186200D01*
X79288557Y-144308053D01*
X79050753Y-144457476D01*
X78831175Y-144632583D01*
X78632583Y-144831175D01*
X78457476Y-145050753D01*
X78308053Y-145288557D01*
X78186200Y-145541588D01*
X78141541Y-145669216D01*
X78100819Y-145725992D01*
X78035867Y-145751739D01*
X77967305Y-145738283D01*
X77916902Y-145689895D01*
X77900500Y-145628261D01*
X77900500Y-145295270D01*
X77900500Y-145295264D01*
X77890013Y-145162017D01*
X77834574Y-144942000D01*
X77740740Y-144735418D01*
X77740736Y-144735410D01*
X77611526Y-144548909D01*
X77451090Y-144388473D01*
X77264589Y-144259263D01*
X77264579Y-144259258D01*
X77058002Y-144165426D01*
X76911322Y-144128466D01*
X76837983Y-144109987D01*
X76804671Y-144107365D01*
X76704739Y-144099500D01*
X76704736Y-144099500D01*
X74295264Y-144099500D01*
X74295260Y-144099500D01*
X74162017Y-144109987D01*
X73941997Y-144165426D01*
X73735420Y-144259258D01*
X73735410Y-144259263D01*
X73548909Y-144388473D01*
X73388473Y-144548909D01*
X73259263Y-144735410D01*
X73259258Y-144735420D01*
X73165426Y-144941997D01*
X73109987Y-145162017D01*
X73104190Y-145235678D01*
X73099500Y-145295264D01*
X64899588Y-145295264D01*
X64942880Y-145235678D01*
X65040458Y-145044170D01*
X65106876Y-144839755D01*
X65140500Y-144627467D01*
X65140500Y-144412533D01*
X65106876Y-144200245D01*
X65106875Y-144200241D01*
X65106875Y-144200240D01*
X65040459Y-143995832D01*
X65040458Y-143995829D01*
X64942879Y-143804321D01*
X64937661Y-143797139D01*
X64816545Y-143630437D01*
X64664563Y-143478455D01*
X64664559Y-143478452D01*
X64488198Y-143350318D01*
X64445532Y-143294988D01*
X64439553Y-143225375D01*
X64472159Y-143163580D01*
X64488198Y-143149682D01*
X64516381Y-143129205D01*
X64664563Y-143021545D01*
X64816545Y-142869563D01*
X64942880Y-142695678D01*
X65040458Y-142504170D01*
X65091754Y-142346297D01*
X65106875Y-142299759D01*
X65106875Y-142299758D01*
X65106876Y-142299755D01*
X65140500Y-142087467D01*
X65140500Y-141872533D01*
X65106876Y-141660245D01*
X65106875Y-141660241D01*
X65106875Y-141660240D01*
X65040459Y-141455832D01*
X65040458Y-141455829D01*
X64942879Y-141264321D01*
X64907962Y-141216262D01*
X64816545Y-141090437D01*
X64664563Y-140938455D01*
X64490678Y-140812120D01*
X64299170Y-140714541D01*
X64299167Y-140714540D01*
X64094757Y-140648124D01*
X63953229Y-140625708D01*
X63882467Y-140614500D01*
X63367533Y-140614500D01*
X63296770Y-140625708D01*
X63155243Y-140648124D01*
X63155240Y-140648124D01*
X62950832Y-140714540D01*
X62950829Y-140714541D01*
X62759321Y-140812120D01*
X62703518Y-140852664D01*
X62585437Y-140938455D01*
X62585435Y-140938457D01*
X62585434Y-140938457D01*
X62433457Y-141090434D01*
X62433457Y-141090435D01*
X62433455Y-141090437D01*
X62379198Y-141165114D01*
X62307120Y-141264321D01*
X62209541Y-141455829D01*
X62209540Y-141455832D01*
X62143124Y-141660240D01*
X62143124Y-141660243D01*
X62109500Y-141872534D01*
X57915499Y-141872534D01*
X57915499Y-141047128D01*
X57909091Y-140987517D01*
X57858796Y-140852669D01*
X57858795Y-140852668D01*
X57858793Y-140852664D01*
X57772547Y-140737455D01*
X57772544Y-140737452D01*
X57657335Y-140651206D01*
X57657328Y-140651202D01*
X57522482Y-140600908D01*
X57522483Y-140600908D01*
X57462883Y-140594501D01*
X57462881Y-140594500D01*
X57462873Y-140594500D01*
X57462864Y-140594500D01*
X55337129Y-140594500D01*
X55337123Y-140594501D01*
X55277516Y-140600908D01*
X55142671Y-140651202D01*
X55142664Y-140651206D01*
X55027455Y-140737452D01*
X55027452Y-140737455D01*
X54941206Y-140852664D01*
X54941202Y-140852671D01*
X54890908Y-140987517D01*
X54884501Y-141047116D01*
X54884501Y-141047123D01*
X54884500Y-141047135D01*
X44100500Y-141047135D01*
X44100500Y-140473646D01*
X128146301Y-140473646D01*
X128146301Y-140726353D01*
X128185830Y-140975928D01*
X128185831Y-140975932D01*
X128263919Y-141216260D01*
X128378640Y-141441413D01*
X128527171Y-141645848D01*
X128705853Y-141824530D01*
X128910288Y-141973061D01*
X129135441Y-142087782D01*
X129375769Y-142165870D01*
X129469363Y-142180693D01*
X129625348Y-142205400D01*
X129625353Y-142205400D01*
X129878054Y-142205400D01*
X130016706Y-142183438D01*
X130127633Y-142165870D01*
X130367961Y-142087782D01*
X130593114Y-141973061D01*
X130797549Y-141824530D01*
X130976231Y-141645848D01*
X131124762Y-141441413D01*
X131239483Y-141216260D01*
X131317571Y-140975932D01*
X131343516Y-140812120D01*
X131357101Y-140726353D01*
X131357101Y-140473646D01*
X135146299Y-140473646D01*
X135146299Y-140726353D01*
X135185828Y-140975928D01*
X135185829Y-140975932D01*
X135263917Y-141216260D01*
X135378638Y-141441413D01*
X135527169Y-141645848D01*
X135705851Y-141824530D01*
X135910286Y-141973061D01*
X136135439Y-142087782D01*
X136375767Y-142165870D01*
X136469361Y-142180693D01*
X136625346Y-142205400D01*
X136625351Y-142205400D01*
X136878052Y-142205400D01*
X137016704Y-142183438D01*
X137127631Y-142165870D01*
X137367959Y-142087782D01*
X137593112Y-141973061D01*
X137797547Y-141824530D01*
X137976229Y-141645848D01*
X138124760Y-141441413D01*
X138239481Y-141216260D01*
X138317569Y-140975932D01*
X138343514Y-140812120D01*
X138357099Y-140726353D01*
X138357099Y-140473646D01*
X138317569Y-140224071D01*
X138317569Y-140224068D01*
X138239481Y-139983740D01*
X138124760Y-139758587D01*
X137976229Y-139554152D01*
X137797547Y-139375470D01*
X137593112Y-139226939D01*
X137367959Y-139112218D01*
X137127631Y-139034130D01*
X137127629Y-139034129D01*
X137127627Y-139034129D01*
X136878052Y-138994600D01*
X136878047Y-138994600D01*
X136625351Y-138994600D01*
X136625346Y-138994600D01*
X136375770Y-139034129D01*
X136135436Y-139112219D01*
X135910285Y-139226939D01*
X135793648Y-139311681D01*
X135705851Y-139375470D01*
X135705849Y-139375472D01*
X135705848Y-139375472D01*
X135527171Y-139554149D01*
X135527171Y-139554150D01*
X135527169Y-139554152D01*
X135463380Y-139641949D01*
X135378638Y-139758586D01*
X135263918Y-139983737D01*
X135185828Y-140224071D01*
X135146299Y-140473646D01*
X131357101Y-140473646D01*
X131317571Y-140224071D01*
X131317571Y-140224068D01*
X131239483Y-139983740D01*
X131124762Y-139758587D01*
X130976231Y-139554152D01*
X130797549Y-139375470D01*
X130593114Y-139226939D01*
X130367961Y-139112218D01*
X130127633Y-139034130D01*
X130127631Y-139034129D01*
X130127629Y-139034129D01*
X129878054Y-138994600D01*
X129878049Y-138994600D01*
X129625353Y-138994600D01*
X129625348Y-138994600D01*
X129375772Y-139034129D01*
X129135438Y-139112219D01*
X128910287Y-139226939D01*
X128793650Y-139311681D01*
X128705853Y-139375470D01*
X128705851Y-139375472D01*
X128705850Y-139375472D01*
X128527173Y-139554149D01*
X128527173Y-139554150D01*
X128527171Y-139554152D01*
X128463382Y-139641949D01*
X128378640Y-139758586D01*
X128263920Y-139983737D01*
X128185830Y-140224071D01*
X128146301Y-140473646D01*
X44100500Y-140473646D01*
X44100500Y-128859568D01*
X48999500Y-128859568D01*
X48999500Y-129140431D01*
X49030942Y-129419494D01*
X49030945Y-129419512D01*
X49093439Y-129693317D01*
X49093443Y-129693329D01*
X49186200Y-129958411D01*
X49308053Y-130211442D01*
X49319724Y-130230016D01*
X49457477Y-130449248D01*
X49539510Y-130552114D01*
X49616701Y-130648909D01*
X49632584Y-130668825D01*
X49831175Y-130867416D01*
X50050752Y-131042523D01*
X50288555Y-131191945D01*
X50541592Y-131313801D01*
X50618761Y-131340803D01*
X50670645Y-131358959D01*
X50727421Y-131399681D01*
X50753168Y-131464633D01*
X50739712Y-131533195D01*
X50691324Y-131583598D01*
X50629690Y-131600000D01*
X50295280Y-131600000D01*
X50162093Y-131610482D01*
X50162087Y-131610483D01*
X49942170Y-131665898D01*
X49942167Y-131665899D01*
X49735669Y-131759695D01*
X49735663Y-131759698D01*
X49549241Y-131888851D01*
X49549229Y-131888861D01*
X49388861Y-132049229D01*
X49388851Y-132049241D01*
X49259698Y-132235663D01*
X49259695Y-132235669D01*
X49165899Y-132442167D01*
X49165898Y-132442170D01*
X49110483Y-132662087D01*
X49110482Y-132662093D01*
X49100000Y-132795280D01*
X49100000Y-133750000D01*
X50172769Y-133750000D01*
X50150000Y-133893753D01*
X50150000Y-134106247D01*
X50172769Y-134250000D01*
X49100000Y-134250000D01*
X49100000Y-135204719D01*
X49110482Y-135337906D01*
X49110483Y-135337912D01*
X49165898Y-135557829D01*
X49165899Y-135557832D01*
X49259695Y-135764330D01*
X49259698Y-135764336D01*
X49388851Y-135950758D01*
X49388861Y-135950770D01*
X49549229Y-136111138D01*
X49549241Y-136111148D01*
X49735663Y-136240301D01*
X49735669Y-136240304D01*
X49942167Y-136334100D01*
X49942170Y-136334101D01*
X50162087Y-136389516D01*
X50162093Y-136389517D01*
X50295280Y-136399999D01*
X50295294Y-136400000D01*
X51250000Y-136400000D01*
X51250000Y-135327231D01*
X51393753Y-135350000D01*
X51606247Y-135350000D01*
X51750000Y-135327231D01*
X51750000Y-136400000D01*
X52704706Y-136400000D01*
X52704719Y-136399999D01*
X52837906Y-136389517D01*
X52837912Y-136389516D01*
X53057829Y-136334101D01*
X53057832Y-136334100D01*
X53264330Y-136240304D01*
X53264336Y-136240301D01*
X53450758Y-136111148D01*
X53450770Y-136111138D01*
X53611138Y-135950770D01*
X53611148Y-135950758D01*
X53740301Y-135764336D01*
X53740304Y-135764330D01*
X53834100Y-135557832D01*
X53834101Y-135557829D01*
X53889516Y-135337912D01*
X53889517Y-135337906D01*
X53899999Y-135204719D01*
X53900000Y-135204706D01*
X53900000Y-135142534D01*
X56614500Y-135142534D01*
X56614500Y-135657465D01*
X56648124Y-135869756D01*
X56648124Y-135869759D01*
X56714540Y-136074167D01*
X56714541Y-136074170D01*
X56789117Y-136220532D01*
X56812120Y-136265678D01*
X56938455Y-136439563D01*
X57090437Y-136591545D01*
X57264322Y-136717880D01*
X57347431Y-136760226D01*
X57455829Y-136815458D01*
X57455832Y-136815459D01*
X57642225Y-136876021D01*
X57660245Y-136881876D01*
X57872533Y-136915500D01*
X57872534Y-136915500D01*
X58087466Y-136915500D01*
X58087467Y-136915500D01*
X58299755Y-136881876D01*
X58299758Y-136881875D01*
X58299759Y-136881875D01*
X58504167Y-136815459D01*
X58504170Y-136815458D01*
X58518415Y-136808200D01*
X58695678Y-136717880D01*
X58869563Y-136591545D01*
X59021545Y-136439563D01*
X59147880Y-136265678D01*
X59147879Y-136265678D01*
X59149682Y-136263198D01*
X59205012Y-136220532D01*
X59274625Y-136214553D01*
X59336420Y-136247159D01*
X59350318Y-136263198D01*
X59401832Y-136334101D01*
X59478455Y-136439563D01*
X59630437Y-136591545D01*
X59720984Y-136657331D01*
X59804323Y-136717881D01*
X59887431Y-136760226D01*
X59938228Y-136808200D01*
X59955023Y-136876021D01*
X59932486Y-136942156D01*
X59918819Y-136958392D01*
X59859373Y-137017838D01*
X59766295Y-137157139D01*
X59702184Y-137311917D01*
X59702182Y-137311925D01*
X59669500Y-137476228D01*
X59669500Y-137643771D01*
X59702182Y-137808074D01*
X59702184Y-137808082D01*
X59766295Y-137962860D01*
X59859373Y-138102162D01*
X59977837Y-138220626D01*
X60070494Y-138282537D01*
X60117137Y-138313703D01*
X60271918Y-138377816D01*
X60436228Y-138410499D01*
X60436232Y-138410500D01*
X60436233Y-138410500D01*
X60603768Y-138410500D01*
X60603769Y-138410499D01*
X60768082Y-138377816D01*
X60922863Y-138313703D01*
X61062162Y-138220626D01*
X61180626Y-138102162D01*
X61273703Y-137962863D01*
X61337816Y-137808082D01*
X61370500Y-137643767D01*
X61370500Y-137476233D01*
X61367185Y-137459568D01*
X107499500Y-137459568D01*
X107499500Y-137740431D01*
X107530942Y-138019494D01*
X107530945Y-138019512D01*
X107593439Y-138293317D01*
X107593443Y-138293329D01*
X107686200Y-138558411D01*
X107808053Y-138811442D01*
X107808055Y-138811445D01*
X107957477Y-139049248D01*
X108132584Y-139268825D01*
X108331175Y-139467416D01*
X108550752Y-139642523D01*
X108788555Y-139791945D01*
X109041592Y-139913801D01*
X109240680Y-139983465D01*
X109306670Y-140006556D01*
X109306682Y-140006560D01*
X109580491Y-140069055D01*
X109580497Y-140069055D01*
X109580505Y-140069057D01*
X109766547Y-140090018D01*
X109859569Y-140100499D01*
X109859572Y-140100500D01*
X109859575Y-140100500D01*
X110140428Y-140100500D01*
X110140429Y-140100499D01*
X110283055Y-140084429D01*
X110419494Y-140069057D01*
X110419499Y-140069056D01*
X110419509Y-140069055D01*
X110693318Y-140006560D01*
X110958408Y-139913801D01*
X111211445Y-139791945D01*
X111449248Y-139642523D01*
X111668825Y-139467416D01*
X111867416Y-139268825D01*
X112042523Y-139049248D01*
X112191945Y-138811445D01*
X112313801Y-138558408D01*
X112406560Y-138293318D01*
X112469055Y-138019509D01*
X112475438Y-137962863D01*
X112500499Y-137740431D01*
X112500500Y-137740427D01*
X112500500Y-137459572D01*
X112500499Y-137459568D01*
X112469057Y-137180505D01*
X112469054Y-137180487D01*
X112406560Y-136906682D01*
X112406556Y-136906670D01*
X112355313Y-136760226D01*
X112313801Y-136641592D01*
X112191945Y-136388555D01*
X112042523Y-136150752D01*
X111867416Y-135931175D01*
X111668825Y-135732584D01*
X111449248Y-135557477D01*
X111211445Y-135408055D01*
X111211442Y-135408053D01*
X110958411Y-135286200D01*
X110830784Y-135241541D01*
X110774008Y-135200819D01*
X110748261Y-135135867D01*
X110761717Y-135067305D01*
X110810105Y-135016902D01*
X110871739Y-135000500D01*
X111204730Y-135000500D01*
X111204736Y-135000500D01*
X111337983Y-134990013D01*
X111558000Y-134934574D01*
X111764582Y-134840740D01*
X111764584Y-134840738D01*
X111764589Y-134840736D01*
X111951090Y-134711526D01*
X112111526Y-134551090D01*
X112240736Y-134364589D01*
X112240741Y-134364579D01*
X112242623Y-134360437D01*
X112334574Y-134158000D01*
X112390013Y-133937983D01*
X112400500Y-133804736D01*
X112400500Y-131395264D01*
X112390013Y-131262017D01*
X112334574Y-131042000D01*
X112333094Y-131038742D01*
X112240741Y-130835420D01*
X112240736Y-130835410D01*
X112111526Y-130648909D01*
X111951090Y-130488473D01*
X111764589Y-130359263D01*
X111764579Y-130359258D01*
X111558002Y-130265426D01*
X111411322Y-130228466D01*
X111337983Y-130209987D01*
X111304671Y-130207365D01*
X111204739Y-130199500D01*
X111204736Y-130199500D01*
X108795264Y-130199500D01*
X108795260Y-130199500D01*
X108662017Y-130209987D01*
X108441997Y-130265426D01*
X108235420Y-130359258D01*
X108235410Y-130359263D01*
X108048909Y-130488473D01*
X107888473Y-130648909D01*
X107759263Y-130835410D01*
X107759258Y-130835420D01*
X107665426Y-131041997D01*
X107609987Y-131262017D01*
X107599537Y-131394797D01*
X107599500Y-131395264D01*
X107599500Y-133804736D01*
X107609987Y-133937983D01*
X107621719Y-133984542D01*
X107665426Y-134158002D01*
X107759258Y-134364579D01*
X107759263Y-134364589D01*
X107888473Y-134551090D01*
X108048909Y-134711526D01*
X108235410Y-134840736D01*
X108235420Y-134840741D01*
X108441997Y-134934573D01*
X108441998Y-134934573D01*
X108442000Y-134934574D01*
X108662017Y-134990013D01*
X108795264Y-135000500D01*
X108795270Y-135000500D01*
X109128261Y-135000500D01*
X109195300Y-135020185D01*
X109241055Y-135072989D01*
X109250999Y-135142147D01*
X109221974Y-135205703D01*
X109169216Y-135241541D01*
X109041588Y-135286200D01*
X108788557Y-135408053D01*
X108550753Y-135557476D01*
X108331175Y-135732583D01*
X108132583Y-135931175D01*
X107957476Y-136150753D01*
X107808053Y-136388557D01*
X107686200Y-136641588D01*
X107593443Y-136906670D01*
X107593439Y-136906682D01*
X107530945Y-137180487D01*
X107530942Y-137180505D01*
X107499500Y-137459568D01*
X61367185Y-137459568D01*
X61337816Y-137311918D01*
X61273703Y-137157137D01*
X61242537Y-137110494D01*
X61180626Y-137017837D01*
X61121181Y-136958392D01*
X61087696Y-136897069D01*
X61092680Y-136827377D01*
X61134552Y-136771444D01*
X61152562Y-136760229D01*
X61235678Y-136717880D01*
X61409563Y-136591545D01*
X61561545Y-136439563D01*
X61687880Y-136265678D01*
X61687879Y-136265678D01*
X61689682Y-136263198D01*
X61745012Y-136220532D01*
X61814625Y-136214553D01*
X61876420Y-136247159D01*
X61890318Y-136263198D01*
X61941832Y-136334101D01*
X62018455Y-136439563D01*
X62170437Y-136591545D01*
X62344322Y-136717880D01*
X62427431Y-136760226D01*
X62535829Y-136815458D01*
X62535832Y-136815459D01*
X62722225Y-136876021D01*
X62740245Y-136881876D01*
X62952533Y-136915500D01*
X62952534Y-136915500D01*
X63167466Y-136915500D01*
X63167467Y-136915500D01*
X63379755Y-136881876D01*
X63379758Y-136881875D01*
X63379759Y-136881875D01*
X63584167Y-136815459D01*
X63584170Y-136815458D01*
X63598415Y-136808200D01*
X63775678Y-136717880D01*
X63949563Y-136591545D01*
X64044092Y-136497015D01*
X64105411Y-136463533D01*
X64175103Y-136468517D01*
X64231037Y-136510388D01*
X64247952Y-136541366D01*
X64291202Y-136657328D01*
X64291206Y-136657335D01*
X64377452Y-136772544D01*
X64377455Y-136772547D01*
X64492664Y-136858793D01*
X64492671Y-136858797D01*
X64627517Y-136909091D01*
X64627516Y-136909091D01*
X64634444Y-136909835D01*
X64687127Y-136915500D01*
X66512872Y-136915499D01*
X66572483Y-136909091D01*
X66707331Y-136858796D01*
X66822546Y-136772546D01*
X66908796Y-136657331D01*
X66959091Y-136522483D01*
X66965500Y-136462873D01*
X66965499Y-134337128D01*
X66959091Y-134277517D01*
X66933333Y-134208457D01*
X66908797Y-134142671D01*
X66908793Y-134142664D01*
X66822547Y-134027455D01*
X66822544Y-134027452D01*
X66707335Y-133941206D01*
X66707328Y-133941202D01*
X66572482Y-133890908D01*
X66572483Y-133890908D01*
X66512883Y-133884501D01*
X66512881Y-133884500D01*
X66512873Y-133884500D01*
X66512864Y-133884500D01*
X64687129Y-133884500D01*
X64687123Y-133884501D01*
X64627516Y-133890908D01*
X64492671Y-133941202D01*
X64492664Y-133941206D01*
X64377455Y-134027452D01*
X64377452Y-134027455D01*
X64291206Y-134142664D01*
X64291202Y-134142671D01*
X64247952Y-134258633D01*
X64206081Y-134314567D01*
X64140617Y-134338984D01*
X64072344Y-134324133D01*
X64044089Y-134302981D01*
X63949565Y-134208457D01*
X63949563Y-134208455D01*
X63775678Y-134082120D01*
X63584170Y-133984541D01*
X63584167Y-133984540D01*
X63379757Y-133918124D01*
X63238229Y-133895708D01*
X63167467Y-133884500D01*
X62952533Y-133884500D01*
X62881770Y-133895708D01*
X62740243Y-133918124D01*
X62740240Y-133918124D01*
X62535832Y-133984540D01*
X62535829Y-133984541D01*
X62344321Y-134082120D01*
X62260981Y-134142671D01*
X62170437Y-134208455D01*
X62170435Y-134208457D01*
X62170434Y-134208457D01*
X62018457Y-134360434D01*
X62018457Y-134360435D01*
X62018455Y-134360437D01*
X61921023Y-134494539D01*
X61890318Y-134536802D01*
X61834988Y-134579467D01*
X61765374Y-134585446D01*
X61703579Y-134552840D01*
X61689682Y-134536802D01*
X61676181Y-134518220D01*
X61561545Y-134360437D01*
X61409563Y-134208455D01*
X61235678Y-134082120D01*
X61044170Y-133984541D01*
X61044167Y-133984540D01*
X60839757Y-133918124D01*
X60698229Y-133895708D01*
X60627467Y-133884500D01*
X60412533Y-133884500D01*
X60341770Y-133895708D01*
X60200243Y-133918124D01*
X60200240Y-133918124D01*
X59995832Y-133984540D01*
X59995829Y-133984541D01*
X59804321Y-134082120D01*
X59720981Y-134142671D01*
X59630437Y-134208455D01*
X59630435Y-134208457D01*
X59630434Y-134208457D01*
X59478457Y-134360434D01*
X59478457Y-134360435D01*
X59478455Y-134360437D01*
X59381023Y-134494539D01*
X59350318Y-134536802D01*
X59294988Y-134579467D01*
X59225374Y-134585446D01*
X59163579Y-134552840D01*
X59149682Y-134536802D01*
X59136181Y-134518220D01*
X59021545Y-134360437D01*
X58869563Y-134208455D01*
X58695678Y-134082120D01*
X58504170Y-133984541D01*
X58504167Y-133984540D01*
X58299757Y-133918124D01*
X58158229Y-133895708D01*
X58087467Y-133884500D01*
X57872533Y-133884500D01*
X57801770Y-133895708D01*
X57660243Y-133918124D01*
X57660240Y-133918124D01*
X57455832Y-133984540D01*
X57455829Y-133984541D01*
X57264321Y-134082120D01*
X57180981Y-134142671D01*
X57090437Y-134208455D01*
X57090435Y-134208457D01*
X57090434Y-134208457D01*
X56938457Y-134360434D01*
X56938457Y-134360435D01*
X56938455Y-134360437D01*
X56884198Y-134435114D01*
X56812120Y-134534321D01*
X56714541Y-134725829D01*
X56714540Y-134725832D01*
X56648124Y-134930240D01*
X56648124Y-134930243D01*
X56632368Y-135029722D01*
X56616336Y-135130945D01*
X56614500Y-135142534D01*
X53900000Y-135142534D01*
X53900000Y-134250000D01*
X52827231Y-134250000D01*
X52850000Y-134106247D01*
X52850000Y-133893753D01*
X52827231Y-133750000D01*
X53900000Y-133750000D01*
X53900000Y-132795293D01*
X53899999Y-132795280D01*
X53889517Y-132662093D01*
X53889516Y-132662087D01*
X53834101Y-132442170D01*
X53834100Y-132442167D01*
X53740304Y-132235669D01*
X53740301Y-132235663D01*
X53611148Y-132049241D01*
X53611138Y-132049229D01*
X53450770Y-131888861D01*
X53450758Y-131888851D01*
X53264336Y-131759698D01*
X53264330Y-131759695D01*
X53057832Y-131665899D01*
X53057829Y-131665898D01*
X52837912Y-131610483D01*
X52837906Y-131610482D01*
X52704719Y-131600000D01*
X52370310Y-131600000D01*
X52303271Y-131580315D01*
X52257516Y-131527511D01*
X52247572Y-131458353D01*
X52276597Y-131394797D01*
X52329355Y-131358959D01*
X52367828Y-131345496D01*
X52458408Y-131313801D01*
X52711445Y-131191945D01*
X52949248Y-131042523D01*
X53168825Y-130867416D01*
X53367416Y-130668825D01*
X53542523Y-130449248D01*
X53691945Y-130211445D01*
X53813801Y-129958408D01*
X53840799Y-129881253D01*
X64114525Y-129881253D01*
X64114525Y-130048796D01*
X64147207Y-130213099D01*
X64147209Y-130213107D01*
X64211320Y-130367885D01*
X64304398Y-130507187D01*
X64422862Y-130625651D01*
X64487477Y-130668825D01*
X64562162Y-130718728D01*
X64716943Y-130782841D01*
X64801036Y-130799568D01*
X64862243Y-130811743D01*
X64878999Y-130820508D01*
X64897479Y-130824528D01*
X64922513Y-130843268D01*
X64924154Y-130844127D01*
X64925733Y-130845679D01*
X65074320Y-130994266D01*
X65107805Y-131055589D01*
X65108256Y-131057756D01*
X65137157Y-131203049D01*
X65137159Y-131203057D01*
X65201270Y-131357835D01*
X65294348Y-131497137D01*
X65412812Y-131615601D01*
X65488087Y-131665898D01*
X65552112Y-131708678D01*
X65706893Y-131772791D01*
X65871203Y-131805474D01*
X65871207Y-131805475D01*
X65871208Y-131805475D01*
X66038743Y-131805475D01*
X66038744Y-131805474D01*
X66203057Y-131772791D01*
X66357838Y-131708678D01*
X66497137Y-131615601D01*
X66615601Y-131497137D01*
X66708678Y-131357838D01*
X66772791Y-131203057D01*
X66805475Y-131038742D01*
X66805475Y-130871208D01*
X66772791Y-130706893D01*
X66708678Y-130552112D01*
X66666156Y-130488473D01*
X66615601Y-130412812D01*
X66497137Y-130294348D01*
X66357835Y-130201270D01*
X66203057Y-130137159D01*
X66203049Y-130137157D01*
X66057756Y-130108256D01*
X66040999Y-130099491D01*
X66022520Y-130095471D01*
X65997481Y-130076726D01*
X65995845Y-130075871D01*
X65994266Y-130074320D01*
X65845679Y-129925733D01*
X65812194Y-129864410D01*
X65811743Y-129862243D01*
X65782842Y-129716950D01*
X65782841Y-129716943D01*
X65718728Y-129562162D01*
X65638914Y-129442712D01*
X65625651Y-129422862D01*
X65507187Y-129304398D01*
X65367885Y-129211320D01*
X65213107Y-129147209D01*
X65213099Y-129147207D01*
X65048796Y-129114525D01*
X65048792Y-129114525D01*
X64881258Y-129114525D01*
X64881253Y-129114525D01*
X64716950Y-129147207D01*
X64716942Y-129147209D01*
X64562164Y-129211320D01*
X64422862Y-129304398D01*
X64304398Y-129422862D01*
X64211320Y-129562164D01*
X64147209Y-129716942D01*
X64147207Y-129716950D01*
X64114525Y-129881253D01*
X53840799Y-129881253D01*
X53857260Y-129834211D01*
X53906556Y-129693329D01*
X53906560Y-129693317D01*
X53927745Y-129600499D01*
X53969055Y-129419509D01*
X54000500Y-129140425D01*
X54000500Y-128859575D01*
X53990018Y-128766547D01*
X53969057Y-128580505D01*
X53969054Y-128580487D01*
X53906560Y-128306682D01*
X53906556Y-128306670D01*
X53842093Y-128122447D01*
X53813801Y-128041592D01*
X53691945Y-127788555D01*
X53542523Y-127550752D01*
X53367416Y-127331175D01*
X53168825Y-127132584D01*
X52949248Y-126957477D01*
X52726981Y-126817817D01*
X52711442Y-126808053D01*
X52458411Y-126686200D01*
X52193329Y-126593443D01*
X52193317Y-126593439D01*
X51919512Y-126530945D01*
X51919494Y-126530942D01*
X51640431Y-126499500D01*
X51640425Y-126499500D01*
X51359575Y-126499500D01*
X51359568Y-126499500D01*
X51080505Y-126530942D01*
X51080487Y-126530945D01*
X50806682Y-126593439D01*
X50806670Y-126593443D01*
X50541588Y-126686200D01*
X50288557Y-126808053D01*
X50050753Y-126957476D01*
X49831175Y-127132583D01*
X49632583Y-127331175D01*
X49457476Y-127550753D01*
X49308053Y-127788557D01*
X49186200Y-128041588D01*
X49093443Y-128306670D01*
X49093439Y-128306682D01*
X49030945Y-128580487D01*
X49030942Y-128580505D01*
X48999500Y-128859568D01*
X44100500Y-128859568D01*
X44100500Y-125916228D01*
X61749500Y-125916228D01*
X61749500Y-126083771D01*
X61782182Y-126248074D01*
X61782184Y-126248082D01*
X61846295Y-126402860D01*
X61939373Y-126542162D01*
X62057837Y-126660626D01*
X62149175Y-126721656D01*
X62197137Y-126753703D01*
X62351918Y-126817816D01*
X62516228Y-126850499D01*
X62516232Y-126850500D01*
X62516233Y-126850500D01*
X62683768Y-126850500D01*
X62683769Y-126850499D01*
X62848082Y-126817816D01*
X62987808Y-126759938D01*
X63035261Y-126750500D01*
X70073920Y-126750500D01*
X70171462Y-126731096D01*
X70218913Y-126721658D01*
X70355495Y-126665084D01*
X70426237Y-126617816D01*
X70478416Y-126582952D01*
X71422907Y-125638458D01*
X71463130Y-125611582D01*
X71602863Y-125553703D01*
X71742162Y-125460626D01*
X71860626Y-125342162D01*
X71953703Y-125202863D01*
X72017816Y-125048082D01*
X72050500Y-124883767D01*
X72050500Y-124716233D01*
X72026811Y-124597137D01*
X72017817Y-124551921D01*
X72011475Y-124536611D01*
X72003032Y-124516228D01*
X85649500Y-124516228D01*
X85649500Y-124683771D01*
X85682182Y-124848074D01*
X85682184Y-124848082D01*
X85746295Y-125002860D01*
X85839373Y-125142162D01*
X85957837Y-125260626D01*
X86000922Y-125289414D01*
X86097137Y-125353703D01*
X86251918Y-125417816D01*
X86345512Y-125436432D01*
X86407421Y-125468816D01*
X86409001Y-125470368D01*
X87017049Y-126078416D01*
X87121584Y-126182951D01*
X87121587Y-126182953D01*
X87121588Y-126182954D01*
X87244503Y-126265083D01*
X87244506Y-126265085D01*
X87294964Y-126285985D01*
X87294966Y-126285985D01*
X87301080Y-126288518D01*
X87381088Y-126321659D01*
X87484165Y-126342162D01*
X87510764Y-126347453D01*
X87526081Y-126350500D01*
X87526082Y-126350500D01*
X87526083Y-126350500D01*
X87673918Y-126350500D01*
X88096350Y-126350500D01*
X88163389Y-126370185D01*
X88184026Y-126386814D01*
X88257838Y-126460626D01*
X88397137Y-126553703D01*
X88551918Y-126617816D01*
X88716228Y-126650499D01*
X88716232Y-126650500D01*
X88716233Y-126650500D01*
X88883768Y-126650500D01*
X88883769Y-126650499D01*
X89048082Y-126617816D01*
X89202863Y-126553703D01*
X89283260Y-126499983D01*
X91839500Y-126499983D01*
X91839500Y-128900001D01*
X91839501Y-128900018D01*
X91850000Y-129002796D01*
X91850001Y-129002799D01*
X91887024Y-129114525D01*
X91905186Y-129169334D01*
X91997288Y-129318656D01*
X92121344Y-129442712D01*
X92270666Y-129534814D01*
X92437203Y-129589999D01*
X92539991Y-129600500D01*
X94600008Y-129600499D01*
X94702797Y-129589999D01*
X94869334Y-129534814D01*
X95018656Y-129442712D01*
X95142712Y-129318656D01*
X95234814Y-129169334D01*
X95289999Y-129002797D01*
X95300500Y-128900009D01*
X95300499Y-127613389D01*
X132849500Y-127613389D01*
X132849500Y-127786610D01*
X132867564Y-127900666D01*
X132876598Y-127957701D01*
X132930127Y-128122445D01*
X133008768Y-128276788D01*
X133110586Y-128416928D01*
X133233072Y-128539414D01*
X133373212Y-128641232D01*
X133527555Y-128719873D01*
X133692299Y-128773402D01*
X133863389Y-128800500D01*
X133863390Y-128800500D01*
X134036610Y-128800500D01*
X134036611Y-128800500D01*
X134207701Y-128773402D01*
X134372445Y-128719873D01*
X134526788Y-128641232D01*
X134666928Y-128539414D01*
X134789414Y-128416928D01*
X134891232Y-128276788D01*
X134945651Y-128169983D01*
X135299500Y-128169983D01*
X135299500Y-130230001D01*
X135299501Y-130230018D01*
X135310000Y-130332796D01*
X135310001Y-130332799D01*
X135348588Y-130449246D01*
X135365186Y-130499334D01*
X135457288Y-130648656D01*
X135581344Y-130772712D01*
X135730666Y-130864814D01*
X135897203Y-130919999D01*
X135999991Y-130930500D01*
X138400008Y-130930499D01*
X138502797Y-130919999D01*
X138669334Y-130864814D01*
X138818656Y-130772712D01*
X138942712Y-130648656D01*
X139034814Y-130499334D01*
X139089999Y-130332797D01*
X139100500Y-130230009D01*
X139100499Y-128169992D01*
X139089999Y-128067203D01*
X139034814Y-127900666D01*
X138942712Y-127751344D01*
X138818656Y-127627288D01*
X138669334Y-127535186D01*
X138502797Y-127480001D01*
X138502795Y-127480000D01*
X138400010Y-127469500D01*
X135999998Y-127469500D01*
X135999981Y-127469501D01*
X135897203Y-127480000D01*
X135897200Y-127480001D01*
X135730668Y-127535185D01*
X135730663Y-127535187D01*
X135581342Y-127627289D01*
X135457289Y-127751342D01*
X135365187Y-127900663D01*
X135365186Y-127900666D01*
X135310001Y-128067203D01*
X135310001Y-128067204D01*
X135310000Y-128067204D01*
X135299500Y-128169983D01*
X134945651Y-128169983D01*
X134969873Y-128122445D01*
X135023402Y-127957701D01*
X135050500Y-127786611D01*
X135050500Y-127613389D01*
X135023402Y-127442299D01*
X134969873Y-127277555D01*
X134891232Y-127123212D01*
X134789414Y-126983072D01*
X134666928Y-126860586D01*
X134526788Y-126758768D01*
X134372445Y-126680127D01*
X134207701Y-126626598D01*
X134207699Y-126626597D01*
X134207698Y-126626597D01*
X134076271Y-126605781D01*
X134036611Y-126599500D01*
X133863389Y-126599500D01*
X133823728Y-126605781D01*
X133692302Y-126626597D01*
X133527552Y-126680128D01*
X133373211Y-126758768D01*
X133305377Y-126808053D01*
X133233072Y-126860586D01*
X133233070Y-126860588D01*
X133233069Y-126860588D01*
X133110588Y-126983069D01*
X133110588Y-126983070D01*
X133110586Y-126983072D01*
X133066859Y-127043256D01*
X133008768Y-127123211D01*
X132930128Y-127277552D01*
X132876597Y-127442302D01*
X132849500Y-127613389D01*
X95300499Y-127613389D01*
X95300499Y-126499992D01*
X95289999Y-126397203D01*
X95234814Y-126230666D01*
X95142712Y-126081344D01*
X95018656Y-125957288D01*
X94899465Y-125883771D01*
X94869336Y-125865187D01*
X94869331Y-125865185D01*
X94867862Y-125864698D01*
X94702797Y-125810001D01*
X94702795Y-125810000D01*
X94600010Y-125799500D01*
X92539998Y-125799500D01*
X92539981Y-125799501D01*
X92437203Y-125810000D01*
X92437200Y-125810001D01*
X92270668Y-125865185D01*
X92270663Y-125865187D01*
X92121342Y-125957289D01*
X91997289Y-126081342D01*
X91905187Y-126230663D01*
X91905185Y-126230668D01*
X91886855Y-126285985D01*
X91850001Y-126397203D01*
X91850001Y-126397204D01*
X91850000Y-126397204D01*
X91839500Y-126499983D01*
X89283260Y-126499983D01*
X89342162Y-126460626D01*
X89342165Y-126460623D01*
X89393636Y-126409153D01*
X89460623Y-126342165D01*
X89460628Y-126342160D01*
X89512128Y-126265084D01*
X89553703Y-126202863D01*
X89617816Y-126048082D01*
X89650500Y-125883767D01*
X89650500Y-125716233D01*
X89617816Y-125551918D01*
X89553703Y-125397137D01*
X89515106Y-125339373D01*
X89460626Y-125257837D01*
X89342162Y-125139373D01*
X89202860Y-125046295D01*
X89048085Y-124982185D01*
X89048083Y-124982184D01*
X89041160Y-124980807D01*
X88996469Y-124962294D01*
X88955491Y-124934913D01*
X88818917Y-124878343D01*
X88818907Y-124878340D01*
X88673920Y-124849500D01*
X88673918Y-124849500D01*
X87962229Y-124849500D01*
X87895190Y-124829815D01*
X87874548Y-124813181D01*
X87507566Y-124446198D01*
X87424757Y-124363389D01*
X93969500Y-124363389D01*
X93969500Y-124536611D01*
X93996598Y-124707701D01*
X94050127Y-124872445D01*
X94128768Y-125026788D01*
X94230586Y-125166928D01*
X94353072Y-125289414D01*
X94493212Y-125391232D01*
X94647555Y-125469873D01*
X94812299Y-125523402D01*
X94983389Y-125550500D01*
X94983390Y-125550500D01*
X95156610Y-125550500D01*
X95156611Y-125550500D01*
X95327701Y-125523402D01*
X95492445Y-125469873D01*
X95646788Y-125391232D01*
X95786928Y-125289414D01*
X95909414Y-125166928D01*
X96011232Y-125026788D01*
X96089873Y-124872445D01*
X96143402Y-124707701D01*
X96170500Y-124536611D01*
X96170500Y-124363389D01*
X96143402Y-124192299D01*
X96089873Y-124027555D01*
X96082655Y-124013389D01*
X110049500Y-124013389D01*
X110049500Y-124186611D01*
X110057677Y-124238239D01*
X110067564Y-124300666D01*
X110076598Y-124357701D01*
X110130127Y-124522445D01*
X110208768Y-124676788D01*
X110310586Y-124816928D01*
X110433072Y-124939414D01*
X110573212Y-125041232D01*
X110727555Y-125119873D01*
X110892299Y-125173402D01*
X111063389Y-125200500D01*
X111063390Y-125200500D01*
X111236610Y-125200500D01*
X111236611Y-125200500D01*
X111407701Y-125173402D01*
X111572445Y-125119873D01*
X111726788Y-125041232D01*
X111866928Y-124939414D01*
X111989414Y-124816928D01*
X112091232Y-124676788D01*
X112145651Y-124569983D01*
X112499500Y-124569983D01*
X112499500Y-126630001D01*
X112499501Y-126630018D01*
X112510000Y-126732796D01*
X112510001Y-126732799D01*
X112549004Y-126850500D01*
X112565186Y-126899334D01*
X112657288Y-127048656D01*
X112781344Y-127172712D01*
X112930666Y-127264814D01*
X113097203Y-127319999D01*
X113199991Y-127330500D01*
X115600008Y-127330499D01*
X115702797Y-127319999D01*
X115869334Y-127264814D01*
X116018656Y-127172712D01*
X116142712Y-127048656D01*
X116234814Y-126899334D01*
X116289999Y-126732797D01*
X116300500Y-126630009D01*
X116300499Y-124569992D01*
X116295007Y-124516233D01*
X116289999Y-124467203D01*
X116289998Y-124467200D01*
X116255598Y-124363389D01*
X116234814Y-124300666D01*
X116142712Y-124151344D01*
X116018656Y-124027288D01*
X115876124Y-123939374D01*
X115869336Y-123935187D01*
X115869331Y-123935185D01*
X115795126Y-123910596D01*
X115702797Y-123880001D01*
X115702795Y-123880000D01*
X115600010Y-123869500D01*
X113199998Y-123869500D01*
X113199981Y-123869501D01*
X113097203Y-123880000D01*
X113097200Y-123880001D01*
X112930668Y-123935185D01*
X112930663Y-123935187D01*
X112781342Y-124027289D01*
X112657289Y-124151342D01*
X112565187Y-124300663D01*
X112565185Y-124300668D01*
X112549004Y-124349500D01*
X112510001Y-124467203D01*
X112510001Y-124467204D01*
X112510000Y-124467204D01*
X112499500Y-124569983D01*
X112145651Y-124569983D01*
X112169873Y-124522445D01*
X112223402Y-124357701D01*
X112250500Y-124186611D01*
X112250500Y-124013389D01*
X112223402Y-123842299D01*
X112169873Y-123677555D01*
X112091232Y-123523212D01*
X111989414Y-123383072D01*
X111866928Y-123260586D01*
X111726788Y-123158768D01*
X111572445Y-123080127D01*
X111407701Y-123026598D01*
X111407699Y-123026597D01*
X111407698Y-123026597D01*
X111276271Y-123005781D01*
X111236611Y-122999500D01*
X111063389Y-122999500D01*
X111023728Y-123005781D01*
X110892302Y-123026597D01*
X110727552Y-123080128D01*
X110573211Y-123158768D01*
X110495264Y-123215401D01*
X110433072Y-123260586D01*
X110433070Y-123260588D01*
X110433069Y-123260588D01*
X110310588Y-123383069D01*
X110310588Y-123383070D01*
X110310586Y-123383072D01*
X110276398Y-123430128D01*
X110208768Y-123523211D01*
X110130128Y-123677552D01*
X110076597Y-123842302D01*
X110061886Y-123935185D01*
X110049500Y-124013389D01*
X96082655Y-124013389D01*
X96011232Y-123873212D01*
X95909414Y-123733072D01*
X95786928Y-123610586D01*
X95646788Y-123508768D01*
X95492445Y-123430127D01*
X95327701Y-123376598D01*
X95327699Y-123376597D01*
X95327698Y-123376597D01*
X95196271Y-123355781D01*
X95156611Y-123349500D01*
X94983389Y-123349500D01*
X94943728Y-123355781D01*
X94812302Y-123376597D01*
X94647552Y-123430128D01*
X94493211Y-123508768D01*
X94413256Y-123566859D01*
X94353072Y-123610586D01*
X94353070Y-123610588D01*
X94353069Y-123610588D01*
X94230588Y-123733069D01*
X94230588Y-123733070D01*
X94230586Y-123733072D01*
X94194905Y-123782182D01*
X94128768Y-123873211D01*
X94050128Y-124027552D01*
X94050127Y-124027554D01*
X94050127Y-124027555D01*
X94040289Y-124057834D01*
X93996597Y-124192302D01*
X93973304Y-124339373D01*
X93969500Y-124363389D01*
X87424757Y-124363389D01*
X87252669Y-124191301D01*
X87237248Y-124172510D01*
X87160629Y-124057842D01*
X87160623Y-124057834D01*
X87042162Y-123939373D01*
X86902860Y-123846295D01*
X86748082Y-123782184D01*
X86748074Y-123782182D01*
X86583771Y-123749500D01*
X86583767Y-123749500D01*
X86416233Y-123749500D01*
X86416228Y-123749500D01*
X86251925Y-123782182D01*
X86251917Y-123782184D01*
X86097139Y-123846295D01*
X85957837Y-123939373D01*
X85839373Y-124057837D01*
X85746295Y-124197139D01*
X85682184Y-124351917D01*
X85682182Y-124351925D01*
X85649500Y-124516228D01*
X72003032Y-124516228D01*
X71953703Y-124397137D01*
X71907909Y-124328602D01*
X71860626Y-124257837D01*
X71742162Y-124139373D01*
X71602860Y-124046295D01*
X71448082Y-123982184D01*
X71448074Y-123982182D01*
X71283771Y-123949500D01*
X71283767Y-123949500D01*
X71116233Y-123949500D01*
X71116228Y-123949500D01*
X70951925Y-123982182D01*
X70951917Y-123982184D01*
X70797139Y-124046295D01*
X70657837Y-124139373D01*
X70539373Y-124257837D01*
X70446295Y-124397139D01*
X70388419Y-124536864D01*
X70361539Y-124577092D01*
X69725451Y-125213181D01*
X69664128Y-125246666D01*
X69637770Y-125249500D01*
X68068628Y-125249500D01*
X68001589Y-125229815D01*
X67955834Y-125177011D01*
X67945890Y-125107853D01*
X67947011Y-125101308D01*
X67947368Y-125099512D01*
X67950500Y-125083767D01*
X67950500Y-124916233D01*
X67917816Y-124751918D01*
X67853703Y-124597137D01*
X67803795Y-124522445D01*
X67760626Y-124457837D01*
X67642162Y-124339373D01*
X67502860Y-124246295D01*
X67348082Y-124182184D01*
X67348074Y-124182182D01*
X67183771Y-124149500D01*
X67183767Y-124149500D01*
X67016233Y-124149500D01*
X67016228Y-124149500D01*
X66851925Y-124182182D01*
X66851917Y-124182184D01*
X66697139Y-124246295D01*
X66573959Y-124328602D01*
X66507281Y-124349480D01*
X66505068Y-124349500D01*
X64359957Y-124349500D01*
X64292918Y-124329815D01*
X64291066Y-124328602D01*
X64167885Y-124246295D01*
X64013107Y-124182184D01*
X64013099Y-124182182D01*
X63848796Y-124149500D01*
X63848792Y-124149500D01*
X63681258Y-124149500D01*
X63681253Y-124149500D01*
X63516950Y-124182182D01*
X63516942Y-124182184D01*
X63362164Y-124246295D01*
X63222862Y-124339373D01*
X63104398Y-124457837D01*
X63011320Y-124597139D01*
X62947209Y-124751917D01*
X62947207Y-124751925D01*
X62914525Y-124916228D01*
X62914525Y-125044305D01*
X62894840Y-125111344D01*
X62842036Y-125157099D01*
X62772878Y-125167043D01*
X62766335Y-125165923D01*
X62703049Y-125153335D01*
X62683767Y-125149500D01*
X62516233Y-125149500D01*
X62516228Y-125149500D01*
X62351925Y-125182182D01*
X62351917Y-125182184D01*
X62197139Y-125246295D01*
X62057837Y-125339373D01*
X61939373Y-125457837D01*
X61846295Y-125597139D01*
X61782184Y-125751917D01*
X61782182Y-125751925D01*
X61749500Y-125916228D01*
X44100500Y-125916228D01*
X44100500Y-122262951D01*
X127842901Y-122262951D01*
X127842901Y-122511648D01*
X127881806Y-122757285D01*
X127958655Y-122993807D01*
X127958656Y-122993810D01*
X128071566Y-123215404D01*
X128217738Y-123416594D01*
X128217742Y-123416599D01*
X128393601Y-123592458D01*
X128393606Y-123592462D01*
X128554184Y-123709128D01*
X128594800Y-123738637D01*
X128739655Y-123812444D01*
X128816390Y-123851544D01*
X128816393Y-123851545D01*
X128934654Y-123889969D01*
X129052917Y-123928395D01*
X129298552Y-123967300D01*
X129298553Y-123967300D01*
X129547249Y-123967300D01*
X129547250Y-123967300D01*
X129792885Y-123928395D01*
X130029411Y-123851544D01*
X130251002Y-123738637D01*
X130452202Y-123592457D01*
X130628058Y-123416601D01*
X130774238Y-123215401D01*
X130887145Y-122993810D01*
X130963996Y-122757284D01*
X131002901Y-122511649D01*
X131002901Y-122262951D01*
X133292900Y-122262951D01*
X133292900Y-122511648D01*
X133331805Y-122757285D01*
X133408654Y-122993807D01*
X133408655Y-122993810D01*
X133521565Y-123215404D01*
X133667737Y-123416594D01*
X133667741Y-123416599D01*
X133843600Y-123592458D01*
X133843605Y-123592462D01*
X134004183Y-123709128D01*
X134044799Y-123738637D01*
X134189654Y-123812444D01*
X134266389Y-123851544D01*
X134266392Y-123851545D01*
X134384653Y-123889969D01*
X134502916Y-123928395D01*
X134748551Y-123967300D01*
X134748552Y-123967300D01*
X134997248Y-123967300D01*
X134997249Y-123967300D01*
X135242884Y-123928395D01*
X135479410Y-123851544D01*
X135701001Y-123738637D01*
X135902201Y-123592457D01*
X136078057Y-123416601D01*
X136224237Y-123215401D01*
X136337144Y-122993810D01*
X136413995Y-122757284D01*
X136452900Y-122511649D01*
X136452900Y-122262951D01*
X136413995Y-122017316D01*
X136337144Y-121780790D01*
X136337144Y-121780789D01*
X136298044Y-121704054D01*
X136224237Y-121559199D01*
X136141267Y-121445000D01*
X136078062Y-121358005D01*
X136078058Y-121358000D01*
X135979993Y-121259935D01*
X138742899Y-121259935D01*
X138742899Y-123514670D01*
X138742900Y-123514676D01*
X138749307Y-123574283D01*
X138799601Y-123709128D01*
X138799605Y-123709135D01*
X138885851Y-123824344D01*
X138885854Y-123824347D01*
X139001063Y-123910593D01*
X139001070Y-123910597D01*
X139135916Y-123960891D01*
X139135915Y-123960891D01*
X139142843Y-123961635D01*
X139195526Y-123967300D01*
X141450271Y-123967299D01*
X141509882Y-123960891D01*
X141644730Y-123910596D01*
X141759945Y-123824346D01*
X141846195Y-123709131D01*
X141896490Y-123574283D01*
X141902899Y-123514673D01*
X141902898Y-121259928D01*
X141896490Y-121200317D01*
X141889709Y-121182137D01*
X141846196Y-121065471D01*
X141846192Y-121065464D01*
X141759946Y-120950255D01*
X141759943Y-120950252D01*
X141644734Y-120864006D01*
X141644727Y-120864002D01*
X141509881Y-120813708D01*
X141509882Y-120813708D01*
X141450282Y-120807301D01*
X141450280Y-120807300D01*
X141450272Y-120807300D01*
X141450263Y-120807300D01*
X139195528Y-120807300D01*
X139195522Y-120807301D01*
X139135915Y-120813708D01*
X139001070Y-120864002D01*
X139001063Y-120864006D01*
X138885854Y-120950252D01*
X138885851Y-120950255D01*
X138799605Y-121065464D01*
X138799601Y-121065471D01*
X138749307Y-121200317D01*
X138744240Y-121247452D01*
X138742900Y-121259923D01*
X138742899Y-121259935D01*
X135979993Y-121259935D01*
X135902199Y-121182141D01*
X135902194Y-121182137D01*
X135701004Y-121035965D01*
X135701003Y-121035964D01*
X135701001Y-121035963D01*
X135570051Y-120969240D01*
X135479410Y-120923055D01*
X135479407Y-120923054D01*
X135242885Y-120846205D01*
X135120066Y-120826752D01*
X134997249Y-120807300D01*
X134748551Y-120807300D01*
X134666672Y-120820268D01*
X134502914Y-120846205D01*
X134266392Y-120923054D01*
X134266389Y-120923055D01*
X134044795Y-121035965D01*
X133843605Y-121182137D01*
X133843600Y-121182141D01*
X133667741Y-121358000D01*
X133667737Y-121358005D01*
X133521565Y-121559195D01*
X133408655Y-121780789D01*
X133408654Y-121780792D01*
X133331805Y-122017314D01*
X133292900Y-122262951D01*
X131002901Y-122262951D01*
X130963996Y-122017316D01*
X130887145Y-121780790D01*
X130887145Y-121780789D01*
X130848045Y-121704054D01*
X130774238Y-121559199D01*
X130691268Y-121445000D01*
X130628063Y-121358005D01*
X130628059Y-121358000D01*
X130452200Y-121182141D01*
X130452195Y-121182137D01*
X130251005Y-121035965D01*
X130251004Y-121035964D01*
X130251002Y-121035963D01*
X130120052Y-120969240D01*
X130029411Y-120923055D01*
X130029408Y-120923054D01*
X129792886Y-120846205D01*
X129670067Y-120826752D01*
X129547250Y-120807300D01*
X129298552Y-120807300D01*
X129216673Y-120820268D01*
X129052915Y-120846205D01*
X128816393Y-120923054D01*
X128816390Y-120923055D01*
X128594796Y-121035965D01*
X128393606Y-121182137D01*
X128393601Y-121182141D01*
X128217742Y-121358000D01*
X128217738Y-121358005D01*
X128071566Y-121559195D01*
X127958656Y-121780789D01*
X127958655Y-121780792D01*
X127881806Y-122017314D01*
X127842901Y-122262951D01*
X44100500Y-122262951D01*
X44100500Y-115495260D01*
X54439500Y-115495260D01*
X54439500Y-117904739D01*
X54443475Y-117955245D01*
X54449987Y-118037983D01*
X54460778Y-118080810D01*
X54505426Y-118258002D01*
X54599258Y-118464579D01*
X54599263Y-118464589D01*
X54728473Y-118651090D01*
X54888909Y-118811526D01*
X55075410Y-118940736D01*
X55075420Y-118940741D01*
X55281997Y-119034573D01*
X55281998Y-119034573D01*
X55282000Y-119034574D01*
X55502017Y-119090013D01*
X55635264Y-119100500D01*
X55635270Y-119100500D01*
X58044730Y-119100500D01*
X58044736Y-119100500D01*
X58177983Y-119090013D01*
X58398000Y-119034574D01*
X58604582Y-118940740D01*
X58604584Y-118940738D01*
X58604589Y-118940736D01*
X58791090Y-118811526D01*
X58951526Y-118651090D01*
X58952502Y-118649682D01*
X58999970Y-118581166D01*
X59044600Y-118516748D01*
X59044600Y-118516747D01*
X59080739Y-118464583D01*
X59080740Y-118464582D01*
X59174574Y-118258000D01*
X59230013Y-118037983D01*
X59240500Y-117904736D01*
X59240500Y-117570224D01*
X59260185Y-117503185D01*
X59312989Y-117457430D01*
X59382147Y-117447486D01*
X59445703Y-117476511D01*
X59481542Y-117529270D01*
X59526662Y-117658217D01*
X59648492Y-117911200D01*
X59797884Y-118148956D01*
X59904187Y-118282257D01*
X60724728Y-117461716D01*
X60810278Y-117579466D01*
X60960534Y-117729722D01*
X61078281Y-117815270D01*
X60257741Y-118635810D01*
X60257741Y-118635811D01*
X60391043Y-118742115D01*
X60628799Y-118891507D01*
X60881782Y-119013337D01*
X61146819Y-119106077D01*
X61146821Y-119106078D01*
X61420575Y-119168560D01*
X61420587Y-119168562D01*
X61699598Y-119199999D01*
X61699600Y-119200000D01*
X61980400Y-119200000D01*
X61980401Y-119199999D01*
X62259412Y-119168562D01*
X62259424Y-119168560D01*
X62533178Y-119106078D01*
X62533180Y-119106077D01*
X62798217Y-119013337D01*
X63051200Y-118891507D01*
X63288956Y-118742116D01*
X63422257Y-118635810D01*
X62601717Y-117815271D01*
X62719466Y-117729722D01*
X62869722Y-117579466D01*
X62955270Y-117461717D01*
X63775810Y-118282257D01*
X63882116Y-118148956D01*
X64031507Y-117911200D01*
X64153337Y-117658217D01*
X64246077Y-117393180D01*
X64246078Y-117393178D01*
X64308560Y-117119424D01*
X64308562Y-117119412D01*
X64339999Y-116840401D01*
X64340000Y-116840399D01*
X64340000Y-116559600D01*
X64339999Y-116559598D01*
X64308562Y-116280587D01*
X64308560Y-116280575D01*
X64246078Y-116006821D01*
X64246077Y-116006819D01*
X64153337Y-115741782D01*
X64059828Y-115547608D01*
X64059827Y-115547606D01*
X64035522Y-115497135D01*
X66954500Y-115497135D01*
X66954500Y-117622870D01*
X66954501Y-117622876D01*
X66960908Y-117682483D01*
X67011202Y-117817328D01*
X67011206Y-117817335D01*
X67097452Y-117932544D01*
X67097455Y-117932547D01*
X67212664Y-118018793D01*
X67212671Y-118018797D01*
X67347517Y-118069091D01*
X67347516Y-118069091D01*
X67354444Y-118069835D01*
X67407127Y-118075500D01*
X69232872Y-118075499D01*
X69292483Y-118069091D01*
X69427331Y-118018796D01*
X69542546Y-117932546D01*
X69628796Y-117817331D01*
X69672048Y-117701365D01*
X69713917Y-117645433D01*
X69779381Y-117621015D01*
X69847654Y-117635866D01*
X69875910Y-117657018D01*
X69970437Y-117751545D01*
X70144322Y-117877880D01*
X70238251Y-117925739D01*
X70335829Y-117975458D01*
X70335832Y-117975459D01*
X70479571Y-118022162D01*
X70540245Y-118041876D01*
X70752533Y-118075500D01*
X70752534Y-118075500D01*
X70967466Y-118075500D01*
X70967467Y-118075500D01*
X71179755Y-118041876D01*
X71179758Y-118041875D01*
X71179759Y-118041875D01*
X71384167Y-117975459D01*
X71384170Y-117975458D01*
X71459383Y-117937135D01*
X71575678Y-117877880D01*
X71749563Y-117751545D01*
X71901545Y-117599563D01*
X72027880Y-117425678D01*
X72027879Y-117425678D01*
X72029682Y-117423198D01*
X72085012Y-117380532D01*
X72154625Y-117374553D01*
X72216420Y-117407159D01*
X72230318Y-117423198D01*
X72358220Y-117599239D01*
X72358455Y-117599563D01*
X72510437Y-117751545D01*
X72684322Y-117877880D01*
X72778251Y-117925739D01*
X72875829Y-117975458D01*
X72875832Y-117975459D01*
X73019571Y-118022162D01*
X73080245Y-118041876D01*
X73292533Y-118075500D01*
X73292534Y-118075500D01*
X73507466Y-118075500D01*
X73507467Y-118075500D01*
X73719755Y-118041876D01*
X73719758Y-118041875D01*
X73719759Y-118041875D01*
X73924167Y-117975459D01*
X73924170Y-117975458D01*
X73999383Y-117937135D01*
X74115678Y-117877880D01*
X74289563Y-117751545D01*
X74441545Y-117599563D01*
X74567880Y-117425678D01*
X74567881Y-117425675D01*
X74569990Y-117422773D01*
X74625320Y-117380107D01*
X74694933Y-117374128D01*
X74756728Y-117406734D01*
X74770626Y-117422772D01*
X74898838Y-117599239D01*
X74898838Y-117599240D01*
X75050759Y-117751161D01*
X75224583Y-117877452D01*
X75416024Y-117974996D01*
X75620359Y-118041388D01*
X75689999Y-118052418D01*
X75690000Y-118052418D01*
X75690000Y-117004560D01*
X75743147Y-117035245D01*
X75872857Y-117070000D01*
X76007143Y-117070000D01*
X76136853Y-117035245D01*
X76190000Y-117004560D01*
X76190000Y-118052418D01*
X76259638Y-118041388D01*
X76259641Y-118041388D01*
X76463975Y-117974996D01*
X76655416Y-117877452D01*
X76829240Y-117751161D01*
X76975146Y-117605256D01*
X76981161Y-117599240D01*
X77107452Y-117425416D01*
X77204996Y-117233975D01*
X77271388Y-117029642D01*
X77271388Y-117029639D01*
X77305000Y-116817427D01*
X77305000Y-116810000D01*
X76384560Y-116810000D01*
X76415245Y-116756853D01*
X76450000Y-116627143D01*
X76450000Y-116492857D01*
X76415245Y-116363147D01*
X76384560Y-116310000D01*
X77305000Y-116310000D01*
X77305000Y-116302572D01*
X77271388Y-116090360D01*
X77271388Y-116090357D01*
X77204996Y-115886024D01*
X77107452Y-115694583D01*
X76981161Y-115520759D01*
X76829240Y-115368838D01*
X76670154Y-115253255D01*
X76655416Y-115242547D01*
X76463975Y-115145003D01*
X76259635Y-115078610D01*
X76259636Y-115078610D01*
X76190000Y-115067581D01*
X76190000Y-116115439D01*
X76136853Y-116084755D01*
X76007143Y-116050000D01*
X75872857Y-116050000D01*
X75743147Y-116084755D01*
X75690000Y-116115439D01*
X75690000Y-115067581D01*
X75620364Y-115078610D01*
X75416024Y-115145003D01*
X75224583Y-115242547D01*
X75050759Y-115368838D01*
X74898838Y-115520759D01*
X74898838Y-115520760D01*
X74770626Y-115697227D01*
X74715296Y-115739892D01*
X74645682Y-115745871D01*
X74583887Y-115713265D01*
X74569990Y-115697226D01*
X74459665Y-115545377D01*
X74441545Y-115520437D01*
X74289563Y-115368455D01*
X74115678Y-115242120D01*
X74032566Y-115199772D01*
X73981771Y-115151798D01*
X73964976Y-115083977D01*
X73987513Y-115017843D01*
X74001175Y-115001612D01*
X74060626Y-114942162D01*
X74153703Y-114802863D01*
X74217816Y-114648082D01*
X74250500Y-114483767D01*
X74250500Y-114316233D01*
X74217816Y-114151918D01*
X74153703Y-113997137D01*
X74122537Y-113950494D01*
X74060626Y-113857837D01*
X73942162Y-113739373D01*
X73802860Y-113646295D01*
X73648082Y-113582184D01*
X73648074Y-113582182D01*
X73483771Y-113549500D01*
X73483767Y-113549500D01*
X73316233Y-113549500D01*
X73316228Y-113549500D01*
X73151925Y-113582182D01*
X73151917Y-113582184D01*
X72997139Y-113646295D01*
X72857837Y-113739373D01*
X72739373Y-113857837D01*
X72646295Y-113997139D01*
X72582184Y-114151917D01*
X72582182Y-114151925D01*
X72549500Y-114316228D01*
X72549500Y-114483771D01*
X72582182Y-114648074D01*
X72582184Y-114648082D01*
X72646295Y-114802860D01*
X72739373Y-114942162D01*
X72798818Y-115001607D01*
X72832303Y-115062930D01*
X72827319Y-115132622D01*
X72785447Y-115188555D01*
X72767432Y-115199773D01*
X72684321Y-115242120D01*
X72600981Y-115302671D01*
X72510437Y-115368455D01*
X72510435Y-115368457D01*
X72510434Y-115368457D01*
X72358457Y-115520434D01*
X72358457Y-115520435D01*
X72358455Y-115520437D01*
X72265721Y-115648074D01*
X72230318Y-115696802D01*
X72174988Y-115739467D01*
X72105374Y-115745446D01*
X72043579Y-115712840D01*
X72029682Y-115696802D01*
X71999613Y-115655416D01*
X71901545Y-115520437D01*
X71749563Y-115368455D01*
X71575678Y-115242120D01*
X71384170Y-115144541D01*
X71384167Y-115144540D01*
X71179757Y-115078124D01*
X71038229Y-115055708D01*
X70967467Y-115044500D01*
X70752533Y-115044500D01*
X70681770Y-115055708D01*
X70540243Y-115078124D01*
X70540240Y-115078124D01*
X70335832Y-115144540D01*
X70335829Y-115144541D01*
X70144321Y-115242120D01*
X69970438Y-115368454D01*
X69875910Y-115462982D01*
X69814586Y-115496466D01*
X69744895Y-115491482D01*
X69688962Y-115449610D01*
X69672047Y-115418632D01*
X69628798Y-115302673D01*
X69628793Y-115302664D01*
X69542547Y-115187455D01*
X69542544Y-115187452D01*
X69427335Y-115101206D01*
X69427328Y-115101202D01*
X69292482Y-115050908D01*
X69292483Y-115050908D01*
X69232883Y-115044501D01*
X69232881Y-115044500D01*
X69232873Y-115044500D01*
X69232864Y-115044500D01*
X67407129Y-115044500D01*
X67407123Y-115044501D01*
X67347516Y-115050908D01*
X67212671Y-115101202D01*
X67212664Y-115101206D01*
X67097455Y-115187452D01*
X67097452Y-115187455D01*
X67011206Y-115302664D01*
X67011202Y-115302671D01*
X66960908Y-115437517D01*
X66954501Y-115497116D01*
X66954500Y-115497135D01*
X64035522Y-115497135D01*
X64031509Y-115488802D01*
X63882115Y-115251043D01*
X63775810Y-115117741D01*
X62955270Y-115938281D01*
X62869722Y-115820534D01*
X62719466Y-115670278D01*
X62601716Y-115584728D01*
X63422257Y-114764187D01*
X63288956Y-114657884D01*
X63051200Y-114508492D01*
X62798217Y-114386662D01*
X62533180Y-114293922D01*
X62533178Y-114293921D01*
X62259424Y-114231439D01*
X62259412Y-114231437D01*
X61980401Y-114200000D01*
X61699598Y-114200000D01*
X61420587Y-114231437D01*
X61420575Y-114231439D01*
X61146821Y-114293921D01*
X61146819Y-114293922D01*
X60881782Y-114386662D01*
X60628799Y-114508492D01*
X60391043Y-114657884D01*
X60257741Y-114764187D01*
X61078282Y-115584728D01*
X60960534Y-115670278D01*
X60810278Y-115820534D01*
X60724728Y-115938282D01*
X59904187Y-115117741D01*
X59797884Y-115251043D01*
X59648492Y-115488799D01*
X59526663Y-115741780D01*
X59481542Y-115870730D01*
X59440820Y-115927506D01*
X59375867Y-115953253D01*
X59307305Y-115939797D01*
X59256903Y-115891409D01*
X59240500Y-115829775D01*
X59240500Y-115495270D01*
X59240500Y-115495264D01*
X59230013Y-115362017D01*
X59174574Y-115142000D01*
X59170314Y-115132622D01*
X59080741Y-114935420D01*
X59080735Y-114935410D01*
X59044601Y-114883253D01*
X59044599Y-114883251D01*
X58951524Y-114748907D01*
X58791090Y-114588473D01*
X58604589Y-114459263D01*
X58604579Y-114459258D01*
X58398002Y-114365426D01*
X58251322Y-114328466D01*
X58177983Y-114309987D01*
X58144671Y-114307365D01*
X58044739Y-114299500D01*
X58044736Y-114299500D01*
X55635264Y-114299500D01*
X55635260Y-114299500D01*
X55502017Y-114309987D01*
X55281997Y-114365426D01*
X55075420Y-114459258D01*
X55075410Y-114459263D01*
X54888909Y-114588473D01*
X54728473Y-114748909D01*
X54599263Y-114935410D01*
X54599258Y-114935420D01*
X54505426Y-115141997D01*
X54449987Y-115362017D01*
X54439500Y-115495260D01*
X44100500Y-115495260D01*
X44100500Y-111487155D01*
X81985000Y-111487155D01*
X81985000Y-112150000D01*
X83055440Y-112150000D01*
X83024755Y-112203147D01*
X82990000Y-112332857D01*
X82990000Y-112467143D01*
X83024755Y-112596853D01*
X83055440Y-112650000D01*
X81985000Y-112650000D01*
X81985000Y-113312844D01*
X81991401Y-113372372D01*
X81991403Y-113372379D01*
X82041645Y-113507086D01*
X82041649Y-113507093D01*
X82127809Y-113622187D01*
X82127812Y-113622190D01*
X82242906Y-113708350D01*
X82242913Y-113708354D01*
X82359535Y-113751851D01*
X82415469Y-113793722D01*
X82439886Y-113859186D01*
X82425035Y-113927459D01*
X82403884Y-113955714D01*
X82308835Y-114050763D01*
X82182547Y-114224583D01*
X82085003Y-114416024D01*
X82018610Y-114620364D01*
X82007581Y-114690000D01*
X83055440Y-114690000D01*
X83024755Y-114743147D01*
X82990000Y-114872857D01*
X82990000Y-115007143D01*
X83024755Y-115136853D01*
X83055440Y-115190000D01*
X82007581Y-115190000D01*
X82018610Y-115259635D01*
X82085003Y-115463975D01*
X82182547Y-115655416D01*
X82308838Y-115829240D01*
X82460759Y-115981161D01*
X82637652Y-116109682D01*
X82680317Y-116165012D01*
X82686296Y-116234625D01*
X82653690Y-116296420D01*
X82637652Y-116310318D01*
X82460759Y-116438838D01*
X82308838Y-116590759D01*
X82182547Y-116764583D01*
X82085003Y-116956024D01*
X82018610Y-117160364D01*
X82007581Y-117230000D01*
X83055440Y-117230000D01*
X83024755Y-117283147D01*
X82990000Y-117412857D01*
X82990000Y-117547143D01*
X83024755Y-117676853D01*
X83055440Y-117730000D01*
X82007581Y-117730000D01*
X82018610Y-117799635D01*
X82085003Y-118003975D01*
X82182547Y-118195416D01*
X82308838Y-118369240D01*
X82460759Y-118521161D01*
X82637652Y-118649682D01*
X82680317Y-118705012D01*
X82686296Y-118774625D01*
X82653690Y-118836420D01*
X82637652Y-118850318D01*
X82460759Y-118978838D01*
X82308838Y-119130759D01*
X82182547Y-119304583D01*
X82085003Y-119496024D01*
X82018610Y-119700364D01*
X82007581Y-119770000D01*
X83055440Y-119770000D01*
X83024755Y-119823147D01*
X82990000Y-119952857D01*
X82990000Y-120087143D01*
X83024755Y-120216853D01*
X83055440Y-120270000D01*
X82007581Y-120270000D01*
X82018610Y-120339635D01*
X82085003Y-120543975D01*
X82182547Y-120735416D01*
X82308838Y-120909240D01*
X82460759Y-121061161D01*
X82634583Y-121187452D01*
X82826024Y-121284996D01*
X83030358Y-121351388D01*
X83242573Y-121385000D01*
X83250000Y-121385000D01*
X83250000Y-120464560D01*
X83303147Y-120495245D01*
X83432857Y-120530000D01*
X83567143Y-120530000D01*
X83696853Y-120495245D01*
X83750000Y-120464560D01*
X83750000Y-121385000D01*
X83757427Y-121385000D01*
X83969639Y-121351388D01*
X83969642Y-121351388D01*
X84173975Y-121284996D01*
X84365416Y-121187452D01*
X84539240Y-121061161D01*
X84691161Y-120909240D01*
X84817452Y-120735416D01*
X84914996Y-120543975D01*
X84981389Y-120339635D01*
X84991859Y-120273538D01*
X84991859Y-120273537D01*
X84992420Y-120270000D01*
X83944560Y-120270000D01*
X83975245Y-120216853D01*
X84010000Y-120087143D01*
X84010000Y-119952857D01*
X83975245Y-119823147D01*
X83944560Y-119770000D01*
X84992419Y-119770000D01*
X84981389Y-119700364D01*
X84914996Y-119496024D01*
X84817452Y-119304583D01*
X84691161Y-119130759D01*
X84539240Y-118978838D01*
X84539234Y-118978833D01*
X84362348Y-118850318D01*
X84319682Y-118794988D01*
X84313703Y-118725375D01*
X84346309Y-118663580D01*
X84362348Y-118649682D01*
X84539234Y-118521166D01*
X84539240Y-118521161D01*
X84691161Y-118369240D01*
X84817454Y-118195414D01*
X84859855Y-118112197D01*
X84907829Y-118061401D01*
X84975650Y-118044605D01*
X85041785Y-118067142D01*
X85058021Y-118080810D01*
X85117837Y-118140626D01*
X85199834Y-118195414D01*
X85257137Y-118233703D01*
X85411918Y-118297816D01*
X85552750Y-118325829D01*
X85576228Y-118330499D01*
X85576232Y-118330500D01*
X85576233Y-118330500D01*
X85743768Y-118330500D01*
X85743769Y-118330499D01*
X85908082Y-118297816D01*
X86062863Y-118233703D01*
X86202162Y-118140626D01*
X86320626Y-118022162D01*
X86413703Y-117882863D01*
X86477816Y-117728082D01*
X86510500Y-117563767D01*
X86510500Y-117396233D01*
X86477816Y-117231918D01*
X86413703Y-117077137D01*
X86372937Y-117016126D01*
X86320626Y-116937837D01*
X86202162Y-116819373D01*
X86062860Y-116726295D01*
X85908082Y-116662184D01*
X85908074Y-116662182D01*
X85743771Y-116629500D01*
X85743767Y-116629500D01*
X85576233Y-116629500D01*
X85576228Y-116629500D01*
X85411925Y-116662182D01*
X85411917Y-116662184D01*
X85257139Y-116726295D01*
X85117838Y-116819373D01*
X85058021Y-116879190D01*
X84996697Y-116912674D01*
X84927006Y-116907689D01*
X84871072Y-116865818D01*
X84859855Y-116847803D01*
X84817452Y-116764583D01*
X84691161Y-116590759D01*
X84539240Y-116438838D01*
X84539234Y-116438833D01*
X84362348Y-116310318D01*
X84319682Y-116254988D01*
X84313703Y-116185375D01*
X84346309Y-116123580D01*
X84362348Y-116109682D01*
X84539234Y-115981166D01*
X84539240Y-115981161D01*
X84691161Y-115829240D01*
X84817452Y-115655416D01*
X84914996Y-115463975D01*
X84981389Y-115259635D01*
X84991859Y-115193538D01*
X84991859Y-115193537D01*
X84992420Y-115190000D01*
X83944560Y-115190000D01*
X83975245Y-115136853D01*
X84010000Y-115007143D01*
X84010000Y-114872857D01*
X83975245Y-114743147D01*
X83944560Y-114690000D01*
X84992419Y-114690000D01*
X84981389Y-114620364D01*
X84914996Y-114416024D01*
X84817452Y-114224583D01*
X84691161Y-114050759D01*
X84596116Y-113955714D01*
X84562631Y-113894391D01*
X84567615Y-113824699D01*
X84609487Y-113768766D01*
X84640465Y-113751851D01*
X84757084Y-113708355D01*
X84757093Y-113708350D01*
X84872187Y-113622190D01*
X84872190Y-113622187D01*
X84958350Y-113507093D01*
X84958354Y-113507086D01*
X85008596Y-113372379D01*
X85008598Y-113372372D01*
X85014999Y-113312844D01*
X85015000Y-113312827D01*
X85015000Y-112650000D01*
X83944560Y-112650000D01*
X83975245Y-112596853D01*
X84010000Y-112467143D01*
X84010000Y-112332857D01*
X83975245Y-112203147D01*
X83944560Y-112150000D01*
X85015000Y-112150000D01*
X85015000Y-111547155D01*
X90685000Y-111547155D01*
X90685000Y-112210000D01*
X91755440Y-112210000D01*
X91724755Y-112263147D01*
X91690000Y-112392857D01*
X91690000Y-112527143D01*
X91724755Y-112656853D01*
X91755440Y-112710000D01*
X90685000Y-112710000D01*
X90685000Y-113372844D01*
X90691401Y-113432372D01*
X90691403Y-113432379D01*
X90741645Y-113567086D01*
X90741649Y-113567093D01*
X90827809Y-113682187D01*
X90827812Y-113682190D01*
X90942906Y-113768350D01*
X90942913Y-113768354D01*
X91059535Y-113811851D01*
X91115469Y-113853722D01*
X91139886Y-113919186D01*
X91125035Y-113987459D01*
X91103884Y-114015714D01*
X91008835Y-114110763D01*
X90882547Y-114284583D01*
X90785003Y-114476024D01*
X90718610Y-114680364D01*
X90707581Y-114750000D01*
X91755440Y-114750000D01*
X91724755Y-114803147D01*
X91690000Y-114932857D01*
X91690000Y-115067143D01*
X91724755Y-115196853D01*
X91755440Y-115250000D01*
X90707581Y-115250000D01*
X90718610Y-115319635D01*
X90785003Y-115523975D01*
X90882547Y-115715416D01*
X91008838Y-115889240D01*
X91160759Y-116041161D01*
X91337652Y-116169682D01*
X91380317Y-116225012D01*
X91386296Y-116294625D01*
X91353690Y-116356420D01*
X91337652Y-116370318D01*
X91160759Y-116498838D01*
X91008838Y-116650759D01*
X90882547Y-116824583D01*
X90785003Y-117016024D01*
X90718610Y-117220364D01*
X90707581Y-117290000D01*
X91755440Y-117290000D01*
X91724755Y-117343147D01*
X91690000Y-117472857D01*
X91690000Y-117607143D01*
X91724755Y-117736853D01*
X91755440Y-117790000D01*
X90707581Y-117790000D01*
X90718610Y-117859635D01*
X90785003Y-118063975D01*
X90882547Y-118255416D01*
X91008838Y-118429240D01*
X91160759Y-118581161D01*
X91337652Y-118709682D01*
X91380317Y-118765012D01*
X91386296Y-118834625D01*
X91353690Y-118896420D01*
X91337652Y-118910318D01*
X91160759Y-119038838D01*
X91008838Y-119190759D01*
X90882547Y-119364583D01*
X90785003Y-119556024D01*
X90718610Y-119760364D01*
X90707581Y-119830000D01*
X91755440Y-119830000D01*
X91724755Y-119883147D01*
X91690000Y-120012857D01*
X91690000Y-120147143D01*
X91724755Y-120276853D01*
X91755440Y-120330000D01*
X90707581Y-120330000D01*
X90718610Y-120399635D01*
X90785003Y-120603975D01*
X90882547Y-120795416D01*
X91008838Y-120969240D01*
X91160759Y-121121161D01*
X91334583Y-121247452D01*
X91526024Y-121344996D01*
X91730358Y-121411388D01*
X91942573Y-121445000D01*
X91950000Y-121445000D01*
X91950000Y-120524560D01*
X92003147Y-120555245D01*
X92132857Y-120590000D01*
X92267143Y-120590000D01*
X92396853Y-120555245D01*
X92450000Y-120524560D01*
X92450000Y-121445000D01*
X92457427Y-121445000D01*
X92669639Y-121411388D01*
X92669642Y-121411388D01*
X92873975Y-121344996D01*
X93065416Y-121247452D01*
X93239240Y-121121161D01*
X93391161Y-120969240D01*
X93517452Y-120795416D01*
X93614996Y-120603975D01*
X93681389Y-120399635D01*
X93692419Y-120330000D01*
X92644560Y-120330000D01*
X92675245Y-120276853D01*
X92710000Y-120147143D01*
X92710000Y-120012857D01*
X92675245Y-119883147D01*
X92644560Y-119830000D01*
X93692419Y-119830000D01*
X93681389Y-119760364D01*
X93614996Y-119556024D01*
X93517452Y-119364583D01*
X93391161Y-119190759D01*
X93239240Y-119038838D01*
X93239234Y-119038833D01*
X93062348Y-118910318D01*
X93019682Y-118854988D01*
X93013703Y-118785375D01*
X93046309Y-118723580D01*
X93062348Y-118709682D01*
X93239234Y-118581166D01*
X93239240Y-118581161D01*
X93391161Y-118429240D01*
X93517454Y-118255414D01*
X93559855Y-118172197D01*
X93607829Y-118121401D01*
X93675650Y-118104605D01*
X93741785Y-118127142D01*
X93758021Y-118140810D01*
X93817837Y-118200626D01*
X93899834Y-118255414D01*
X93957137Y-118293703D01*
X93957138Y-118293703D01*
X93957139Y-118293704D01*
X93967069Y-118297817D01*
X94111918Y-118357816D01*
X94276228Y-118390499D01*
X94276232Y-118390500D01*
X94276233Y-118390500D01*
X94443768Y-118390500D01*
X94443769Y-118390499D01*
X94608082Y-118357816D01*
X94762863Y-118293703D01*
X94902162Y-118200626D01*
X95020626Y-118082162D01*
X95113703Y-117942863D01*
X95116076Y-117937135D01*
X96954500Y-117937135D01*
X96954500Y-120062870D01*
X96954501Y-120062876D01*
X96960908Y-120122483D01*
X97011202Y-120257328D01*
X97011206Y-120257335D01*
X97097452Y-120372544D01*
X97097455Y-120372547D01*
X97212664Y-120458793D01*
X97212671Y-120458797D01*
X97347517Y-120509091D01*
X97347516Y-120509091D01*
X97354444Y-120509835D01*
X97407127Y-120515500D01*
X99232872Y-120515499D01*
X99292483Y-120509091D01*
X99427331Y-120458796D01*
X99542546Y-120372546D01*
X99628796Y-120257331D01*
X99672048Y-120141365D01*
X99713917Y-120085433D01*
X99779381Y-120061015D01*
X99847654Y-120075866D01*
X99875910Y-120097018D01*
X99970437Y-120191545D01*
X100144322Y-120317880D01*
X100187019Y-120339635D01*
X100335829Y-120415458D01*
X100335832Y-120415459D01*
X100526494Y-120477408D01*
X100540245Y-120481876D01*
X100752533Y-120515500D01*
X100752534Y-120515500D01*
X100967466Y-120515500D01*
X100967467Y-120515500D01*
X101179755Y-120481876D01*
X101179758Y-120481875D01*
X101179759Y-120481875D01*
X101384167Y-120415459D01*
X101384170Y-120415458D01*
X101415224Y-120399635D01*
X101575678Y-120317880D01*
X101749563Y-120191545D01*
X101901545Y-120039563D01*
X102027880Y-119865678D01*
X102027879Y-119865678D01*
X102029682Y-119863198D01*
X102085012Y-119820532D01*
X102154625Y-119814553D01*
X102216420Y-119847159D01*
X102230318Y-119863198D01*
X102232120Y-119865678D01*
X102358455Y-120039563D01*
X102510437Y-120191545D01*
X102684322Y-120317880D01*
X102727019Y-120339635D01*
X102875829Y-120415458D01*
X102875832Y-120415459D01*
X103066494Y-120477408D01*
X103080245Y-120481876D01*
X103292533Y-120515500D01*
X103292534Y-120515500D01*
X103507466Y-120515500D01*
X103507467Y-120515500D01*
X103719755Y-120481876D01*
X103719758Y-120481875D01*
X103719759Y-120481875D01*
X103924167Y-120415459D01*
X103924170Y-120415458D01*
X103955224Y-120399635D01*
X104115678Y-120317880D01*
X104289563Y-120191545D01*
X104441545Y-120039563D01*
X104567880Y-119865678D01*
X104665458Y-119674170D01*
X104731876Y-119469755D01*
X104765500Y-119257467D01*
X104765500Y-118742533D01*
X104731876Y-118530245D01*
X104731875Y-118530241D01*
X104731875Y-118530240D01*
X104665459Y-118325832D01*
X104665458Y-118325829D01*
X104615739Y-118228251D01*
X104567880Y-118134322D01*
X104441545Y-117960437D01*
X104289563Y-117808455D01*
X104115678Y-117682120D01*
X104068766Y-117658217D01*
X103924170Y-117584541D01*
X103924167Y-117584540D01*
X103719757Y-117518124D01*
X103578229Y-117495708D01*
X103507467Y-117484500D01*
X103292533Y-117484500D01*
X103221770Y-117495708D01*
X103080243Y-117518124D01*
X103080240Y-117518124D01*
X102875832Y-117584540D01*
X102875829Y-117584541D01*
X102684321Y-117682120D01*
X102600981Y-117742671D01*
X102510437Y-117808455D01*
X102510435Y-117808457D01*
X102510434Y-117808457D01*
X102358457Y-117960434D01*
X102358457Y-117960435D01*
X102358455Y-117960437D01*
X102274857Y-118075500D01*
X102230318Y-118136802D01*
X102174988Y-118179467D01*
X102105374Y-118185446D01*
X102043579Y-118152840D01*
X102029682Y-118136802D01*
X101985143Y-118075500D01*
X101901545Y-117960437D01*
X101749563Y-117808455D01*
X101575678Y-117682120D01*
X101528766Y-117658217D01*
X101384170Y-117584541D01*
X101384167Y-117584540D01*
X101179757Y-117518124D01*
X101038229Y-117495708D01*
X100967467Y-117484500D01*
X100752533Y-117484500D01*
X100681770Y-117495708D01*
X100540243Y-117518124D01*
X100540240Y-117518124D01*
X100335832Y-117584540D01*
X100335829Y-117584541D01*
X100144321Y-117682120D01*
X99970438Y-117808454D01*
X99875910Y-117902982D01*
X99814586Y-117936466D01*
X99744895Y-117931482D01*
X99688962Y-117889610D01*
X99672047Y-117858632D01*
X99670001Y-117853147D01*
X99632107Y-117751545D01*
X99628798Y-117742673D01*
X99628793Y-117742664D01*
X99542547Y-117627455D01*
X99542544Y-117627452D01*
X99427335Y-117541206D01*
X99427328Y-117541202D01*
X99292482Y-117490908D01*
X99292483Y-117490908D01*
X99232883Y-117484501D01*
X99232881Y-117484500D01*
X99232873Y-117484500D01*
X99232864Y-117484500D01*
X97407129Y-117484500D01*
X97407123Y-117484501D01*
X97347516Y-117490908D01*
X97212671Y-117541202D01*
X97212664Y-117541206D01*
X97097455Y-117627452D01*
X97097452Y-117627455D01*
X97011206Y-117742664D01*
X97011202Y-117742671D01*
X96960908Y-117877517D01*
X96954501Y-117937116D01*
X96954500Y-117937135D01*
X95116076Y-117937135D01*
X95177816Y-117788082D01*
X95210500Y-117623767D01*
X95210500Y-117456233D01*
X95177816Y-117291918D01*
X95113703Y-117137137D01*
X95082537Y-117090494D01*
X95020626Y-116997837D01*
X94902162Y-116879373D01*
X94762860Y-116786295D01*
X94608082Y-116722184D01*
X94608074Y-116722182D01*
X94443771Y-116689500D01*
X94443767Y-116689500D01*
X94276233Y-116689500D01*
X94276228Y-116689500D01*
X94111925Y-116722182D01*
X94111917Y-116722184D01*
X93957139Y-116786295D01*
X93817838Y-116879373D01*
X93758021Y-116939190D01*
X93696697Y-116972674D01*
X93627006Y-116967689D01*
X93571072Y-116925818D01*
X93559855Y-116907803D01*
X93517452Y-116824583D01*
X93391161Y-116650759D01*
X93239240Y-116498838D01*
X93239234Y-116498833D01*
X93062348Y-116370318D01*
X93019682Y-116314988D01*
X93013703Y-116245375D01*
X93046309Y-116183580D01*
X93062348Y-116169682D01*
X93239234Y-116041166D01*
X93239240Y-116041161D01*
X93391161Y-115889240D01*
X93517452Y-115715416D01*
X93614996Y-115523975D01*
X93681389Y-115319635D01*
X93692419Y-115250000D01*
X92644560Y-115250000D01*
X92675245Y-115196853D01*
X92710000Y-115067143D01*
X92710000Y-114932857D01*
X92675245Y-114803147D01*
X92644560Y-114750000D01*
X93692419Y-114750000D01*
X93681389Y-114680364D01*
X93614996Y-114476024D01*
X93517452Y-114284583D01*
X93391161Y-114110759D01*
X93296116Y-114015714D01*
X93262631Y-113954391D01*
X93267615Y-113884699D01*
X93309487Y-113828766D01*
X93340465Y-113811851D01*
X93457084Y-113768355D01*
X93457093Y-113768350D01*
X93572187Y-113682190D01*
X93572190Y-113682187D01*
X93658350Y-113567093D01*
X93658354Y-113567086D01*
X93708596Y-113432379D01*
X93708598Y-113432372D01*
X93714999Y-113372844D01*
X93715000Y-113372827D01*
X93715000Y-112710000D01*
X92644560Y-112710000D01*
X92675245Y-112656853D01*
X92710000Y-112527143D01*
X92710000Y-112392857D01*
X92675245Y-112263147D01*
X92644560Y-112210000D01*
X93715000Y-112210000D01*
X93715000Y-111547172D01*
X93714999Y-111547155D01*
X93708598Y-111487627D01*
X93708596Y-111487620D01*
X93658354Y-111352913D01*
X93658350Y-111352906D01*
X93572190Y-111237812D01*
X93572187Y-111237809D01*
X93457093Y-111151649D01*
X93457086Y-111151645D01*
X93322379Y-111101403D01*
X93322372Y-111101401D01*
X93262844Y-111095000D01*
X92450000Y-111095000D01*
X92450000Y-112015439D01*
X92396853Y-111984755D01*
X92267143Y-111950000D01*
X92132857Y-111950000D01*
X92003147Y-111984755D01*
X91950000Y-112015439D01*
X91950000Y-111095000D01*
X91137155Y-111095000D01*
X91077627Y-111101401D01*
X91077620Y-111101403D01*
X90942913Y-111151645D01*
X90942906Y-111151649D01*
X90827812Y-111237809D01*
X90827809Y-111237812D01*
X90741649Y-111352906D01*
X90741645Y-111352913D01*
X90691403Y-111487620D01*
X90691401Y-111487627D01*
X90685000Y-111547155D01*
X85015000Y-111547155D01*
X85015000Y-111487172D01*
X85014999Y-111487155D01*
X85008598Y-111427627D01*
X85008596Y-111427620D01*
X84958354Y-111292913D01*
X84958350Y-111292906D01*
X84872190Y-111177812D01*
X84872187Y-111177809D01*
X84757093Y-111091649D01*
X84757086Y-111091645D01*
X84622379Y-111041403D01*
X84622372Y-111041401D01*
X84562844Y-111035000D01*
X83750000Y-111035000D01*
X83750000Y-111955439D01*
X83696853Y-111924755D01*
X83567143Y-111890000D01*
X83432857Y-111890000D01*
X83303147Y-111924755D01*
X83250000Y-111955439D01*
X83250000Y-111035000D01*
X82437155Y-111035000D01*
X82377627Y-111041401D01*
X82377620Y-111041403D01*
X82242913Y-111091645D01*
X82242906Y-111091649D01*
X82127812Y-111177809D01*
X82127809Y-111177812D01*
X82041649Y-111292906D01*
X82041645Y-111292913D01*
X81991403Y-111427620D01*
X81991401Y-111427627D01*
X81985000Y-111487155D01*
X44100500Y-111487155D01*
X44100500Y-108116228D01*
X48649500Y-108116228D01*
X48649500Y-108283771D01*
X48682182Y-108448074D01*
X48682184Y-108448082D01*
X48746295Y-108602860D01*
X48839373Y-108742162D01*
X48957837Y-108860626D01*
X48999840Y-108888691D01*
X49097137Y-108953703D01*
X49251918Y-109017816D01*
X49416228Y-109050499D01*
X49416232Y-109050500D01*
X49416233Y-109050500D01*
X49583768Y-109050500D01*
X49583769Y-109050499D01*
X49748082Y-109017816D01*
X49902863Y-108953703D01*
X50042162Y-108860626D01*
X50160626Y-108742162D01*
X50253703Y-108602863D01*
X50317816Y-108448082D01*
X50346718Y-108302776D01*
X50379102Y-108240869D01*
X50380596Y-108239348D01*
X50755276Y-107864669D01*
X50826465Y-107758127D01*
X50875501Y-107639744D01*
X50888479Y-107574499D01*
X50895466Y-107539374D01*
X50900500Y-107514070D01*
X50900500Y-107320808D01*
X50920185Y-107253769D01*
X50936819Y-107233127D01*
X51107929Y-107062017D01*
X51289293Y-106880652D01*
X51350614Y-106847169D01*
X51352781Y-106846718D01*
X51376515Y-106841997D01*
X51498082Y-106817816D01*
X51652863Y-106753703D01*
X51750393Y-106688535D01*
X51769848Y-106675536D01*
X51792162Y-106660626D01*
X51910626Y-106542162D01*
X51953008Y-106478733D01*
X52003703Y-106402863D01*
X52067816Y-106248082D01*
X52100500Y-106083767D01*
X52100500Y-105931504D01*
X88960000Y-105931504D01*
X88960000Y-106330000D01*
X89660000Y-106330000D01*
X89660000Y-106830000D01*
X88960000Y-106830000D01*
X88960000Y-107228495D01*
X88998427Y-107421681D01*
X88998430Y-107421693D01*
X89073807Y-107603671D01*
X89073814Y-107603684D01*
X89183248Y-107767462D01*
X89183251Y-107767466D01*
X89322533Y-107906748D01*
X89322537Y-107906751D01*
X89486315Y-108016185D01*
X89486328Y-108016192D01*
X89668308Y-108091569D01*
X89710000Y-108099862D01*
X89710000Y-107296988D01*
X89719940Y-107314205D01*
X89775795Y-107370060D01*
X89844204Y-107409556D01*
X89920504Y-107430000D01*
X89999496Y-107430000D01*
X90075796Y-107409556D01*
X90144205Y-107370060D01*
X90200060Y-107314205D01*
X90210000Y-107296988D01*
X90210000Y-108099862D01*
X90251690Y-108091569D01*
X90251692Y-108091569D01*
X90433671Y-108016192D01*
X90433684Y-108016185D01*
X90597462Y-107906751D01*
X90597466Y-107906748D01*
X90736748Y-107767466D01*
X90736751Y-107767462D01*
X90846185Y-107603684D01*
X90846192Y-107603671D01*
X90921569Y-107421693D01*
X90921572Y-107421681D01*
X90959999Y-107228495D01*
X90960000Y-107228492D01*
X90960000Y-106764504D01*
X90979685Y-106697465D01*
X91032489Y-106651710D01*
X91101647Y-106641766D01*
X91131451Y-106649942D01*
X91207548Y-106681463D01*
X91328389Y-106705499D01*
X91328393Y-106705500D01*
X91328394Y-106705500D01*
X91451607Y-106705500D01*
X91451608Y-106705499D01*
X91572452Y-106681463D01*
X91686286Y-106634311D01*
X91788733Y-106565858D01*
X91875858Y-106478733D01*
X91944311Y-106376286D01*
X91991463Y-106262452D01*
X92015500Y-106141606D01*
X92015500Y-106018394D01*
X92015499Y-106018389D01*
X96544500Y-106018389D01*
X96544500Y-106141610D01*
X96568535Y-106262444D01*
X96568538Y-106262454D01*
X96615687Y-106376283D01*
X96615692Y-106376292D01*
X96684141Y-106478732D01*
X96684144Y-106478736D01*
X96771263Y-106565855D01*
X96771267Y-106565858D01*
X96873707Y-106634307D01*
X96873716Y-106634312D01*
X96876391Y-106635420D01*
X96987548Y-106681463D01*
X97108389Y-106705499D01*
X97108393Y-106705500D01*
X97108394Y-106705500D01*
X97231607Y-106705500D01*
X97231608Y-106705499D01*
X97352452Y-106681463D01*
X97428547Y-106649942D01*
X97498016Y-106642474D01*
X97560496Y-106673749D01*
X97596148Y-106733838D01*
X97600000Y-106764504D01*
X97600000Y-107228495D01*
X97638427Y-107421681D01*
X97638430Y-107421693D01*
X97713807Y-107603671D01*
X97713814Y-107603684D01*
X97823248Y-107767462D01*
X97823251Y-107767466D01*
X97917158Y-107861373D01*
X97950643Y-107922696D01*
X97945659Y-107992388D01*
X97903787Y-108048321D01*
X97898369Y-108052155D01*
X97825967Y-108100533D01*
X97825961Y-108100538D01*
X97700538Y-108225961D01*
X97700535Y-108225965D01*
X97601990Y-108373446D01*
X97601983Y-108373459D01*
X97534106Y-108537332D01*
X97534103Y-108537341D01*
X97499500Y-108711304D01*
X97499500Y-108888695D01*
X97534103Y-109062658D01*
X97534106Y-109062667D01*
X97601983Y-109226540D01*
X97601990Y-109226553D01*
X97700534Y-109374033D01*
X97700535Y-109374034D01*
X97700536Y-109374035D01*
X97713180Y-109386679D01*
X97746665Y-109447999D01*
X97749500Y-109474361D01*
X97749500Y-114805068D01*
X97729815Y-114872107D01*
X97728602Y-114873959D01*
X97646295Y-114997139D01*
X97582184Y-115151917D01*
X97582182Y-115151925D01*
X97549500Y-115316228D01*
X97549500Y-115483771D01*
X97582182Y-115648074D01*
X97582184Y-115648082D01*
X97646295Y-115802860D01*
X97739373Y-115942162D01*
X97857837Y-116060626D01*
X97931255Y-116109682D01*
X97997137Y-116153703D01*
X98151918Y-116217816D01*
X98290468Y-116245375D01*
X98316228Y-116250499D01*
X98316232Y-116250500D01*
X98316233Y-116250500D01*
X98483768Y-116250500D01*
X98483769Y-116250499D01*
X98648082Y-116217816D01*
X98802863Y-116153703D01*
X98942162Y-116060626D01*
X99060626Y-115942162D01*
X99153703Y-115802863D01*
X99217816Y-115648082D01*
X99250500Y-115483767D01*
X99250500Y-115316233D01*
X99217816Y-115151918D01*
X99153703Y-114997137D01*
X99077608Y-114883253D01*
X99071398Y-114873959D01*
X99050520Y-114807281D01*
X99050500Y-114805068D01*
X99050500Y-111509448D01*
X131549500Y-111509448D01*
X131549500Y-111690551D01*
X131577829Y-111869410D01*
X131633787Y-112041636D01*
X131633788Y-112041639D01*
X131716006Y-112202997D01*
X131822441Y-112349494D01*
X131822445Y-112349499D01*
X131950500Y-112477554D01*
X131950505Y-112477558D01*
X132002986Y-112515687D01*
X132097006Y-112583996D01*
X132180933Y-112626759D01*
X132258360Y-112666211D01*
X132258363Y-112666212D01*
X132344476Y-112694191D01*
X132430591Y-112722171D01*
X132513429Y-112735291D01*
X132609449Y-112750500D01*
X132609454Y-112750500D01*
X132790551Y-112750500D01*
X132877259Y-112736765D01*
X132969409Y-112722171D01*
X133141639Y-112666211D01*
X133302994Y-112583996D01*
X133449501Y-112477553D01*
X133577553Y-112349501D01*
X133683996Y-112202994D01*
X133766211Y-112041639D01*
X133822171Y-111869409D01*
X133836765Y-111777259D01*
X133850500Y-111690551D01*
X133850500Y-111509448D01*
X133849877Y-111505513D01*
X135999500Y-111505513D01*
X135999500Y-111694486D01*
X136029059Y-111881118D01*
X136087454Y-112060836D01*
X136132886Y-112150000D01*
X136173240Y-112229199D01*
X136284310Y-112382073D01*
X136417927Y-112515690D01*
X136570801Y-112626760D01*
X136629862Y-112656853D01*
X136739163Y-112712545D01*
X136739165Y-112712545D01*
X136739168Y-112712547D01*
X136835497Y-112743846D01*
X136918881Y-112770940D01*
X137105514Y-112800500D01*
X137105519Y-112800500D01*
X137294486Y-112800500D01*
X137481118Y-112770940D01*
X137544025Y-112750500D01*
X137660832Y-112712547D01*
X137829199Y-112626760D01*
X137982073Y-112515690D01*
X138115690Y-112382073D01*
X138226760Y-112229199D01*
X138312547Y-112060832D01*
X138370940Y-111881118D01*
X138372794Y-111869410D01*
X138400500Y-111694486D01*
X138400500Y-111505513D01*
X138370940Y-111318881D01*
X138312545Y-111139163D01*
X138226759Y-110970800D01*
X138115690Y-110817927D01*
X137982073Y-110684310D01*
X137829199Y-110573240D01*
X137660836Y-110487454D01*
X137481118Y-110429059D01*
X137294486Y-110399500D01*
X137294481Y-110399500D01*
X137105519Y-110399500D01*
X137105514Y-110399500D01*
X136918881Y-110429059D01*
X136739163Y-110487454D01*
X136570800Y-110573240D01*
X136511939Y-110616006D01*
X136417927Y-110684310D01*
X136417925Y-110684312D01*
X136417924Y-110684312D01*
X136284312Y-110817924D01*
X136284312Y-110817925D01*
X136284310Y-110817927D01*
X136260645Y-110850499D01*
X136173240Y-110970800D01*
X136087454Y-111139163D01*
X136029059Y-111318881D01*
X135999500Y-111505513D01*
X133849877Y-111505513D01*
X133825705Y-111352906D01*
X133822171Y-111330591D01*
X133766211Y-111158361D01*
X133766211Y-111158360D01*
X133732217Y-111091645D01*
X133683996Y-110997006D01*
X133664956Y-110970800D01*
X133577558Y-110850505D01*
X133577554Y-110850500D01*
X133449499Y-110722445D01*
X133449494Y-110722441D01*
X133302997Y-110616006D01*
X133302996Y-110616005D01*
X133302994Y-110616004D01*
X133251300Y-110589664D01*
X133141639Y-110533788D01*
X133141636Y-110533787D01*
X132969410Y-110477829D01*
X132790551Y-110449500D01*
X132790546Y-110449500D01*
X132609454Y-110449500D01*
X132609449Y-110449500D01*
X132430589Y-110477829D01*
X132258363Y-110533787D01*
X132258360Y-110533788D01*
X132097002Y-110616006D01*
X131950505Y-110722441D01*
X131950500Y-110722445D01*
X131822445Y-110850500D01*
X131822441Y-110850505D01*
X131716006Y-110997002D01*
X131633788Y-111158360D01*
X131633787Y-111158363D01*
X131577829Y-111330589D01*
X131549500Y-111509448D01*
X99050500Y-111509448D01*
X99050500Y-109474361D01*
X99070185Y-109407322D01*
X99086816Y-109386682D01*
X99099464Y-109374035D01*
X99198013Y-109226547D01*
X99265894Y-109062666D01*
X99268315Y-109050499D01*
X99300499Y-108888695D01*
X99300500Y-108888693D01*
X99300500Y-108711306D01*
X99300499Y-108711304D01*
X99265896Y-108537341D01*
X99265893Y-108537332D01*
X99198016Y-108373459D01*
X99198009Y-108373446D01*
X99099464Y-108225965D01*
X99099461Y-108225961D01*
X99070224Y-108196724D01*
X99036739Y-108135401D01*
X99041723Y-108065709D01*
X99083595Y-108009776D01*
X99089015Y-108005941D01*
X99237458Y-107906754D01*
X99237466Y-107906748D01*
X99376748Y-107767466D01*
X99376751Y-107767462D01*
X99486185Y-107603684D01*
X99486192Y-107603671D01*
X99561569Y-107421693D01*
X99561572Y-107421681D01*
X99599999Y-107228495D01*
X99600000Y-107228492D01*
X99600000Y-106830000D01*
X98900000Y-106830000D01*
X98900000Y-106330000D01*
X99600000Y-106330000D01*
X99600000Y-105931508D01*
X99599999Y-105931504D01*
X99561572Y-105738318D01*
X99561569Y-105738306D01*
X99486192Y-105556328D01*
X99486185Y-105556315D01*
X99376751Y-105392537D01*
X99376748Y-105392533D01*
X99237466Y-105253251D01*
X99237462Y-105253248D01*
X99073684Y-105143814D01*
X99073671Y-105143807D01*
X98891691Y-105068429D01*
X98891683Y-105068427D01*
X98850000Y-105060135D01*
X98850000Y-105863011D01*
X98840060Y-105845795D01*
X98784205Y-105789940D01*
X98715796Y-105750444D01*
X98639496Y-105730000D01*
X98560504Y-105730000D01*
X98484204Y-105750444D01*
X98415795Y-105789940D01*
X98359940Y-105845795D01*
X98350000Y-105863011D01*
X98350000Y-105060136D01*
X98349999Y-105060135D01*
X98308316Y-105068427D01*
X98308308Y-105068429D01*
X98126328Y-105143807D01*
X98126315Y-105143814D01*
X97962537Y-105253248D01*
X97962533Y-105253251D01*
X97823251Y-105392533D01*
X97823248Y-105392537D01*
X97720451Y-105546383D01*
X97666838Y-105591188D01*
X97597513Y-105599895D01*
X97548458Y-105580594D01*
X97466292Y-105525692D01*
X97466283Y-105525687D01*
X97352454Y-105478538D01*
X97352455Y-105478538D01*
X97352452Y-105478537D01*
X97352448Y-105478536D01*
X97352444Y-105478535D01*
X97231610Y-105454500D01*
X97231606Y-105454500D01*
X97108394Y-105454500D01*
X97108389Y-105454500D01*
X96987555Y-105478535D01*
X96987545Y-105478538D01*
X96873716Y-105525687D01*
X96873707Y-105525692D01*
X96771267Y-105594141D01*
X96771263Y-105594144D01*
X96684144Y-105681263D01*
X96684141Y-105681267D01*
X96615692Y-105783707D01*
X96615687Y-105783716D01*
X96568538Y-105897545D01*
X96568535Y-105897555D01*
X96544500Y-106018389D01*
X92015499Y-106018389D01*
X91991463Y-105897548D01*
X91944311Y-105783714D01*
X91944310Y-105783713D01*
X91944307Y-105783707D01*
X91875858Y-105681267D01*
X91875855Y-105681263D01*
X91788736Y-105594144D01*
X91788732Y-105594141D01*
X91686292Y-105525692D01*
X91686283Y-105525687D01*
X91572454Y-105478538D01*
X91572455Y-105478538D01*
X91572452Y-105478537D01*
X91572448Y-105478536D01*
X91572444Y-105478535D01*
X91451610Y-105454500D01*
X91451606Y-105454500D01*
X91328394Y-105454500D01*
X91328389Y-105454500D01*
X91207555Y-105478535D01*
X91207545Y-105478538D01*
X91093716Y-105525687D01*
X91093709Y-105525691D01*
X91011540Y-105580595D01*
X90944863Y-105601472D01*
X90877483Y-105582987D01*
X90839548Y-105546383D01*
X90736751Y-105392537D01*
X90736748Y-105392533D01*
X90597466Y-105253251D01*
X90597462Y-105253248D01*
X90433684Y-105143814D01*
X90433671Y-105143807D01*
X90251691Y-105068429D01*
X90251683Y-105068427D01*
X90210000Y-105060135D01*
X90210000Y-105863011D01*
X90200060Y-105845795D01*
X90144205Y-105789940D01*
X90075796Y-105750444D01*
X89999496Y-105730000D01*
X89920504Y-105730000D01*
X89844204Y-105750444D01*
X89775795Y-105789940D01*
X89719940Y-105845795D01*
X89710000Y-105863011D01*
X89710000Y-105060136D01*
X89709999Y-105060135D01*
X89668316Y-105068427D01*
X89668308Y-105068429D01*
X89486328Y-105143807D01*
X89486315Y-105143814D01*
X89322537Y-105253248D01*
X89322533Y-105253251D01*
X89183251Y-105392533D01*
X89183248Y-105392537D01*
X89073814Y-105556315D01*
X89073807Y-105556328D01*
X88998430Y-105738306D01*
X88998427Y-105738318D01*
X88960000Y-105931504D01*
X52100500Y-105931504D01*
X52100500Y-105916233D01*
X52067816Y-105751918D01*
X52005499Y-105601472D01*
X52003704Y-105597139D01*
X52001701Y-105594142D01*
X51955963Y-105525689D01*
X51910626Y-105457837D01*
X51792162Y-105339373D01*
X51652860Y-105246295D01*
X51498082Y-105182184D01*
X51498074Y-105182182D01*
X51333771Y-105149500D01*
X51333767Y-105149500D01*
X51166233Y-105149500D01*
X51166228Y-105149500D01*
X51001925Y-105182182D01*
X51001917Y-105182184D01*
X50847139Y-105246295D01*
X50707837Y-105339373D01*
X50589373Y-105457837D01*
X50496295Y-105597139D01*
X50432184Y-105751917D01*
X50432182Y-105751923D01*
X50403281Y-105897219D01*
X50370896Y-105959130D01*
X50369345Y-105960708D01*
X49744727Y-106585325D01*
X49744726Y-106585326D01*
X49680491Y-106681463D01*
X49680489Y-106681465D01*
X49673537Y-106691868D01*
X49673534Y-106691874D01*
X49624499Y-106810255D01*
X49624497Y-106810261D01*
X49599500Y-106935928D01*
X49599500Y-107129191D01*
X49590855Y-107158631D01*
X49584332Y-107188618D01*
X49580577Y-107193633D01*
X49579815Y-107196230D01*
X49563181Y-107216872D01*
X49460708Y-107319345D01*
X49399385Y-107352830D01*
X49397219Y-107353281D01*
X49251923Y-107382182D01*
X49251917Y-107382184D01*
X49097139Y-107446295D01*
X48957837Y-107539373D01*
X48839373Y-107657837D01*
X48746295Y-107797139D01*
X48682184Y-107951917D01*
X48682182Y-107951925D01*
X48649500Y-108116228D01*
X44100500Y-108116228D01*
X44100500Y-101603480D01*
X44100695Y-101596527D01*
X44106248Y-101497648D01*
X45499500Y-101497648D01*
X45499500Y-101702351D01*
X45531522Y-101904534D01*
X45594781Y-102099223D01*
X45620654Y-102150000D01*
X45674492Y-102255663D01*
X45687715Y-102281613D01*
X45808028Y-102447213D01*
X45952786Y-102591971D01*
X46107749Y-102704556D01*
X46118390Y-102712287D01*
X46234607Y-102771503D01*
X46300776Y-102805218D01*
X46300778Y-102805218D01*
X46300781Y-102805220D01*
X46405137Y-102839127D01*
X46495465Y-102868477D01*
X46596557Y-102884488D01*
X46697648Y-102900500D01*
X46697649Y-102900500D01*
X46902351Y-102900500D01*
X46902352Y-102900500D01*
X47104534Y-102868477D01*
X47299219Y-102805220D01*
X47481610Y-102712287D01*
X47574590Y-102644732D01*
X47647213Y-102591971D01*
X47647215Y-102591968D01*
X47647219Y-102591966D01*
X47791966Y-102447219D01*
X47912287Y-102281610D01*
X48005220Y-102099219D01*
X48068477Y-101904534D01*
X48068957Y-101901504D01*
X88960000Y-101901504D01*
X88960000Y-102150000D01*
X89660000Y-102150000D01*
X89660000Y-102650000D01*
X88960000Y-102650000D01*
X88960000Y-102898495D01*
X88998427Y-103091681D01*
X88998430Y-103091693D01*
X89073807Y-103273671D01*
X89073814Y-103273684D01*
X89183248Y-103437462D01*
X89183251Y-103437466D01*
X89322533Y-103576748D01*
X89322537Y-103576751D01*
X89486315Y-103686185D01*
X89486328Y-103686192D01*
X89668308Y-103761569D01*
X89710000Y-103769862D01*
X89710000Y-102966988D01*
X89719940Y-102984205D01*
X89775795Y-103040060D01*
X89844204Y-103079556D01*
X89920504Y-103100000D01*
X89999496Y-103100000D01*
X90075796Y-103079556D01*
X90144205Y-103040060D01*
X90200060Y-102984205D01*
X90210000Y-102966988D01*
X90210000Y-103769862D01*
X90251690Y-103761569D01*
X90251692Y-103761569D01*
X90433671Y-103686192D01*
X90433684Y-103686185D01*
X90597462Y-103576751D01*
X90597466Y-103576748D01*
X90736748Y-103437466D01*
X90736751Y-103437462D01*
X90846185Y-103273684D01*
X90846192Y-103273671D01*
X90921569Y-103091693D01*
X90921572Y-103091681D01*
X90959999Y-102898495D01*
X90960000Y-102898492D01*
X90960000Y-102650000D01*
X90260000Y-102650000D01*
X90260000Y-102150000D01*
X90960000Y-102150000D01*
X90960000Y-101901508D01*
X90959999Y-101901504D01*
X97600000Y-101901504D01*
X97600000Y-102150000D01*
X98300000Y-102150000D01*
X98300000Y-102650000D01*
X97600000Y-102650000D01*
X97600000Y-102898495D01*
X97638427Y-103091681D01*
X97638430Y-103091693D01*
X97713807Y-103273671D01*
X97713814Y-103273684D01*
X97823248Y-103437462D01*
X97823251Y-103437466D01*
X97962533Y-103576748D01*
X97962537Y-103576751D01*
X98126315Y-103686185D01*
X98126328Y-103686192D01*
X98308308Y-103761569D01*
X98350000Y-103769862D01*
X98350000Y-102966988D01*
X98359940Y-102984205D01*
X98415795Y-103040060D01*
X98484204Y-103079556D01*
X98560504Y-103100000D01*
X98639496Y-103100000D01*
X98715796Y-103079556D01*
X98784205Y-103040060D01*
X98840060Y-102984205D01*
X98850000Y-102966988D01*
X98850000Y-103769862D01*
X98891690Y-103761569D01*
X98891692Y-103761569D01*
X99073671Y-103686192D01*
X99073684Y-103686185D01*
X99237462Y-103576751D01*
X99237466Y-103576748D01*
X99376748Y-103437466D01*
X99376751Y-103437462D01*
X99486185Y-103273684D01*
X99486192Y-103273671D01*
X99561569Y-103091693D01*
X99561572Y-103091681D01*
X99599999Y-102898495D01*
X99600000Y-102898492D01*
X99600000Y-102650000D01*
X98900000Y-102650000D01*
X98900000Y-102524983D01*
X101849500Y-102524983D01*
X101849500Y-104925001D01*
X101849501Y-104925018D01*
X101860000Y-105027796D01*
X101860001Y-105027799D01*
X101870717Y-105060136D01*
X101915186Y-105194334D01*
X102007288Y-105343656D01*
X102131344Y-105467712D01*
X102280666Y-105559814D01*
X102447203Y-105614999D01*
X102549991Y-105625500D01*
X104610008Y-105625499D01*
X104712797Y-105614999D01*
X104879334Y-105559814D01*
X105028656Y-105467712D01*
X105152712Y-105343656D01*
X105244814Y-105194334D01*
X105299999Y-105027797D01*
X105310500Y-104925009D01*
X105310499Y-103259568D01*
X109599500Y-103259568D01*
X109599500Y-103540431D01*
X109630942Y-103819494D01*
X109630945Y-103819512D01*
X109693439Y-104093317D01*
X109693443Y-104093329D01*
X109786200Y-104358411D01*
X109908053Y-104611442D01*
X109908055Y-104611445D01*
X110057477Y-104849248D01*
X110117900Y-104925016D01*
X110232266Y-105068427D01*
X110232584Y-105068825D01*
X110431175Y-105267416D01*
X110650752Y-105442523D01*
X110888555Y-105591945D01*
X111141592Y-105713801D01*
X111211623Y-105738306D01*
X111269216Y-105758459D01*
X111325992Y-105799181D01*
X111351739Y-105864133D01*
X111338283Y-105932695D01*
X111289895Y-105983098D01*
X111228261Y-105999500D01*
X110895260Y-105999500D01*
X110762017Y-106009987D01*
X110541997Y-106065426D01*
X110335420Y-106159258D01*
X110335410Y-106159263D01*
X110148909Y-106288473D01*
X109988473Y-106448909D01*
X109859263Y-106635410D01*
X109859258Y-106635420D01*
X109765426Y-106841997D01*
X109709987Y-107062017D01*
X109699500Y-107195260D01*
X109699500Y-109604739D01*
X109709987Y-109737982D01*
X109765426Y-109958002D01*
X109859258Y-110164579D01*
X109859263Y-110164589D01*
X109988473Y-110351090D01*
X110148909Y-110511526D01*
X110335410Y-110640736D01*
X110335420Y-110640741D01*
X110541997Y-110734573D01*
X110541998Y-110734573D01*
X110542000Y-110734574D01*
X110762017Y-110790013D01*
X110895264Y-110800500D01*
X110895270Y-110800500D01*
X113304730Y-110800500D01*
X113304736Y-110800500D01*
X113437983Y-110790013D01*
X113658000Y-110734574D01*
X113864582Y-110640740D01*
X113864584Y-110640738D01*
X113864589Y-110640736D01*
X114051090Y-110511526D01*
X114211526Y-110351090D01*
X114340736Y-110164589D01*
X114340741Y-110164579D01*
X114434573Y-109958002D01*
X114434574Y-109958000D01*
X114490013Y-109737983D01*
X114500500Y-109604736D01*
X114500500Y-107195264D01*
X114490013Y-107062017D01*
X114434574Y-106842000D01*
X114429123Y-106830000D01*
X114340741Y-106635420D01*
X114340736Y-106635410D01*
X114211526Y-106448909D01*
X114051090Y-106288473D01*
X113864589Y-106159263D01*
X113864579Y-106159258D01*
X113658002Y-106065426D01*
X113471327Y-106018389D01*
X113437983Y-106009987D01*
X113404671Y-106007365D01*
X113304739Y-105999500D01*
X113304736Y-105999500D01*
X112971739Y-105999500D01*
X112904700Y-105979815D01*
X112858945Y-105927011D01*
X112849001Y-105857853D01*
X112878026Y-105794297D01*
X112930784Y-105758459D01*
X112988342Y-105738318D01*
X113058408Y-105713801D01*
X113311445Y-105591945D01*
X113549248Y-105442523D01*
X113768825Y-105267416D01*
X113967416Y-105068825D01*
X114142523Y-104849248D01*
X114291945Y-104611445D01*
X114413801Y-104358408D01*
X114506560Y-104093318D01*
X114569055Y-103819509D01*
X114600500Y-103540425D01*
X114600500Y-103259575D01*
X114582520Y-103100000D01*
X114569057Y-102980505D01*
X114569054Y-102980487D01*
X114506560Y-102706682D01*
X114506556Y-102706670D01*
X114442984Y-102524992D01*
X114413801Y-102441592D01*
X114291945Y-102188555D01*
X114142523Y-101950752D01*
X113967416Y-101731175D01*
X113768825Y-101532584D01*
X113725017Y-101497648D01*
X138899500Y-101497648D01*
X138899500Y-101702351D01*
X138931522Y-101904534D01*
X138994781Y-102099223D01*
X139020654Y-102150000D01*
X139074492Y-102255663D01*
X139087715Y-102281613D01*
X139208028Y-102447213D01*
X139352786Y-102591971D01*
X139507749Y-102704556D01*
X139518390Y-102712287D01*
X139634607Y-102771503D01*
X139700776Y-102805218D01*
X139700778Y-102805218D01*
X139700781Y-102805220D01*
X139805137Y-102839127D01*
X139895465Y-102868477D01*
X139996557Y-102884488D01*
X140097648Y-102900500D01*
X140097649Y-102900500D01*
X140302351Y-102900500D01*
X140302352Y-102900500D01*
X140504534Y-102868477D01*
X140699219Y-102805220D01*
X140881610Y-102712287D01*
X140974590Y-102644732D01*
X141047213Y-102591971D01*
X141047215Y-102591968D01*
X141047219Y-102591966D01*
X141191966Y-102447219D01*
X141191968Y-102447215D01*
X141191971Y-102447213D01*
X141244732Y-102374590D01*
X141312287Y-102281610D01*
X141405220Y-102099219D01*
X141468477Y-101904534D01*
X141500500Y-101702352D01*
X141500500Y-101497648D01*
X141468477Y-101295466D01*
X141405220Y-101100781D01*
X141405218Y-101100778D01*
X141405218Y-101100776D01*
X141371503Y-101034607D01*
X141312287Y-100918390D01*
X141297070Y-100897445D01*
X141191971Y-100752786D01*
X141047213Y-100608028D01*
X140881613Y-100487715D01*
X140881612Y-100487714D01*
X140881610Y-100487713D01*
X140824653Y-100458691D01*
X140699223Y-100394781D01*
X140504534Y-100331522D01*
X140329995Y-100303878D01*
X140302352Y-100299500D01*
X140097648Y-100299500D01*
X140073329Y-100303351D01*
X139895465Y-100331522D01*
X139700776Y-100394781D01*
X139518386Y-100487715D01*
X139352786Y-100608028D01*
X139208028Y-100752786D01*
X139087715Y-100918386D01*
X138994781Y-101100776D01*
X138931522Y-101295465D01*
X138899500Y-101497648D01*
X113725017Y-101497648D01*
X113549248Y-101357477D01*
X113335629Y-101223251D01*
X113311442Y-101208053D01*
X113058411Y-101086200D01*
X112793329Y-100993443D01*
X112793317Y-100993439D01*
X112519512Y-100930945D01*
X112519494Y-100930942D01*
X112240431Y-100899500D01*
X112240425Y-100899500D01*
X111959575Y-100899500D01*
X111959568Y-100899500D01*
X111680505Y-100930942D01*
X111680487Y-100930945D01*
X111406682Y-100993439D01*
X111406670Y-100993443D01*
X111141588Y-101086200D01*
X110888557Y-101208053D01*
X110650753Y-101357476D01*
X110431175Y-101532583D01*
X110232583Y-101731175D01*
X110057476Y-101950753D01*
X109908053Y-102188557D01*
X109786200Y-102441588D01*
X109693443Y-102706670D01*
X109693439Y-102706682D01*
X109630945Y-102980487D01*
X109630942Y-102980505D01*
X109599500Y-103259568D01*
X105310499Y-103259568D01*
X105310499Y-102524992D01*
X105299999Y-102422203D01*
X105244814Y-102255666D01*
X105152712Y-102106344D01*
X105028656Y-101982288D01*
X104879334Y-101890186D01*
X104712797Y-101835001D01*
X104712795Y-101835000D01*
X104610010Y-101824500D01*
X102549998Y-101824500D01*
X102549981Y-101824501D01*
X102447203Y-101835000D01*
X102447200Y-101835001D01*
X102280668Y-101890185D01*
X102280663Y-101890187D01*
X102131342Y-101982289D01*
X102007289Y-102106342D01*
X101915187Y-102255663D01*
X101915186Y-102255666D01*
X101860001Y-102422203D01*
X101860001Y-102422204D01*
X101860000Y-102422204D01*
X101849500Y-102524983D01*
X98900000Y-102524983D01*
X98900000Y-102150000D01*
X99600000Y-102150000D01*
X99600000Y-101901508D01*
X99599999Y-101901504D01*
X99561572Y-101708318D01*
X99561569Y-101708306D01*
X99486192Y-101526328D01*
X99486185Y-101526315D01*
X99376751Y-101362537D01*
X99376748Y-101362533D01*
X99237466Y-101223251D01*
X99237462Y-101223248D01*
X99073684Y-101113814D01*
X99073671Y-101113807D01*
X98891691Y-101038429D01*
X98891683Y-101038427D01*
X98850000Y-101030135D01*
X98850000Y-101833011D01*
X98840060Y-101815795D01*
X98784205Y-101759940D01*
X98715796Y-101720444D01*
X98639496Y-101700000D01*
X98560504Y-101700000D01*
X98484204Y-101720444D01*
X98415795Y-101759940D01*
X98359940Y-101815795D01*
X98350000Y-101833011D01*
X98350000Y-101030136D01*
X98349999Y-101030135D01*
X98308316Y-101038427D01*
X98308308Y-101038429D01*
X98126328Y-101113807D01*
X98126315Y-101113814D01*
X97962537Y-101223248D01*
X97962533Y-101223251D01*
X97823251Y-101362533D01*
X97823248Y-101362537D01*
X97713814Y-101526315D01*
X97713807Y-101526328D01*
X97638430Y-101708306D01*
X97638427Y-101708318D01*
X97600000Y-101901504D01*
X90959999Y-101901504D01*
X90921572Y-101708318D01*
X90921569Y-101708306D01*
X90846192Y-101526328D01*
X90846185Y-101526315D01*
X90736751Y-101362537D01*
X90736748Y-101362533D01*
X90597466Y-101223251D01*
X90597462Y-101223248D01*
X90433684Y-101113814D01*
X90433671Y-101113807D01*
X90251691Y-101038429D01*
X90251683Y-101038427D01*
X90210000Y-101030135D01*
X90210000Y-101833011D01*
X90200060Y-101815795D01*
X90144205Y-101759940D01*
X90075796Y-101720444D01*
X89999496Y-101700000D01*
X89920504Y-101700000D01*
X89844204Y-101720444D01*
X89775795Y-101759940D01*
X89719940Y-101815795D01*
X89710000Y-101833011D01*
X89710000Y-101030136D01*
X89709999Y-101030135D01*
X89668316Y-101038427D01*
X89668308Y-101038429D01*
X89486328Y-101113807D01*
X89486315Y-101113814D01*
X89322537Y-101223248D01*
X89322533Y-101223251D01*
X89183251Y-101362533D01*
X89183248Y-101362537D01*
X89073814Y-101526315D01*
X89073807Y-101526328D01*
X88998430Y-101708306D01*
X88998427Y-101708318D01*
X88960000Y-101901504D01*
X48068957Y-101901504D01*
X48100500Y-101702352D01*
X48100500Y-101497648D01*
X48068477Y-101295466D01*
X48005220Y-101100781D01*
X48005218Y-101100778D01*
X48005218Y-101100776D01*
X47971503Y-101034607D01*
X47912287Y-100918390D01*
X47897070Y-100897445D01*
X47791971Y-100752786D01*
X47647213Y-100608028D01*
X47481613Y-100487715D01*
X47481612Y-100487714D01*
X47481610Y-100487713D01*
X47424653Y-100458691D01*
X47299223Y-100394781D01*
X47279551Y-100388389D01*
X103979500Y-100388389D01*
X103979500Y-100561611D01*
X104006598Y-100732701D01*
X104060127Y-100897445D01*
X104138768Y-101051788D01*
X104240586Y-101191928D01*
X104363072Y-101314414D01*
X104503212Y-101416232D01*
X104657555Y-101494873D01*
X104822299Y-101548402D01*
X104993389Y-101575500D01*
X104993390Y-101575500D01*
X105166610Y-101575500D01*
X105166611Y-101575500D01*
X105337701Y-101548402D01*
X105502445Y-101494873D01*
X105656788Y-101416232D01*
X105796928Y-101314414D01*
X105919414Y-101191928D01*
X106021232Y-101051788D01*
X106099873Y-100897445D01*
X106153402Y-100732701D01*
X106180500Y-100561611D01*
X106180500Y-100388389D01*
X106153402Y-100217299D01*
X106099873Y-100052555D01*
X106021232Y-99898212D01*
X105919414Y-99758072D01*
X105796928Y-99635586D01*
X105656788Y-99533768D01*
X105502445Y-99455127D01*
X105337701Y-99401598D01*
X105337699Y-99401597D01*
X105337698Y-99401597D01*
X105206271Y-99380781D01*
X105166611Y-99374500D01*
X104993389Y-99374500D01*
X104953728Y-99380781D01*
X104822302Y-99401597D01*
X104657552Y-99455128D01*
X104503211Y-99533768D01*
X104423256Y-99591859D01*
X104363072Y-99635586D01*
X104363070Y-99635588D01*
X104363069Y-99635588D01*
X104240588Y-99758069D01*
X104240588Y-99758070D01*
X104240586Y-99758072D01*
X104210158Y-99799952D01*
X104138768Y-99898211D01*
X104060128Y-100052552D01*
X104006597Y-100217302D01*
X103988507Y-100331522D01*
X103979500Y-100388389D01*
X47279551Y-100388389D01*
X47104534Y-100331522D01*
X46929995Y-100303878D01*
X46902352Y-100299500D01*
X46697648Y-100299500D01*
X46673329Y-100303351D01*
X46495465Y-100331522D01*
X46300776Y-100394781D01*
X46118386Y-100487715D01*
X45952786Y-100608028D01*
X45808028Y-100752786D01*
X45687715Y-100918386D01*
X45594781Y-101100776D01*
X45531522Y-101295465D01*
X45499500Y-101497648D01*
X44106248Y-101497648D01*
X44106912Y-101485823D01*
X44106912Y-101485822D01*
X44110820Y-101416231D01*
X44117084Y-101304693D01*
X44118638Y-101290898D01*
X44167015Y-101006167D01*
X44170109Y-100992615D01*
X44241563Y-100744596D01*
X44250061Y-100715096D01*
X44254653Y-100701975D01*
X44293565Y-100608034D01*
X44365175Y-100435151D01*
X44371195Y-100422651D01*
X44510902Y-100169869D01*
X44518297Y-100158101D01*
X44685428Y-99922551D01*
X44694079Y-99911704D01*
X44886527Y-99696356D01*
X44896358Y-99686526D01*
X45111704Y-99494079D01*
X45122551Y-99485428D01*
X45358106Y-99318293D01*
X45369869Y-99310902D01*
X45622651Y-99171195D01*
X45635151Y-99165175D01*
X45901979Y-99054651D01*
X45915096Y-99050061D01*
X46192621Y-98970107D01*
X46206167Y-98967015D01*
X46490898Y-98918638D01*
X46504691Y-98917084D01*
X46796528Y-98900695D01*
X46803481Y-98900500D01*
X46847595Y-98900500D01*
X140152405Y-98900500D01*
X140196519Y-98900500D01*
X140203472Y-98900695D01*
G37*
%TD.AperFunction*%
%TD*%
M02*
