%TF.GenerationSoftware,KiCad,Pcbnew,9.0.8*%
%TF.CreationDate,2026-04-16T23:26:07+02:00*%
%TF.ProjectId,project,70726f6a-6563-4742-9e6b-696361645f70,rev?*%
%TF.SameCoordinates,Original*%
%TF.FileFunction,Other,User*%
%FSLAX46Y46*%
G04 Gerber Fmt 4.6, Leading zero omitted, Abs format (unit mm)*
G04 Created by KiCad (PCBNEW 9.0.8) date 2026-04-16 23:26:07*
%MOMM*%
%LPD*%
G01*
G04 APERTURE LIST*
%ADD10C,0.050000*%
%ADD11C,0.152400*%
G04 APERTURE END LIST*
%TO.C,L2*%
D10*
X118350000Y-117250000D02*
X116650000Y-117250000D01*
X116650000Y-120750000D01*
X118350000Y-120750000D01*
X118350000Y-117250000D01*
%TO.C,J9*%
X60575000Y-140210000D02*
X60575000Y-148810000D01*
X60575000Y-140210000D02*
X67425000Y-140210000D01*
X67425000Y-148810000D02*
X60575000Y-148810000D01*
X67425000Y-148810000D02*
X67425000Y-140210000D01*
%TO.C,H1*%
X142450000Y-149800000D02*
G75*
G02*
X137950000Y-149800000I-2250000J0D01*
G01*
X137950000Y-149800000D02*
G75*
G02*
X142450000Y-149800000I2250000J0D01*
G01*
%TO.C,R28*%
X67920000Y-131350000D02*
X71280000Y-131350000D01*
X71280000Y-133250000D01*
X67920000Y-133250000D01*
X67920000Y-131350000D01*
%TO.C,J8*%
X99600000Y-108235000D02*
X88960000Y-108235000D01*
X88960000Y-99295000D01*
X99600000Y-99295000D01*
X99600000Y-108235000D01*
%TO.C,J20*%
X79700000Y-110650000D02*
X79700000Y-121750000D01*
X79700000Y-110650000D02*
X86700000Y-110650000D01*
X86700000Y-121750000D02*
X79700000Y-121750000D01*
X86700000Y-121750000D02*
X86700000Y-110650000D01*
%TO.C,R1*%
X85550000Y-105120000D02*
X83650000Y-105120000D01*
X83650000Y-108480000D01*
X85550000Y-108480000D01*
X85550000Y-105120000D01*
%TO.C,C18*%
X87729800Y-134680000D02*
X84329800Y-134680000D01*
X84329800Y-132720000D01*
X87729800Y-132720000D01*
X87729800Y-134680000D01*
%TO.C,R21*%
X121750000Y-133320000D02*
X119850000Y-133320000D01*
X119850000Y-136680000D01*
X121750000Y-136680000D01*
X121750000Y-133320000D01*
%TO.C,R12*%
X121780000Y-105550000D02*
X118420000Y-105550000D01*
X118420000Y-103650000D01*
X121780000Y-103650000D01*
X121780000Y-105550000D01*
%TO.C,C1*%
X56330000Y-100245000D02*
X54870000Y-100245000D01*
X54870000Y-103205000D01*
X56330000Y-103205000D01*
X56330000Y-100245000D01*
%TO.C,R7*%
X71880000Y-147450000D02*
X68520000Y-147450000D01*
X68520000Y-145550000D01*
X71880000Y-145550000D01*
X71880000Y-147450000D01*
%TO.C,J2*%
X107100000Y-142700000D02*
X107100000Y-152200000D01*
X108400000Y-141000000D02*
X107100000Y-142700000D01*
X112000000Y-141000000D02*
X108400000Y-141000000D01*
X112000000Y-141000000D02*
X113300000Y-142700000D01*
X113300000Y-142700000D02*
X113300000Y-152200000D01*
X113300000Y-152200000D02*
X107100000Y-152200000D01*
%TO.C,J13*%
X96570000Y-122800000D02*
X96570000Y-115950000D01*
X96570000Y-122800000D02*
X105170000Y-122800000D01*
X105170000Y-115950000D02*
X96570000Y-115950000D01*
X105170000Y-115950000D02*
X105170000Y-122800000D01*
%TO.C,R10*%
X87550000Y-105120000D02*
X85650000Y-105120000D01*
X85650000Y-108480000D01*
X87550000Y-108480000D01*
X87550000Y-105120000D01*
%TO.C,VR1*%
X99335000Y-125750000D02*
X99335000Y-129450000D01*
X99335000Y-129450000D02*
X102785000Y-129450000D01*
X102785000Y-125750000D02*
X99335000Y-125750000D01*
X102785000Y-129450000D02*
X102785000Y-125750000D01*
%TO.C,R20*%
X121692500Y-113950000D02*
X118332500Y-113950000D01*
X118332500Y-112050000D01*
X121692500Y-112050000D01*
X121692500Y-113950000D01*
%TO.C,C26*%
X57130000Y-104495000D02*
X55670000Y-104495000D01*
X55670000Y-107455000D01*
X57130000Y-107455000D01*
X57130000Y-104495000D01*
%TO.C,C17*%
X116130000Y-132120000D02*
X114670000Y-132120000D01*
X114670000Y-135080000D01*
X116130000Y-135080000D01*
X116130000Y-132120000D01*
D11*
%TO.C,U2*%
X126744900Y-119567900D02*
X126744900Y-125232100D01*
X126744900Y-125232100D02*
X143000900Y-125232100D01*
X143000900Y-119567900D02*
X126744900Y-119567900D01*
X143000900Y-125232100D02*
X143000900Y-119567900D01*
%TO.C,R11*%
D10*
X117650000Y-146992500D02*
X119550000Y-146992500D01*
X119550000Y-143632500D01*
X117650000Y-143632500D01*
X117650000Y-146992500D01*
%TO.C,C3*%
X87729800Y-132480000D02*
X84329800Y-132480000D01*
X84329800Y-130520000D01*
X87729800Y-130520000D01*
X87729800Y-132480000D01*
%TO.C,C22*%
X86319800Y-143850000D02*
X84359800Y-143850000D01*
X84359800Y-147250000D01*
X86319800Y-147250000D01*
X86319800Y-143850000D01*
%TO.C,R16*%
X52750000Y-109320000D02*
X50850000Y-109320000D01*
X50850000Y-112680000D01*
X52750000Y-112680000D01*
X52750000Y-109320000D01*
%TO.C,C9*%
X80705000Y-105230000D02*
X77745000Y-105230000D01*
X77745000Y-103770000D01*
X80705000Y-103770000D01*
X80705000Y-105230000D01*
%TO.C,R9*%
X107940000Y-124750000D02*
X104580000Y-124750000D01*
X104580000Y-122850000D01*
X107940000Y-122850000D01*
X107940000Y-124750000D01*
%TO.C,C4*%
X88599800Y-140350000D02*
X86639800Y-140350000D01*
X86639800Y-143750000D01*
X88599800Y-143750000D01*
X88599800Y-140350000D01*
%TO.C,J5*%
X56250000Y-138600000D02*
X56250000Y-131600000D01*
X56250000Y-138600000D02*
X67350000Y-138600000D01*
X67350000Y-131600000D02*
X56250000Y-131600000D01*
X67350000Y-131600000D02*
X67350000Y-138600000D01*
%TO.C,C16-2*%
X116980000Y-143550000D02*
X115020000Y-143550000D01*
X115020000Y-146950000D01*
X116980000Y-146950000D01*
X116980000Y-143550000D01*
%TO.C,C11*%
X100160000Y-123220000D02*
X103560000Y-123220000D01*
X103560000Y-125180000D01*
X100160000Y-125180000D01*
X100160000Y-123220000D01*
%TO.C,R17*%
X71120000Y-120450000D02*
X74480000Y-120450000D01*
X74480000Y-122350000D01*
X71120000Y-122350000D01*
X71120000Y-120450000D01*
%TO.C,R22*%
X121050000Y-150680000D02*
X122950000Y-150680000D01*
X122950000Y-147320000D01*
X121050000Y-147320000D01*
X121050000Y-150680000D01*
%TO.C,J10*%
X52600000Y-140210000D02*
X52600000Y-148810000D01*
X52600000Y-140210000D02*
X59450000Y-140210000D01*
X59450000Y-148810000D02*
X52600000Y-148810000D01*
X59450000Y-148810000D02*
X59450000Y-140210000D01*
%TO.C,U1*%
X52730000Y-87050000D02*
X52730000Y-98550000D01*
X52730000Y-87050000D02*
X81230000Y-87050000D01*
X52730000Y-98550000D02*
X57230000Y-98550000D01*
X57230000Y-112550000D02*
X57230000Y-98550000D01*
X57230000Y-112550000D02*
X76730000Y-112550000D01*
X76730000Y-98550000D02*
X76730000Y-112550000D01*
X76730000Y-98550000D02*
X81230000Y-98550000D01*
X81230000Y-87050000D02*
X81230000Y-98550000D01*
%TO.C,R3*%
X56790000Y-109520000D02*
X54890000Y-109520000D01*
X54890000Y-112880000D01*
X56790000Y-112880000D01*
X56790000Y-109520000D01*
%TO.C,C6*%
X124020000Y-120200000D02*
X125980000Y-120200000D01*
X125980000Y-116800000D01*
X124020000Y-116800000D01*
X124020000Y-120200000D01*
%TO.C,R24*%
X123680000Y-125950000D02*
X120320000Y-125950000D01*
X120320000Y-124050000D01*
X123680000Y-124050000D01*
X123680000Y-125950000D01*
%TO.C,C15*%
X116980000Y-147350000D02*
X115020000Y-147350000D01*
X115020000Y-150750000D01*
X116980000Y-150750000D01*
X116980000Y-147350000D01*
%TO.C,J18*%
X72400000Y-144700000D02*
X72400000Y-148300000D01*
X72400000Y-144700000D02*
X74100000Y-143400000D01*
X72400000Y-148300000D02*
X74100000Y-149600000D01*
X74100000Y-143400000D02*
X83600000Y-143400000D01*
X74100000Y-149600000D02*
X83600000Y-149600000D01*
X83600000Y-143400000D02*
X83600000Y-149600000D01*
D11*
%TO.C,U3*%
X74920500Y-132737500D02*
X76533400Y-132737500D01*
X74920500Y-142262500D02*
X74920500Y-132737500D01*
X74920500Y-142262500D02*
X76533400Y-142262500D01*
X76533400Y-132077100D02*
X82426200Y-132077100D01*
X76533400Y-132737500D02*
X76533400Y-132077100D01*
X76533400Y-142922900D02*
X76533400Y-142262500D01*
X82426200Y-132077100D02*
X82426200Y-132737500D01*
X82426200Y-142262500D02*
X82426200Y-142922900D01*
X82426200Y-142922900D02*
X76533400Y-142922900D01*
X84039100Y-132737500D02*
X82426200Y-132737500D01*
X84039100Y-132737500D02*
X84039100Y-142262500D01*
X84039100Y-142262500D02*
X82426200Y-142262500D01*
D10*
%TO.C,J19*%
X88400000Y-110710000D02*
X88400000Y-121810000D01*
X88400000Y-110710000D02*
X95400000Y-110710000D01*
X95400000Y-121810000D02*
X88400000Y-121810000D01*
X95400000Y-121810000D02*
X95400000Y-110710000D01*
%TO.C,J14*%
X97170000Y-132150000D02*
X89970000Y-132150000D01*
X89970000Y-123150000D01*
X97170000Y-123150000D01*
X97170000Y-132150000D01*
%TO.C,C23*%
X86409800Y-146855000D02*
X87869800Y-146855000D01*
X87869800Y-143895000D01*
X86409800Y-143895000D01*
X86409800Y-146855000D01*
%TO.C,X1*%
X70425000Y-136275000D02*
X73175000Y-136275000D01*
X70425000Y-139525000D02*
X70425000Y-136275000D01*
X73175000Y-136275000D02*
X73175000Y-139525000D01*
X73175000Y-139525000D02*
X70425000Y-139525000D01*
D11*
%TO.C,J7*%
X125494300Y-135697800D02*
X125494300Y-145502200D01*
X125494300Y-145502200D02*
X134492758Y-145502200D01*
X126800701Y-135249000D02*
X126800701Y-135697800D01*
X126800701Y-135697800D02*
X125494300Y-135697800D01*
X130102701Y-135249000D02*
X126800701Y-135249000D01*
X130102701Y-135697800D02*
X130102701Y-135249000D01*
X134492758Y-145502200D02*
X134492758Y-145951018D01*
X134492758Y-145951018D02*
X137210558Y-145951018D01*
X136492800Y-135249000D02*
X136492800Y-135697800D01*
X136492800Y-135697800D02*
X130102701Y-135697800D01*
X137210558Y-145502200D02*
X140505700Y-145502200D01*
X137210558Y-145951018D02*
X137210558Y-145502200D01*
X139210600Y-135249000D02*
X136492800Y-135249000D01*
X139210600Y-135697800D02*
X139210600Y-135249000D01*
X140505700Y-135697800D02*
X139210600Y-135697800D01*
X140505700Y-137844100D02*
X140505700Y-135697800D01*
X140505700Y-143355900D02*
X142994900Y-143355900D01*
X140505700Y-145502200D02*
X140505700Y-143355900D01*
X142994900Y-137844100D02*
X140505700Y-137844100D01*
X142994900Y-143355900D02*
X142994900Y-137844100D01*
%TO.C,R8*%
D10*
X119550000Y-147320000D02*
X117650000Y-147320000D01*
X117650000Y-150680000D01*
X119550000Y-150680000D01*
X119550000Y-147320000D01*
%TO.C,R14*%
X121780000Y-107550000D02*
X118420000Y-107550000D01*
X118420000Y-105650000D01*
X121780000Y-105650000D01*
X121780000Y-107550000D01*
%TO.C,C24*%
X90209800Y-140745000D02*
X88749800Y-140745000D01*
X88749800Y-143705000D01*
X90209800Y-143705000D01*
X90209800Y-140745000D01*
%TO.C,H3*%
X49050000Y-101600000D02*
G75*
G02*
X44550000Y-101600000I-2250000J0D01*
G01*
X44550000Y-101600000D02*
G75*
G02*
X49050000Y-101600000I2250000J0D01*
G01*
%TO.C,J1*%
X106900000Y-131200000D02*
X106900000Y-140700000D01*
X108200000Y-129500000D02*
X106900000Y-131200000D01*
X111800000Y-129500000D02*
X108200000Y-129500000D01*
X111800000Y-129500000D02*
X113100000Y-131200000D01*
X113100000Y-131200000D02*
X113100000Y-140700000D01*
X113100000Y-140700000D02*
X106900000Y-140700000D01*
%TO.C,C16*%
X54380000Y-104550000D02*
X52420000Y-104550000D01*
X52420000Y-107950000D01*
X54380000Y-107950000D01*
X54380000Y-104550000D01*
%TO.C,R6*%
X116650000Y-134880000D02*
X118550000Y-134880000D01*
X118550000Y-131520000D01*
X116650000Y-131520000D01*
X116650000Y-134880000D01*
%TO.C,D3*%
X105530000Y-129680000D02*
X107790000Y-129680000D01*
X107790000Y-125120000D01*
X105530000Y-125120000D01*
X105530000Y-129680000D01*
%TO.C,C7*%
X119020000Y-114770000D02*
X121980000Y-114770000D01*
X121980000Y-116230000D01*
X119020000Y-116230000D01*
X119020000Y-114770000D01*
%TO.C,RC2*%
X124950000Y-131520000D02*
X123050000Y-131520000D01*
X123050000Y-134880000D01*
X124950000Y-134880000D01*
X124950000Y-131520000D01*
%TO.C,C2*%
X54530000Y-100245000D02*
X53070000Y-100245000D01*
X53070000Y-103205000D01*
X54530000Y-103205000D01*
X54530000Y-100245000D01*
%TO.C,J3*%
X127450000Y-106850000D02*
X131050000Y-106850000D01*
X127450000Y-116350000D02*
X127450000Y-106850000D01*
X131050000Y-104450000D02*
X134350000Y-104450000D01*
X131050000Y-106850000D02*
X131050000Y-104450000D01*
X131050000Y-116350000D02*
X127450000Y-116350000D01*
X131050000Y-118750000D02*
X131050000Y-116350000D01*
X134350000Y-104450000D02*
X134350000Y-106850000D01*
X134350000Y-106850000D02*
X137150000Y-106850000D01*
X134350000Y-116350000D02*
X134350000Y-118750000D01*
X134350000Y-118750000D02*
X131050000Y-118750000D01*
X137150000Y-104450000D02*
X140450000Y-104450000D01*
X137150000Y-106850000D02*
X137150000Y-104450000D01*
X137150000Y-116350000D02*
X134350000Y-116350000D01*
X137150000Y-118750000D02*
X137150000Y-116350000D01*
X140450000Y-104450000D02*
X140450000Y-106850000D01*
X140450000Y-106850000D02*
X142750000Y-106850000D01*
X140450000Y-116350000D02*
X140450000Y-118750000D01*
X140450000Y-118750000D02*
X137150000Y-118750000D01*
X142750000Y-106850000D02*
X142750000Y-116350000D01*
X142750000Y-116350000D02*
X140450000Y-116350000D01*
%TO.C,D2*%
X72280000Y-135830000D02*
X67720000Y-135830000D01*
X67720000Y-133570000D01*
X72280000Y-133570000D01*
X72280000Y-135830000D01*
%TO.C,R18*%
X120320000Y-121600000D02*
X123680000Y-121600000D01*
X123680000Y-123500000D01*
X120320000Y-123500000D01*
X120320000Y-121600000D01*
%TO.C,R23*%
X122950000Y-143520000D02*
X121050000Y-143520000D01*
X121050000Y-146880000D01*
X122950000Y-146880000D01*
X122950000Y-143520000D01*
%TO.C,H2*%
X49050000Y-149800000D02*
G75*
G02*
X44550000Y-149800000I-2250000J0D01*
G01*
X44550000Y-149800000D02*
G75*
G02*
X49050000Y-149800000I2250000J0D01*
G01*
%TO.C,R15*%
X110954800Y-120577101D02*
X107594800Y-120577101D01*
X107594800Y-118677101D01*
X110954800Y-118677101D01*
X110954800Y-120577101D01*
%TO.C,J17*%
X141650000Y-125600000D02*
X132650000Y-125600000D01*
X132650000Y-132800000D01*
X141650000Y-132800000D01*
X141650000Y-125600000D01*
%TO.C,C20*%
X121800000Y-101580000D02*
X118400000Y-101580000D01*
X118400000Y-99620000D01*
X121800000Y-99620000D01*
X121800000Y-101580000D01*
%TO.C,J4*%
X109000000Y-100300000D02*
X115200000Y-100300000D01*
X109000000Y-109800000D02*
X109000000Y-100300000D01*
X110300000Y-111500000D02*
X109000000Y-109800000D01*
X110300000Y-111500000D02*
X113900000Y-111500000D01*
X113900000Y-111500000D02*
X115200000Y-109800000D01*
X115200000Y-109800000D02*
X115200000Y-100300000D01*
%TO.C,J12*%
X53740000Y-114900000D02*
X53740000Y-118500000D01*
X53740000Y-114900000D02*
X55440000Y-113600000D01*
X53740000Y-118500000D02*
X55440000Y-119800000D01*
X55440000Y-113600000D02*
X64940000Y-113600000D01*
X55440000Y-119800000D02*
X64940000Y-119800000D01*
X64940000Y-113600000D02*
X64940000Y-119800000D01*
%TO.C,R5*%
X118550000Y-134920000D02*
X116650000Y-134920000D01*
X116650000Y-138280000D01*
X118550000Y-138280000D01*
X118550000Y-134920000D01*
%TO.C,R3-1*%
X52550000Y-100145000D02*
X50650000Y-100145000D01*
X50650000Y-103505000D01*
X52550000Y-103505000D01*
X52550000Y-100145000D01*
%TO.C,C21*%
X121712500Y-111980000D02*
X118312500Y-111980000D01*
X118312500Y-110020000D01*
X121712500Y-110020000D01*
X121712500Y-111980000D01*
%TO.C,FB2*%
X92129800Y-142250000D02*
X90429800Y-142250000D01*
X90429800Y-145750000D01*
X92129800Y-145750000D01*
X92129800Y-142250000D01*
%TO.C,J6*%
X66570000Y-120360000D02*
X66570000Y-113360000D01*
X66570000Y-120360000D02*
X77670000Y-120360000D01*
X77670000Y-113360000D02*
X66570000Y-113360000D01*
X77670000Y-113360000D02*
X77670000Y-120360000D01*
%TO.C,Y1*%
X77475000Y-100825000D02*
X80725000Y-100825000D01*
X77475000Y-103575000D02*
X77475000Y-100825000D01*
X80725000Y-100825000D02*
X80725000Y-103575000D01*
X80725000Y-103575000D02*
X77475000Y-103575000D01*
%TO.C,R4*%
X67720000Y-120450000D02*
X71080000Y-120450000D01*
X71080000Y-122350000D01*
X67720000Y-122350000D01*
X67720000Y-120450000D01*
%TO.C,J16*%
X118850000Y-122000000D02*
X109850000Y-122000000D01*
X109850000Y-129200000D01*
X118850000Y-129200000D01*
X118850000Y-122000000D01*
%TO.C,R13*%
X121780000Y-109550000D02*
X118420000Y-109550000D01*
X118420000Y-107650000D01*
X121780000Y-107650000D01*
X121780000Y-109550000D01*
%TO.C,H4*%
X142450000Y-101600000D02*
G75*
G02*
X137950000Y-101600000I-2250000J0D01*
G01*
X137950000Y-101600000D02*
G75*
G02*
X142450000Y-101600000I2250000J0D01*
G01*
%TO.C,C16-1*%
X116130000Y-135320000D02*
X114670000Y-135320000D01*
X114670000Y-138280000D01*
X116130000Y-138280000D01*
X116130000Y-135320000D01*
%TO.C,C5*%
X103080000Y-129500000D02*
X105040000Y-129500000D01*
X105040000Y-126100000D01*
X103080000Y-126100000D01*
X103080000Y-129500000D01*
%TO.C,C10*%
X81730000Y-103780000D02*
X83190000Y-103780000D01*
X83190000Y-100820000D01*
X81730000Y-100820000D01*
X81730000Y-103780000D01*
%TO.C,C19*%
X71680000Y-145030000D02*
X68720000Y-145030000D01*
X68720000Y-143570000D01*
X71680000Y-143570000D01*
X71680000Y-145030000D01*
%TO.C,C8*%
X114270000Y-117980000D02*
X115730000Y-117980000D01*
X115730000Y-115020000D01*
X114270000Y-115020000D01*
X114270000Y-117980000D01*
%TO.C,RC1*%
X124950000Y-135120000D02*
X123050000Y-135120000D01*
X123050000Y-138480000D01*
X124950000Y-138480000D01*
X124950000Y-135120000D01*
%TO.C,J15*%
X107180000Y-108175000D02*
X99980000Y-108175000D01*
X99980000Y-99175000D01*
X107180000Y-99175000D01*
X107180000Y-108175000D01*
%TO.C,C25*%
X90059800Y-143850000D02*
X88099800Y-143850000D01*
X88099800Y-147250000D01*
X90059800Y-147250000D01*
X90059800Y-143850000D01*
%TO.C,D1*%
X115867300Y-120557101D02*
X111307300Y-120557101D01*
X111307300Y-118297101D01*
X115867300Y-118297101D01*
X115867300Y-120557101D01*
%TO.C,J11*%
X48400000Y-125900000D02*
X54600000Y-125900000D01*
X48400000Y-135400000D02*
X48400000Y-125900000D01*
X49700000Y-137100000D02*
X48400000Y-135400000D01*
X49700000Y-137100000D02*
X53300000Y-137100000D01*
X53300000Y-137100000D02*
X54600000Y-135400000D01*
X54600000Y-135400000D02*
X54600000Y-125900000D01*
%TO.C,R19*%
X121780000Y-103550000D02*
X118420000Y-103550000D01*
X118420000Y-101650000D01*
X121780000Y-101650000D01*
X121780000Y-103550000D01*
%TD*%
M02*
