M48
; DRILL file {KiCad 9.0.8} date 2026-04-16T23:26:22+0200
; FORMAT={-:-/ absolute / metric / decimal}
; #@! TF.CreationDate,2026-04-16T23:26:22+02:00
; #@! TF.GenerationSoftware,Kicad,Pcbnew,9.0.8
; #@! TF.FileFunction,Plated,1,2,PTH
FMAT,2
METRIC
; #@! TA.AperFunction,Plated,PTH,ComponentDrill
T1C0.200
; #@! TA.AperFunction,Plated,PTH,ViaDrill
T2C0.300
; #@! TA.AperFunction,Plated,PTH,ComponentDrill
T3C0.600
; #@! TA.AperFunction,Plated,PTH,ComponentDrill
T4C1.020
; #@! TA.AperFunction,Plated,PTH,ComponentDrill
T5C1.651
; #@! TA.AperFunction,Plated,PTH,ComponentDrill
T6C1.702
; #@! TA.AperFunction,Plated,PTH,ComponentDrill
T7C1.800
; #@! TA.AperFunction,Plated,PTH,ComponentDrill
T8C2.700
%
G90
G05
T1
X66.84Y-105.05
X66.84Y-106.15
X67.39Y-104.5
X67.39Y-105.6
X67.39Y-106.7
X67.94Y-105.05
X67.94Y-106.15
X68.49Y-104.5
X68.49Y-105.6
X68.49Y-106.7
X69.04Y-105.05
X69.04Y-106.15
T2
X45.5Y-106.0
X45.5Y-107.0
X45.5Y-108.0
X45.5Y-109.0
X45.5Y-110.0
X45.5Y-111.0
X45.5Y-112.0
X45.5Y-113.0
X45.5Y-114.0
X45.5Y-115.0
X45.5Y-116.0
X45.5Y-117.0
X45.5Y-118.0
X45.5Y-119.0
X45.5Y-120.0
X45.5Y-121.0
X45.5Y-122.0
X45.5Y-123.0
X45.5Y-124.0
X45.5Y-125.0
X45.5Y-126.0
X45.5Y-127.0
X45.5Y-128.0
X45.5Y-129.0
X45.5Y-130.0
X45.5Y-131.0
X45.5Y-132.0
X45.5Y-133.0
X45.5Y-134.0
X45.5Y-135.0
X45.5Y-136.5
X45.5Y-137.5
X45.5Y-138.5
X45.5Y-139.5
X45.5Y-140.5
X45.5Y-141.5
X45.5Y-142.5
X45.5Y-143.5
X45.5Y-144.5
X45.5Y-145.5
X46.5Y-106.0
X46.5Y-107.0
X46.5Y-108.0
X46.5Y-109.0
X46.5Y-110.0
X46.5Y-111.0
X46.5Y-112.0
X46.5Y-113.0
X46.5Y-114.0
X46.5Y-115.0
X46.5Y-116.0
X46.5Y-117.0
X46.5Y-118.0
X46.5Y-119.0
X46.5Y-120.0
X46.5Y-121.0
X46.5Y-122.0
X46.5Y-123.0
X46.5Y-124.0
X46.5Y-125.0
X46.5Y-126.0
X46.5Y-127.0
X46.5Y-128.0
X46.5Y-129.0
X46.5Y-130.0
X46.5Y-131.0
X46.5Y-132.0
X46.5Y-133.0
X46.5Y-134.0
X46.5Y-135.0
X46.5Y-136.5
X46.5Y-137.5
X46.5Y-138.5
X46.5Y-139.5
X46.5Y-140.5
X46.5Y-141.5
X46.5Y-142.5
X46.5Y-143.5
X46.5Y-144.5
X46.5Y-145.5
X47.5Y-106.0
X47.5Y-107.0
X47.5Y-108.0
X47.5Y-109.0
X47.5Y-110.0
X47.5Y-111.0
X47.5Y-112.0
X47.5Y-113.0
X47.5Y-114.0
X47.5Y-115.0
X47.5Y-116.0
X47.5Y-117.0
X47.5Y-118.0
X47.5Y-119.0
X47.5Y-120.0
X47.5Y-121.0
X47.5Y-122.0
X47.5Y-123.0
X47.5Y-124.0
X47.5Y-125.0
X47.5Y-126.0
X47.5Y-127.0
X47.5Y-128.0
X47.5Y-129.0
X47.5Y-130.0
X47.5Y-134.0
X47.5Y-135.0
X47.5Y-136.5
X47.5Y-137.5
X47.5Y-138.5
X47.5Y-139.5
X47.5Y-140.5
X47.5Y-141.5
X47.5Y-142.5
X47.5Y-143.5
X47.5Y-144.5
X47.5Y-145.5
X48.5Y-106.0
X48.5Y-107.0
X48.5Y-108.0
X48.5Y-109.0
X48.5Y-110.0
X48.5Y-111.0
X48.5Y-112.0
X48.5Y-113.0
X48.5Y-114.0
X48.5Y-115.0
X48.5Y-116.0
X48.5Y-117.0
X48.5Y-118.0
X48.5Y-119.0
X48.5Y-120.0
X48.5Y-121.0
X48.5Y-122.0
X48.5Y-123.0
X48.5Y-124.0
X48.5Y-125.0
X48.5Y-136.5
X48.5Y-137.5
X48.5Y-138.5
X48.5Y-139.5
X48.5Y-140.5
X48.5Y-141.5
X48.5Y-142.5
X48.5Y-143.5
X48.5Y-144.5
X48.5Y-145.5
X48.5Y-146.5
X48.5Y-147.5
X49.5Y-108.2
X49.5Y-137.5
X49.5Y-138.5
X49.5Y-139.5
X49.5Y-140.5
X49.5Y-141.5
X49.5Y-142.5
X49.5Y-143.5
X49.5Y-144.5
X49.5Y-145.5
X49.5Y-146.5
X50.0Y-148.0
X50.0Y-149.0
X50.0Y-150.0
X50.0Y-151.0
X50.5Y-113.0
X50.5Y-114.0
X50.5Y-115.0
X50.5Y-116.0
X50.5Y-117.0
X50.5Y-118.0
X50.5Y-119.0
X50.5Y-120.0
X50.5Y-121.0
X50.5Y-122.0
X50.5Y-123.0
X50.5Y-124.0
X50.5Y-125.0
X50.5Y-137.5
X50.5Y-138.5
X50.5Y-139.5
X50.5Y-140.5
X50.5Y-141.5
X50.5Y-142.5
X50.5Y-143.5
X50.5Y-144.5
X50.5Y-145.5
X50.5Y-146.5
X51.0Y-148.0
X51.0Y-149.0
X51.0Y-150.0
X51.0Y-151.0
X51.25Y-106.0
X51.5Y-119.0
X51.5Y-120.0
X51.5Y-121.0
X51.5Y-122.0
X51.5Y-123.0
X51.5Y-124.0
X51.5Y-125.0
X51.9Y-145.9
X52.0Y-150.0
X52.0Y-151.0
X52.5Y-119.0
X52.5Y-120.0
X52.5Y-121.0
X52.5Y-122.0
X52.5Y-123.0
X52.5Y-124.0
X52.5Y-125.0
X52.5Y-137.5
X52.5Y-138.5
X52.5Y-139.5
X53.5Y-121.0
X53.5Y-122.0
X53.5Y-123.0
X53.5Y-124.0
X53.5Y-125.0
X53.5Y-137.5
X53.5Y-138.5
X53.5Y-139.5
X54.0Y-109.5
X54.0Y-113.0
X54.0Y-114.0
X54.0Y-152.0
X54.5Y-121.0
X54.5Y-122.0
X54.5Y-123.0
X54.5Y-124.0
X54.5Y-125.0
X54.5Y-137.5
X54.5Y-138.5
X54.5Y-139.5
X54.6Y-103.925
X55.0Y-150.0
X55.0Y-151.0
X55.0Y-152.0
X55.5Y-122.0
X55.5Y-123.0
X55.5Y-124.0
X55.5Y-125.0
X55.5Y-126.5
X55.5Y-127.5
X55.5Y-128.5
X55.5Y-129.5
X55.5Y-130.5
X55.5Y-131.5
X55.5Y-132.5
X55.5Y-133.5
X55.5Y-134.5
X55.5Y-135.5
X55.5Y-136.5
X55.5Y-137.5
X55.5Y-138.5
X55.5Y-139.5
X56.0Y-108.0
X56.0Y-150.0
X56.0Y-151.0
X56.0Y-152.0
X56.5Y-123.0
X56.5Y-124.0
X56.5Y-125.0
X56.5Y-126.5
X56.5Y-127.5
X56.5Y-128.5
X56.5Y-129.5
X56.5Y-130.5
X57.0Y-150.0
X57.0Y-151.0
X57.0Y-152.0
X57.5Y-124.0
X57.5Y-125.0
X57.5Y-126.5
X57.5Y-127.5
X57.5Y-128.5
X57.5Y-129.5
X57.5Y-130.5
X57.8Y-113.2
X58.0Y-150.0
X58.0Y-151.0
X58.0Y-152.0
X58.5Y-126.5
X58.5Y-127.5
X58.5Y-128.5
X58.5Y-129.5
X58.5Y-130.5
X59.0Y-150.0
X59.0Y-151.0
X59.0Y-152.0
X59.5Y-126.5
X59.5Y-127.5
X59.5Y-128.5
X59.5Y-129.5
X59.5Y-130.5
X60.0Y-122.0
X60.0Y-143.0
X60.0Y-144.0
X60.0Y-145.0
X60.0Y-146.0
X60.0Y-147.0
X60.0Y-148.0
X60.0Y-150.0
X60.0Y-151.0
X60.0Y-152.0
X60.5Y-127.5
X60.5Y-128.5
X60.5Y-129.5
X60.5Y-130.5
X61.0Y-110.0
X61.0Y-111.0
X61.0Y-122.0
X61.0Y-123.0
X61.0Y-151.0
X61.0Y-152.0
X62.0Y-104.5
X62.0Y-105.5
X62.0Y-111.0
X62.0Y-122.0
X62.0Y-123.0
X62.0Y-124.0
X62.0Y-152.0
X62.6Y-126.0
X63.0Y-103.5
X63.0Y-104.5
X63.0Y-105.5
X63.0Y-106.5
X63.0Y-123.0
X63.0Y-124.0
X63.0Y-150.0
X63.0Y-151.0
X63.0Y-152.0
X63.765Y-125.0
X64.0Y-103.5
X64.0Y-104.5
X64.0Y-105.5
X64.0Y-106.5
X64.0Y-121.0
X64.0Y-151.0
X64.0Y-152.0
X64.952Y-106.481
X64.952Y-107.481
X64.965Y-129.965
X65.0Y-102.5
X65.0Y-103.5
X65.0Y-104.5
X65.0Y-105.5
X65.0Y-151.0
X65.0Y-152.0
X65.4Y-147.9
X65.955Y-130.955
X65.994Y-108.504
X65.994Y-109.504
X66.0Y-102.5
X66.0Y-103.5
X66.0Y-104.5
X66.0Y-105.5
X66.0Y-106.5
X66.0Y-107.5
X66.0Y-151.0
X66.0Y-152.0
X67.0Y-102.5
X67.0Y-103.5
X67.0Y-108.5
X67.0Y-109.5
X67.0Y-151.0
X67.0Y-152.0
X67.1Y-125.0
X68.0Y-102.5
X68.0Y-103.5
X68.0Y-151.0
X68.0Y-152.0
X68.5Y-127.5
X68.5Y-128.5
X68.5Y-129.5
X69.0Y-102.5
X69.0Y-103.5
X69.0Y-151.0
X69.0Y-152.0
X69.5Y-127.5
X69.5Y-128.5
X69.5Y-129.5
X70.0Y-101.5
X70.0Y-102.5
X70.0Y-103.5
X70.0Y-104.5
X70.0Y-105.5
X70.0Y-106.5
X70.0Y-151.0
X70.0Y-152.0
X70.5Y-127.5
X70.5Y-128.5
X70.5Y-129.5
X71.0Y-102.5
X71.0Y-103.5
X71.0Y-104.5
X71.0Y-105.5
X71.0Y-151.0
X71.0Y-152.0
X71.2Y-124.8
X71.5Y-126.5
X71.5Y-127.5
X71.5Y-128.5
X71.5Y-129.5
X71.9Y-143.4
X72.0Y-103.5
X72.0Y-104.5
X72.0Y-151.0
X72.0Y-152.0
X72.4Y-131.4
X72.5Y-125.5
X72.5Y-126.5
X72.5Y-127.5
X72.5Y-128.5
X72.5Y-129.5
X72.94Y-132.484
X72.94Y-133.484
X73.0Y-151.0
X73.0Y-152.0
X73.5Y-125.5
X73.5Y-126.5
X73.5Y-127.5
X73.5Y-128.5
X73.5Y-129.5
X74.0Y-130.5
X74.0Y-131.5
X74.0Y-132.5
X74.0Y-133.5
X74.0Y-151.0
X74.0Y-152.0
X74.5Y-125.5
X74.5Y-126.5
X74.5Y-127.5
X74.5Y-128.5
X74.5Y-129.5
X75.0Y-121.0
X75.0Y-122.0
X75.0Y-123.0
X75.0Y-151.0
X75.0Y-152.0
X75.5Y-125.5
X75.5Y-126.5
X75.5Y-127.5
X75.5Y-128.5
X75.5Y-129.5
X76.0Y-121.0
X76.0Y-122.0
X76.0Y-123.0
X76.0Y-151.0
X76.0Y-152.0
X76.5Y-125.5
X76.5Y-126.5
X76.5Y-127.5
X76.5Y-128.5
X76.5Y-129.5
X77.0Y-122.0
X77.0Y-123.0
X77.0Y-151.0
X77.0Y-152.0
X77.5Y-125.5
X77.5Y-126.5
X77.5Y-127.5
X77.5Y-128.5
X78.0Y-114.5
X78.0Y-115.5
X78.0Y-116.5
X78.0Y-117.5
X78.0Y-123.0
X78.0Y-138.5
X78.0Y-139.5
X78.0Y-140.5
X78.0Y-141.5
X78.0Y-151.0
X78.0Y-152.0
X78.5Y-110.0
X78.5Y-125.5
X78.5Y-126.5
X78.5Y-127.5
X79.0Y-113.5
X79.0Y-114.5
X79.0Y-115.5
X79.0Y-116.5
X79.0Y-117.5
X79.0Y-118.5
X79.0Y-119.5
X79.0Y-120.5
X79.0Y-138.5
X79.0Y-139.5
X79.0Y-140.5
X79.0Y-141.5
X79.0Y-151.0
X79.0Y-152.0
X79.5Y-110.0
X79.5Y-125.5
X79.5Y-126.5
X79.5Y-127.5
X80.0Y-140.5
X80.0Y-141.5
X80.0Y-151.0
X80.0Y-152.0
X80.5Y-110.0
X80.5Y-125.5
X80.5Y-126.5
X80.5Y-127.5
X80.9Y-141.4
X81.0Y-151.0
X81.0Y-152.0
X81.5Y-110.0
X81.5Y-112.5
X81.5Y-113.5
X81.5Y-114.5
X81.5Y-115.5
X81.5Y-116.5
X81.5Y-117.5
X81.5Y-118.5
X81.5Y-119.5
X81.5Y-120.5
X81.5Y-125.5
X81.5Y-126.5
X81.5Y-127.5
X81.596Y-134.861
X81.6Y-107.6
X82.0Y-122.5
X82.0Y-123.5
X82.0Y-151.0
X82.0Y-152.0
X82.5Y-110.0
X82.5Y-125.5
X82.5Y-126.5
X82.5Y-127.5
X83.0Y-122.5
X83.0Y-123.5
X83.0Y-150.0
X83.0Y-151.0
X83.0Y-152.0
X83.5Y-110.0
X83.5Y-125.5
X83.5Y-126.5
X83.5Y-127.5
X83.6Y-99.4
X83.6Y-100.4
X83.6Y-101.4
X84.0Y-122.5
X84.0Y-123.5
X84.0Y-150.0
X84.0Y-151.0
X84.0Y-152.0
X84.5Y-110.0
X84.5Y-125.5
X84.5Y-126.5
X84.6Y-99.4
X84.6Y-100.4
X84.6Y-101.4
X85.0Y-122.5
X85.0Y-123.5
X85.0Y-151.0
X85.0Y-152.0
X85.2Y-143.1
X85.5Y-99.6
X85.5Y-100.6
X85.5Y-101.6
X85.5Y-102.5
X85.5Y-110.0
X85.5Y-125.5
X86.0Y-122.5
X86.0Y-123.5
X86.0Y-151.0
X86.0Y-152.0
X86.5Y-99.6
X86.5Y-100.6
X86.5Y-101.6
X86.5Y-102.5
X86.5Y-124.6
X86.9Y-139.4
X87.0Y-122.5
X87.0Y-123.5
X87.0Y-150.0
X87.0Y-151.0
X87.0Y-152.0
X87.5Y-100.5
X87.5Y-101.5
X87.5Y-102.5
X87.5Y-110.0
X88.0Y-111.5
X88.0Y-112.5
X88.0Y-113.5
X88.0Y-114.5
X88.0Y-115.5
X88.0Y-116.5
X88.0Y-117.5
X88.0Y-118.5
X88.0Y-119.5
X88.0Y-120.5
X88.0Y-150.0
X88.0Y-151.0
X88.0Y-152.0
X88.4Y-132.4
X88.5Y-100.5
X88.5Y-101.5
X88.5Y-102.5
X88.5Y-110.0
X88.8Y-125.8
X89.0Y-151.0
X89.0Y-152.0
X89.5Y-110.0
X90.0Y-112.5
X90.0Y-113.5
X90.0Y-114.5
X90.0Y-115.5
X90.0Y-116.5
X90.0Y-117.5
X90.0Y-118.5
X90.0Y-119.5
X90.0Y-120.5
X90.0Y-148.0
X90.0Y-149.0
X90.0Y-150.0
X90.0Y-151.0
X90.0Y-152.0
X90.4Y-146.9
X90.5Y-110.0
X91.0Y-134.5
X91.0Y-135.5
X91.0Y-149.0
X91.0Y-150.0
X91.0Y-151.0
X91.0Y-152.0
X91.5Y-100.5
X91.5Y-101.5
X91.5Y-102.5
X91.5Y-110.0
X92.0Y-132.5
X92.0Y-133.5
X92.0Y-134.5
X92.0Y-135.5
X92.0Y-136.5
X92.0Y-149.0
X92.0Y-150.0
X92.0Y-151.0
X92.0Y-152.0
X92.5Y-110.0
X93.0Y-132.5
X93.0Y-133.5
X93.0Y-134.5
X93.0Y-135.5
X93.0Y-136.5
X93.0Y-146.0
X93.0Y-148.0
X93.0Y-149.0
X93.0Y-150.0
X93.0Y-151.0
X93.0Y-152.0
X93.5Y-110.0
X94.0Y-132.5
X94.0Y-133.5
X94.0Y-134.5
X94.0Y-135.5
X94.0Y-136.5
X94.0Y-145.0
X94.0Y-148.0
X94.0Y-149.0
X94.0Y-150.0
X94.0Y-151.0
X94.0Y-152.0
X94.5Y-110.0
X95.0Y-132.5
X95.0Y-133.5
X95.0Y-134.5
X95.0Y-135.5
X95.0Y-136.5
X95.0Y-145.0
X95.0Y-146.0
X95.0Y-148.0
X95.0Y-149.0
X95.0Y-150.0
X95.0Y-151.0
X95.0Y-152.0
X95.5Y-110.0
X96.0Y-120.5
X96.0Y-121.5
X96.0Y-132.5
X96.0Y-133.5
X96.0Y-134.5
X96.0Y-135.5
X96.0Y-136.5
X96.0Y-145.0
X96.0Y-146.0
X96.0Y-148.0
X96.0Y-149.0
X96.0Y-150.0
X96.0Y-151.0
X96.0Y-152.0
X96.5Y-110.0
X96.5Y-111.0
X96.5Y-112.0
X97.0Y-100.5
X97.0Y-101.5
X97.0Y-102.5
X97.0Y-114.5
X97.0Y-115.5
X97.0Y-132.5
X97.0Y-133.5
X97.0Y-134.5
X97.0Y-135.5
X97.0Y-136.5
X97.0Y-145.0
X97.0Y-146.0
X97.0Y-148.0
X97.0Y-149.0
X97.0Y-150.0
X97.0Y-151.0
X97.0Y-152.0
X98.0Y-132.5
X98.0Y-133.5
X98.0Y-134.5
X98.0Y-135.5
X98.0Y-136.5
X98.0Y-145.0
X98.0Y-146.0
X98.0Y-148.0
X98.0Y-149.0
X98.0Y-150.0
X98.0Y-151.0
X98.0Y-152.0
X98.4Y-108.8
X98.4Y-115.4
X99.0Y-132.5
X99.0Y-133.5
X99.0Y-134.5
X99.0Y-135.5
X99.0Y-136.5
X99.0Y-145.0
X99.0Y-146.0
X99.0Y-148.0
X99.0Y-149.0
X99.0Y-150.0
X99.0Y-151.0
X99.0Y-152.0
X100.0Y-114.0
X100.0Y-131.5
X100.0Y-132.5
X100.0Y-133.5
X100.0Y-134.5
X100.0Y-135.5
X100.0Y-136.5
X100.0Y-145.0
X100.0Y-146.0
X100.0Y-148.0
X100.0Y-149.0
X100.0Y-150.0
X100.0Y-151.0
X100.0Y-152.0
X101.0Y-113.0
X101.0Y-114.0
X101.0Y-132.5
X101.0Y-133.5
X101.0Y-134.5
X101.0Y-135.5
X101.0Y-136.5
X101.0Y-145.0
X101.0Y-146.0
X101.0Y-148.0
X101.0Y-149.0
X101.0Y-150.0
X101.0Y-151.0
X101.0Y-152.0
X102.0Y-112.0
X102.0Y-113.0
X102.0Y-114.0
X102.0Y-132.5
X102.0Y-133.5
X102.0Y-134.5
X102.0Y-135.5
X102.0Y-136.5
X102.0Y-145.0
X102.0Y-146.0
X102.0Y-150.0
X102.0Y-151.0
X102.0Y-152.0
X103.0Y-111.0
X103.0Y-112.0
X103.0Y-113.0
X103.0Y-114.0
X103.0Y-132.5
X103.0Y-133.5
X103.0Y-134.5
X103.0Y-135.5
X103.0Y-136.5
X103.0Y-145.0
X103.0Y-146.0
X103.0Y-150.0
X103.0Y-151.0
X103.0Y-152.0
X104.0Y-111.0
X104.0Y-112.0
X104.0Y-113.0
X104.0Y-114.0
X104.0Y-115.0
X104.0Y-123.5
X104.0Y-132.5
X104.0Y-133.5
X104.0Y-134.5
X104.0Y-135.5
X104.0Y-136.5
X104.0Y-145.0
X104.0Y-146.0
X104.0Y-150.0
X104.0Y-151.0
X104.0Y-152.0
X105.0Y-111.0
X105.0Y-112.0
X105.0Y-113.0
X105.0Y-114.0
X105.0Y-115.0
X105.0Y-132.5
X105.0Y-133.5
X105.0Y-134.5
X105.0Y-135.5
X105.0Y-136.5
X105.0Y-150.0
X105.0Y-151.0
X105.0Y-152.0
X106.0Y-109.5
X106.0Y-110.5
X106.0Y-111.5
X106.0Y-112.5
X106.0Y-113.5
X106.0Y-114.5
X106.0Y-115.5
X106.0Y-116.5
X106.0Y-117.5
X106.0Y-150.0
X106.0Y-151.0
X106.0Y-152.0
X107.0Y-109.5
X107.0Y-110.5
X107.0Y-111.5
X107.0Y-112.5
X107.0Y-113.5
X107.0Y-114.5
X107.0Y-115.5
X107.0Y-116.5
X107.0Y-117.5
X108.0Y-109.5
X108.0Y-110.5
X108.0Y-111.5
X108.0Y-112.5
X108.0Y-113.5
X108.0Y-114.5
X108.0Y-115.5
X108.0Y-116.5
X108.0Y-117.5
X108.0Y-121.0
X109.0Y-109.5
X109.0Y-110.5
X109.0Y-111.5
X109.0Y-112.5
X109.0Y-113.5
X109.0Y-114.5
X109.0Y-115.5
X109.0Y-116.5
X109.0Y-117.5
X110.0Y-113.5
X110.0Y-114.5
X110.0Y-115.5
X110.0Y-116.5
X110.0Y-117.5
X111.0Y-114.5
X111.0Y-115.5
X111.0Y-116.5
X111.0Y-117.5
X112.0Y-114.5
X112.0Y-115.5
X112.0Y-116.5
X112.0Y-117.5
X113.0Y-112.5
X113.0Y-113.5
X113.0Y-114.5
X114.0Y-112.5
X114.0Y-113.5
X114.0Y-114.5
X114.5Y-135.0
X114.5Y-147.0
X114.5Y-151.0
X114.5Y-152.0
X115.5Y-115.0
X115.5Y-139.0
X115.5Y-140.0
X115.5Y-141.0
X115.5Y-142.0
X115.5Y-143.0
X115.5Y-152.0
X116.5Y-139.0
X116.5Y-140.0
X116.5Y-141.0
X116.5Y-142.0
X116.5Y-143.0
X116.5Y-152.0
X117.5Y-139.0
X117.5Y-140.0
X117.5Y-141.0
X117.5Y-142.0
X117.5Y-143.0
X117.5Y-152.0
X118.5Y-130.0
X118.5Y-131.0
X118.5Y-139.0
X118.5Y-140.0
X118.5Y-141.0
X118.5Y-142.0
X118.5Y-143.0
X118.5Y-152.0
X119.5Y-129.0
X119.5Y-130.0
X119.5Y-131.0
X119.5Y-139.0
X119.5Y-140.0
X119.5Y-141.0
X119.5Y-142.0
X119.5Y-143.0
X120.5Y-121.0
X120.5Y-127.5
X120.5Y-129.0
X120.5Y-130.0
X120.5Y-131.0
X120.5Y-140.0
X120.5Y-141.0
X120.5Y-142.0
X120.5Y-143.0
X121.5Y-128.0
X121.5Y-129.0
X121.5Y-130.0
X121.5Y-131.0
X121.5Y-139.0
X121.5Y-140.0
X121.5Y-141.0
X121.5Y-142.0
X121.5Y-143.0
X122.0Y-151.0
X122.2Y-111.0
X122.4Y-100.6
X122.5Y-128.0
X122.5Y-129.0
X122.5Y-130.0
X122.5Y-131.0
X122.5Y-139.0
X122.5Y-140.0
X122.5Y-141.0
X122.5Y-142.0
X122.5Y-143.0
X123.0Y-102.0
X123.0Y-103.0
X123.0Y-104.0
X123.0Y-105.0
X123.5Y-107.5
X123.5Y-108.5
X123.5Y-109.5
X123.5Y-110.5
X123.5Y-111.5
X123.5Y-112.5
X123.5Y-128.0
X123.5Y-129.0
X123.5Y-130.0
X123.5Y-131.0
X123.5Y-139.0
X123.5Y-140.0
X123.5Y-141.0
X123.5Y-142.0
X123.5Y-143.0
X124.0Y-101.0
X124.0Y-102.0
X124.0Y-103.0
X124.0Y-104.0
X124.0Y-105.0
X124.5Y-107.5
X124.5Y-108.5
X124.5Y-109.5
X124.5Y-110.5
X124.5Y-111.5
X124.5Y-112.5
X124.5Y-113.5
X124.5Y-122.0
X124.5Y-123.0
X124.5Y-124.0
X124.5Y-125.0
X124.5Y-126.0
X124.5Y-127.0
X124.5Y-128.0
X124.5Y-129.0
X124.5Y-130.0
X124.5Y-131.0
X124.5Y-139.0
X124.5Y-140.0
X124.5Y-141.0
X124.5Y-142.0
X124.5Y-143.0
X125.0Y-101.0
X125.0Y-102.0
X125.0Y-103.0
X125.0Y-104.0
X125.0Y-105.0
X125.0Y-116.0
X125.0Y-135.0
X125.5Y-107.5
X125.5Y-108.5
X125.5Y-109.5
X125.5Y-110.5
X125.5Y-111.5
X125.5Y-112.5
X125.5Y-113.5
X125.5Y-114.5
X125.5Y-122.0
X125.5Y-123.0
X125.5Y-124.0
X125.5Y-125.0
X125.5Y-126.0
X125.5Y-127.0
X125.5Y-128.0
X125.5Y-129.0
X125.5Y-130.0
X125.5Y-131.0
X125.5Y-133.5
X125.5Y-148.5
X125.5Y-149.5
X125.5Y-150.5
X125.5Y-151.5
X126.0Y-101.0
X126.0Y-102.0
X126.0Y-103.0
X126.0Y-104.0
X126.0Y-105.0
X126.4Y-144.2
X126.5Y-107.5
X126.5Y-108.5
X126.5Y-109.5
X126.5Y-110.5
X126.5Y-111.5
X126.5Y-112.5
X126.5Y-113.5
X126.5Y-114.5
X126.5Y-117.5
X126.5Y-118.5
X126.5Y-126.0
X126.5Y-127.0
X126.5Y-128.0
X126.5Y-129.0
X126.5Y-130.0
X126.5Y-131.0
X126.5Y-133.5
X126.5Y-134.5
X126.5Y-147.5
X126.5Y-148.5
X126.5Y-149.5
X126.5Y-150.5
X126.5Y-151.5
X127.0Y-101.0
X127.0Y-102.0
X127.0Y-103.0
X127.0Y-104.0
X127.0Y-105.0
X127.5Y-117.5
X127.5Y-118.5
X127.5Y-126.0
X127.5Y-127.0
X127.5Y-128.0
X127.5Y-129.0
X127.5Y-130.0
X127.5Y-131.0
X127.5Y-133.5
X127.5Y-134.5
X127.5Y-147.5
X127.5Y-148.5
X127.5Y-149.5
X127.5Y-150.5
X127.5Y-151.5
X128.0Y-101.0
X128.0Y-102.0
X128.0Y-103.0
X128.0Y-104.0
X128.0Y-105.0
X128.5Y-117.5
X128.5Y-118.5
X128.5Y-126.0
X128.5Y-127.0
X128.5Y-128.0
X128.5Y-129.0
X128.5Y-130.0
X128.5Y-131.0
X128.5Y-133.5
X128.5Y-134.5
X128.5Y-146.5
X128.5Y-147.5
X128.5Y-148.5
X128.5Y-149.5
X128.5Y-150.5
X128.5Y-151.5
X129.0Y-101.0
X129.0Y-102.0
X129.0Y-103.0
X129.0Y-104.0
X129.0Y-105.0
X129.0Y-144.2
X129.5Y-117.5
X129.5Y-118.5
X129.5Y-126.0
X129.5Y-127.0
X129.5Y-128.0
X129.5Y-129.0
X129.5Y-130.0
X129.5Y-131.0
X129.5Y-134.5
X129.5Y-146.5
X129.5Y-147.5
X129.5Y-148.5
X129.5Y-149.5
X129.5Y-150.5
X129.5Y-151.5
X130.424Y-117.477
X130.424Y-118.477
X130.5Y-126.0
X130.5Y-127.0
X130.5Y-128.0
X130.5Y-129.0
X130.5Y-130.0
X130.5Y-131.0
X130.5Y-146.5
X130.5Y-147.5
X130.5Y-148.5
X130.5Y-149.5
X130.5Y-150.5
X130.5Y-151.5
X131.5Y-126.0
X131.5Y-127.0
X131.5Y-128.0
X131.5Y-129.0
X131.5Y-130.0
X131.5Y-131.0
X131.5Y-146.5
X131.5Y-147.5
X131.5Y-148.5
X131.5Y-149.5
X131.5Y-150.5
X131.5Y-151.5
X132.0Y-99.5
X132.0Y-100.5
X132.0Y-101.5
X132.0Y-102.5
X132.0Y-103.5
X132.5Y-146.5
X132.5Y-147.5
X132.5Y-148.5
X132.5Y-149.5
X132.5Y-150.5
X132.5Y-151.5
X133.0Y-99.5
X133.0Y-100.5
X133.0Y-101.5
X133.0Y-102.5
X133.0Y-103.5
X133.5Y-133.5
X133.5Y-134.5
X133.5Y-146.5
X133.5Y-147.5
X133.5Y-148.5
X133.5Y-149.5
X133.5Y-150.5
X133.5Y-151.5
X134.0Y-99.5
X134.0Y-100.5
X134.0Y-101.5
X134.0Y-102.5
X134.0Y-103.5
X134.5Y-133.5
X134.5Y-134.5
X134.5Y-147.5
X134.5Y-148.5
X134.5Y-149.5
X134.5Y-150.5
X134.5Y-151.5
X135.0Y-100.5
X135.0Y-101.5
X135.0Y-102.5
X135.0Y-103.5
X135.0Y-104.5
X135.5Y-133.5
X135.5Y-134.5
X135.5Y-147.5
X135.5Y-148.5
X135.5Y-149.5
X135.5Y-150.5
X135.5Y-151.5
X136.0Y-103.5
X136.0Y-104.5
X136.0Y-117.0
X136.0Y-118.0
X136.0Y-136.5
X136.0Y-137.5
X136.5Y-133.5
X136.5Y-147.5
X136.5Y-148.5
X136.5Y-149.5
X136.5Y-150.5
X136.5Y-151.5
X137.0Y-103.5
X137.0Y-135.0
X137.5Y-133.5
X138.5Y-133.5
X139.0Y-115.5
X139.5Y-133.5
X139.5Y-136.5
X139.5Y-137.5
X140.0Y-112.5
X140.0Y-113.5
X140.0Y-114.5
X140.0Y-115.5
X140.5Y-117.5
X140.5Y-133.5
X140.5Y-134.5
X141.0Y-114.5
X141.0Y-115.5
X141.487Y-135.538
X141.487Y-136.538
X141.5Y-133.5
X141.5Y-134.5
X142.0Y-115.5
T4
X56.4Y-141.96
X56.4Y-144.5
X56.4Y-147.04
X57.98Y-135.4
X60.52Y-135.4
X63.06Y-135.4
X63.625Y-141.98
X63.625Y-144.52
X63.625Y-147.06
X65.6Y-135.4
X68.32Y-116.56
X70.86Y-116.56
X73.4Y-116.56
X75.94Y-116.56
X83.5Y-112.4
X83.5Y-114.94
X83.5Y-117.48
X83.5Y-120.02
X92.2Y-112.46
X92.2Y-115.0
X92.2Y-117.54
X92.2Y-120.08
X98.32Y-119.0
X100.86Y-119.0
X103.4Y-119.0
T5
X129.423Y-122.387
X134.873Y-122.387
X140.323Y-122.387
T6
X129.752Y-140.6
X136.752Y-140.6
T7
X93.57Y-127.7
X103.58Y-103.725
X114.4Y-125.6
X137.2Y-129.2
T8
X51.5Y-129.0
X51.5Y-134.0
X56.84Y-116.7
X61.84Y-116.7
X75.5Y-146.5
X80.5Y-146.5
X110.0Y-132.6
X110.0Y-137.6
X110.2Y-144.1
X110.2Y-149.1
X112.1Y-103.4
X112.1Y-108.4
T3
G00X89.96Y-102.8
M15
G01X89.96Y-102.0
M16
G05
G00X89.96Y-107.13
M15
G01X89.96Y-106.03
M16
G05
G00X98.6Y-102.8
M15
G01X98.6Y-102.0
M16
G05
G00X98.6Y-107.13
M15
G01X98.6Y-106.03
M16
G05
M30
